<?xml version="1.0" encoding="utf-8"?>
<!DOCTYPE svg PUBLIC "-//W3C//DTD SVG 1.1//EN" "http://www.w3.org/Graphics/SVG/1.1/DTD/svg11.dtd">
<svg class="marks" width="1357" height="647" viewBox="0 0 1357 647" version="1.1" xmlns="http://www.w3.org/2000/svg" xmlns:xlink="http://www.w3.org/1999/xlink"><rect width="1357" height="647" fill="white"></rect><g fill="none" stroke-miterlimit="10" transform="translate(39,10)"><g class="mark-group role-frame root" role="graphics-object" aria-roledescription="group mark container"><g transform="translate(0,0)"><path class="background" aria-hidden="true" d="M0.5,0.5h1200v600h-1200Z" stroke="#ddd"></path><g><g class="mark-group role-axis" aria-hidden="true"><g transform="translate(0.5,600.5)"><path class="background" aria-hidden="true" d="M0,0h0v0h0Z" pointer-events="none"></path><g><g class="mark-rule role-axis-grid" pointer-events="none"><line transform="translate(0,-600)" x2="0" y2="600" stroke="#ddd" stroke-width="1" opacity="1"></line><line transform="translate(46,-600)" x2="0" y2="600" stroke="#ddd" stroke-width="1" opacity="1"></line><line transform="translate(92,-600)" x2="0" y2="600" stroke="#ddd" stroke-width="1" opacity="1"></line><line transform="translate(138,-600)" x2="0" y2="600" stroke="#ddd" stroke-width="1" opacity="1"></line><line transform="translate(185,-600)" x2="0" y2="600" stroke="#ddd" stroke-width="1" opacity="1"></line><line transform="translate(231,-600)" x2="0" y2="600" stroke="#ddd" stroke-width="1" opacity="1"></line><line transform="translate(277,-600)" x2="0" y2="600" stroke="#ddd" stroke-width="1" opacity="1"></line><line transform="translate(323,-600)" x2="0" y2="600" stroke="#ddd" stroke-width="1" opacity="1"></line><line transform="translate(369,-600)" x2="0" y2="600" stroke="#ddd" stroke-width="1" opacity="1"></line><line transform="translate(415,-600)" x2="0" y2="600" stroke="#ddd" stroke-width="1" opacity="1"></line><line transform="translate(462,-600)" x2="0" y2="600" stroke="#ddd" stroke-width="1" opacity="1"></line><line transform="translate(508,-600)" x2="0" y2="600" stroke="#ddd" stroke-width="1" opacity="1"></line><line transform="translate(554,-600)" x2="0" y2="600" stroke="#ddd" stroke-width="1" opacity="1"></line><line transform="translate(600,-600)" x2="0" y2="600" stroke="#ddd" stroke-width="1" opacity="1"></line><line transform="translate(646,-600)" x2="0" y2="600" stroke="#ddd" stroke-width="1" opacity="1"></line><line transform="translate(692,-600)" x2="0" y2="600" stroke="#ddd" stroke-width="1" opacity="1"></line><line transform="translate(738,-600)" x2="0" y2="600" stroke="#ddd" stroke-width="1" opacity="1"></line><line transform="translate(785,-600)" x2="0" y2="600" stroke="#ddd" stroke-width="1" opacity="1"></line><line transform="translate(831,-600)" x2="0" y2="600" stroke="#ddd" stroke-width="1" opacity="1"></line><line transform="translate(877,-600)" x2="0" y2="600" stroke="#ddd" stroke-width="1" opacity="1"></line><line transform="translate(923,-600)" x2="0" y2="600" stroke="#ddd" stroke-width="1" opacity="1"></line><line transform="translate(969,-600)" x2="0" y2="600" stroke="#ddd" stroke-width="1" opacity="1"></line><line transform="translate(1015,-600)" x2="0" y2="600" stroke="#ddd" stroke-width="1" opacity="1"></line><line transform="translate(1062,-600)" x2="0" y2="600" stroke="#ddd" stroke-width="1" opacity="1"></line><line transform="translate(1108,-600)" x2="0" y2="600" stroke="#ddd" stroke-width="1" opacity="1"></line><line transform="translate(1154,-600)" x2="0" y2="600" stroke="#ddd" stroke-width="1" opacity="1"></line><line transform="translate(1200,-600)" x2="0" y2="600" stroke="#ddd" stroke-width="1" opacity="1"></line></g></g><path class="foreground" aria-hidden="true" d="" pointer-events="none" display="none"></path></g></g><g class="mark-group role-axis" aria-hidden="true"><g transform="translate(0.5,0.5)"><path class="background" aria-hidden="true" d="M0,0h0v0h0Z" pointer-events="none"></path><g><g class="mark-rule role-axis-grid" pointer-events="none"><line transform="translate(0,600)" x2="1200" y2="0" stroke="#ddd" stroke-width="1" opacity="1"></line><line transform="translate(0,563)" x2="1200" y2="0" stroke="#ddd" stroke-width="1" opacity="1"></line><line transform="translate(0,525)" x2="1200" y2="0" stroke="#ddd" stroke-width="1" opacity="1"></line><line transform="translate(0,488)" x2="1200" y2="0" stroke="#ddd" stroke-width="1" opacity="1"></line><line transform="translate(0,450)" x2="1200" y2="0" stroke="#ddd" stroke-width="1" opacity="1"></line><line transform="translate(0,413)" x2="1200" y2="0" stroke="#ddd" stroke-width="1" opacity="1"></line><line transform="translate(0,375)" x2="1200" y2="0" stroke="#ddd" stroke-width="1" opacity="1"></line><line transform="translate(0,338)" x2="1200" y2="0" stroke="#ddd" stroke-width="1" opacity="1"></line><line transform="translate(0,300)" x2="1200" y2="0" stroke="#ddd" stroke-width="1" opacity="1"></line><line transform="translate(0,263)" x2="1200" y2="0" stroke="#ddd" stroke-width="1" opacity="1"></line><line transform="translate(0,225)" x2="1200" y2="0" stroke="#ddd" stroke-width="1" opacity="1"></line><line transform="translate(0,188)" x2="1200" y2="0" stroke="#ddd" stroke-width="1" opacity="1"></line><line transform="translate(0,150)" x2="1200" y2="0" stroke="#ddd" stroke-width="1" opacity="1"></line><line transform="translate(0,113)" x2="1200" y2="0" stroke="#ddd" stroke-width="1" opacity="1"></line><line transform="translate(0,75)" x2="1200" y2="0" stroke="#ddd" stroke-width="1" opacity="1"></line><line transform="translate(0,38)" x2="1200" y2="0" stroke="#ddd" stroke-width="1" opacity="1"></line><line transform="translate(0,0)" x2="1200" y2="0" stroke="#ddd" stroke-width="1" opacity="1"></line></g></g><path class="foreground" aria-hidden="true" d="" pointer-events="none" display="none"></path></g></g><g class="mark-group role-axis" role="graphics-symbol" aria-roledescription="axis" aria-label="X-axis titled 'Size' for a linear scale with values from 0 to 260"><g transform="translate(0.5,600.5)"><path class="background" aria-hidden="true" d="M0,0h0v0h0Z" pointer-events="none"></path><g><g class="mark-rule role-axis-tick" pointer-events="none"><line transform="translate(0,0)" x2="0" y2="5" stroke="#888" stroke-width="1" opacity="1"></line><line transform="translate(46,0)" x2="0" y2="5" stroke="#888" stroke-width="1" opacity="1"></line><line transform="translate(92,0)" x2="0" y2="5" stroke="#888" stroke-width="1" opacity="1"></line><line transform="translate(138,0)" x2="0" y2="5" stroke="#888" stroke-width="1" opacity="1"></line><line transform="translate(185,0)" x2="0" y2="5" stroke="#888" stroke-width="1" opacity="1"></line><line transform="translate(231,0)" x2="0" y2="5" stroke="#888" stroke-width="1" opacity="1"></line><line transform="translate(277,0)" x2="0" y2="5" stroke="#888" stroke-width="1" opacity="1"></line><line transform="translate(323,0)" x2="0" y2="5" stroke="#888" stroke-width="1" opacity="1"></line><line transform="translate(369,0)" x2="0" y2="5" stroke="#888" stroke-width="1" opacity="1"></line><line transform="translate(415,0)" x2="0" y2="5" stroke="#888" stroke-width="1" opacity="1"></line><line transform="translate(462,0)" x2="0" y2="5" stroke="#888" stroke-width="1" opacity="1"></line><line transform="translate(508,0)" x2="0" y2="5" stroke="#888" stroke-width="1" opacity="1"></line><line transform="translate(554,0)" x2="0" y2="5" stroke="#888" stroke-width="1" opacity="1"></line><line transform="translate(600,0)" x2="0" y2="5" stroke="#888" stroke-width="1" opacity="1"></line><line transform="translate(646,0)" x2="0" y2="5" stroke="#888" stroke-width="1" opacity="1"></line><line transform="translate(692,0)" x2="0" y2="5" stroke="#888" stroke-width="1" opacity="1"></line><line transform="translate(738,0)" x2="0" y2="5" stroke="#888" stroke-width="1" opacity="1"></line><line transform="translate(785,0)" x2="0" y2="5" stroke="#888" stroke-width="1" opacity="1"></line><line transform="translate(831,0)" x2="0" y2="5" stroke="#888" stroke-width="1" opacity="1"></line><line transform="translate(877,0)" x2="0" y2="5" stroke="#888" stroke-width="1" opacity="1"></line><line transform="translate(923,0)" x2="0" y2="5" stroke="#888" stroke-width="1" opacity="1"></line><line transform="translate(969,0)" x2="0" y2="5" stroke="#888" stroke-width="1" opacity="1"></line><line transform="translate(1015,0)" x2="0" y2="5" stroke="#888" stroke-width="1" opacity="1"></line><line transform="translate(1062,0)" x2="0" y2="5" stroke="#888" stroke-width="1" opacity="1"></line><line transform="translate(1108,0)" x2="0" y2="5" stroke="#888" stroke-width="1" opacity="1"></line><line transform="translate(1154,0)" x2="0" y2="5" stroke="#888" stroke-width="1" opacity="1"></line><line transform="translate(1200,0)" x2="0" y2="5" stroke="#888" stroke-width="1" opacity="1"></line></g><g class="mark-text role-axis-label" pointer-events="none"><text text-anchor="start" transform="translate(0,15)" font-family="sans-serif" font-size="10px" fill="#000" opacity="1">0</text><text text-anchor="middle" transform="translate(46.15384615384615,15)" font-family="sans-serif" font-size="10px" fill="#000" opacity="1">10</text><text text-anchor="middle" transform="translate(92.3076923076923,15)" font-family="sans-serif" font-size="10px" fill="#000" opacity="1">20</text><text text-anchor="middle" transform="translate(138.46153846153848,15)" font-family="sans-serif" font-size="10px" fill="#000" opacity="1">30</text><text text-anchor="middle" transform="translate(184.6153846153846,15)" font-family="sans-serif" font-size="10px" fill="#000" opacity="1">40</text><text text-anchor="middle" transform="translate(230.76923076923077,15)" font-family="sans-serif" font-size="10px" fill="#000" opacity="1">50</text><text text-anchor="middle" transform="translate(276.92307692307696,15)" font-family="sans-serif" font-size="10px" fill="#000" opacity="1">60</text><text text-anchor="middle" transform="translate(323.07692307692304,15)" font-family="sans-serif" font-size="10px" fill="#000" opacity="1">70</text><text text-anchor="middle" transform="translate(369.2307692307692,15)" font-family="sans-serif" font-size="10px" fill="#000" opacity="1">80</text><text text-anchor="middle" transform="translate(415.38461538461536,15)" font-family="sans-serif" font-size="10px" fill="#000" opacity="1">90</text><text text-anchor="middle" transform="translate(461.53846153846155,15)" font-family="sans-serif" font-size="10px" fill="#000" opacity="1">100</text><text text-anchor="middle" transform="translate(507.6923076923077,15)" font-family="sans-serif" font-size="10px" fill="#000" opacity="1">110</text><text text-anchor="middle" transform="translate(553.8461538461539,15)" font-family="sans-serif" font-size="10px" fill="#000" opacity="1">120</text><text text-anchor="middle" transform="translate(600,15)" font-family="sans-serif" font-size="10px" fill="#000" opacity="1">130</text><text text-anchor="middle" transform="translate(646.1538461538461,15)" font-family="sans-serif" font-size="10px" fill="#000" opacity="1">140</text><text text-anchor="middle" transform="translate(692.3076923076923,15)" font-family="sans-serif" font-size="10px" fill="#000" opacity="1">150</text><text text-anchor="middle" transform="translate(738.4615384615385,15)" font-family="sans-serif" font-size="10px" fill="#000" opacity="1">160</text><text text-anchor="middle" transform="translate(784.6153846153846,15)" font-family="sans-serif" font-size="10px" fill="#000" opacity="1">170</text><text text-anchor="middle" transform="translate(830.7692307692307,15)" font-family="sans-serif" font-size="10px" fill="#000" opacity="1">180</text><text text-anchor="middle" transform="translate(876.9230769230769,15)" font-family="sans-serif" font-size="10px" fill="#000" opacity="1">190</text><text text-anchor="middle" transform="translate(923.0769230769231,15)" font-family="sans-serif" font-size="10px" fill="#000" opacity="1">200</text><text text-anchor="middle" transform="translate(969.2307692307693,15)" font-family="sans-serif" font-size="10px" fill="#000" opacity="1">210</text><text text-anchor="middle" transform="translate(1015.3846153846154,15)" font-family="sans-serif" font-size="10px" fill="#000" opacity="1">220</text><text text-anchor="middle" transform="translate(1061.5384615384614,15)" font-family="sans-serif" font-size="10px" fill="#000" opacity="1">230</text><text text-anchor="middle" transform="translate(1107.6923076923078,15)" font-family="sans-serif" font-size="10px" fill="#000" opacity="1">240</text><text text-anchor="middle" transform="translate(1153.8461538461538,15)" font-family="sans-serif" font-size="10px" fill="#000" opacity="1">250</text><text text-anchor="end" transform="translate(1200,15)" font-family="sans-serif" font-size="10px" fill="#000" opacity="1">260</text></g><g class="mark-rule role-axis-domain" pointer-events="none"><line transform="translate(0,0)" x2="1200" y2="0" stroke="#888" stroke-width="1" opacity="1"></line></g><g class="mark-text role-axis-title" pointer-events="none"><text text-anchor="middle" transform="translate(600,30)" font-family="sans-serif" font-size="11px" font-weight="bold" fill="#000" opacity="1">Size</text></g></g><path class="foreground" aria-hidden="true" d="" pointer-events="none" display="none"></path></g></g><g class="mark-group role-axis" role="graphics-symbol" aria-roledescription="axis" aria-label="Y-axis titled 'GFLOPS' for a linear scale with values from 0 to 80"><g transform="translate(0.5,0.5)"><path class="background" aria-hidden="true" d="M0,0h0v0h0Z" pointer-events="none"></path><g><g class="mark-rule role-axis-tick" pointer-events="none"><line transform="translate(0,600)" x2="-5" y2="0" stroke="#888" stroke-width="1" opacity="1"></line><line transform="translate(0,563)" x2="-5" y2="0" stroke="#888" stroke-width="1" opacity="1"></line><line transform="translate(0,525)" x2="-5" y2="0" stroke="#888" stroke-width="1" opacity="1"></line><line transform="translate(0,488)" x2="-5" y2="0" stroke="#888" stroke-width="1" opacity="1"></line><line transform="translate(0,450)" x2="-5" y2="0" stroke="#888" stroke-width="1" opacity="1"></line><line transform="translate(0,413)" x2="-5" y2="0" stroke="#888" stroke-width="1" opacity="1"></line><line transform="translate(0,375)" x2="-5" y2="0" stroke="#888" stroke-width="1" opacity="1"></line><line transform="translate(0,338)" x2="-5" y2="0" stroke="#888" stroke-width="1" opacity="1"></line><line transform="translate(0,300)" x2="-5" y2="0" stroke="#888" stroke-width="1" opacity="1"></line><line transform="translate(0,263)" x2="-5" y2="0" stroke="#888" stroke-width="1" opacity="1"></line><line transform="translate(0,225)" x2="-5" y2="0" stroke="#888" stroke-width="1" opacity="1"></line><line transform="translate(0,188)" x2="-5" y2="0" stroke="#888" stroke-width="1" opacity="1"></line><line transform="translate(0,150)" x2="-5" y2="0" stroke="#888" stroke-width="1" opacity="1"></line><line transform="translate(0,113)" x2="-5" y2="0" stroke="#888" stroke-width="1" opacity="1"></line><line transform="translate(0,75)" x2="-5" y2="0" stroke="#888" stroke-width="1" opacity="1"></line><line transform="translate(0,38)" x2="-5" y2="0" stroke="#888" stroke-width="1" opacity="1"></line><line transform="translate(0,0)" x2="-5" y2="0" stroke="#888" stroke-width="1" opacity="1"></line></g><g class="mark-text role-axis-label" pointer-events="none"><text text-anchor="end" transform="translate(-7,603)" font-family="sans-serif" font-size="10px" fill="#000" opacity="1">0</text><text text-anchor="end" transform="translate(-7,565.5)" font-family="sans-serif" font-size="10px" fill="#000" opacity="1">5</text><text text-anchor="end" transform="translate(-7,528)" font-family="sans-serif" font-size="10px" fill="#000" opacity="1">10</text><text text-anchor="end" transform="translate(-7,490.5)" font-family="sans-serif" font-size="10px" fill="#000" opacity="1">15</text><text text-anchor="end" transform="translate(-7,453)" font-family="sans-serif" font-size="10px" fill="#000" opacity="1">20</text><text text-anchor="end" transform="translate(-7,415.5)" font-family="sans-serif" font-size="10px" fill="#000" opacity="1">25</text><text text-anchor="end" transform="translate(-7,378)" font-family="sans-serif" font-size="10px" fill="#000" opacity="1">30</text><text text-anchor="end" transform="translate(-7,340.5)" font-family="sans-serif" font-size="10px" fill="#000" opacity="1">35</text><text text-anchor="end" transform="translate(-7,303)" font-family="sans-serif" font-size="10px" fill="#000" opacity="1">40</text><text text-anchor="end" transform="translate(-7,265.5)" font-family="sans-serif" font-size="10px" fill="#000" opacity="1">45</text><text text-anchor="end" transform="translate(-7,228)" font-family="sans-serif" font-size="10px" fill="#000" opacity="1">50</text><text text-anchor="end" transform="translate(-7,190.5)" font-family="sans-serif" font-size="10px" fill="#000" opacity="1">55</text><text text-anchor="end" transform="translate(-7,153)" font-family="sans-serif" font-size="10px" fill="#000" opacity="1">60</text><text text-anchor="end" transform="translate(-7,115.5)" font-family="sans-serif" font-size="10px" fill="#000" opacity="1">65</text><text text-anchor="end" transform="translate(-7,78)" font-family="sans-serif" font-size="10px" fill="#000" opacity="1">70</text><text text-anchor="end" transform="translate(-7,40.5)" font-family="sans-serif" font-size="10px" fill="#000" opacity="1">75</text><text text-anchor="end" transform="translate(-7,3)" font-family="sans-serif" font-size="10px" fill="#000" opacity="1">80</text></g><g class="mark-rule role-axis-domain" pointer-events="none"><line transform="translate(0,600)" x2="0" y2="-600" stroke="#888" stroke-width="1" opacity="1"></line></g><g class="mark-text role-axis-title" pointer-events="none"><text text-anchor="middle" transform="translate(-23,300) rotate(-90) translate(0,-2)" font-family="sans-serif" font-size="11px" font-weight="bold" fill="#000" opacity="1">GFLOPS</text></g></g><path class="foreground" aria-hidden="true" d="" pointer-events="none" display="none"></path></g></g><g class="mark-group role-scope pathgroup" role="graphics-object" aria-roledescription="group mark container"><g transform="translate(0,0)"><path class="background" aria-hidden="true" d="M0,0h1200v600h-1200Z"></path><g><g class="mark-line role-mark marks" role="graphics-object" aria-roledescription="line mark container"><path aria-label="Library: OpenBLAS; Size: 2; GFLOPS: 0.245790770293" role="graphics-symbol" aria-roledescription="line mark" d="M9.230769230769232,598.1565692228028L13.846153846153847,594.8457837027688L18.461538461538463,587.3798907666662L23.076923076923077,581.7784067975533L27.692307692307693,571.988736426735L32.30769230769231,567.1657745478913L36.92307692307693,550.9646990879996L41.53846153846154,545.4235151802255L46.15384615384615,539.155107187894L50.769230769230774,537.4600709849157L55.38461538461539,521.4640649618228L60,520.2514166889607L64.61538461538461,514.7427794478494L69.23076923076924,515.2963946761447L73.84615384615385,504.8736830180129L78.46153846153847,505.0437604842827L83.07692307692308,501.14323382616067L87.6923076923077,503.5392837052315L92.3076923076923,494.5518453427065L96.92307692307693,495.6467848557692L101.53846153846155,492.06649547236117L106.15384615384616,494.88250201589676L110.76923076923077,487.84076157507576L115.38461538461539,489.6424087056608L120,487.48826402389864L124.61538461538463,491.116005572857L129.23076923076923,483.56893097080894L133.84615384615384,486.1568383382604L138.46153846153848,484.0289211826186L143.0769230769231,487.1980310488451L147.6923076923077,481.07428018388583L152.3076923076923,484.1738289643318L156.92307692307693,482.3742227247032L161.53846153846152,486.96944843141273L166.15384615384616,479.3587312532322L170.76923076923077,482.1767515429706L175.3846153846154,480.00699769659155L180,483.9423484527342L184.6153846153846,478.8146558525578L189.23076923076923,482.45423536100054L193.84615384615387,481.24385552468476L198.46153846153845,483.69368051492097L203.0769230769231,478.2621951219512L207.69230769230768,480.2667309039944L212.30769230769232,479.77272727272725L216.9230769230769,482.66819859865893L221.53846153846155,478.4703296703297L226.15384615384616,482.8197211155378L230.76923076923077,484.05169748314887L235.3846153846154,486.5260906757913L240,477.71799628942483L244.6153846153846,481.0189674463211L249.23076923076925,482.42520782517795L253.84615384615384,484.3172020581282L258.46153846153845,480.7226624405705L263.0769230769231,487.52095396201963L267.6923076923077,485.578231292517L272.3076923076923,487.2246220302376L276.92307692307696,481.1576128819279L281.53846153846155,484.7929144249315L286.1538461538462,483.5948031649897L290.7692307692308,485.0429092469427L295.3846153846154,487.224022714888L300,489.73245355747093L304.6153846153846,487.31539064541414L309.23076923076917,488.4906569776064L313.84615384615387,486.0781140552161L318.46153846153845,486.5776268845667L323.07692307692304,485.4171306400606L327.6923076923077,486.42553416543257L332.3076923076923,482.522976205464L336.9230769230769,482.8097322916876L341.53846153846155,482.067480258435L346.15384615384613,483.0896208986107L350.7692307692308,481.50302332277573L355.3846153846154,481.8965041477675L360,482.46293055051024L364.6153846153846,482.03115279705224L369.2307692307692,480.14233098195893L373.84615384615387,480.88733657078814L378.46153846153845,480.2588678152599L383.07692307692304,480.475974804203L387.69230769230774,479.21419449501394L392.3076923076923,479.4825082421895L396.9230769230769,478.75409836065575L401.5384615384615,479.74305124365395L406.1538461538462,478.7948350071736L410.7692307692308,479.1053401776629L415.38461538461536,478.17784808716385L420,479.24057732575534L424.61538461538464,477.9957592153504L429.2307692307692,478.2801844154796L433.8461538461538,477.24513020602404L438.46153846153845,478.3013645482418L443.0769230769231,478.1131520940485L447.6923076923077,478.3221640550702L452.3076923076923,477.3605983477679L456.9230769230769,478.20514644351465L461.53846153846155,477.124718410813L466.1538461538462,477.5753939019463L470.7692307692308,476.6868855887889L475.38461538461536,477.5710892509019L480,478.1559792027729L484.61538461538464,478.3802950075643L489.2307692307692,477.567417539868L493.8461538461538,478.3142395486362L498.4615384615385,477.1843435984765L503.0769230769231,477.4234899921754L507.6923076923077,476.7212102500772L512.3076923076923,477.5021795208637L516.9230769230769,479.0092893476788L521.5384615384615,479.17998972858913L526.1538461538462,477.98456081785935L530.7692307692307,479.44170819483276L535.3846153846154,477.8023308612078L540,478.3048988668426L544.6153846153846,477.51729484732823L549.2307692307692,478.3583170518089L553.8461538461539,479.8074693722352L558.4615384615385,480.3419744414125L563.0769230769231,479.0644022644023L567.6923076923076,480.0936251557197L572.3076923076924,478.6579094750776L576.9230769230769,479.40993060186213L581.5384615384615,478.1818403264113L586.1538461538462,479.1233953995224L590.7692307692308,481.7950962893377L595.3846153846154,484.89356340082355L600,478.48540939963567L604.6153846153846,479.2953993077306L609.2307692307692,482.36821647277037L613.8461538461538,484.1651348743164L618.4615384615383,482.1434659230063L623.0769230769231,483.2591820531232L627.6923076923077,481.8109945184025L632.3076923076924,482.7326251333955L636.9230769230769,480.5711342704799L641.5384615384615,481.58890028717803L646.1538461538461,480.2551995601211L650.7692307692307,480.97332619993887L655.3846153846154,479.85027904829843L660,480.63714191636484L664.6153846153846,478.732245645005L669.2307692307693,479.47653410573423L673.8461538461538,479.3923375626846L678.4615384615385,480.0581863675495L683.0769230769231,478.27425221350813L687.6923076923076,478.85307840489867L692.3076923076923,477.91526294339366L696.923076923077,478.76050839380326L701.5384615384615,477.7753337695424L706.1538461538462,478.33352960492795L710.7692307692308,477.22546927945206L715.3846153846154,478.0619250533743L720,477.11106699237797L724.6153846153845,477.79696894420397L729.2307692307692,476.8341639499881L733.8461538461539,477.6681132603747L738.4615384615385,476.4379374145282L743.0769230769231,477.3949128043621L747.6923076923077,476.4440294025334L752.3076923076923,477.18954353394906L756.9230769230769,475.9949021665792L761.5384615384615,476.9923382488782L766.1538461538461,476.18364993693194L770.7692307692308,476.30894460083925L775.3846153846155,475.45291691838935L780,476.0203447354722L784.6153846153846,475.8676797808924L789.2307692307692,476.37173779387257L793.8461538461538,475.19810066663064L798.4615384615385,476.2146829172663L803.076923076923,475.0170265196149L807.6923076923077,476.10959569107007L812.3076923076924,474.99118726563705L816.9230769230769,475.99772355251037L821.5384615384615,474.884410888197L826.1538461538462,475.65840421457324L830.7692307692307,474.83653491213664L835.3846153846154,475.50023935232105L840,474.62076423936554L844.6153846153846,475.69361695798096L849.2307692307693,474.5099050389393L853.8461538461539,475.09846868860086L858.4615384615385,474.6978986682175L863.0769230769231,475.7476381573447L867.6923076923076,474.6308802497569L872.3076923076923,475.46954834377965L876.9230769230769,474.4738479557849L881.5384615384617,475.44740022022336L886.1538461538462,474.77492864051334L890.7692307692308,475.63619536385653L895.3846153846154,474.08483349007474L900,474.89877005618257L904.6153846153846,474.46002814402806L909.2307692307692,475.0369449808002L913.8461538461538,474.2182871735706L918.4615384615383,474.89947741165315L923.0769230769231,474.04946707180756L927.6923076923077,474.7502490928291L932.3076923076924,474.72630222265457L936.9230769230769,475.839046737942L941.5384615384615,474.632215331999L946.1538461538461,475.5274774705354L950.7692307692307,474.4517476879888L955.3846153846154,475.39754065735434L960,475.04056581066817L964.6153846153846,476.00322080292796L969.2307692307693,474.0765249236292L973.8461538461538,474.80556560028646L978.4615384615385,474.7604075752637L983.0769230769231,475.3763925738565L987.6923076923076,474.5290437997758L992.3076923076923,475.30895563585267L996.923076923077,474.4436590764682L1001.5384615384615,474.9088430299746L1006.1538461538462,475.5160840191544L1010.7692307692308,476.4366779863066L1015.3846153846154,475.3811439467943L1020,476.12589477259996L1024.6153846153845,475.18141453597946L1029.2307692307693,475.9473932274401L1033.8461538461538,476.2222504476711L1038.4615384615386,477.0234063762942L1043.076923076923,474.8601399359512L1047.6923076923076,475.64743599738614L1052.3076923076924,476.0055125622814L1056.923076923077,476.55267186767577L1061.5384615384614,475.69769144585166L1066.1538461538462,476.5659979451684L1070.7692307692307,475.66255654869576L1075.3846153846155,476.1183039168255L1080,476.57501530020187L1084.6153846153845,477.5840010614897L1089.2307692307693,476.4766070696908L1093.8461538461538,477.1682655192247L1098.4615384615383,476.33002701279577L1103.076923076923,477.0685095894095L1107.6923076923078,477.2580528685366L1112.3076923076924,478.2243973650052L1116.923076923077,475.9127928933364L1121.5384615384617,476.5892077140344L1126.1538461538462,476.952420104423L1130.7692307692307,477.5408027312849L1135.3846153846152,476.7531641796976L1140,477.4196855534864L1144.6153846153848,476.5377118817844L1149.2307692307693,477.1734517113864L1153.8461538461538,478.53146287766026L1158.4615384615386,479.3641639516681L1163.076923076923,478.281166334031L1167.6923076923076,479.15452146685624L1172.3076923076924,478.0992272035461L1176.923076923077,478.8189924150001L1181.5384615384617,480.079712334159" stroke="#f58518" stroke-width="2"></path></g></g><path class="foreground" aria-hidden="true" d="" display="none"></path></g><g transform="translate(0,0)"><path class="background" aria-hidden="true" d="M0,0h1200v600h-1200Z"></path><g><g class="mark-line role-mark marks" role="graphics-object" aria-roledescription="line mark container"><path aria-label="Library: MKL; Size: 2; GFLOPS: 0.245609078495" role="graphics-symbol" aria-roledescription="line mark" d="M9.230769230769232,598.1579319112869L13.846153846153847,596.2963873429172L18.461538461538463,591.4387358637911L23.076923076923077,583.1514294873663L27.692307692307693,571.187374749499L32.30769230769231,556.5603481033188L36.92307692307693,537.9781828646456L41.53846153846154,526.9272344747533L46.15384615384615,510.5118013796591L50.769230769230774,475.96712145468445L55.38461538461539,467.1491331664226L60,423.53910226002785L64.61538461538461,391.89227072486983L69.23076923076924,361.5551072640989L73.84615384615385,329.14891595568815L78.46153846153847,366.48424388082543L83.07692307692308,347.67641534746446L87.6923076923077,315.9645886147353L92.3076923076923,293.47685191068626L96.92307692307693,269.7005161660335L101.53846153846155,244.93449338163106L106.15384615384616,230.58352450252755L110.76923076923077,191.77771430902936L115.38461538461539,273.40853902191617L120,248.6712789703383L124.61538461538463,228.27074842293814L129.23076923076923,208.15111543167455L133.84615384615384,197.45041333972856L138.46153846153848,179.89446624272762L143.0769230769231,161.85410334346497L147.6923076923077,135.7763505855685L152.3076923076923,211.12754292309904L156.92307692307693,191.66089486078408L161.53846153846152,176.55715038188035L166.15384615384616,164.96550009324292L170.76923076923077,150.89549592150365L175.3846153846154,137.07536557930254L180,123.38904065563231L184.6153846153846,107.59130077964707L189.23076923076923,179.99661445402427L193.84615384615387,162.33842383932085L198.46153846153845,150.73270269139002L203.0769230769231,139.5275086089532L207.69230769230768,129.29500669600148L212.30769230769232,118.33731958762877L216.9230769230769,107.07181008902073L221.53846153846155,93.68433100606612L226.15384615384616,161.1515506767557L230.76923076923077,146.53814262023218L235.3846153846154,134.9929890161252L240,124.77419770174131L244.6153846153846,118.30133735979287L249.23076923076925,104.97844311377249L253.84615384615384,99.9033837169357L258.46153846153845,85.55023923444975L263.0769230769231,146.30316195204807L267.6923076923077,132.34476367006482L272.3076923076923,123.821410906393L276.92307692307696,115.05717535772004L281.53846153846155,107.26287302092675L286.1538461538462,99.53872537010453L290.7692307692308,90.04690686607742L295.3846153846154,80.54295055979388L300,137.7893929760258L304.6153846153846,123.80300353356881L309.23076923076917,115.47148533992053L313.84615384615387,106.85069008782936L318.46153846153845,101.30199372533146L323.07692307692304,94.00078678206127L327.6923076923077,85.71079605326166L332.3076923076923,77.7800578304262L336.9230769230769,129.71832688588006L341.53846153846155,117.16895702597495L346.15384615384613,110.8128478664192L350.7692307692308,101.46577831617196L355.3846153846154,96.21165305672031L360,89.76560820012894L364.6153846153846,82.46431070678797L369.2307692307692,74.18868957962475L373.84615384615387,121.42552680554724L378.46153846153845,110.33037300177617L383.07692307692304,104.51733102253031L387.69230769230774,97.1971496437055L392.3076923076923,91.5341944030468L396.9230769230769,84.78021384598765L401.5384615384615,79.11485524442338L406.1538461538462,73.00716605660666L410.7692307692308,115.99528560966677L415.38461538461536,105.24839381051491L420,98.88881500199491L424.61538461538464,93.21763276640058L429.2307692307692,88.60445894968838L433.8461538461538,82.35167026757517L438.46153846153845,77.59261515963922L443.0769230769231,70.89386811259075L447.6923076923077,113.4832438963716L452.3076923076923,110.66236872205464L456.9230769230769,103.25989761092147L461.53846153846155,92.45449008594433L466.1538461538462,88.27803715108773L470.7692307692308,82.32072587726422L475.38461538461536,77.16411483253593L480,69.80392156862733L484.61538461538464,102.86652924503996L489.2307692307692,98.61809609339916L493.8461538461538,93.4908624824279L498.4615384615385,88.37949800990982L503.0769230769231,83.96995537137396L507.6923076923077,78.82948731335485L512.3076923076923,74.86330474849613L516.9230769230769,69.2242595204512L521.5384615384615,104.2953827126563L526.1538461538462,105.96536469332862L530.7692307692307,96.34341538801185L535.3846153846154,86.28825942909795L540,83.01710781149123L544.6153846153846,77.72828413401433L549.2307692307692,73.25612653163293L553.8461538461539,67.64156174906029L558.4615384615385,97.76195426195429L563.0769230769231,93.6567954938374L567.6923076923076,89.05354200988458L572.3076923076924,84.81688973753893L576.9230769230769,80.76360703968244L581.5384615384615,76.88000139472439L586.1538461538462,74.054347826087L590.7692307692308,67.67387552035731L595.3846153846154,101.48878361432342L600,93.3040175894463L604.6153846153846,88.01522834932585L609.2307692307692,84.1347548484531L613.8461538461538,79.60486927285315L618.4615384615383,75.53534061846075L623.0769230769231,72.27922040781303L627.6923076923077,67.29013130029648L632.3076923076924,98.13549067062222L636.9230769230769,90.49940546967899L641.5384615384615,86.53004907271682L646.1538461538461,82.23158689225727L650.7692307692307,78.70327667646076L655.3846153846154,74.20155722050823L660,71.17843149074687L664.6153846153846,66.38200533739995L669.2307692307693,97.12572578516756L673.8461538461538,91.00420873585267L678.4615384615385,85.03290966863372L683.0769230769231,80.45429777231683L687.6923076923076,78.72384124049248L692.3076923076923,73.8893219017926L696.923076923077,70.80371964340608L701.5384615384615,66.18781731032311L706.1538461538462,95.34403885173215L710.7692307692308,88.55006301638429L715.3846153846154,84.25641238712541L720,79.67691239355284L724.6153846153845,76.63127856968974L729.2307692307692,73.50205563564526L733.8461538461539,70.29566538988648L738.4615384615385,65.85989254603302L743.0769230769231,94.38881664499354L747.6923076923077,93.6929269512611L752.3076923076923,90.9754425281502L756.9230769230769,80.45418138987048L761.5384615384615,79.38316580002618L766.1538461538461,73.09235837537726L770.7692307692308,70.28937651171073L775.3846153846155,65.4224039444411L780,88.30605321742817L784.6153846153846,84.68278220251871L789.2307692307692,83.20369183702998L793.8461538461538,77.97940005744996L798.4615384615385,76.08451777848234L803.076923076923,72.43086619219932L807.6923076923077,70.32327884406317L812.3076923076924,65.54010247830175L816.9230769230769,91.98388219773774L821.5384615384615,92.39287878696962L826.1538461538462,88.69225283052502L830.7692307692307,80.45160562309574L835.3846153846154,78.80489048271977L840,73.19305113775378L844.6153846153846,70.09243246982318L849.2307692307693,65.04597135234769L853.8461538461539,85.51538182350042L858.4615384615385,82.76742366596291L863.0769230769231,79.99488413764584L867.6923076923076,76.47319599541969L872.3076923076923,75.08871277069957L876.9230769230769,71.20227791369409L881.5384615384617,69.34100498073205L886.1538461538462,92.09780273928041L890.7692307692308,118.34695627705048L895.3846153846154,114.05313786738608L900,130.8446625694412L904.6153846153846,107.29166030476071L909.2307692307692,125.55645881944098L913.8461538461538,122.88785173104732L918.4615384615383,138.96831525618077L923.0769230769231,96.05452690018939L927.6923076923077,115.6930285632495L932.3076923076924,113.48496415164138L936.9230769230769,130.1430561328226L941.5384615384615,106.80485197750613L946.1538461538461,125.3915073031169L950.7692307692307,121.06461545204508L955.3846153846154,137.28552101664485L960,96.06065923235153L964.6153846153846,115.9473918622284L969.2307692307693,111.60902001870386L973.8461538461538,128.1581423539024L978.4615384615385,106.79674100965211L983.0769230769231,123.07894399168245L987.6923076923076,119.6286565759548L992.3076923076923,135.5074732896495L996.923076923077,95.39698170395864L1001.5384615384615,114.3156518845952L1006.1538461538462,110.6280762193874L1010.7692307692308,126.4246616930078L1015.3846153846154,106.16825897412103L1020,121.97814315744718L1024.6153846153845,118.73069682058382L1029.2307692307693,133.66123167582933L1033.8461538461538,95.95077644301197L1038.4615384615386,113.8665617726892L1043.076923076923,110.30414444174197L1047.6923076923076,124.61961439881222L1052.3076923076924,104.50309641529319L1056.923076923077,120.54820207074603L1061.5384615384614,117.83817771601571L1066.1538461538462,132.37800837641248L1070.7692307692307,94.59123705498556L1075.3846153846155,112.45820025335509L1080,109.23957673687002L1084.6153846153845,123.80479159684825L1089.2307692307693,104.44911377642829L1093.8461538461538,119.76374288414769L1098.4615384615383,116.55307612494798L1103.076923076923,130.0328529135015L1107.6923076923078,94.69990496381304L1112.3076923076924,111.74731239055969L1116.923076923077,107.6353041448185L1121.5384615384617,121.99202926231254L1126.1538461538462,102.96698258459645L1130.7692307692307,117.96999110637176L1135.3846153846152,114.77900354402648L1140,128.6674917061636L1144.6153846153848,93.49951407629109L1149.2307692307693,110.71492108432463L1153.8461538461538,107.03558808682487L1158.4615384615386,120.53645821752635L1163.076923076923,102.63528885242224L1167.6923076923076,117.42425055128433L1172.3076923076924,114.45736296296292L1176.923076923077,127.63562969096594L1181.5384615384617,95.09711513575655" stroke="#4c78a8" stroke-width="2"></path></g></g><path class="foreground" aria-hidden="true" d="" display="none"></path></g><g transform="translate(0,0)"><path class="background" aria-hidden="true" d="M0,0h1200v600h-1200Z"></path><g><g class="mark-line role-mark marks" role="graphics-object" aria-roledescription="line mark container"><path aria-label="Library: PaddedMatrices; Size: 2; GFLOPS: 0.534642148788" role="graphics-symbol" aria-roledescription="line mark" d="M9.230769230769232,595.9901838840891L13.846153846153847,587.4900559353636L18.461538461538463,571.3999700284729L23.076923076923077,545.9265384280616L27.692307692307693,510.1356102461075L32.30769230769231,468.76483431800665L36.92307692307693,418.02166272146906L41.53846153846154,430.1813927664974L46.15384615384615,390.3239666580734L50.769230769230774,346.6967065163366L55.38461538461539,305.40582689444955L60,268.47622833518835L64.61538461538461,235.55780063095088L69.23076923076924,202.7954706298655L73.84615384615385,155.46995351787098L78.46153846153847,271.9540021895102L83.07692307692308,249.395268043071L87.6923076923077,232.81062142069504L92.3076923076923,193.30682073985136L96.92307692307693,171.15130999932302L101.53846153846155,142.45932874102309L106.15384615384616,134.00995787054762L110.76923076923077,100.29499382402098L115.38461538461539,195.23414148123544L120,177.25579400742072L124.61538461538463,166.4409260244811L129.23076923076923,149.9085231215696L133.84615384615384,133.06726229569134L138.46153846153848,122.30909213452851L143.0769230769231,92.26418128028125L147.6923076923077,74.29141858889795L152.3076923076923,167.71852445870084L156.92307692307693,157.85210739463028L161.53846153846152,142.48772853382647L166.15384615384616,129.9301450832886L170.76923076923077,117.22264582539066L175.3846153846154,101.46577831617196L180,86.91904047976008L184.6153846153846,75.75360419397106L189.23076923076923,148.17972126450738L193.84615384615387,142.20615159282312L198.46153846153845,131.51564750556497L203.0769230769231,116.30536277602523L207.69230769230768,109.22065746429423L212.30769230769232,99.20500019055606L216.9230769230769,87.04051383399202L221.53846153846155,68.9459783913565L226.15384615384616,142.32567186436276L230.76923076923077,130.76400557720498L235.3846153846154,116.91332547169806L240,111.58396188963873L244.6153846153846,104.56120055780931L249.23076923076925,88.69000494804547L253.84615384615384,82.48089228581574L258.46153846153845,70.85399449035808L263.0769230769231,124.91605620956021L267.6923076923077,121.54977930358012L272.3076923076923,109.8665160530754L276.92307692307696,101.52312378842421L281.53846153846155,95.28373209997324L286.1538461538462,88.52261996737903L290.7692307692308,75.16896382844736L295.3846153846154,67.96197950140377L300,121.09571788413089L304.6153846153846,112.9021084337349L309.23076923076917,103.25423915437129L313.84615384615387,96.264017942967L318.46153846153845,88.19744495222272L323.07692307692304,81.03691749041748L327.6923076923077,73.35050029429071L332.3076923076923,64.59596442574345L336.9230769230769,119.33649093904451L341.53846153846155,108.3824005176318L346.15384615384613,102.62320207498232L350.7692307692308,94.30612088165266L355.3846153846154,91.30924082602871L360,81.02362204724413L364.6153846153846,78.22879920982082L369.2307692307692,62.78679350867369L373.84615384615387,109.16723108182995L378.46153846153845,106.79706601466994L383.07692307692304,97.78633329429682L387.69230769230774,90.97904500171752L392.3076923076923,84.90969581749039L396.9230769230769,80.17652827721471L401.5384615384615,74.96172859193106L406.1538461538462,63.94252451623055L410.7692307692308,104.89114149264904L415.38461538461536,99.93140348470297L420,98.13235359410373L424.61538461538464,87.59289317832865L429.2307692307692,84.47466245086308L433.8461538461538,78.10154155495981L438.46153846153845,73.14113068414572L443.0769230769231,63.96962597948139L447.6923076923077,104.10783496939173L452.3076923076923,98.58360562579907L456.9230769230769,92.13186544769343L461.53846153846155,89.36170212765957L466.1538461538462,82.39952441556702L470.7692307692308,78.6755747691098L475.38461538461536,71.55092368701025L480,64.60542598762483L484.61538461538464,98.96485558473032L489.2307692307692,94.63268365817092L493.8461538461538,90.5701255856505L498.4615384615385,84.68201156321587L503.0769230769231,82.66438520333428L507.6923076923077,75.79162947014646L512.3076923076923,71.37204628031026L516.9230769230769,63.42660725652445L521.5384615384615,96.7223578653645L526.1538461538462,93.01546744536213L530.7692307692307,87.9783413758277L535.3846153846154,83.11278892641884L540,79.20669846087145L544.6153846153846,75.97371946163159L549.2307692307692,71.05162383862054L553.8461538461539,63.59836099499194L558.4615384615385,94.29244295582997L563.0769230769231,90.5123360954715L567.6923076923076,86.36454806418361L572.3076923076924,80.57827824191787L576.9230769230769,79.31477268688023L581.5384615384615,73.44669649907856L586.1538461538462,73.40534379927333L590.7692307692308,63.643989769820976L595.3846153846154,93.53023058290586L600,88.44320951242595L604.6153846153846,84.01987636563939L609.2307692307692,79.55890117515719L613.8461538461538,77.64061991177955L618.4615384615383,71.6813537488655L623.0769230769231,69.70105181481149L627.6923076923077,65.86486601265555L632.3076923076924,91.80738369105492L636.9230769230769,86.63115810858328L641.5384615384615,83.50169882684786L646.1538461538461,78.0822438913051L650.7692307692307,75.79830204203755L655.3846153846154,71.7765561008006L660,68.17128619234684L664.6153846153846,63.62780671816051L669.2307692307693,91.65295641250817L673.8461538461538,85.57468097767398L678.4615384615385,82.49364627682678L683.0769230769231,78.10116664698994L687.6923076923076,74.99539740985273L692.3076923076923,71.11366485582944L696.923076923077,68.27559047011104L701.5384615384615,63.58950337566047L706.1538461538462,87.6239365963453L710.7692307692308,86.24303693005986L715.3846153846154,80.96409555933428L720,76.32270582934065L724.6153846153845,75.26874576271187L729.2307692307692,71.3427154536925L733.8461538461539,67.70029044873893L738.4615384615385,63.64501401122633L743.0769230769231,87.45463998558964L747.6923076923077,83.16392605619538L752.3076923076923,82.19929696467285L756.9230769230769,76.42510089419955L761.5384615384615,74.40445082331644L766.1538461538461,70.38369804330209L770.7692307692308,68.91623462515003L775.3846153846155,63.227676145625765L780,85.87157819989338L784.6153846153846,82.56614053811143L789.2307692307692,80.17711351066627L793.8461538461538,77.84369527145358L798.4615384615385,73.55244428176336L803.076923076923,70.90131169274653L807.6923076923077,67.43540907585293L812.3076923076924,63.14367306745443L816.9230769230769,84.0683848157797L821.5384615384615,81.8944145026947L826.1538461538462,78.07096359301337L830.7692307692307,75.31937863611822L835.3846153846154,75.76066648199118L840,69.56522759267946L844.6153846153846,66.88720387392348L849.2307692307693,63.83350834007542L853.8461538461539,84.80371149902903L858.4615384615385,80.81157112812049L863.0769230769231,78.35496926120523L867.6923076923076,74.92872269810655L872.3076923076923,72.90576025233302L876.9230769230769,72.3115508301149L881.5384615384617,71.78417647950666L886.1538461538462,63.563365906403725L890.7692307692308,83.75985580720679L895.3846153846154,80.74739237625637L900,78.09523250903285L904.6153846153846,75.29853381153247L909.2307692307692,73.04785645361389L913.8461538461538,70.00641804700187L918.4615384615383,104.27754573132381L923.0769230769231,63.65838614808388L927.6923076923077,82.92235494880542L932.3076923076924,80.42663170236646L936.9230769230769,77.76138690505915L941.5384615384615,73.7724590489099L946.1538461538461,72.15340721104155L950.7692307692307,69.31814870574526L955.3846153846154,67.35947971463571L960,64.95134432363652L964.6153846153846,82.21777944145737L969.2307692307693,79.59046056328528L973.8461538461538,77.93512209761127L978.4615384615385,74.33338114731494L983.0769230769231,72.40740538533763L987.6923076923076,69.36633012918844L992.3076923076923,67.50908168696115L996.923076923077,63.49954926498249L1001.5384615384615,83.12303567815462L1006.1538461538462,79.57187875702839L1010.7692307692308,77.64255661981916L1015.3846153846154,74.13302077194321L1020,72.349688932921L1024.6153846153845,70.36380359188676L1029.2307692307693,68.1908992672353L1033.8461538461538,63.25577841451757L1038.4615384615386,81.38152562900083L1043.076923076923,79.93247890716746L1047.6923076923076,77.58801338660979L1052.3076923076924,73.7308997045781L1056.923076923077,71.3841569166028L1061.5384615384614,69.58710303678488L1066.1538461538462,67.56090502272052L1070.7692307692307,63.494393125671245L1075.3846153846155,80.4247322575257L1080,78.4958905076017L1084.6153846153845,77.81454955136194L1089.2307692307693,73.53482597028082L1093.8461538461538,72.71201814657738L1098.4615384615383,69.56703756747817L1103.076923076923,68.3459510401819L1107.6923076923078,63.28736489004838L1112.3076923076924,79.78143234102646L1116.923076923077,77.73402645388255L1121.5384615384617,76.19618890011066L1126.1538461538462,74.79250976771988L1130.7692307692307,72.13059147002441L1135.3846153846152,69.16546618932828L1140,67.50858673426112L1144.6153846153848,63.397697342961635L1149.2307692307693,80.41872993293582L1153.8461538461538,78.07642631274214L1158.4615384615386,75.86869912231859L1163.076923076923,72.71686483660582L1167.6923076923076,74.54616542719563L1172.3076923076924,69.89732475010516L1176.923076923077,68.16043031170003L1181.5384615384617,63.22298819193226" stroke="#e45756" stroke-width="2"></path></g></g><path class="foreground" aria-hidden="true" d="" display="none"></path></g></g><g class="mark-group role-legend" role="graphics-symbol" aria-roledescription="legend" aria-label="Symbol legend titled 'Library' for stroke color with 3 values: MKL, OpenBLAS, PaddedMatrices"><g transform="translate(1218,0)"><path class="background" aria-hidden="true" d="M0,0h95v53h-95Z" pointer-events="none"></path><g><g class="mark-group role-legend-entry"><g transform="translate(0,16)"><path class="background" aria-hidden="true" d="M0,0h0v0h0Z" pointer-events="none"></path><g><g class="mark-group role-scope" role="graphics-object" aria-roledescription="group mark container"><g transform="translate(0,0)"><path class="background" aria-hidden="true" d="M0,0h95v11h-95Z" pointer-events="none" opacity="1"></path><g><g class="mark-symbol role-legend-symbol" pointer-events="none"><path transform="translate(6,6)" d="M-5,0L5,0" stroke="#4c78a8" stroke-width="1.5" opacity="1"></path></g><g class="mark-text role-legend-label" pointer-events="none"><text text-anchor="start" transform="translate(16,9)" font-family="sans-serif" font-size="10px" fill="#000" opacity="1">MKL</text></g></g><path class="foreground" aria-hidden="true" d="" pointer-events="none" display="none"></path></g><g transform="translate(0,13)"><path class="background" aria-hidden="true" d="M0,0h95v11h-95Z" pointer-events="none" opacity="1"></path><g><g class="mark-symbol role-legend-symbol" pointer-events="none"><path transform="translate(6,6)" d="M-5,0L5,0" stroke="#f58518" stroke-width="1.5" opacity="1"></path></g><g class="mark-text role-legend-label" pointer-events="none"><text text-anchor="start" transform="translate(16,9)" font-family="sans-serif" font-size="10px" fill="#000" opacity="1">OpenBLAS</text></g></g><path class="foreground" aria-hidden="true" d="" pointer-events="none" display="none"></path></g><g transform="translate(0,26)"><path class="background" aria-hidden="true" d="M0,0h95v11h-95Z" pointer-events="none" opacity="1"></path><g><g class="mark-symbol role-legend-symbol" pointer-events="none"><path transform="translate(6,6)" d="M-5,0L5,0" stroke="#e45756" stroke-width="1.5" opacity="1"></path></g><g class="mark-text role-legend-label" pointer-events="none"><text text-anchor="start" transform="translate(16,9)" font-family="sans-serif" font-size="10px" fill="#000" opacity="1">PaddedMatrices</text></g></g><path class="foreground" aria-hidden="true" d="" pointer-events="none" display="none"></path></g></g></g><path class="foreground" aria-hidden="true" d="" pointer-events="none" display="none"></path></g></g><g class="mark-text role-legend-title" pointer-events="none"><text text-anchor="start" transform="translate(0,9)" font-family="sans-serif" font-size="11px" font-weight="bold" fill="#000" opacity="1">Library</text></g></g><path class="foreground" aria-hidden="true" d="" pointer-events="none" display="none"></path></g></g></g><path class="foreground" aria-hidden="true" d="" display="none"></path></g></g></g></svg>
