<?xml version="1.0" encoding="utf-8"?>
<!DOCTYPE svg PUBLIC "-//W3C//DTD SVG 1.1//EN" "http://www.w3.org/Graphics/SVG/1.1/DTD/svg11.dtd">
<svg class="marks" width="1053" height="647" viewBox="0 0 1053 647" version="1.1" xmlns="http://www.w3.org/2000/svg" xmlns:xlink="http://www.w3.org/1999/xlink"><rect width="1053" height="647" style="fill: white;"></rect><g transform="translate(39,10)"><g class="mark-group role-frame root"><g transform="translate(0,0)"><path class="background" d="M0.5,0.5h900v600h-900Z" style="fill: none; stroke: #ddd;"></path><g><g class="mark-group role-axis"><g transform="translate(0.5,600.5)"><path class="background" d="M0,0h0v0h0Z" style="pointer-events: none; fill: none;"></path><g><g class="mark-rule role-axis-grid" style="pointer-events: none;"><line transform="translate(0,-600)" x2="0" y2="600" style="fill: none; stroke: #ddd; stroke-width: 1; opacity: 1;"></line><line transform="translate(68,-600)" x2="0" y2="600" style="fill: none; stroke: #ddd; stroke-width: 1; opacity: 1;"></line><line transform="translate(107,-600)" x2="0" y2="600" style="fill: none; stroke: #ddd; stroke-width: 1; opacity: 1;"></line><line transform="translate(135,-600)" x2="0" y2="600" style="fill: none; stroke: #ddd; stroke-width: 1; opacity: 1;"></line><line transform="translate(157,-600)" x2="0" y2="600" style="fill: none; stroke: #ddd; stroke-width: 1; opacity: 1;"></line><line transform="translate(175,-600)" x2="0" y2="600" style="fill: none; stroke: #ddd; stroke-width: 1; opacity: 1;"></line><line transform="translate(190,-600)" x2="0" y2="600" style="fill: none; stroke: #ddd; stroke-width: 1; opacity: 1;"></line><line transform="translate(203,-600)" x2="0" y2="600" style="fill: none; stroke: #ddd; stroke-width: 1; opacity: 1;"></line><line transform="translate(215,-600)" x2="0" y2="600" style="fill: none; stroke: #ddd; stroke-width: 1; opacity: 1;"></line><line transform="translate(225,-600)" x2="0" y2="600" style="fill: none; stroke: #ddd; stroke-width: 1; opacity: 1;"></line><line transform="translate(293,-600)" x2="0" y2="600" style="fill: none; stroke: #ddd; stroke-width: 1; opacity: 1;"></line><line transform="translate(332,-600)" x2="0" y2="600" style="fill: none; stroke: #ddd; stroke-width: 1; opacity: 1;"></line><line transform="translate(360,-600)" x2="0" y2="600" style="fill: none; stroke: #ddd; stroke-width: 1; opacity: 1;"></line><line transform="translate(382,-600)" x2="0" y2="600" style="fill: none; stroke: #ddd; stroke-width: 1; opacity: 1;"></line><line transform="translate(400,-600)" x2="0" y2="600" style="fill: none; stroke: #ddd; stroke-width: 1; opacity: 1;"></line><line transform="translate(415,-600)" x2="0" y2="600" style="fill: none; stroke: #ddd; stroke-width: 1; opacity: 1;"></line><line transform="translate(428,-600)" x2="0" y2="600" style="fill: none; stroke: #ddd; stroke-width: 1; opacity: 1;"></line><line transform="translate(440,-600)" x2="0" y2="600" style="fill: none; stroke: #ddd; stroke-width: 1; opacity: 1;"></line><line transform="translate(450,-600)" x2="0" y2="600" style="fill: none; stroke: #ddd; stroke-width: 1; opacity: 1;"></line><line transform="translate(518,-600)" x2="0" y2="600" style="fill: none; stroke: #ddd; stroke-width: 1; opacity: 1;"></line><line transform="translate(557,-600)" x2="0" y2="600" style="fill: none; stroke: #ddd; stroke-width: 1; opacity: 1;"></line><line transform="translate(585,-600)" x2="0" y2="600" style="fill: none; stroke: #ddd; stroke-width: 1; opacity: 1;"></line><line transform="translate(607,-600)" x2="0" y2="600" style="fill: none; stroke: #ddd; stroke-width: 1; opacity: 1;"></line><line transform="translate(625,-600)" x2="0" y2="600" style="fill: none; stroke: #ddd; stroke-width: 1; opacity: 1;"></line><line transform="translate(640,-600)" x2="0" y2="600" style="fill: none; stroke: #ddd; stroke-width: 1; opacity: 1;"></line><line transform="translate(653,-600)" x2="0" y2="600" style="fill: none; stroke: #ddd; stroke-width: 1; opacity: 1;"></line><line transform="translate(665,-600)" x2="0" y2="600" style="fill: none; stroke: #ddd; stroke-width: 1; opacity: 1;"></line><line transform="translate(675,-600)" x2="0" y2="600" style="fill: none; stroke: #ddd; stroke-width: 1; opacity: 1;"></line><line transform="translate(743,-600)" x2="0" y2="600" style="fill: none; stroke: #ddd; stroke-width: 1; opacity: 1;"></line><line transform="translate(782,-600)" x2="0" y2="600" style="fill: none; stroke: #ddd; stroke-width: 1; opacity: 1;"></line><line transform="translate(810,-600)" x2="0" y2="600" style="fill: none; stroke: #ddd; stroke-width: 1; opacity: 1;"></line><line transform="translate(832,-600)" x2="0" y2="600" style="fill: none; stroke: #ddd; stroke-width: 1; opacity: 1;"></line><line transform="translate(850,-600)" x2="0" y2="600" style="fill: none; stroke: #ddd; stroke-width: 1; opacity: 1;"></line><line transform="translate(865,-600)" x2="0" y2="600" style="fill: none; stroke: #ddd; stroke-width: 1; opacity: 1;"></line><line transform="translate(878,-600)" x2="0" y2="600" style="fill: none; stroke: #ddd; stroke-width: 1; opacity: 1;"></line><line transform="translate(890,-600)" x2="0" y2="600" style="fill: none; stroke: #ddd; stroke-width: 1; opacity: 1;"></line><line transform="translate(900,-600)" x2="0" y2="600" style="fill: none; stroke: #ddd; stroke-width: 1; opacity: 1;"></line></g></g><path class="foreground" d="" style="pointer-events: none; display: none; fill: none;"></path></g></g><g class="mark-group role-axis"><g transform="translate(0.5,0.5)"><path class="background" d="M0,0h0v0h0Z" style="pointer-events: none; fill: none;"></path><g><g class="mark-rule role-axis-grid" style="pointer-events: none;"><line transform="translate(0,600)" x2="900" y2="0" style="fill: none; stroke: #ddd; stroke-width: 1; opacity: 1;"></line><line transform="translate(0,567)" x2="900" y2="0" style="fill: none; stroke: #ddd; stroke-width: 1; opacity: 1;"></line><line transform="translate(0,533)" x2="900" y2="0" style="fill: none; stroke: #ddd; stroke-width: 1; opacity: 1;"></line><line transform="translate(0,500)" x2="900" y2="0" style="fill: none; stroke: #ddd; stroke-width: 1; opacity: 1;"></line><line transform="translate(0,467)" x2="900" y2="0" style="fill: none; stroke: #ddd; stroke-width: 1; opacity: 1;"></line><line transform="translate(0,433)" x2="900" y2="0" style="fill: none; stroke: #ddd; stroke-width: 1; opacity: 1;"></line><line transform="translate(0,400)" x2="900" y2="0" style="fill: none; stroke: #ddd; stroke-width: 1; opacity: 1;"></line><line transform="translate(0,367)" x2="900" y2="0" style="fill: none; stroke: #ddd; stroke-width: 1; opacity: 1;"></line><line transform="translate(0,333)" x2="900" y2="0" style="fill: none; stroke: #ddd; stroke-width: 1; opacity: 1;"></line><line transform="translate(0,300)" x2="900" y2="0" style="fill: none; stroke: #ddd; stroke-width: 1; opacity: 1;"></line><line transform="translate(0,267)" x2="900" y2="0" style="fill: none; stroke: #ddd; stroke-width: 1; opacity: 1;"></line><line transform="translate(0,233)" x2="900" y2="0" style="fill: none; stroke: #ddd; stroke-width: 1; opacity: 1;"></line><line transform="translate(0,200)" x2="900" y2="0" style="fill: none; stroke: #ddd; stroke-width: 1; opacity: 1;"></line><line transform="translate(0,167)" x2="900" y2="0" style="fill: none; stroke: #ddd; stroke-width: 1; opacity: 1;"></line><line transform="translate(0,133)" x2="900" y2="0" style="fill: none; stroke: #ddd; stroke-width: 1; opacity: 1;"></line><line transform="translate(0,100)" x2="900" y2="0" style="fill: none; stroke: #ddd; stroke-width: 1; opacity: 1;"></line><line transform="translate(0,67)" x2="900" y2="0" style="fill: none; stroke: #ddd; stroke-width: 1; opacity: 1;"></line><line transform="translate(0,33)" x2="900" y2="0" style="fill: none; stroke: #ddd; stroke-width: 1; opacity: 1;"></line><line transform="translate(0,0)" x2="900" y2="0" style="fill: none; stroke: #ddd; stroke-width: 1; opacity: 1;"></line></g></g><path class="foreground" d="" style="pointer-events: none; display: none; fill: none;"></path></g></g><g class="mark-group role-axis"><g transform="translate(0.5,600.5)"><path class="background" d="M0,0h0v0h0Z" style="pointer-events: none; fill: none;"></path><g><g class="mark-rule role-axis-tick" style="pointer-events: none;"><line transform="translate(0,0)" x2="0" y2="5" style="fill: none; stroke: #888; stroke-width: 1; opacity: 1;"></line><line transform="translate(68,0)" x2="0" y2="5" style="fill: none; stroke: #888; stroke-width: 1; opacity: 1;"></line><line transform="translate(107,0)" x2="0" y2="5" style="fill: none; stroke: #888; stroke-width: 1; opacity: 1;"></line><line transform="translate(135,0)" x2="0" y2="5" style="fill: none; stroke: #888; stroke-width: 1; opacity: 1;"></line><line transform="translate(157,0)" x2="0" y2="5" style="fill: none; stroke: #888; stroke-width: 1; opacity: 1;"></line><line transform="translate(175,0)" x2="0" y2="5" style="fill: none; stroke: #888; stroke-width: 1; opacity: 1;"></line><line transform="translate(190,0)" x2="0" y2="5" style="fill: none; stroke: #888; stroke-width: 1; opacity: 1;"></line><line transform="translate(203,0)" x2="0" y2="5" style="fill: none; stroke: #888; stroke-width: 1; opacity: 1;"></line><line transform="translate(215,0)" x2="0" y2="5" style="fill: none; stroke: #888; stroke-width: 1; opacity: 1;"></line><line transform="translate(225,0)" x2="0" y2="5" style="fill: none; stroke: #888; stroke-width: 1; opacity: 1;"></line><line transform="translate(293,0)" x2="0" y2="5" style="fill: none; stroke: #888; stroke-width: 1; opacity: 1;"></line><line transform="translate(332,0)" x2="0" y2="5" style="fill: none; stroke: #888; stroke-width: 1; opacity: 1;"></line><line transform="translate(360,0)" x2="0" y2="5" style="fill: none; stroke: #888; stroke-width: 1; opacity: 1;"></line><line transform="translate(382,0)" x2="0" y2="5" style="fill: none; stroke: #888; stroke-width: 1; opacity: 1;"></line><line transform="translate(400,0)" x2="0" y2="5" style="fill: none; stroke: #888; stroke-width: 1; opacity: 1;"></line><line transform="translate(415,0)" x2="0" y2="5" style="fill: none; stroke: #888; stroke-width: 1; opacity: 1;"></line><line transform="translate(428,0)" x2="0" y2="5" style="fill: none; stroke: #888; stroke-width: 1; opacity: 1;"></line><line transform="translate(440,0)" x2="0" y2="5" style="fill: none; stroke: #888; stroke-width: 1; opacity: 1;"></line><line transform="translate(450,0)" x2="0" y2="5" style="fill: none; stroke: #888; stroke-width: 1; opacity: 1;"></line><line transform="translate(518,0)" x2="0" y2="5" style="fill: none; stroke: #888; stroke-width: 1; opacity: 1;"></line><line transform="translate(557,0)" x2="0" y2="5" style="fill: none; stroke: #888; stroke-width: 1; opacity: 1;"></line><line transform="translate(585,0)" x2="0" y2="5" style="fill: none; stroke: #888; stroke-width: 1; opacity: 1;"></line><line transform="translate(607,0)" x2="0" y2="5" style="fill: none; stroke: #888; stroke-width: 1; opacity: 1;"></line><line transform="translate(625,0)" x2="0" y2="5" style="fill: none; stroke: #888; stroke-width: 1; opacity: 1;"></line><line transform="translate(640,0)" x2="0" y2="5" style="fill: none; stroke: #888; stroke-width: 1; opacity: 1;"></line><line transform="translate(653,0)" x2="0" y2="5" style="fill: none; stroke: #888; stroke-width: 1; opacity: 1;"></line><line transform="translate(665,0)" x2="0" y2="5" style="fill: none; stroke: #888; stroke-width: 1; opacity: 1;"></line><line transform="translate(675,0)" x2="0" y2="5" style="fill: none; stroke: #888; stroke-width: 1; opacity: 1;"></line><line transform="translate(743,0)" x2="0" y2="5" style="fill: none; stroke: #888; stroke-width: 1; opacity: 1;"></line><line transform="translate(782,0)" x2="0" y2="5" style="fill: none; stroke: #888; stroke-width: 1; opacity: 1;"></line><line transform="translate(810,0)" x2="0" y2="5" style="fill: none; stroke: #888; stroke-width: 1; opacity: 1;"></line><line transform="translate(832,0)" x2="0" y2="5" style="fill: none; stroke: #888; stroke-width: 1; opacity: 1;"></line><line transform="translate(850,0)" x2="0" y2="5" style="fill: none; stroke: #888; stroke-width: 1; opacity: 1;"></line><line transform="translate(865,0)" x2="0" y2="5" style="fill: none; stroke: #888; stroke-width: 1; opacity: 1;"></line><line transform="translate(878,0)" x2="0" y2="5" style="fill: none; stroke: #888; stroke-width: 1; opacity: 1;"></line><line transform="translate(890,0)" x2="0" y2="5" style="fill: none; stroke: #888; stroke-width: 1; opacity: 1;"></line><line transform="translate(900,0)" x2="0" y2="5" style="fill: none; stroke: #888; stroke-width: 1; opacity: 1;"></line></g><g class="mark-text role-axis-label" style="pointer-events: none;"><text text-anchor="start" transform="translate(0,15)" style="font-family: sans-serif; font-size: 10px; fill: #000; opacity: 1;">1</text><text text-anchor="middle" transform="translate(67.73174902439575,15)" style="font-family: sans-serif; font-size: 10px; fill: #000; opacity: 1;">2</text><text text-anchor="middle" transform="translate(107.35228231192403,15)" style="font-family: sans-serif; font-size: 10px; fill: #000; opacity: 1;"></text><text text-anchor="middle" transform="translate(135.4634980487915,15)" style="font-family: sans-serif; font-size: 10px; fill: #000; opacity: 1;"></text><text text-anchor="middle" transform="translate(157.26825097560422,15)" style="font-family: sans-serif; font-size: 10px; fill: #000; opacity: 1;"></text><text text-anchor="middle" transform="translate(175.08403133631978,15)" style="font-family: sans-serif; font-size: 10px; fill: #000; opacity: 1;"></text><text text-anchor="middle" transform="translate(190.14705900320774,15)" style="font-family: sans-serif; font-size: 10px; fill: #000; opacity: 1;"></text><text text-anchor="middle" transform="translate(203.19524707318726,15)" style="font-family: sans-serif; font-size: 10px; fill: #000; opacity: 1;"></text><text text-anchor="middle" transform="translate(214.70456462384809,15)" style="font-family: sans-serif; font-size: 10px; fill: #000; opacity: 1;"></text><text text-anchor="middle" transform="translate(225,15)" style="font-family: sans-serif; font-size: 10px; fill: #000; opacity: 1;">10</text><text text-anchor="middle" transform="translate(292.73174902439575,15)" style="font-family: sans-serif; font-size: 10px; fill: #000; opacity: 1;">20</text><text text-anchor="middle" transform="translate(332.35228231192406,15)" style="font-family: sans-serif; font-size: 10px; fill: #000; opacity: 1;"></text><text text-anchor="middle" transform="translate(360.4634980487915,15)" style="font-family: sans-serif; font-size: 10px; fill: #000; opacity: 1;"></text><text text-anchor="middle" transform="translate(382.2682509756042,15)" style="font-family: sans-serif; font-size: 10px; fill: #000; opacity: 1;"></text><text text-anchor="middle" transform="translate(400.08403133631975,15)" style="font-family: sans-serif; font-size: 10px; fill: #000; opacity: 1;"></text><text text-anchor="middle" transform="translate(415.1470590032078,15)" style="font-family: sans-serif; font-size: 10px; fill: #000; opacity: 1;"></text><text text-anchor="middle" transform="translate(428.19524707318726,15)" style="font-family: sans-serif; font-size: 10px; fill: #000; opacity: 1;"></text><text text-anchor="middle" transform="translate(439.70456462384806,15)" style="font-family: sans-serif; font-size: 10px; fill: #000; opacity: 1;"></text><text text-anchor="middle" transform="translate(450,15)" style="font-family: sans-serif; font-size: 10px; fill: #000; opacity: 1;">100</text><text text-anchor="middle" transform="translate(517.7317490243956,15)" style="font-family: sans-serif; font-size: 10px; fill: #000; opacity: 1;">200</text><text text-anchor="middle" transform="translate(557.352282311924,15)" style="font-family: sans-serif; font-size: 10px; fill: #000; opacity: 1;"></text><text text-anchor="middle" transform="translate(585.4634980487915,15)" style="font-family: sans-serif; font-size: 10px; fill: #000; opacity: 1;"></text><text text-anchor="middle" transform="translate(607.2682509756041,15)" style="font-family: sans-serif; font-size: 10px; fill: #000; opacity: 1;"></text><text text-anchor="middle" transform="translate(625.0840313363198,15)" style="font-family: sans-serif; font-size: 10px; fill: #000; opacity: 1;"></text><text text-anchor="middle" transform="translate(640.1470590032077,15)" style="font-family: sans-serif; font-size: 10px; fill: #000; opacity: 1;"></text><text text-anchor="middle" transform="translate(653.1952470731873,15)" style="font-family: sans-serif; font-size: 10px; fill: #000; opacity: 1;"></text><text text-anchor="middle" transform="translate(664.7045646238481,15)" style="font-family: sans-serif; font-size: 10px; fill: #000; opacity: 1;"></text><text text-anchor="middle" transform="translate(674.9999999999999,15)" style="font-family: sans-serif; font-size: 10px; fill: #000; opacity: 1;">1,000</text><text text-anchor="middle" transform="translate(742.7317490243956,15)" style="font-family: sans-serif; font-size: 10px; fill: #000; opacity: 1;">2,000</text><text text-anchor="middle" transform="translate(782.3522823119239,15)" style="font-family: sans-serif; font-size: 10px; fill: #000; opacity: 1;"></text><text text-anchor="middle" transform="translate(810.4634980487915,15)" style="font-family: sans-serif; font-size: 10px; fill: #000; opacity: 1;"></text><text text-anchor="middle" transform="translate(832.2682509756042,15)" style="font-family: sans-serif; font-size: 10px; fill: #000; opacity: 1;"></text><text text-anchor="middle" transform="translate(850.0840313363196,15)" style="font-family: sans-serif; font-size: 10px; fill: #000; opacity: 1;"></text><text text-anchor="middle" transform="translate(865.1470590032077,15)" style="font-family: sans-serif; font-size: 10px; fill: #000; opacity: 1;"></text><text text-anchor="middle" transform="translate(878.1952470731873,15)" style="font-family: sans-serif; font-size: 10px; fill: #000; opacity: 1;"></text><text text-anchor="middle" transform="translate(889.7045646238481,15)" style="font-family: sans-serif; font-size: 10px; fill: #000; opacity: 1;"></text><text text-anchor="end" transform="translate(900,15)" style="font-family: sans-serif; font-size: 10px; fill: #000; opacity: 1;">10,000</text></g><g class="mark-rule role-axis-domain" style="pointer-events: none;"><line transform="translate(0,0)" x2="900" y2="0" style="fill: none; stroke: #888; stroke-width: 1; opacity: 1;"></line></g><g class="mark-text role-axis-title" style="pointer-events: none;"><text text-anchor="middle" transform="translate(450,30)" style="font-family: sans-serif; font-size: 11px; font-weight: bold; fill: #000; opacity: 1;">Size</text></g></g><path class="foreground" d="" style="pointer-events: none; display: none; fill: none;"></path></g></g><g class="mark-group role-axis"><g transform="translate(0.5,0.5)"><path class="background" d="M0,0h0v0h0Z" style="pointer-events: none; fill: none;"></path><g><g class="mark-rule role-axis-tick" style="pointer-events: none;"><line transform="translate(0,600)" x2="-5" y2="0" style="fill: none; stroke: #888; stroke-width: 1; opacity: 1;"></line><line transform="translate(0,567)" x2="-5" y2="0" style="fill: none; stroke: #888; stroke-width: 1; opacity: 1;"></line><line transform="translate(0,533)" x2="-5" y2="0" style="fill: none; stroke: #888; stroke-width: 1; opacity: 1;"></line><line transform="translate(0,500)" x2="-5" y2="0" style="fill: none; stroke: #888; stroke-width: 1; opacity: 1;"></line><line transform="translate(0,467)" x2="-5" y2="0" style="fill: none; stroke: #888; stroke-width: 1; opacity: 1;"></line><line transform="translate(0,433)" x2="-5" y2="0" style="fill: none; stroke: #888; stroke-width: 1; opacity: 1;"></line><line transform="translate(0,400)" x2="-5" y2="0" style="fill: none; stroke: #888; stroke-width: 1; opacity: 1;"></line><line transform="translate(0,367)" x2="-5" y2="0" style="fill: none; stroke: #888; stroke-width: 1; opacity: 1;"></line><line transform="translate(0,333)" x2="-5" y2="0" style="fill: none; stroke: #888; stroke-width: 1; opacity: 1;"></line><line transform="translate(0,300)" x2="-5" y2="0" style="fill: none; stroke: #888; stroke-width: 1; opacity: 1;"></line><line transform="translate(0,267)" x2="-5" y2="0" style="fill: none; stroke: #888; stroke-width: 1; opacity: 1;"></line><line transform="translate(0,233)" x2="-5" y2="0" style="fill: none; stroke: #888; stroke-width: 1; opacity: 1;"></line><line transform="translate(0,200)" x2="-5" y2="0" style="fill: none; stroke: #888; stroke-width: 1; opacity: 1;"></line><line transform="translate(0,167)" x2="-5" y2="0" style="fill: none; stroke: #888; stroke-width: 1; opacity: 1;"></line><line transform="translate(0,133)" x2="-5" y2="0" style="fill: none; stroke: #888; stroke-width: 1; opacity: 1;"></line><line transform="translate(0,100)" x2="-5" y2="0" style="fill: none; stroke: #888; stroke-width: 1; opacity: 1;"></line><line transform="translate(0,67)" x2="-5" y2="0" style="fill: none; stroke: #888; stroke-width: 1; opacity: 1;"></line><line transform="translate(0,33)" x2="-5" y2="0" style="fill: none; stroke: #888; stroke-width: 1; opacity: 1;"></line><line transform="translate(0,0)" x2="-5" y2="0" style="fill: none; stroke: #888; stroke-width: 1; opacity: 1;"></line></g><g class="mark-text role-axis-label" style="pointer-events: none;"><text text-anchor="end" transform="translate(-7,603)" style="font-family: sans-serif; font-size: 10px; fill: #000; opacity: 1;">0</text><text text-anchor="end" transform="translate(-7,569.6666666666666)" style="font-family: sans-serif; font-size: 10px; fill: #000; opacity: 1;">5</text><text text-anchor="end" transform="translate(-7,536.3333333333333)" style="font-family: sans-serif; font-size: 10px; fill: #000; opacity: 1;">10</text><text text-anchor="end" transform="translate(-7,503)" style="font-family: sans-serif; font-size: 10px; fill: #000; opacity: 1;">15</text><text text-anchor="end" transform="translate(-7,469.6666666666667)" style="font-family: sans-serif; font-size: 10px; fill: #000; opacity: 1;">20</text><text text-anchor="end" transform="translate(-7,436.3333333333333)" style="font-family: sans-serif; font-size: 10px; fill: #000; opacity: 1;">25</text><text text-anchor="end" transform="translate(-7,403.00000000000006)" style="font-family: sans-serif; font-size: 10px; fill: #000; opacity: 1;">30</text><text text-anchor="end" transform="translate(-7,369.6666666666667)" style="font-family: sans-serif; font-size: 10px; fill: #000; opacity: 1;">35</text><text text-anchor="end" transform="translate(-7,336.33333333333337)" style="font-family: sans-serif; font-size: 10px; fill: #000; opacity: 1;">40</text><text text-anchor="end" transform="translate(-7,303)" style="font-family: sans-serif; font-size: 10px; fill: #000; opacity: 1;">45</text><text text-anchor="end" transform="translate(-7,269.66666666666663)" style="font-family: sans-serif; font-size: 10px; fill: #000; opacity: 1;">50</text><text text-anchor="end" transform="translate(-7,236.33333333333331)" style="font-family: sans-serif; font-size: 10px; fill: #000; opacity: 1;">55</text><text text-anchor="end" transform="translate(-7,203.00000000000003)" style="font-family: sans-serif; font-size: 10px; fill: #000; opacity: 1;">60</text><text text-anchor="end" transform="translate(-7,169.66666666666669)" style="font-family: sans-serif; font-size: 10px; fill: #000; opacity: 1;">65</text><text text-anchor="end" transform="translate(-7,136.33333333333331)" style="font-family: sans-serif; font-size: 10px; fill: #000; opacity: 1;">70</text><text text-anchor="end" transform="translate(-7,102.99999999999997)" style="font-family: sans-serif; font-size: 10px; fill: #000; opacity: 1;">75</text><text text-anchor="end" transform="translate(-7,69.6666666666667)" style="font-family: sans-serif; font-size: 10px; fill: #000; opacity: 1;">80</text><text text-anchor="end" transform="translate(-7,36.33333333333335)" style="font-family: sans-serif; font-size: 10px; fill: #000; opacity: 1;">85</text><text text-anchor="end" transform="translate(-7,3)" style="font-family: sans-serif; font-size: 10px; fill: #000; opacity: 1;">90</text></g><g class="mark-rule role-axis-domain" style="pointer-events: none;"><line transform="translate(0,600)" x2="0" y2="-600" style="fill: none; stroke: #888; stroke-width: 1; opacity: 1;"></line></g><g class="mark-text role-axis-title" style="pointer-events: none;"><text text-anchor="middle" transform="translate(-23,300) rotate(-90) translate(0,-2)" style="font-family: sans-serif; font-size: 11px; font-weight: bold; fill: #000; opacity: 1;">GFLOPS</text></g></g><path class="foreground" d="" style="pointer-events: none; display: none; fill: none;"></path></g></g><g class="mark-group role-scope pathgroup"><g transform="translate(0,0)"><path class="background" d="M0,0h900v600h-900Z" style="fill: none;"></path><g><g class="mark-line role-mark marks"><path d="M67.73174902439575,595.8122990089912L135.4634980487915,567.8931114892545L203.19524707318726,484.20593699492116L270.926996097583,224.0979058775514L310.5475293851113,233.7149634808665L338.6587451219788,105.52196173538124L360.4634980487915,225.54851292052643L378.27927840950707,127.72519817439351L393.3423060763951,172.25513776830562L406.3904941463745,108.38590198905254L417.8998116970354,186.6921352047172L428.19524707318726,126.38638360852865L437.50860123378794,160.3902785169417L446.0110274339028,105.3679399555537L453.83250134222556,164.81584648715557L461.07405510079076,117.30639730639723L467.81578036071556,150.2283996408074L474.1222431707703,107.35519183448143L480.0462543832989,153.12956893259081L485.6315607214311,58.01519235481505L490.91480728757375,98.66586722912807L495.926996097583,58.37300327938208L500.69458838831906,94.16521982637921L505.24035025818364,51.26936916534564L509.5840101771457,107.02396426232674L513.7427764582985,64.52351636130476L517.7317490243956,119.58011301877842L521.5642503666213,73.7201373171687L525.2520940089594,107.12781292984867L528.8058041251866,67.26654390417879L532.2347966004523,102.54538211406393L535.5475293851114,61.1329889402457L538.7516281858985,98.94003078039965L541.853992195166,61.72267701049301L541.853992195166,67.76380082243811L553.7020146202233,146.8935618240966L564.8726272964876,144.0006998414296L575.439120428773,154.68711783035548L585.4634980487915,109.71097845218051L594.9986826302636,169.1237020564385L604.0902063699928,169.23654064887165L612.7775262079168,184.24989903653616L621.0950587702226,131.79625736839776L629.0730039024169,211.86897471606437L636.7380065868681,214.04485634212546L644.1136938715442,225.4993255066928L651.2211141039985,181.81855228727025L658.0790990545303,224.43290732164056L664.7045646238481,221.27155581450052L671.1127622254227,266.57708202940853L677.3174902439576,215.63684828013095L683.3312729450492,249.38626271487354L689.1655126690148,256.39944615699295L694.830619957624,247.39224420393762L700.3361253452791,192.49255110662813L705.6907758301477,258.4816229544415L710.9026184775645,250.06196114534123L715.9790731619246,247.19282554522587L720.926996097583,198.88831249485406L725.7527355238809,256.2259707520905L730.4621806790551,243.36803521280098L735.0608050108139,252.1848018690166L739.5537044187843,208.2744668295656L743.9456311989046,246.5899548594662L748.2410242567082,250.28011744745703L752.4440360710728,256.27322823023394L756.5585568190141,203.68061239646408L760.588236012831,253.50919933732416L764.5365019512084,248.5074443384459L768.4065792440713,252.59939943718462L772.2015046356596,210.6145388849109L775.924141320355,253.4136692628064L779.5771919203357,254.2189712887853L783.1632102724097,263.4452815264078L786.6846121527902,219.11852978333124L790.1436850526211,269.80375867513993L793.5425971033217,259.62283184840004L796.8834052389649,273.7079248576208L800.1680626726395,236.03560098157232L803.3984257548451,282.9052068440205L806.5762602742142,270.7522253103617L809.7032472541116,291.5539221935219L812.780988292749,462.23190739555247L815.8110104892849,298.2016441691865L818.7947709938408,284.17994179011805L821.7336612153719,299.8394706690466L824.6290107178063,257.5444912331333L827.4820908317648,308.58896849083754L830.2941180064156,304.26033888036903L833.0662569235838,318.1154246895371L835.7996233940707,275.74986360774597L838.495287054205,317.9704850383473L841.1542738789391,342.8418052395835L843.7775685262649,315.204808975852L846.366116526356,291.0545127041254L848.9208263276169,324.16134025693356L851.4425712107161,320.81397274762134L853.9321910806985,329.2393844707989L856.3904941463745,302.35836245743155L858.8182584953923,349.16963883897444L861.2162335726725,330.59730049374826L863.5851415692333,334.28614410563927L865.9256787278466,293.54384744152856L868.2385165714317,295.0072095021678L870.5243030596054,298.44866382926165L872.7836636783782,316.66887736677876L875.0172024675759,306.4800675244677L877.2255029902107,333.30378197890775L879.4091292476961,327.08086561159485L881.568626544492,304.22948683756374L883.7045223054998,263.74424172303907L885.8173268492708,320.32787490549265L887.9075341198643,334.86555950011507L889.9756223799815,336.75478246113727L892.0220548678057,325.71882023454646L894.0472804198101,315.6791531687967L896.0517340616227,327.64928959561996L898.0358375688974,342.3487691911427L900,315.95840962536977" style="fill: none; stroke: #4c78a8; stroke-width: 2;"></path></g></g><path class="foreground" d="" style="display: none; fill: none;"></path></g><g transform="translate(0,0)"><path class="background" d="M0,0h900v600h-900Z" style="fill: none;"></path><g><g class="mark-line role-mark marks"><path d="M67.73174902439575,595.2024781582231L135.4634980487915,568.8393031904483L203.19524707318726,478.1704087924843L270.926996097583,228.9236967469715L310.5475293851113,221.17245304496305L338.6587451219788,93.33079852727761L360.4634980487915,151.6794508073272L378.27927840950707,52.040133779264195L393.3423060763951,128.66062784567453L406.3904941463745,46.8310490720518L417.8998116970354,98.67633726201275L428.19524707318726,34.363520866130855L437.50860123378794,100.50611108057097L446.0110274339028,51.09673816946629L453.83250134222556,87.76684881602917L461.07405510079076,38.84808180057109L467.81578036071556,77.69314472252442L474.1222431707703,34.276272752409255L480.0462543832989,75.72548835706733L485.6315607214311,33.24906047147249L490.91480728757375,66.85370315548163L495.926996097583,52.223336676696654L500.69458838831906,82.15813313456796L505.24035025818364,56.898405843662594L509.5840101771457,75.45877855524954L513.7427764582985,55.0398447786016L517.7317490243956,72.36512333465241L521.5642503666213,54.623788853283564L525.2520940089594,75.35158309027649L528.8058041251866,53.94029716595543L532.2347966004523,75.46406649549215L535.5475293851114,57.40998045357133L538.7516281858985,82.70568166017209L541.853992195166,71.51966458924934L541.853992195166,70.80579087524733L553.7020146202233,99.89860220634476L564.8726272964876,91.39877127226477L575.439120428773,84.28387697915163L585.4634980487915,70.2178625567161L594.9986826302636,78.4336612502378L604.0902063699928,79.88334752553877L612.7775262079168,77.14424318200672L621.0950587702226,59.10794958828733L629.0730039024169,86.10912680715275L636.7380065868681,82.39577694056064L644.1136938715442,80.79686363748293L651.2211141039985,69.76541158692615L658.0790990545303,77.36084251084617L664.7045646238481,78.93095931705216L671.1127622254227,82.82875125149454L677.3174902439576,69.88017065322897L683.3312729450492,76.86804981688546L689.1655126690148,72.97772805059827L694.830619957624,83.50987410026256L700.3361253452791,76.71831062299293L705.6907758301477,78.84243131589919L710.9026184775645,78.08721527168831L715.9790731619246,78.29227601171208L720.926996097583,68.67594847366966L725.7527355238809,72.93498533853808L730.4621806790551,74.60592122067642L735.0608050108139,78.29608801277487L739.5537044187843,72.95730172782773L743.9456311989046,73.4759920460483L748.2410242567082,73.58447578702263L752.4440360710728,71.62985048286177L756.5585568190141,64.47639135165035L760.588236012831,73.49335446315355L764.5365019512084,73.21619716436514L768.4065792440713,72.26292743953988L772.2015046356596,66.35793188694707L775.924141320355,68.6307118969253L779.5771919203357,68.38330618618515L783.1632102724097,70.64326184933805L786.6846121527902,69.001938229442L790.1436850526211,71.44777638379776L793.5425971033217,69.41630373519804L796.8834052389649,67.15401471605027L800.1680626726395,64.35600390635739L803.3984257548451,70.05339338615435L806.5762602742142,68.86541461581798L809.7032472541116,69.06486577969342L812.780988292749,68.46275015537088L815.8110104892849,69.31247501407331L818.7947709938408,68.37336750853208L821.7336612153719,68.57785204444062L824.6290107178063,63.7138120773084L827.4820908317648,67.8176296481454L830.2941180064156,68.32311657411832L833.0662569235838,69.53251746927937L835.7996233940707,63.499852357400385L838.495287054205,68.38162530808518L841.1542738789391,66.0750851936708L843.7775685262649,67.23346474705151L846.366116526356,63.42046112261757L848.9208263276169,66.84533582820724L851.4425712107161,66.47883223686148L853.9321910806985,68.56909257329906L856.3904941463745,63.740984652309926L858.8182584953923,67.79977806524641L861.2162335726725,64.32690982524343L863.5851415692333,65.09310035877833L865.9256787278466,62.75982163432086L868.2385165714317,62.870113842256224L870.5243030596054,64.19406309604202L872.7836636783782,62.566811714196405L875.0172024675759,60.26063030517368L877.2255029902107,63.24444534907181L879.4091292476961,62.50684077349711L881.568626544492,63.2233685648385L883.7045223054998,59.00985078149734L885.8173268492708,62.373830531484266L887.9075341198643,62.57493264968475L889.9756223799815,62.13167263305262L892.0220548678057,61.480597502738846L894.0472804198101,61.33264549304967L896.0517340616227,60.450400052659205L898.0358375688974,60.75611809926444L900,57.78731656874137" style="fill: none; stroke: #e45756; stroke-width: 2;"></path></g></g><path class="foreground" d="" style="display: none; fill: none;"></path></g><g transform="translate(0,0)"><path class="background" d="M0,0h900v600h-900Z" style="fill: none;"></path><g><g class="mark-line role-mark marks"><path d="M67.73174902439575,588.8861076345432L135.4634980487915,594.7111542856532L203.19524707318726,585.9858932519213L270.926996097583,579.290469368838L310.5475293851113,576.2126817516992L338.6587451219788,574.187246445311L360.4634980487915,573.3865602129075L378.27927840950707,572.6938390029815L393.3423060763951,576.9478354466934L406.3904941463745,576.389645071006L417.8998116970354,575.8525721272817L428.19524707318726,575.4648265286563L437.50860123378794,575.0928755935787L446.0110274339028,574.7805897972012L453.83250134222556,575.8945618521215L461.07405510079076,575.6160961104812L467.81578036071556,575.3370284972929L474.1222431707703,575.1930237949912L480.0462543832989,576.6905788167354L485.6315607214311,574.7239148514726L490.91480728757375,574.5460983076615L495.926996097583,575.3224432166918L500.69458838831906,575.1363060390902L505.24035025818364,574.9904105707016L509.5840101771457,574.847695312295L513.7427764582985,575.88958837327L517.7317490243956,574.5580454218396L521.5642503666213,575.1433792739222L525.2520940089594,575.0123191024098L528.8058041251866,574.9155848876732L532.2347966004523,574.7927617219298L535.5475293851114,574.694353869916L538.7516281858985,574.5824007737433L541.853992195166,575.0426092090278L541.853992195166,575.0397548193689L553.7020146202233,575.569159526328L564.8726272964876,574.7854847281086L575.439120428773,574.8617151050491L585.4634980487915,575.1392486131173L594.9986826302636,574.6404320316208L604.0902063699928,574.448465186255L612.7775262079168,575.3223018508784L621.0950587702226,575.3742692297723L629.0730039024169,575.2046486584312L636.7380065868681,575.1316467332723L644.1136938715442,575.0965780395513L651.2211141039985,575.0463466734577L658.0790990545303,574.9434107978094L664.7045646238481,575.0326105700491L671.1127622254227,575.3860117658438L677.3174902439576,575.5869855965545L683.3312729450492,575.1618069262578L689.1655126690148,575.2941914784711L694.830619957624,575.090648781147L700.3361253452791,575.2348428962744L705.6907758301477,575.0656053727855L710.9026184775645,574.9823398342203L715.9790731619246,574.7478052759254L720.926996097583,575.0604502362582L725.7527355238809,575.1180144499169L730.4621806790551,574.7602192582339L735.0608050108139,574.9455897564427L739.5537044187843,575.0603258051563L743.9456311989046,574.8856642983827L748.2410242567082,574.9652826025276L752.4440360710728,574.9231909641319L756.5585568190141,575.1268569500047L760.588236012831,574.7675379527243L764.5365019512084,575.1404198644245L768.4065792440713,574.8829741447L772.2015046356596,575.0970251854706L775.924141320355,575.1309722242462L779.5771919203357,575.0862720323173L783.1632102724097,575.1427155416345L786.6846121527902,575.1185829199859L790.1436850526211,575.2604987846071L793.5425971033217,575.1571553373958L796.8834052389649,575.3229536121032L800.1680626726395,575.0992548981482L803.3984257548451,575.4921634296883L806.5762602742142,575.3601584122924L809.7032472541116,575.5297252358857L812.780988292749,575.3097977109421L815.8110104892849,575.6318106654622L818.7947709938408,575.5301404234597L821.7336612153719,575.7134911168004L824.6290107178063,575.5117221844166L827.4820908317648,575.7132261295516L830.2941180064156,575.6285120189971L833.0662569235838,575.5025217645789L835.7996233940707,575.5797570261462L838.495287054205,575.7822869343079L841.1542738789391,576.0458825826835L843.7775685262649,575.7625487153141L846.366116526356,575.9410191893404L848.9208263276169,575.7290312523686L851.4425712107161,575.9940399521277L853.9321910806985,575.9103694241261L856.3904941463745,575.6316376396986L858.8182584953923,575.9486233772406L861.2162335726725,575.8309319406083L863.5851415692333,576.0894613898265L865.9256787278466,576.1937826520035L868.2385165714317,575.7733825661197L870.5243030596054,575.316549724122L872.7836636783782,575.3875184023856L875.0172024675759,575.353701620536L877.2255029902107,575.3354161900515L879.4091292476961,575.4341393324501L881.568626544492,575.3968842530992L883.7045223054998,575.4627920568192L885.8173268492708,575.2058463302284L887.9075341198643,575.4575219771402L889.9756223799815,575.3678153255564L892.0220548678057,575.6169509004113L894.0472804198101,575.3645271330414L896.0517340616227,574.1745736248018L898.0358375688974,574.1405442076795L900,574.2056878694582" style="fill: none; stroke: #f58518; stroke-width: 2;"></path></g></g><path class="foreground" d="" style="display: none; fill: none;"></path></g></g><g class="mark-group role-legend"><g transform="translate(920,0)"><path class="background" d="M0,0h89v53h-89Z" style="pointer-events: none; fill: none;"></path><g><g class="mark-group role-legend-entry"><g transform="translate(0,16)"><path class="background" d="M0,0h0v0h0Z" style="pointer-events: none; fill: none;"></path><g><g class="mark-group role-scope"><g transform="translate(0,0)"><path class="background" d="M0,0h89v11h-89Z" style="pointer-events: none; fill: none; opacity: 1;"></path><g><g class="mark-symbol role-legend-symbol" style="pointer-events: none;"><path transform="translate(6,6)" d="M-5,0L5,0" style="fill: none; stroke: #4c78a8; stroke-width: 1.5; opacity: 1;"></path></g><g class="mark-text role-legend-label" style="pointer-events: none;"><text text-anchor="start" transform="translate(16,9)" style="font-family: sans-serif; font-size: 10px; fill: #000; opacity: 1;">Gaius</text></g></g><path class="foreground" d="" style="pointer-events: none; display: none; fill: none;"></path></g><g transform="translate(0,13)"><path class="background" d="M0,0h89v11h-89Z" style="pointer-events: none; fill: none; opacity: 1;"></path><g><g class="mark-symbol role-legend-symbol" style="pointer-events: none;"><path transform="translate(6,6)" d="M-5,0L5,0" style="fill: none; stroke: #f58518; stroke-width: 1.5; opacity: 1;"></path></g><g class="mark-text role-legend-label" style="pointer-events: none;"><text text-anchor="start" transform="translate(16,9)" style="font-family: sans-serif; font-size: 10px; fill: #000; opacity: 1;">GenericMatMul</text></g></g><path class="foreground" d="" style="pointer-events: none; display: none; fill: none;"></path></g><g transform="translate(0,26)"><path class="background" d="M0,0h89v11h-89Z" style="pointer-events: none; fill: none; opacity: 1;"></path><g><g class="mark-symbol role-legend-symbol" style="pointer-events: none;"><path transform="translate(6,6)" d="M-5,0L5,0" style="fill: none; stroke: #e45756; stroke-width: 1.5; opacity: 1;"></path></g><g class="mark-text role-legend-label" style="pointer-events: none;"><text text-anchor="start" transform="translate(16,9)" style="font-family: sans-serif; font-size: 10px; fill: #000; opacity: 1;">PaddedMatrices</text></g></g><path class="foreground" d="" style="pointer-events: none; display: none; fill: none;"></path></g></g></g><path class="foreground" d="" style="pointer-events: none; display: none; fill: none;"></path></g></g><g class="mark-text role-legend-title" style="pointer-events: none;"><text text-anchor="start" transform="translate(0,9)" style="font-family: sans-serif; font-size: 11px; font-weight: bold; fill: #000; opacity: 1;">Library</text></g></g><path class="foreground" d="" style="pointer-events: none; display: none; fill: none;"></path></g></g></g><path class="foreground" d="" style="display: none; fill: none;"></path></g></g></g></svg>
