<?xml version="1.0" encoding="utf-8"?>
<!DOCTYPE svg PUBLIC "-//W3C//DTD SVG 1.1//EN" "http://www.w3.org/Graphics/SVG/1.1/DTD/svg11.dtd">
<svg class="marks" width="1359" height="647" viewBox="0 0 1359 647" version="1.1" xmlns="http://www.w3.org/2000/svg" xmlns:xlink="http://www.w3.org/1999/xlink"><rect width="1359" height="647" fill="white"></rect><g fill="none" stroke-miterlimit="10" transform="translate(39,10)"><g class="mark-group role-frame root" role="graphics-object" aria-roledescription="group mark container"><g transform="translate(0,0)"><path class="background" aria-hidden="true" d="M0.5,0.5h1200v600h-1200Z" stroke="#ddd"></path><g><g class="mark-group role-axis" aria-hidden="true"><g transform="translate(0.5,600.5)"><path class="background" aria-hidden="true" d="M0,0h0v0h0Z" pointer-events="none"></path><g><g class="mark-rule role-axis-grid" pointer-events="none"><line transform="translate(0,-600)" x2="0" y2="600" stroke="#ddd" stroke-width="1" opacity="1"></line><line transform="translate(33,-600)" x2="0" y2="600" stroke="#ddd" stroke-width="1" opacity="1"></line><line transform="translate(67,-600)" x2="0" y2="600" stroke="#ddd" stroke-width="1" opacity="1"></line><line transform="translate(100,-600)" x2="0" y2="600" stroke="#ddd" stroke-width="1" opacity="1"></line><line transform="translate(133,-600)" x2="0" y2="600" stroke="#ddd" stroke-width="1" opacity="1"></line><line transform="translate(167,-600)" x2="0" y2="600" stroke="#ddd" stroke-width="1" opacity="1"></line><line transform="translate(200,-600)" x2="0" y2="600" stroke="#ddd" stroke-width="1" opacity="1"></line><line transform="translate(233,-600)" x2="0" y2="600" stroke="#ddd" stroke-width="1" opacity="1"></line><line transform="translate(267,-600)" x2="0" y2="600" stroke="#ddd" stroke-width="1" opacity="1"></line><line transform="translate(300,-600)" x2="0" y2="600" stroke="#ddd" stroke-width="1" opacity="1"></line><line transform="translate(333,-600)" x2="0" y2="600" stroke="#ddd" stroke-width="1" opacity="1"></line><line transform="translate(367,-600)" x2="0" y2="600" stroke="#ddd" stroke-width="1" opacity="1"></line><line transform="translate(400,-600)" x2="0" y2="600" stroke="#ddd" stroke-width="1" opacity="1"></line><line transform="translate(433,-600)" x2="0" y2="600" stroke="#ddd" stroke-width="1" opacity="1"></line><line transform="translate(467,-600)" x2="0" y2="600" stroke="#ddd" stroke-width="1" opacity="1"></line><line transform="translate(500,-600)" x2="0" y2="600" stroke="#ddd" stroke-width="1" opacity="1"></line><line transform="translate(533,-600)" x2="0" y2="600" stroke="#ddd" stroke-width="1" opacity="1"></line><line transform="translate(567,-600)" x2="0" y2="600" stroke="#ddd" stroke-width="1" opacity="1"></line><line transform="translate(600,-600)" x2="0" y2="600" stroke="#ddd" stroke-width="1" opacity="1"></line><line transform="translate(633,-600)" x2="0" y2="600" stroke="#ddd" stroke-width="1" opacity="1"></line><line transform="translate(667,-600)" x2="0" y2="600" stroke="#ddd" stroke-width="1" opacity="1"></line><line transform="translate(700,-600)" x2="0" y2="600" stroke="#ddd" stroke-width="1" opacity="1"></line><line transform="translate(733,-600)" x2="0" y2="600" stroke="#ddd" stroke-width="1" opacity="1"></line><line transform="translate(767,-600)" x2="0" y2="600" stroke="#ddd" stroke-width="1" opacity="1"></line><line transform="translate(800,-600)" x2="0" y2="600" stroke="#ddd" stroke-width="1" opacity="1"></line><line transform="translate(833,-600)" x2="0" y2="600" stroke="#ddd" stroke-width="1" opacity="1"></line><line transform="translate(867,-600)" x2="0" y2="600" stroke="#ddd" stroke-width="1" opacity="1"></line><line transform="translate(900,-600)" x2="0" y2="600" stroke="#ddd" stroke-width="1" opacity="1"></line><line transform="translate(933,-600)" x2="0" y2="600" stroke="#ddd" stroke-width="1" opacity="1"></line><line transform="translate(967,-600)" x2="0" y2="600" stroke="#ddd" stroke-width="1" opacity="1"></line><line transform="translate(1000,-600)" x2="0" y2="600" stroke="#ddd" stroke-width="1" opacity="1"></line><line transform="translate(1033,-600)" x2="0" y2="600" stroke="#ddd" stroke-width="1" opacity="1"></line><line transform="translate(1067,-600)" x2="0" y2="600" stroke="#ddd" stroke-width="1" opacity="1"></line><line transform="translate(1100,-600)" x2="0" y2="600" stroke="#ddd" stroke-width="1" opacity="1"></line><line transform="translate(1133,-600)" x2="0" y2="600" stroke="#ddd" stroke-width="1" opacity="1"></line><line transform="translate(1167,-600)" x2="0" y2="600" stroke="#ddd" stroke-width="1" opacity="1"></line><line transform="translate(1200,-600)" x2="0" y2="600" stroke="#ddd" stroke-width="1" opacity="1"></line></g></g><path class="foreground" aria-hidden="true" d="" pointer-events="none" display="none"></path></g></g><g class="mark-group role-axis" aria-hidden="true"><g transform="translate(0.5,0.5)"><path class="background" aria-hidden="true" d="M0,0h0v0h0Z" pointer-events="none"></path><g><g class="mark-rule role-axis-grid" pointer-events="none"><line transform="translate(0,600)" x2="1200" y2="0" stroke="#ddd" stroke-width="1" opacity="1"></line><line transform="translate(0,563)" x2="1200" y2="0" stroke="#ddd" stroke-width="1" opacity="1"></line><line transform="translate(0,525)" x2="1200" y2="0" stroke="#ddd" stroke-width="1" opacity="1"></line><line transform="translate(0,488)" x2="1200" y2="0" stroke="#ddd" stroke-width="1" opacity="1"></line><line transform="translate(0,450)" x2="1200" y2="0" stroke="#ddd" stroke-width="1" opacity="1"></line><line transform="translate(0,413)" x2="1200" y2="0" stroke="#ddd" stroke-width="1" opacity="1"></line><line transform="translate(0,375)" x2="1200" y2="0" stroke="#ddd" stroke-width="1" opacity="1"></line><line transform="translate(0,338)" x2="1200" y2="0" stroke="#ddd" stroke-width="1" opacity="1"></line><line transform="translate(0,300)" x2="1200" y2="0" stroke="#ddd" stroke-width="1" opacity="1"></line><line transform="translate(0,263)" x2="1200" y2="0" stroke="#ddd" stroke-width="1" opacity="1"></line><line transform="translate(0,225)" x2="1200" y2="0" stroke="#ddd" stroke-width="1" opacity="1"></line><line transform="translate(0,188)" x2="1200" y2="0" stroke="#ddd" stroke-width="1" opacity="1"></line><line transform="translate(0,150)" x2="1200" y2="0" stroke="#ddd" stroke-width="1" opacity="1"></line><line transform="translate(0,113)" x2="1200" y2="0" stroke="#ddd" stroke-width="1" opacity="1"></line><line transform="translate(0,75)" x2="1200" y2="0" stroke="#ddd" stroke-width="1" opacity="1"></line><line transform="translate(0,38)" x2="1200" y2="0" stroke="#ddd" stroke-width="1" opacity="1"></line><line transform="translate(0,0)" x2="1200" y2="0" stroke="#ddd" stroke-width="1" opacity="1"></line></g></g><path class="foreground" aria-hidden="true" d="" pointer-events="none" display="none"></path></g></g><g class="mark-group role-axis" role="graphics-symbol" aria-roledescription="axis" aria-label="X-axis titled 'Size' for a linear scale with values from 200 to 2,000"><g transform="translate(0.5,600.5)"><path class="background" aria-hidden="true" d="M0,0h0v0h0Z" pointer-events="none"></path><g><g class="mark-rule role-axis-tick" pointer-events="none"><line transform="translate(0,0)" x2="0" y2="5" stroke="#888" stroke-width="1" opacity="1"></line><line transform="translate(33,0)" x2="0" y2="5" stroke="#888" stroke-width="1" opacity="1"></line><line transform="translate(67,0)" x2="0" y2="5" stroke="#888" stroke-width="1" opacity="1"></line><line transform="translate(100,0)" x2="0" y2="5" stroke="#888" stroke-width="1" opacity="1"></line><line transform="translate(133,0)" x2="0" y2="5" stroke="#888" stroke-width="1" opacity="1"></line><line transform="translate(167,0)" x2="0" y2="5" stroke="#888" stroke-width="1" opacity="1"></line><line transform="translate(200,0)" x2="0" y2="5" stroke="#888" stroke-width="1" opacity="1"></line><line transform="translate(233,0)" x2="0" y2="5" stroke="#888" stroke-width="1" opacity="1"></line><line transform="translate(267,0)" x2="0" y2="5" stroke="#888" stroke-width="1" opacity="1"></line><line transform="translate(300,0)" x2="0" y2="5" stroke="#888" stroke-width="1" opacity="1"></line><line transform="translate(333,0)" x2="0" y2="5" stroke="#888" stroke-width="1" opacity="1"></line><line transform="translate(367,0)" x2="0" y2="5" stroke="#888" stroke-width="1" opacity="1"></line><line transform="translate(400,0)" x2="0" y2="5" stroke="#888" stroke-width="1" opacity="1"></line><line transform="translate(433,0)" x2="0" y2="5" stroke="#888" stroke-width="1" opacity="1"></line><line transform="translate(467,0)" x2="0" y2="5" stroke="#888" stroke-width="1" opacity="1"></line><line transform="translate(500,0)" x2="0" y2="5" stroke="#888" stroke-width="1" opacity="1"></line><line transform="translate(533,0)" x2="0" y2="5" stroke="#888" stroke-width="1" opacity="1"></line><line transform="translate(567,0)" x2="0" y2="5" stroke="#888" stroke-width="1" opacity="1"></line><line transform="translate(600,0)" x2="0" y2="5" stroke="#888" stroke-width="1" opacity="1"></line><line transform="translate(633,0)" x2="0" y2="5" stroke="#888" stroke-width="1" opacity="1"></line><line transform="translate(667,0)" x2="0" y2="5" stroke="#888" stroke-width="1" opacity="1"></line><line transform="translate(700,0)" x2="0" y2="5" stroke="#888" stroke-width="1" opacity="1"></line><line transform="translate(733,0)" x2="0" y2="5" stroke="#888" stroke-width="1" opacity="1"></line><line transform="translate(767,0)" x2="0" y2="5" stroke="#888" stroke-width="1" opacity="1"></line><line transform="translate(800,0)" x2="0" y2="5" stroke="#888" stroke-width="1" opacity="1"></line><line transform="translate(833,0)" x2="0" y2="5" stroke="#888" stroke-width="1" opacity="1"></line><line transform="translate(867,0)" x2="0" y2="5" stroke="#888" stroke-width="1" opacity="1"></line><line transform="translate(900,0)" x2="0" y2="5" stroke="#888" stroke-width="1" opacity="1"></line><line transform="translate(933,0)" x2="0" y2="5" stroke="#888" stroke-width="1" opacity="1"></line><line transform="translate(967,0)" x2="0" y2="5" stroke="#888" stroke-width="1" opacity="1"></line><line transform="translate(1000,0)" x2="0" y2="5" stroke="#888" stroke-width="1" opacity="1"></line><line transform="translate(1033,0)" x2="0" y2="5" stroke="#888" stroke-width="1" opacity="1"></line><line transform="translate(1067,0)" x2="0" y2="5" stroke="#888" stroke-width="1" opacity="1"></line><line transform="translate(1100,0)" x2="0" y2="5" stroke="#888" stroke-width="1" opacity="1"></line><line transform="translate(1133,0)" x2="0" y2="5" stroke="#888" stroke-width="1" opacity="1"></line><line transform="translate(1167,0)" x2="0" y2="5" stroke="#888" stroke-width="1" opacity="1"></line><line transform="translate(1200,0)" x2="0" y2="5" stroke="#888" stroke-width="1" opacity="1"></line></g><g class="mark-text role-axis-label" pointer-events="none"><text text-anchor="start" transform="translate(0,15)" font-family="sans-serif" font-size="10px" fill="#000" opacity="1">200</text><text text-anchor="middle" transform="translate(33.33333333333333,15)" font-family="sans-serif" font-size="10px" fill="#000" opacity="0">250</text><text text-anchor="middle" transform="translate(66.66666666666666,15)" font-family="sans-serif" font-size="10px" fill="#000" opacity="1">300</text><text text-anchor="middle" transform="translate(100,15)" font-family="sans-serif" font-size="10px" fill="#000" opacity="0">350</text><text text-anchor="middle" transform="translate(133.33333333333331,15)" font-family="sans-serif" font-size="10px" fill="#000" opacity="1">400</text><text text-anchor="middle" transform="translate(166.66666666666669,15)" font-family="sans-serif" font-size="10px" fill="#000" opacity="0">450</text><text text-anchor="middle" transform="translate(200,15)" font-family="sans-serif" font-size="10px" fill="#000" opacity="1">500</text><text text-anchor="middle" transform="translate(233.33333333333334,15)" font-family="sans-serif" font-size="10px" fill="#000" opacity="0">550</text><text text-anchor="middle" transform="translate(266.66666666666663,15)" font-family="sans-serif" font-size="10px" fill="#000" opacity="1">600</text><text text-anchor="middle" transform="translate(300,15)" font-family="sans-serif" font-size="10px" fill="#000" opacity="0">650</text><text text-anchor="middle" transform="translate(333.33333333333337,15)" font-family="sans-serif" font-size="10px" fill="#000" opacity="1">700</text><text text-anchor="middle" transform="translate(366.6666666666667,15)" font-family="sans-serif" font-size="10px" fill="#000" opacity="0">750</text><text text-anchor="middle" transform="translate(400,15)" font-family="sans-serif" font-size="10px" fill="#000" opacity="1">800</text><text text-anchor="middle" transform="translate(433.3333333333333,15)" font-family="sans-serif" font-size="10px" fill="#000" opacity="0">850</text><text text-anchor="middle" transform="translate(466.6666666666667,15)" font-family="sans-serif" font-size="10px" fill="#000" opacity="1">900</text><text text-anchor="middle" transform="translate(500,15)" font-family="sans-serif" font-size="10px" fill="#000" opacity="0">950</text><text text-anchor="middle" transform="translate(533.3333333333333,15)" font-family="sans-serif" font-size="10px" fill="#000" opacity="1">1,000</text><text text-anchor="middle" transform="translate(566.6666666666666,15)" font-family="sans-serif" font-size="10px" fill="#000" opacity="0">1,050</text><text text-anchor="middle" transform="translate(600,15)" font-family="sans-serif" font-size="10px" fill="#000" opacity="1">1,100</text><text text-anchor="middle" transform="translate(633.3333333333334,15)" font-family="sans-serif" font-size="10px" fill="#000" opacity="0">1,150</text><text text-anchor="middle" transform="translate(666.6666666666667,15)" font-family="sans-serif" font-size="10px" fill="#000" opacity="1">1,200</text><text text-anchor="middle" transform="translate(700,15)" font-family="sans-serif" font-size="10px" fill="#000" opacity="0">1,250</text><text text-anchor="middle" transform="translate(733.3333333333334,15)" font-family="sans-serif" font-size="10px" fill="#000" opacity="1">1,300</text><text text-anchor="middle" transform="translate(766.6666666666666,15)" font-family="sans-serif" font-size="10px" fill="#000" opacity="0">1,350</text><text text-anchor="middle" transform="translate(800,15)" font-family="sans-serif" font-size="10px" fill="#000" opacity="1">1,400</text><text text-anchor="middle" transform="translate(833.3333333333333,15)" font-family="sans-serif" font-size="10px" fill="#000" opacity="0">1,450</text><text text-anchor="middle" transform="translate(866.6666666666666,15)" font-family="sans-serif" font-size="10px" fill="#000" opacity="1">1,500</text><text text-anchor="middle" transform="translate(900,15)" font-family="sans-serif" font-size="10px" fill="#000" opacity="0">1,550</text><text text-anchor="middle" transform="translate(933.3333333333334,15)" font-family="sans-serif" font-size="10px" fill="#000" opacity="1">1,600</text><text text-anchor="middle" transform="translate(966.6666666666667,15)" font-family="sans-serif" font-size="10px" fill="#000" opacity="0">1,650</text><text text-anchor="middle" transform="translate(1000,15)" font-family="sans-serif" font-size="10px" fill="#000" opacity="1">1,700</text><text text-anchor="middle" transform="translate(1033.3333333333335,15)" font-family="sans-serif" font-size="10px" fill="#000" opacity="0">1,750</text><text text-anchor="middle" transform="translate(1066.6666666666665,15)" font-family="sans-serif" font-size="10px" fill="#000" opacity="1">1,800</text><text text-anchor="middle" transform="translate(1100,15)" font-family="sans-serif" font-size="10px" fill="#000" opacity="0">1,850</text><text text-anchor="middle" transform="translate(1133.3333333333333,15)" font-family="sans-serif" font-size="10px" fill="#000" opacity="1">1,900</text><text text-anchor="middle" transform="translate(1166.6666666666667,15)" font-family="sans-serif" font-size="10px" fill="#000" opacity="0">1,950</text><text text-anchor="end" transform="translate(1200,15)" font-family="sans-serif" font-size="10px" fill="#000" opacity="1">2,000</text></g><g class="mark-rule role-axis-domain" pointer-events="none"><line transform="translate(0,0)" x2="1200" y2="0" stroke="#888" stroke-width="1" opacity="1"></line></g><g class="mark-text role-axis-title" pointer-events="none"><text text-anchor="middle" transform="translate(600,30)" font-family="sans-serif" font-size="11px" font-weight="bold" fill="#000" opacity="1">Size</text></g></g><path class="foreground" aria-hidden="true" d="" pointer-events="none" display="none"></path></g></g><g class="mark-group role-axis" role="graphics-symbol" aria-roledescription="axis" aria-label="Y-axis titled 'GFLOPS' for a linear scale with values from 0 to 80"><g transform="translate(0.5,0.5)"><path class="background" aria-hidden="true" d="M0,0h0v0h0Z" pointer-events="none"></path><g><g class="mark-rule role-axis-tick" pointer-events="none"><line transform="translate(0,600)" x2="-5" y2="0" stroke="#888" stroke-width="1" opacity="1"></line><line transform="translate(0,563)" x2="-5" y2="0" stroke="#888" stroke-width="1" opacity="1"></line><line transform="translate(0,525)" x2="-5" y2="0" stroke="#888" stroke-width="1" opacity="1"></line><line transform="translate(0,488)" x2="-5" y2="0" stroke="#888" stroke-width="1" opacity="1"></line><line transform="translate(0,450)" x2="-5" y2="0" stroke="#888" stroke-width="1" opacity="1"></line><line transform="translate(0,413)" x2="-5" y2="0" stroke="#888" stroke-width="1" opacity="1"></line><line transform="translate(0,375)" x2="-5" y2="0" stroke="#888" stroke-width="1" opacity="1"></line><line transform="translate(0,338)" x2="-5" y2="0" stroke="#888" stroke-width="1" opacity="1"></line><line transform="translate(0,300)" x2="-5" y2="0" stroke="#888" stroke-width="1" opacity="1"></line><line transform="translate(0,263)" x2="-5" y2="0" stroke="#888" stroke-width="1" opacity="1"></line><line transform="translate(0,225)" x2="-5" y2="0" stroke="#888" stroke-width="1" opacity="1"></line><line transform="translate(0,188)" x2="-5" y2="0" stroke="#888" stroke-width="1" opacity="1"></line><line transform="translate(0,150)" x2="-5" y2="0" stroke="#888" stroke-width="1" opacity="1"></line><line transform="translate(0,113)" x2="-5" y2="0" stroke="#888" stroke-width="1" opacity="1"></line><line transform="translate(0,75)" x2="-5" y2="0" stroke="#888" stroke-width="1" opacity="1"></line><line transform="translate(0,38)" x2="-5" y2="0" stroke="#888" stroke-width="1" opacity="1"></line><line transform="translate(0,0)" x2="-5" y2="0" stroke="#888" stroke-width="1" opacity="1"></line></g><g class="mark-text role-axis-label" pointer-events="none"><text text-anchor="end" transform="translate(-7,603)" font-family="sans-serif" font-size="10px" fill="#000" opacity="1">0</text><text text-anchor="end" transform="translate(-7,565.5)" font-family="sans-serif" font-size="10px" fill="#000" opacity="1">5</text><text text-anchor="end" transform="translate(-7,528)" font-family="sans-serif" font-size="10px" fill="#000" opacity="1">10</text><text text-anchor="end" transform="translate(-7,490.5)" font-family="sans-serif" font-size="10px" fill="#000" opacity="1">15</text><text text-anchor="end" transform="translate(-7,453)" font-family="sans-serif" font-size="10px" fill="#000" opacity="1">20</text><text text-anchor="end" transform="translate(-7,415.5)" font-family="sans-serif" font-size="10px" fill="#000" opacity="1">25</text><text text-anchor="end" transform="translate(-7,378)" font-family="sans-serif" font-size="10px" fill="#000" opacity="1">30</text><text text-anchor="end" transform="translate(-7,340.5)" font-family="sans-serif" font-size="10px" fill="#000" opacity="1">35</text><text text-anchor="end" transform="translate(-7,303)" font-family="sans-serif" font-size="10px" fill="#000" opacity="1">40</text><text text-anchor="end" transform="translate(-7,265.5)" font-family="sans-serif" font-size="10px" fill="#000" opacity="1">45</text><text text-anchor="end" transform="translate(-7,228)" font-family="sans-serif" font-size="10px" fill="#000" opacity="1">50</text><text text-anchor="end" transform="translate(-7,190.5)" font-family="sans-serif" font-size="10px" fill="#000" opacity="1">55</text><text text-anchor="end" transform="translate(-7,153)" font-family="sans-serif" font-size="10px" fill="#000" opacity="1">60</text><text text-anchor="end" transform="translate(-7,115.5)" font-family="sans-serif" font-size="10px" fill="#000" opacity="1">65</text><text text-anchor="end" transform="translate(-7,78)" font-family="sans-serif" font-size="10px" fill="#000" opacity="1">70</text><text text-anchor="end" transform="translate(-7,40.5)" font-family="sans-serif" font-size="10px" fill="#000" opacity="1">75</text><text text-anchor="end" transform="translate(-7,3)" font-family="sans-serif" font-size="10px" fill="#000" opacity="1">80</text></g><g class="mark-rule role-axis-domain" pointer-events="none"><line transform="translate(0,600)" x2="0" y2="-600" stroke="#888" stroke-width="1" opacity="1"></line></g><g class="mark-text role-axis-title" pointer-events="none"><text text-anchor="middle" transform="translate(-23,300) rotate(-90) translate(0,-2)" font-family="sans-serif" font-size="11px" font-weight="bold" fill="#000" opacity="1">GFLOPS</text></g></g><path class="foreground" aria-hidden="true" d="" pointer-events="none" display="none"></path></g></g><g class="mark-group role-scope pathgroup" role="graphics-object" aria-roledescription="group mark container"><g transform="translate(0,0)"><path class="background" aria-hidden="true" d="M0,0h1200v600h-1200Z"></path><g><g class="mark-line role-mark marks" role="graphics-object" aria-roledescription="line mark container"><path aria-label="Library: OpenBLAS; Size: 256; GFLOPS: 16.0089466503" role="graphics-symbol" aria-roledescription="line mark" d="M37.333333333333336,479.9329001230928L41.333333333333336,480.3564679444507L45.333333333333336,479.3907138372622L50,479.7173685300295L54,479.10884070815746L58,478.54425651722687L62.66666666666667,477.39215602392954L66.66666666666666,476.6636324905145L70.66666666666666,476.3554733923148L75.33333333333333,476.8726955345771L79.33333333333333,476.8686153868718L84.00000000000001,475.7909575352916L88,476.073568993847L92.66666666666666,476.49834288028165L97.33333333333333,476.4994088598668L101.33333333333334,476.9016414541497L106,477.43894014160435L110.66666666666666,476.9168597079853L115.33333333333333,477.9415935161993L119.33333333333334,479.02837947622163L124,477.8066735259523L128.66666666666666,480.492248599768L133.33333333333331,478.48173561499067L138,479.0664445836134L142.66666666666666,477.6720327109221L147.33333333333334,478.53516936787605L152,477.13303768289404L156.66666666666669,477.6145210629189L161.33333333333334,476.83824856424496L166,477.81151732433875L170.66666666666666,476.319841943428L176,477.0565547500137L180.66666666666666,477.3495417550139L185.33333333333331,476.85575295955664L190,477.9835358596502L195.33333333333331,478.94540300662516L200,477.58484496463376L204.66666666666666,479.99725692426347L210,479.0806585887859L214.66666666666666,479.25755226834883L219.99999999999997,479.3542502227712L224.66666666666669,480.7622074357008L230.00000000000003,480.12184531577884L234.66666666666669,478.8251712139283L240,478.0953565642793L244.66666666666669,478.9204812406415L250,478.12260953230367L255.33333333333334,478.5156293458191L260,477.17597375403597L265.33333333333337,477.77533907381775L270.6666666666667,478.0283458497523L276,478.25557305642496L280.6666666666667,479.82484951618596L286,479.8163063437001L291.33333333333337,480.1870223817893L296.6666666666667,481.5779143313241L302,480.97067194315923L307.33333333333337,480.72398475406834L312.66666666666663,480.2905614999553L318,480.37868902310674L323.3333333333333,480.01746511773234L328.6666666666667,479.60564341241263L334,479.5807108214962L339.33333333333337,479.85032804087916L344.66666666666663,479.7054576836711L350,479.8280029040552L355.3333333333333,479.7985309947839L360.6666666666667,479.8640990907775L366,480.268195242639L372,479.67483214170863L377.33333333333337,479.68133328650384L382.6666666666667,480.8378435142972L387.99999999999994,480.2492357249559L394,481.0793937114867L399.3333333333333,480.6975290867402L404.66666666666663,481.1097440804609L410.66666666666663,479.614223826878L416,479.5366362276985L422,481.4356743967736L427.3333333333333,481.1680536553814L433.3333333333333,478.861493517608L438.6666666666667,479.7306332374154L444.6666666666667,481.99715673191656L450,482.2151764162361L456,481.4374819474919L461.3333333333333,481.69468183918116L467.3333333333333,484.0975510498622L473.3333333333333,482.31756490429814L478.6666666666667,481.71168534549105L484.6666666666667,481.05944869655696L490.6666666666667,479.8720261377728L496,479.5085237037467L502,481.2534121980418L508,479.7826617775616L514,481.09837436273244L519.3333333333333,480.71514198012505L525.3333333333334,480.1001885391462L531.3333333333334,481.3114001572922L537.3333333333334,480.4260907467625L543.3333333333334,481.27703646791775L549.3333333333334,481.240001198356L555.3333333333334,482.3150110890644L561.3333333333334,480.76667073444065L567.3333333333334,481.9673728687304L573.3333333333334,480.0283995455525L579.3333333333333,481.467279494378L585.3333333333333,480.1047980723151L591.3333333333333,481.3615231020432L597.3333333333334,479.7693228390031L603.3333333333334,481.35952984407476L609.3333333333334,479.6138110589343L615.3333333333334,480.29284484088953L622,481.51882562563304L628,480.89029047422895L634,481.99481635338907L640,481.06482978770725L646,481.9163258629727L652.6666666666666,481.28305966427524L658.6666666666666,480.4287839108898L664.6666666666666,482.21845056620987L671.3333333333333,482.02068681090884L677.3333333333333,479.98154886696716L683.3333333333333,482.15710865998557L690,481.02642167140374L696,479.2138500254505L702,481.59415370114004L708.6666666666666,481.7192584307446L714.6666666666666,480.07258500237515L721.3333333333334,481.45295063487083L727.3333333333334,483.15718452021474L734,483.499448392104L740,480.8259896205759L746.6666666666666,479.36846098029423L753.3333333333334,480.9627228969919L759.3333333333334,483.01438079562496L766,483.3036930354618L772,481.90007922105474L778.6666666666666,480.3087858134195L785.3333333333334,480.5120825644729L791.3333333333334,481.2247853296921L798,482.55081246696346L804.6666666666667,484.58858017839503L810.6666666666667,483.12213541455833L817.3333333333334,483.9794261645662L824,483.7177429197219L830.6666666666666,484.5102290339074L837.3333333333334,480.5495752288054L843.3333333333333,481.8026415038827L850,481.90617000446696L856.6666666666667,482.1237455154235L863.3333333333334,482.5707928134728L870,483.39011516403417L876.6666666666666,482.30846088004574L883.3333333333334,482.2424736983991L890,482.8263145413021L896.6666666666666,484.1169904658192L903.3333333333334,484.26325026731195L910,482.7611786429114L916.6666666666666,481.98087430645813L923.3333333333334,482.4877656047906L930,483.3960739895343L936.6666666666666,483.2824483137138L943.3333333333333,481.65345459208436L950,481.42271441152275L956.6666666666667,483.1707664138841L963.3333333333334,483.4264970293743L970.6666666666666,480.6693498201968L977.3333333333333,482.2843877308189L983.9999999999999,480.00461299188237L990.6666666666667,481.8813193894181L997.3333333333334,480.7304461828335L1004.6666666666666,483.8898296227197L1011.3333333333333,483.59704058111015L1018.0000000000001,482.5225059266768L1024.6666666666667,481.8008167770187L1032,480.6156081480946L1038.6666666666665,482.6506295734739L1045.3333333333333,480.7474470486369L1052.6666666666667,483.7153380963582L1059.3333333333333,482.5015749445256L1066.6666666666665,482.76249263472914L1073.3333333333335,484.1210993057757L1080,483.2922655759697L1087.3333333333333,484.2163596529524L1094,483.40091712175723L1101.3333333333333,481.27928176444397L1108,482.5329768387408L1115.3333333333333,481.85580231474125L1122,482.41119612089614L1129.3333333333333,482.24933984084356L1136,482.88757187240964L1143.3333333333333,483.542171343838L1150,484.69230701587963L1157.3333333333333,479.49939011216713L1164.6666666666665,484.09411927143367L1171.3333333333335,483.1293932159582L1178.6666666666667,480.47721243181303L1186,483.7501762352533L1192.6666666666667,483.80278019217735L1200,480.7304810773317" stroke="#f58518" stroke-width="2"></path></g></g><path class="foreground" aria-hidden="true" d="" display="none"></path></g><g transform="translate(0,0)"><path class="background" aria-hidden="true" d="M0,0h1200v600h-1200Z"></path><g><g class="mark-line role-mark marks" role="graphics-object" aria-roledescription="line mark container"><path aria-label="Library: MKL; Size: 256; GFLOPS: 67.2950019755" role="graphics-symbol" aria-roledescription="line mark" d="M37.333333333333336,95.28748518401903L41.333333333333336,113.48797114517575L45.333333333333336,100.6649902980453L50,117.87958005947046L54,107.15292565400358L58,122.30396330374104L62.66666666666667,108.04463419166996L66.66666666666666,97.16987339854803L70.66666666666666,100.04857723151655L75.33333333333333,102.09897197141822L79.33333333333333,116.38732902154436L84.00000000000001,103.76870214356711L88,93.59327344082988L92.66666666666666,107.81204281658248L97.33333333333333,96.24935949408136L101.33333333333334,85.8581446468469L106,111.7357435674833L110.66666666666666,100.02621499285473L115.33333333333333,102.6309973426431L119.33333333333334,108.01504694828598L124,98.67746925597186L128.66666666666666,96.02100823823166L133.33333333333331,84.41898047075766L138,107.53455653441732L142.66666666666666,101.27442040916921L147.33333333333334,102.92159384574657L152,89.77579557040283L156.66666666666669,106.48637084196363L161.33333333333334,91.16223596394148L166,99.48420376685499L170.66666666666666,82.93356251336037L176,89.54009354422223L180.66666666666666,114.96485807993379L185.33333333333331,106.03029315302857L190,111.42985680319025L195.33333333333331,108.75317526824762L200,100.83633208679966L204.66666666666666,112.70228503184119L210,112.6314841112959L214.66666666666666,103.67698045367999L219.99999999999997,101.40570166527421L224.66666666666669,104.80434140264043L230.00000000000003,107.15148410934661L234.66666666666669,100.17025459736747L240,97.70689958943082L244.66666666666669,118.53938439563159L250,117.85397266874911L255.33333333333334,120.09387406023417L260,110.58303606804691L265.33333333333337,113.41324215978634L270.6666666666667,115.10338228866446L276,119.03684172250789L280.6666666666667,121.0843237845613L286,121.45042574158799L291.33333333333337,119.31937742362845L296.6666666666667,123.03109283519571L302,113.40549420258719L307.33333333333337,118.89246313985437L312.66666666666663,118.7149977925039L318,119.79923846029317L323.3333333333333,121.49645535423623L328.6666666666667,122.41911278921394L334,120.62691074755692L339.33333333333337,122.4789488380169L344.66666666666663,118.35661235886154L350,120.50059415538328L355.3333333333333,121.75446709820392L360.6666666666667,119.84849588671534L366,122.44880746807362L372,121.63541296116995L377.33333333333337,121.63507948356256L382.6666666666667,127.01329329617404L387.99999999999994,124.22451964308097L394,132.97571182198413L399.3333333333333,132.511134824616L404.66666666666663,132.16592080603982L410.66666666666663,122.1740814089199L416,121.93020231827983L422,129.27016824160387L427.3333333333333,124.02314862826738L433.3333333333333,113.25139796814044L438.6666666666667,126.0873370230213L444.6666666666667,134.35851851012103L450,136.14651849135595L456,124.26656059416756L461.3333333333333,125.33803686014618L467.3333333333333,126.52804547509686L473.3333333333333,126.6324908192525L478.6666666666667,129.47748660096764L484.6666666666667,122.5006409832715L490.6666666666667,115.06385579731156L496,116.64750606724223L502,119.74704525184133L508,116.58441253189322L514,121.28650616426691L519.3333333333333,121.10373739128278L525.3333333333334,115.49313035635653L531.3333333333334,122.12442316538863L537.3333333333334,119.41916886982895L543.3333333333334,122.3273999558907L549.3333333333334,117.19153381395166L555.3333333333334,118.62708206806299L561.3333333333334,116.67744014720367L567.3333333333334,120.64625462623324L573.3333333333334,112.25491855571941L579.3333333333333,121.41249797913336L585.3333333333333,119.80077310168534L591.3333333333333,124.40974543832975L597.3333333333334,112.74043117309893L603.3333333333334,116.45615190258951L609.3333333333334,105.35820297202369L615.3333333333334,107.91496292160451L622,117.38757130499042L628,117.03653750654314L634,122.42241331106763L640,122.63128244256663L646,116.03087497041167L652.6666666666666,114.69648980435974L658.6666666666666,118.35451734134581L664.6666666666666,124.9155429662102L671.3333333333333,127.6082525457886L677.3333333333333,122.6589820668581L683.3333333333333,125.5645984925974L690,114.55603560825836L696,115.17021043615101L702,121.4983582210251L708.6666666666666,123.84120059892962L714.6666666666666,116.22357221581814L721.3333333333334,116.44073380888696L727.3333333333334,120.31435176203114L734,116.5093840651904L740,105.1662470655103L746.6666666666666,109.13080625234346L753.3333333333334,116.32203457500884L759.3333333333334,117.19967851136236L766,118.56918135573835L772,119.1785373037117L778.6666666666666,116.03819572890734L785.3333333333334,104.69456000364441L791.3333333333334,112.60219476771863L798,130.64557088400755L804.6666666666667,137.22874832517377L810.6666666666667,125.11711375540615L817.3333333333334,128.7904598684833L824,128.00186964934096L830.6666666666666,133.880053332908L837.3333333333334,116.23965028126216L843.3333333333333,105.63546813349762L850,105.97943834043787L856.6666666666667,113.29737785466511L863.3333333333334,119.30131701087122L870,120.34327512416488L876.6666666666666,107.450995239312L883.3333333333334,105.6124574663922L890,121.48335507303227L896.6666666666666,125.76682291554735L903.3333333333334,125.32163147082636L910,112.27380310249389L916.6666666666666,115.77085300199347L923.3333333333334,117.80881844799038L930,121.03055053961675L936.6666666666666,121.19318783225548L943.3333333333333,112.04575407815194L950,112.9542581683229L956.6666666666667,119.39634784041043L963.3333333333334,121.06005400285265L970.6666666666666,117.10496514874524L977.3333333333333,111.30299999205245L983.9999999999999,101.6777150119255L990.6666666666667,113.50888782279449L997.3333333333334,113.58991474977293L1004.6666666666666,123.03228960599877L1011.3333333333333,122.29312067970551L1018.0000000000001,110.3956917522989L1024.6666666666667,106.01995967493369L1032,114.41830205048493L1038.6666666666665,119.93831487254486L1045.3333333333333,117.80399251466103L1052.6666666666667,122.50607349880431L1059.3333333333333,108.63012073538326L1066.6666666666665,127.41420598731193L1073.3333333333335,131.80532938610003L1080,133.46332050057L1087.3333333333333,124.76536936995524L1094,125.60768627301981L1101.3333333333333,113.17319670637393L1108,121.41423900018995L1115.3333333333333,102.64453500287571L1122,110.19136777749611L1129.3333333333333,130.4727005246175L1136,128.6226103898088L1143.3333333333333,118.3180323234039L1150,138.87578863017782L1157.3333333333333,108.3833706187461L1164.6666666666665,128.01127495508547L1171.3333333333335,117.34775298262522L1178.6666666666667,119.09306035166142L1186,121.36396019817595L1192.6666666666667,122.17744036053888L1200,115.25304368776293" stroke="#4c78a8" stroke-width="2"></path></g></g><path class="foreground" aria-hidden="true" d="" display="none"></path></g><g transform="translate(0,0)"><path class="background" aria-hidden="true" d="M0,0h1200v600h-1200Z"></path><g><g class="mark-line role-mark marks" role="graphics-object" aria-roledescription="line mark container"><path aria-label="Library: PaddedMatrices; Size: 256; GFLOPS: 71.6648875619" role="graphics-symbol" aria-roledescription="line mark" d="M37.333333333333336,62.513343286068434L41.333333333333336,70.5214297069889L45.333333333333336,72.60873138949316L50,75.85614625810896L54,79.37476438005153L58,68.22289590263017L62.66666666666667,69.94490626277567L66.66666666666666,74.24651736998624L70.66666666666666,76.72571608067733L75.33333333333333,78.9331634826267L79.33333333333333,69.64727300848045L84.00000000000001,70.57044446685674L88,72.63473422080118L92.66666666666666,75.62798304058146L97.33333333333333,75.86928408921239L101.33333333333334,67.21367788655344L106,68.75835011585106L110.66666666666666,70.22069502074689L115.33333333333333,72.55592551260386L119.33333333333334,75.31377119773919L124,76.55578524807703L128.66666666666666,77.12508829660769L133.33333333333331,66.68711032743741L138,70.75473490299922L142.66666666666666,75.02050113221092L147.33333333333334,74.00447901966287L152,72.51581836343013L156.66666666666669,78.58956784813425L161.33333333333334,78.80146292215034L166,81.87879327891545L170.66666666666666,68.06071431777183L176,72.43745656339048L180.66666666666666,76.869378781274L185.33333333333331,80.92450889623566L190,80.22140364305695L195.33333333333331,87.02458552490187L200,88.18890115112458L204.66666666666666,90.5662826742137L210,89.17443053729275L214.66666666666666,90.92133098480981L219.99999999999997,91.09779200083126L224.66666666666669,99.83413413710858L230.00000000000003,96.32458714838931L234.66666666666669,88.3973312579515L240,81.71530701143423L244.66666666666669,88.61264033506662L250,92.03042341001697L255.33333333333334,93.40730295522839L260,93.66606977472325L265.33333333333337,96.16475781899258L270.6666666666667,96.4248888813797L276,101.69868593855367L280.6666666666667,99.27790348405954L286,103.90116877583412L291.33333333333337,100.84464980217871L296.6666666666667,103.48502088486806L302,105.96499720671734L307.33333333333337,102.18866564869076L312.66666666666663,101.71342685370739L318,108.30487377412454L323.3333333333333,106.33581205384334L328.6666666666667,107.46588673859515L334,106.50411819493573L339.33333333333337,107.86965452732625L344.66666666666663,107.63156676136705L350,106.5357550971571L355.3333333333333,107.54689564090715L360.6666666666667,110.15687691059183L366,107.38089022657516L372,108.96328810961917L377.33333333333337,108.40842730105338L382.6666666666667,110.13206125257595L387.99999999999994,110.71713065884371L394,111.04000370686438L399.3333333333333,113.52704174687935L404.66666666666663,112.54652279166493L410.66666666666663,109.45760128851929L416,113.11340614577064L422,120.05327403791787L427.3333333333333,118.86139227059185L433.3333333333333,112.1890321745671L438.6666666666667,107.25065436884562L444.6666666666667,127.41667612166991L450,123.63834629472565L456,119.5364005161244L461.3333333333333,125.22472276155683L467.3333333333333,125.01405001126051L473.3333333333333,128.26809092005905L478.6666666666667,123.31190799918713L484.6666666666667,111.00422344622206L490.6666666666667,113.53443581146902L496,116.5010090516739L502,123.93220642465485L508,119.24090492529996L514,120.09100881059376L519.3333333333333,119.99897944365914L525.3333333333334,117.22732593114027L531.3333333333334,120.5165560497987L537.3333333333334,119.61127943550542L543.3333333333334,121.62869424089789L549.3333333333334,121.49182138066136L555.3333333333334,124.36961544445934L561.3333333333334,122.79998688511236L567.3333333333334,124.36220537842738L573.3333333333334,123.54604354242609L579.3333333333333,121.74625607631523L585.3333333333333,126.44724236874325L591.3333333333333,124.22984842216682L597.3333333333334,118.8093288654152L603.3333333333334,123.48674912923295L609.3333333333334,122.74676078012527L615.3333333333334,113.53443961521815L622,117.44791622198498L628,122.44212485752564L634,122.23678718099156L640,123.72222728061631L646,127.98455507974236L652.6666666666666,113.62464169378428L658.6666666666666,118.98801036478058L664.6666666666666,118.52372831106427L671.3333333333333,120.13204566474283L677.3333333333333,122.35979504389948L683.3333333333333,129.9480428983426L690,126.89512290686599L696,118.14705095688286L702,125.79333572962486L708.6666666666666,127.2248825441445L714.6666666666666,125.10755418582069L721.3333333333334,128.8088059309236L727.3333333333334,128.27756121523427L734,128.86750688417993L740,118.65550508415245L746.6666666666666,112.15365874645352L753.3333333333334,127.08037073614152L759.3333333333334,128.00115357252207L766,127.96715908505473L772,129.24836673874918L778.6666666666666,125.6849243091781L785.3333333333334,126.86577362557952L791.3333333333334,117.13488852182596L798,127.41839241833163L804.6666666666667,138.47365397172652L810.6666666666667,137.6494339093622L817.3333333333334,139.21168573710682L824,126.42084426275477L830.6666666666666,140.22817683068735L837.3333333333334,125.39772809162008L843.3333333333333,125.02639590188048L850,118.17508785080837L856.6666666666667,116.09475539940546L863.3333333333334,125.56684850304529L870,130.36470989656078L876.6666666666666,123.15223437178608L883.3333333333334,116.66004594024729L890,118.40021772801563L896.6666666666666,125.7843605590168L903.3333333333334,127.11202222677156L910,124.1251884268466L916.6666666666666,115.71423618586788L923.3333333333334,122.4745038216055L930,127.04519557922471L936.6666666666666,126.38479299631923L943.3333333333333,121.22778410141115L950,115.7027943993732L956.6666666666667,123.79277755469266L963.3333333333334,126.0018618920633L970.6666666666666,125.43422978361014L977.3333333333333,128.39999978786508L983.9999999999999,117.33695669335391L990.6666666666667,115.65020364429002L997.3333333333334,122.71318605375883L1004.6666666666666,126.30065083682105L1011.3333333333333,128.17772185126555L1018.0000000000001,130.33740911255066L1024.6666666666667,117.50881902708412L1032,122.61971968404457L1038.6666666666665,127.07031205639171L1045.3333333333333,125.74090633301292L1052.6666666666667,122.36645784656501L1059.3333333333333,114.71362588507668L1066.6666666666665,130.61253759989148L1073.3333333333335,140.68421748219419L1080,140.08769206001577L1087.3333333333333,136.6450411326897L1094,130.4794794037246L1101.3333333333333,141.39870230721812L1108,124.81203354492149L1115.3333333333333,123.30789117626924L1122,115.81509138261394L1129.3333333333333,122.77996624244811L1136,142.40233493936722L1143.3333333333333,131.04827740068504L1150,130.62541193681864L1157.3333333333333,131.7924276284307L1164.6666666666665,129.26529029022092L1171.3333333333335,137.77026970272465L1178.6666666666667,125.78619697701967L1186,129.0074532488363L1192.6666666666667,127.14134381000586L1200,128.92062104011904" stroke="#e45756" stroke-width="2"></path></g></g><path class="foreground" aria-hidden="true" d="" display="none"></path></g></g><g class="mark-group role-legend" role="graphics-symbol" aria-roledescription="legend" aria-label="Symbol legend titled 'Library' for stroke color with 3 values: MKL, OpenBLAS, PaddedMatrices"><g transform="translate(1220,0)"><path class="background" aria-hidden="true" d="M0,0h95v53h-95Z" pointer-events="none"></path><g><g class="mark-group role-legend-entry"><g transform="translate(0,16)"><path class="background" aria-hidden="true" d="M0,0h0v0h0Z" pointer-events="none"></path><g><g class="mark-group role-scope" role="graphics-object" aria-roledescription="group mark container"><g transform="translate(0,0)"><path class="background" aria-hidden="true" d="M0,0h95v11h-95Z" pointer-events="none" opacity="1"></path><g><g class="mark-symbol role-legend-symbol" pointer-events="none"><path transform="translate(6,6)" d="M-5,0L5,0" stroke="#4c78a8" stroke-width="1.5" opacity="1"></path></g><g class="mark-text role-legend-label" pointer-events="none"><text text-anchor="start" transform="translate(16,9)" font-family="sans-serif" font-size="10px" fill="#000" opacity="1">MKL</text></g></g><path class="foreground" aria-hidden="true" d="" pointer-events="none" display="none"></path></g><g transform="translate(0,13)"><path class="background" aria-hidden="true" d="M0,0h95v11h-95Z" pointer-events="none" opacity="1"></path><g><g class="mark-symbol role-legend-symbol" pointer-events="none"><path transform="translate(6,6)" d="M-5,0L5,0" stroke="#f58518" stroke-width="1.5" opacity="1"></path></g><g class="mark-text role-legend-label" pointer-events="none"><text text-anchor="start" transform="translate(16,9)" font-family="sans-serif" font-size="10px" fill="#000" opacity="1">OpenBLAS</text></g></g><path class="foreground" aria-hidden="true" d="" pointer-events="none" display="none"></path></g><g transform="translate(0,26)"><path class="background" aria-hidden="true" d="M0,0h95v11h-95Z" pointer-events="none" opacity="1"></path><g><g class="mark-symbol role-legend-symbol" pointer-events="none"><path transform="translate(6,6)" d="M-5,0L5,0" stroke="#e45756" stroke-width="1.5" opacity="1"></path></g><g class="mark-text role-legend-label" pointer-events="none"><text text-anchor="start" transform="translate(16,9)" font-family="sans-serif" font-size="10px" fill="#000" opacity="1">PaddedMatrices</text></g></g><path class="foreground" aria-hidden="true" d="" pointer-events="none" display="none"></path></g></g></g><path class="foreground" aria-hidden="true" d="" pointer-events="none" display="none"></path></g></g><g class="mark-text role-legend-title" pointer-events="none"><text text-anchor="start" transform="translate(0,9)" font-family="sans-serif" font-size="11px" font-weight="bold" fill="#000" opacity="1">Library</text></g></g><path class="foreground" aria-hidden="true" d="" pointer-events="none" display="none"></path></g></g></g><path class="foreground" aria-hidden="true" d="" display="none"></path></g></g></g></svg>
