<?xml version="1.0" encoding="utf-8"?>
<!DOCTYPE svg PUBLIC "-//W3C//DTD SVG 1.1//EN" "http://www.w3.org/Graphics/SVG/1.1/DTD/svg11.dtd">
<svg class="marks" width="1359" height="647" viewBox="0 0 1359 647" version="1.1" xmlns="http://www.w3.org/2000/svg" xmlns:xlink="http://www.w3.org/1999/xlink"><rect width="1359" height="647" fill="white"></rect><g fill="none" stroke-miterlimit="10" transform="translate(39,10)"><g class="mark-group role-frame root" role="graphics-object" aria-roledescription="group mark container"><g transform="translate(0,0)"><path class="background" aria-hidden="true" d="M0.5,0.5h1200v600h-1200Z" stroke="#ddd"></path><g><g class="mark-group role-axis" aria-hidden="true"><g transform="translate(0.5,600.5)"><path class="background" aria-hidden="true" d="M0,0h0v0h0Z" pointer-events="none"></path><g><g class="mark-rule role-axis-grid" pointer-events="none"><line transform="translate(0,-600)" x2="0" y2="600" stroke="#ddd" stroke-width="1" opacity="1"></line><line transform="translate(33,-600)" x2="0" y2="600" stroke="#ddd" stroke-width="1" opacity="1"></line><line transform="translate(67,-600)" x2="0" y2="600" stroke="#ddd" stroke-width="1" opacity="1"></line><line transform="translate(100,-600)" x2="0" y2="600" stroke="#ddd" stroke-width="1" opacity="1"></line><line transform="translate(133,-600)" x2="0" y2="600" stroke="#ddd" stroke-width="1" opacity="1"></line><line transform="translate(167,-600)" x2="0" y2="600" stroke="#ddd" stroke-width="1" opacity="1"></line><line transform="translate(200,-600)" x2="0" y2="600" stroke="#ddd" stroke-width="1" opacity="1"></line><line transform="translate(233,-600)" x2="0" y2="600" stroke="#ddd" stroke-width="1" opacity="1"></line><line transform="translate(267,-600)" x2="0" y2="600" stroke="#ddd" stroke-width="1" opacity="1"></line><line transform="translate(300,-600)" x2="0" y2="600" stroke="#ddd" stroke-width="1" opacity="1"></line><line transform="translate(333,-600)" x2="0" y2="600" stroke="#ddd" stroke-width="1" opacity="1"></line><line transform="translate(367,-600)" x2="0" y2="600" stroke="#ddd" stroke-width="1" opacity="1"></line><line transform="translate(400,-600)" x2="0" y2="600" stroke="#ddd" stroke-width="1" opacity="1"></line><line transform="translate(433,-600)" x2="0" y2="600" stroke="#ddd" stroke-width="1" opacity="1"></line><line transform="translate(467,-600)" x2="0" y2="600" stroke="#ddd" stroke-width="1" opacity="1"></line><line transform="translate(500,-600)" x2="0" y2="600" stroke="#ddd" stroke-width="1" opacity="1"></line><line transform="translate(533,-600)" x2="0" y2="600" stroke="#ddd" stroke-width="1" opacity="1"></line><line transform="translate(567,-600)" x2="0" y2="600" stroke="#ddd" stroke-width="1" opacity="1"></line><line transform="translate(600,-600)" x2="0" y2="600" stroke="#ddd" stroke-width="1" opacity="1"></line><line transform="translate(633,-600)" x2="0" y2="600" stroke="#ddd" stroke-width="1" opacity="1"></line><line transform="translate(667,-600)" x2="0" y2="600" stroke="#ddd" stroke-width="1" opacity="1"></line><line transform="translate(700,-600)" x2="0" y2="600" stroke="#ddd" stroke-width="1" opacity="1"></line><line transform="translate(733,-600)" x2="0" y2="600" stroke="#ddd" stroke-width="1" opacity="1"></line><line transform="translate(767,-600)" x2="0" y2="600" stroke="#ddd" stroke-width="1" opacity="1"></line><line transform="translate(800,-600)" x2="0" y2="600" stroke="#ddd" stroke-width="1" opacity="1"></line><line transform="translate(833,-600)" x2="0" y2="600" stroke="#ddd" stroke-width="1" opacity="1"></line><line transform="translate(867,-600)" x2="0" y2="600" stroke="#ddd" stroke-width="1" opacity="1"></line><line transform="translate(900,-600)" x2="0" y2="600" stroke="#ddd" stroke-width="1" opacity="1"></line><line transform="translate(933,-600)" x2="0" y2="600" stroke="#ddd" stroke-width="1" opacity="1"></line><line transform="translate(967,-600)" x2="0" y2="600" stroke="#ddd" stroke-width="1" opacity="1"></line><line transform="translate(1000,-600)" x2="0" y2="600" stroke="#ddd" stroke-width="1" opacity="1"></line><line transform="translate(1033,-600)" x2="0" y2="600" stroke="#ddd" stroke-width="1" opacity="1"></line><line transform="translate(1067,-600)" x2="0" y2="600" stroke="#ddd" stroke-width="1" opacity="1"></line><line transform="translate(1100,-600)" x2="0" y2="600" stroke="#ddd" stroke-width="1" opacity="1"></line><line transform="translate(1133,-600)" x2="0" y2="600" stroke="#ddd" stroke-width="1" opacity="1"></line><line transform="translate(1167,-600)" x2="0" y2="600" stroke="#ddd" stroke-width="1" opacity="1"></line><line transform="translate(1200,-600)" x2="0" y2="600" stroke="#ddd" stroke-width="1" opacity="1"></line></g></g><path class="foreground" aria-hidden="true" d="" pointer-events="none" display="none"></path></g></g><g class="mark-group role-axis" aria-hidden="true"><g transform="translate(0.5,0.5)"><path class="background" aria-hidden="true" d="M0,0h0v0h0Z" pointer-events="none"></path><g><g class="mark-rule role-axis-grid" pointer-events="none"><line transform="translate(0,600)" x2="1200" y2="0" stroke="#ddd" stroke-width="1" opacity="1"></line><line transform="translate(0,563)" x2="1200" y2="0" stroke="#ddd" stroke-width="1" opacity="1"></line><line transform="translate(0,525)" x2="1200" y2="0" stroke="#ddd" stroke-width="1" opacity="1"></line><line transform="translate(0,488)" x2="1200" y2="0" stroke="#ddd" stroke-width="1" opacity="1"></line><line transform="translate(0,450)" x2="1200" y2="0" stroke="#ddd" stroke-width="1" opacity="1"></line><line transform="translate(0,413)" x2="1200" y2="0" stroke="#ddd" stroke-width="1" opacity="1"></line><line transform="translate(0,375)" x2="1200" y2="0" stroke="#ddd" stroke-width="1" opacity="1"></line><line transform="translate(0,338)" x2="1200" y2="0" stroke="#ddd" stroke-width="1" opacity="1"></line><line transform="translate(0,300)" x2="1200" y2="0" stroke="#ddd" stroke-width="1" opacity="1"></line><line transform="translate(0,263)" x2="1200" y2="0" stroke="#ddd" stroke-width="1" opacity="1"></line><line transform="translate(0,225)" x2="1200" y2="0" stroke="#ddd" stroke-width="1" opacity="1"></line><line transform="translate(0,188)" x2="1200" y2="0" stroke="#ddd" stroke-width="1" opacity="1"></line><line transform="translate(0,150)" x2="1200" y2="0" stroke="#ddd" stroke-width="1" opacity="1"></line><line transform="translate(0,113)" x2="1200" y2="0" stroke="#ddd" stroke-width="1" opacity="1"></line><line transform="translate(0,75)" x2="1200" y2="0" stroke="#ddd" stroke-width="1" opacity="1"></line><line transform="translate(0,38)" x2="1200" y2="0" stroke="#ddd" stroke-width="1" opacity="1"></line><line transform="translate(0,0)" x2="1200" y2="0" stroke="#ddd" stroke-width="1" opacity="1"></line></g></g><path class="foreground" aria-hidden="true" d="" pointer-events="none" display="none"></path></g></g><g class="mark-group role-axis" role="graphics-symbol" aria-roledescription="axis" aria-label="X-axis titled 'Size' for a linear scale with values from 200 to 2,000"><g transform="translate(0.5,600.5)"><path class="background" aria-hidden="true" d="M0,0h0v0h0Z" pointer-events="none"></path><g><g class="mark-rule role-axis-tick" pointer-events="none"><line transform="translate(0,0)" x2="0" y2="5" stroke="#888" stroke-width="1" opacity="1"></line><line transform="translate(33,0)" x2="0" y2="5" stroke="#888" stroke-width="1" opacity="1"></line><line transform="translate(67,0)" x2="0" y2="5" stroke="#888" stroke-width="1" opacity="1"></line><line transform="translate(100,0)" x2="0" y2="5" stroke="#888" stroke-width="1" opacity="1"></line><line transform="translate(133,0)" x2="0" y2="5" stroke="#888" stroke-width="1" opacity="1"></line><line transform="translate(167,0)" x2="0" y2="5" stroke="#888" stroke-width="1" opacity="1"></line><line transform="translate(200,0)" x2="0" y2="5" stroke="#888" stroke-width="1" opacity="1"></line><line transform="translate(233,0)" x2="0" y2="5" stroke="#888" stroke-width="1" opacity="1"></line><line transform="translate(267,0)" x2="0" y2="5" stroke="#888" stroke-width="1" opacity="1"></line><line transform="translate(300,0)" x2="0" y2="5" stroke="#888" stroke-width="1" opacity="1"></line><line transform="translate(333,0)" x2="0" y2="5" stroke="#888" stroke-width="1" opacity="1"></line><line transform="translate(367,0)" x2="0" y2="5" stroke="#888" stroke-width="1" opacity="1"></line><line transform="translate(400,0)" x2="0" y2="5" stroke="#888" stroke-width="1" opacity="1"></line><line transform="translate(433,0)" x2="0" y2="5" stroke="#888" stroke-width="1" opacity="1"></line><line transform="translate(467,0)" x2="0" y2="5" stroke="#888" stroke-width="1" opacity="1"></line><line transform="translate(500,0)" x2="0" y2="5" stroke="#888" stroke-width="1" opacity="1"></line><line transform="translate(533,0)" x2="0" y2="5" stroke="#888" stroke-width="1" opacity="1"></line><line transform="translate(567,0)" x2="0" y2="5" stroke="#888" stroke-width="1" opacity="1"></line><line transform="translate(600,0)" x2="0" y2="5" stroke="#888" stroke-width="1" opacity="1"></line><line transform="translate(633,0)" x2="0" y2="5" stroke="#888" stroke-width="1" opacity="1"></line><line transform="translate(667,0)" x2="0" y2="5" stroke="#888" stroke-width="1" opacity="1"></line><line transform="translate(700,0)" x2="0" y2="5" stroke="#888" stroke-width="1" opacity="1"></line><line transform="translate(733,0)" x2="0" y2="5" stroke="#888" stroke-width="1" opacity="1"></line><line transform="translate(767,0)" x2="0" y2="5" stroke="#888" stroke-width="1" opacity="1"></line><line transform="translate(800,0)" x2="0" y2="5" stroke="#888" stroke-width="1" opacity="1"></line><line transform="translate(833,0)" x2="0" y2="5" stroke="#888" stroke-width="1" opacity="1"></line><line transform="translate(867,0)" x2="0" y2="5" stroke="#888" stroke-width="1" opacity="1"></line><line transform="translate(900,0)" x2="0" y2="5" stroke="#888" stroke-width="1" opacity="1"></line><line transform="translate(933,0)" x2="0" y2="5" stroke="#888" stroke-width="1" opacity="1"></line><line transform="translate(967,0)" x2="0" y2="5" stroke="#888" stroke-width="1" opacity="1"></line><line transform="translate(1000,0)" x2="0" y2="5" stroke="#888" stroke-width="1" opacity="1"></line><line transform="translate(1033,0)" x2="0" y2="5" stroke="#888" stroke-width="1" opacity="1"></line><line transform="translate(1067,0)" x2="0" y2="5" stroke="#888" stroke-width="1" opacity="1"></line><line transform="translate(1100,0)" x2="0" y2="5" stroke="#888" stroke-width="1" opacity="1"></line><line transform="translate(1133,0)" x2="0" y2="5" stroke="#888" stroke-width="1" opacity="1"></line><line transform="translate(1167,0)" x2="0" y2="5" stroke="#888" stroke-width="1" opacity="1"></line><line transform="translate(1200,0)" x2="0" y2="5" stroke="#888" stroke-width="1" opacity="1"></line></g><g class="mark-text role-axis-label" pointer-events="none"><text text-anchor="start" transform="translate(0,15)" font-family="sans-serif" font-size="10px" fill="#000" opacity="1">200</text><text text-anchor="middle" transform="translate(33.33333333333333,15)" font-family="sans-serif" font-size="10px" fill="#000" opacity="0">250</text><text text-anchor="middle" transform="translate(66.66666666666666,15)" font-family="sans-serif" font-size="10px" fill="#000" opacity="1">300</text><text text-anchor="middle" transform="translate(100,15)" font-family="sans-serif" font-size="10px" fill="#000" opacity="0">350</text><text text-anchor="middle" transform="translate(133.33333333333331,15)" font-family="sans-serif" font-size="10px" fill="#000" opacity="1">400</text><text text-anchor="middle" transform="translate(166.66666666666669,15)" font-family="sans-serif" font-size="10px" fill="#000" opacity="0">450</text><text text-anchor="middle" transform="translate(200,15)" font-family="sans-serif" font-size="10px" fill="#000" opacity="1">500</text><text text-anchor="middle" transform="translate(233.33333333333334,15)" font-family="sans-serif" font-size="10px" fill="#000" opacity="0">550</text><text text-anchor="middle" transform="translate(266.66666666666663,15)" font-family="sans-serif" font-size="10px" fill="#000" opacity="1">600</text><text text-anchor="middle" transform="translate(300,15)" font-family="sans-serif" font-size="10px" fill="#000" opacity="0">650</text><text text-anchor="middle" transform="translate(333.33333333333337,15)" font-family="sans-serif" font-size="10px" fill="#000" opacity="1">700</text><text text-anchor="middle" transform="translate(366.6666666666667,15)" font-family="sans-serif" font-size="10px" fill="#000" opacity="0">750</text><text text-anchor="middle" transform="translate(400,15)" font-family="sans-serif" font-size="10px" fill="#000" opacity="1">800</text><text text-anchor="middle" transform="translate(433.3333333333333,15)" font-family="sans-serif" font-size="10px" fill="#000" opacity="0">850</text><text text-anchor="middle" transform="translate(466.6666666666667,15)" font-family="sans-serif" font-size="10px" fill="#000" opacity="1">900</text><text text-anchor="middle" transform="translate(500,15)" font-family="sans-serif" font-size="10px" fill="#000" opacity="0">950</text><text text-anchor="middle" transform="translate(533.3333333333333,15)" font-family="sans-serif" font-size="10px" fill="#000" opacity="1">1,000</text><text text-anchor="middle" transform="translate(566.6666666666666,15)" font-family="sans-serif" font-size="10px" fill="#000" opacity="0">1,050</text><text text-anchor="middle" transform="translate(600,15)" font-family="sans-serif" font-size="10px" fill="#000" opacity="1">1,100</text><text text-anchor="middle" transform="translate(633.3333333333334,15)" font-family="sans-serif" font-size="10px" fill="#000" opacity="0">1,150</text><text text-anchor="middle" transform="translate(666.6666666666667,15)" font-family="sans-serif" font-size="10px" fill="#000" opacity="1">1,200</text><text text-anchor="middle" transform="translate(700,15)" font-family="sans-serif" font-size="10px" fill="#000" opacity="0">1,250</text><text text-anchor="middle" transform="translate(733.3333333333334,15)" font-family="sans-serif" font-size="10px" fill="#000" opacity="1">1,300</text><text text-anchor="middle" transform="translate(766.6666666666666,15)" font-family="sans-serif" font-size="10px" fill="#000" opacity="0">1,350</text><text text-anchor="middle" transform="translate(800,15)" font-family="sans-serif" font-size="10px" fill="#000" opacity="1">1,400</text><text text-anchor="middle" transform="translate(833.3333333333333,15)" font-family="sans-serif" font-size="10px" fill="#000" opacity="0">1,450</text><text text-anchor="middle" transform="translate(866.6666666666666,15)" font-family="sans-serif" font-size="10px" fill="#000" opacity="1">1,500</text><text text-anchor="middle" transform="translate(900,15)" font-family="sans-serif" font-size="10px" fill="#000" opacity="0">1,550</text><text text-anchor="middle" transform="translate(933.3333333333334,15)" font-family="sans-serif" font-size="10px" fill="#000" opacity="1">1,600</text><text text-anchor="middle" transform="translate(966.6666666666667,15)" font-family="sans-serif" font-size="10px" fill="#000" opacity="0">1,650</text><text text-anchor="middle" transform="translate(1000,15)" font-family="sans-serif" font-size="10px" fill="#000" opacity="1">1,700</text><text text-anchor="middle" transform="translate(1033.3333333333335,15)" font-family="sans-serif" font-size="10px" fill="#000" opacity="0">1,750</text><text text-anchor="middle" transform="translate(1066.6666666666665,15)" font-family="sans-serif" font-size="10px" fill="#000" opacity="1">1,800</text><text text-anchor="middle" transform="translate(1100,15)" font-family="sans-serif" font-size="10px" fill="#000" opacity="0">1,850</text><text text-anchor="middle" transform="translate(1133.3333333333333,15)" font-family="sans-serif" font-size="10px" fill="#000" opacity="1">1,900</text><text text-anchor="middle" transform="translate(1166.6666666666667,15)" font-family="sans-serif" font-size="10px" fill="#000" opacity="0">1,950</text><text text-anchor="end" transform="translate(1200,15)" font-family="sans-serif" font-size="10px" fill="#000" opacity="1">2,000</text></g><g class="mark-rule role-axis-domain" pointer-events="none"><line transform="translate(0,0)" x2="1200" y2="0" stroke="#888" stroke-width="1" opacity="1"></line></g><g class="mark-text role-axis-title" pointer-events="none"><text text-anchor="middle" transform="translate(600,30)" font-family="sans-serif" font-size="11px" font-weight="bold" fill="#000" opacity="1">Size</text></g></g><path class="foreground" aria-hidden="true" d="" pointer-events="none" display="none"></path></g></g><g class="mark-group role-axis" role="graphics-symbol" aria-roledescription="axis" aria-label="Y-axis titled 'GFLOPS' for a linear scale with values from 0 to 80"><g transform="translate(0.5,0.5)"><path class="background" aria-hidden="true" d="M0,0h0v0h0Z" pointer-events="none"></path><g><g class="mark-rule role-axis-tick" pointer-events="none"><line transform="translate(0,600)" x2="-5" y2="0" stroke="#888" stroke-width="1" opacity="1"></line><line transform="translate(0,563)" x2="-5" y2="0" stroke="#888" stroke-width="1" opacity="1"></line><line transform="translate(0,525)" x2="-5" y2="0" stroke="#888" stroke-width="1" opacity="1"></line><line transform="translate(0,488)" x2="-5" y2="0" stroke="#888" stroke-width="1" opacity="1"></line><line transform="translate(0,450)" x2="-5" y2="0" stroke="#888" stroke-width="1" opacity="1"></line><line transform="translate(0,413)" x2="-5" y2="0" stroke="#888" stroke-width="1" opacity="1"></line><line transform="translate(0,375)" x2="-5" y2="0" stroke="#888" stroke-width="1" opacity="1"></line><line transform="translate(0,338)" x2="-5" y2="0" stroke="#888" stroke-width="1" opacity="1"></line><line transform="translate(0,300)" x2="-5" y2="0" stroke="#888" stroke-width="1" opacity="1"></line><line transform="translate(0,263)" x2="-5" y2="0" stroke="#888" stroke-width="1" opacity="1"></line><line transform="translate(0,225)" x2="-5" y2="0" stroke="#888" stroke-width="1" opacity="1"></line><line transform="translate(0,188)" x2="-5" y2="0" stroke="#888" stroke-width="1" opacity="1"></line><line transform="translate(0,150)" x2="-5" y2="0" stroke="#888" stroke-width="1" opacity="1"></line><line transform="translate(0,113)" x2="-5" y2="0" stroke="#888" stroke-width="1" opacity="1"></line><line transform="translate(0,75)" x2="-5" y2="0" stroke="#888" stroke-width="1" opacity="1"></line><line transform="translate(0,38)" x2="-5" y2="0" stroke="#888" stroke-width="1" opacity="1"></line><line transform="translate(0,0)" x2="-5" y2="0" stroke="#888" stroke-width="1" opacity="1"></line></g><g class="mark-text role-axis-label" pointer-events="none"><text text-anchor="end" transform="translate(-7,603)" font-family="sans-serif" font-size="10px" fill="#000" opacity="1">0</text><text text-anchor="end" transform="translate(-7,565.5)" font-family="sans-serif" font-size="10px" fill="#000" opacity="1">5</text><text text-anchor="end" transform="translate(-7,528)" font-family="sans-serif" font-size="10px" fill="#000" opacity="1">10</text><text text-anchor="end" transform="translate(-7,490.5)" font-family="sans-serif" font-size="10px" fill="#000" opacity="1">15</text><text text-anchor="end" transform="translate(-7,453)" font-family="sans-serif" font-size="10px" fill="#000" opacity="1">20</text><text text-anchor="end" transform="translate(-7,415.5)" font-family="sans-serif" font-size="10px" fill="#000" opacity="1">25</text><text text-anchor="end" transform="translate(-7,378)" font-family="sans-serif" font-size="10px" fill="#000" opacity="1">30</text><text text-anchor="end" transform="translate(-7,340.5)" font-family="sans-serif" font-size="10px" fill="#000" opacity="1">35</text><text text-anchor="end" transform="translate(-7,303)" font-family="sans-serif" font-size="10px" fill="#000" opacity="1">40</text><text text-anchor="end" transform="translate(-7,265.5)" font-family="sans-serif" font-size="10px" fill="#000" opacity="1">45</text><text text-anchor="end" transform="translate(-7,228)" font-family="sans-serif" font-size="10px" fill="#000" opacity="1">50</text><text text-anchor="end" transform="translate(-7,190.5)" font-family="sans-serif" font-size="10px" fill="#000" opacity="1">55</text><text text-anchor="end" transform="translate(-7,153)" font-family="sans-serif" font-size="10px" fill="#000" opacity="1">60</text><text text-anchor="end" transform="translate(-7,115.5)" font-family="sans-serif" font-size="10px" fill="#000" opacity="1">65</text><text text-anchor="end" transform="translate(-7,78)" font-family="sans-serif" font-size="10px" fill="#000" opacity="1">70</text><text text-anchor="end" transform="translate(-7,40.5)" font-family="sans-serif" font-size="10px" fill="#000" opacity="1">75</text><text text-anchor="end" transform="translate(-7,3)" font-family="sans-serif" font-size="10px" fill="#000" opacity="1">80</text></g><g class="mark-rule role-axis-domain" pointer-events="none"><line transform="translate(0,600)" x2="0" y2="-600" stroke="#888" stroke-width="1" opacity="1"></line></g><g class="mark-text role-axis-title" pointer-events="none"><text text-anchor="middle" transform="translate(-23,300) rotate(-90) translate(0,-2)" font-family="sans-serif" font-size="11px" font-weight="bold" fill="#000" opacity="1">GFLOPS</text></g></g><path class="foreground" aria-hidden="true" d="" pointer-events="none" display="none"></path></g></g><g class="mark-group role-scope pathgroup" role="graphics-object" aria-roledescription="group mark container"><g transform="translate(0,0)"><path class="background" aria-hidden="true" d="M0,0h1200v600h-1200Z"></path><g><g class="mark-line role-mark marks" role="graphics-object" aria-roledescription="line mark container"><path aria-label="Library: OpenBLAS; Size: 256; GFLOPS: 15.9893716888" role="graphics-symbol" aria-roledescription="line mark" d="M37.333333333333336,480.079712334159L41.333333333333336,480.36946671314047L45.333333333333336,479.4646779810455L50,479.8044506006827L54,479.09667598208796L58,478.4762431389859L62.66666666666667,477.24242850706577L66.66666666666666,476.5898578193275L70.66666666666666,476.3736829857682L75.33333333333333,476.7864122948804L79.33333333333333,476.8591802083038L84.00000000000001,475.8061552814862L88,475.9960204183982L92.66666666666666,476.4814794069318L97.33333333333333,476.5719305383169L101.33333333333334,476.94042640359305L106,477.4706398811047L110.66666666666666,476.91920803830976L115.33333333333333,477.9688221370493L119.33333333333334,479.119796176149L124,477.78474061055294L128.66666666666666,480.4151787139123L133.33333333333331,478.57380379069815L138,479.1996056885489L142.66666666666666,477.74035015011236L147.33333333333334,478.5089325943496L152,477.0806037597173L156.66666666666669,477.6239583433481L161.33333333333334,476.82428748064535L166,477.7328681336087L170.66666666666666,476.57705179220636L176,476.85709249276715L180.66666666666666,477.45107251162534L185.33333333333331,476.73605020155486L190,477.9754007958836L195.33333333333331,478.41568610764836L200,477.5690822167035L204.66666666666666,479.24235242649746L210,478.70453202929326L214.66666666666666,479.33494205016774L219.99999999999997,479.09759249285514L224.66666666666669,479.34720602841077L230.00000000000003,479.6497464132896L234.66666666666669,478.0534266300629L240,477.9626681323401L244.66666666666669,478.63135012696097L250,478.5332504739376L255.33333333333334,478.45378011641543L260,477.7786479484232L265.33333333333337,477.7768200385929L270.6666666666667,477.85984805728503L276,477.95425287808825L280.6666666666667,479.42104058828835L286,480.50222419730886L291.33333333333337,480.81695453466057L296.6666666666667,483.21198362570703L302,481.542796117615L307.33333333333337,480.9860828000621L312.66666666666663,480.8071604587829L318,481.0477908013034L323.3333333333333,480.79424545652455L328.6666666666667,480.3095589422613L334,480.54046379993883L339.33333333333337,480.4850000640497L344.66666666666663,481.0006418271669L350,481.58803414288553L355.3333333333333,480.7390567070299L360.6666666666667,479.9569296098888L366,483.0105942310287L372,479.4062211750862L377.33333333333337,479.7060476834521L382.6666666666667,480.57096621997493L387.99999999999994,480.4218868071729L394,480.8955084335394L399.3333333333333,480.7121729013044L404.66666666666663,480.47056722133937L410.66666666666663,479.1960671000626L416,479.2586637370799L422,480.2768746295307L427.3333333333333,480.26354012341363L433.3333333333333,479.36458426667065L438.6666666666667,479.6349422859014L444.6666666666667,480.40185211490996L450,481.00886216724376L456,479.5889920231142L461.3333333333333,480.14947181875493L467.3333333333333,481.958241520457L473.3333333333333,480.7506717606713L478.6666666666667,480.27598682315755L484.6666666666667,481.25931876721637L490.6666666666667,479.76695935223063L496,479.37388681693085L502,480.97404533564145L508,479.9928654377178L514,481.11554601273406L519.3333333333333,480.76568138969174L525.3333333333334,479.4875979503238L531.3333333333334,481.22658687387917L537.3333333333334,480.11424722124434L543.3333333333334,480.5240989563209L549.3333333333334,480.55550373356397L555.3333333333334,482.0670938625531L561.3333333333334,480.9360980578819L567.3333333333334,484.75612186713346L573.3333333333334,480.0788154531806L579.3333333333333,481.74164751461734L585.3333333333333,480.5906753922262L591.3333333333333,481.4029029256688L597.3333333333334,479.8652114801508L603.3333333333334,481.6744155343903L609.3333333333334,480.3111469667086L615.3333333333334,481.6279194109459L622,481.82789970192823L628,480.7858139643198L634,481.16919450649766L640,480.27672477228003L646,483.944581896051L652.6666666666666,483.97550485000244L658.6666666666666,481.944268009941L664.6666666666666,484.0983731540252L671.3333333333333,483.7206253051638L677.3333333333333,481.62541268646805L683.3333333333333,483.88790746402503L690,483.47640028049506L696,482.47506233360986L702,484.2762436780875L708.6666666666666,483.666210158057L714.6666666666666,482.2591772937584L721.3333333333334,482.8898745459277L727.3333333333334,485.0337120289697L734,485.33625827609325L740,483.8903256573404L746.6666666666666,481.74091072159837L753.3333333333334,482.89251982184413L759.3333333333334,484.5812196514159L766,484.7150662841342L772,483.80264967215675L778.6666666666666,481.8927097753002L785.3333333333334,483.22959403810273L791.3333333333334,484.72599940721926L798,484.7928113816344L804.6666666666667,484.9734807804334L810.6666666666667,483.24581549449044L817.3333333333334,483.8463059114066L824,482.5477777104927L830.6666666666666,481.80767152304344L837.3333333333334,483.3525772824977L843.3333333333333,481.57393395002475L850,482.2900378517038L856.6666666666667,483.4826466475074L863.3333333333334,481.94589670103716L870,481.77399587320394L876.6666666666666,483.240381774557L883.3333333333334,483.4217064695569L890,483.70152644992436L896.6666666666666,483.3412648176804L903.3333333333334,484.79531048573347L910,485.66419846641566L916.6666666666666,484.8389756231757L923.3333333333334,482.5626692775513L930,483.7538427622287L936.6666666666666,485.6068273862491L943.3333333333333,485.17240864468994L950,484.6086937829506L956.6666666666667,485.29038703638474L963.3333333333334,485.22563453494223L970.6666666666666,482.7654756509295L977.3333333333333,484.11336628731027L983.9999999999999,482.9707899219744L990.6666666666667,485.09126324465626L997.3333333333334,483.0015477251847L1004.6666666666666,485.74985672506176L1011.3333333333333,485.40977068612L1018.0000000000001,485.30108029067105L1024.6666666666667,485.7328770463968L1032,481.6591379485476L1038.6666666666665,483.0579980305205L1045.3333333333333,482.53336452953755L1052.6666666666667,485.67398144390825L1059.3333333333333,486.27915754496615L1066.6666666666665,483.63402836474825L1073.3333333333335,485.00225398962573L1080,483.4731772589731L1087.3333333333333,485.667129156541L1094,485.8208321980123L1101.3333333333333,481.0059496929541L1108,481.0844860625387L1115.3333333333333,482.9990145580696L1122,485.39034855426576L1129.3333333333333,484.62860039335874L1136,480.265833285414L1143.3333333333333,483.9735715272884L1150,483.5848655960724L1157.3333333333333,479.5357513980802L1164.6666666666665,486.61064627630196L1171.3333333333335,484.43413174869596L1178.6666666666667,483.0526920056059L1186,486.0162274880248L1192.6666666666667,485.9393756730607L1200,482.9651585784894" stroke="#f58518" stroke-width="2"></path></g></g><path class="foreground" aria-hidden="true" d="" display="none"></path></g><g transform="translate(0,0)"><path class="background" aria-hidden="true" d="M0,0h1200v600h-1200Z"></path><g><g class="mark-line role-mark marks" role="graphics-object" aria-roledescription="line mark container"><path aria-label="Library: MKL; Size: 256; GFLOPS: 67.3203846486" role="graphics-symbol" aria-roledescription="line mark" d="M37.333333333333336,95.09711513575655L41.333333333333336,112.84751278055363L45.333333333333336,100.89631496520323L50,117.10715330591364L54,106.27778313467485L58,121.59955181815849L62.66666666666667,107.91317088913989L66.66666666666666,96.80439730833825L70.66666666666666,100.4454724558171L75.33333333333333,102.50663556011261L79.33333333333333,115.93059264222558L84.00000000000001,103.38365213801562L88,93.97188115635532L92.66666666666666,107.72829049065157L97.33333333333333,95.82833077728279L101.33333333333334,85.66088734689839L106,111.12387928702643L110.66666666666666,99.65748419885294L115.33333333333333,102.23216963426438L119.33333333333334,105.45143504636924L124,95.89037157542646L128.66666666666666,95.6527792703314L133.33333333333331,84.70485934052957L138,106.44073260294937L142.66666666666666,97.538528355151L147.33333333333334,99.49943769102292L152,89.85525150858302L156.66666666666669,103.97217174782992L161.33333333333334,93.1918315219114L166,95.989642377498L170.66666666666666,88.1122215408004L176,92.9338238205279L180.66666666666666,105.12939739269689L185.33333333333331,98.19175937174353L190,101.56748474566793L195.33333333333331,102.3783062813635L200,90.84222028636668L204.66666666666666,105.20918646670094L210,106.7192920070186L214.66666666666666,97.85715328003306L219.99999999999997,99.252630927491L224.66666666666669,105.38956115160916L230.00000000000003,106.00463666253064L234.66666666666669,99.02521008403356L240,97.05054849716959L244.66666666666669,114.04409490829934L250,114.19181194196142L255.33333333333334,116.6335099138509L260,108.47484940018552L265.33333333333337,112.09405395654284L270.6666666666667,106.54740266574585L276,106.99114833147318L280.6666666666667,109.06803315531879L286,119.27246885370586L291.33333333333337,112.86240061394733L296.6666666666667,116.69372052988065L302,120.15993974938159L307.33333333333337,122.788434200257L312.66666666666663,124.05175840517599L318,125.09322265207481L323.3333333333333,120.38545196082127L328.6666666666667,122.30454529404953L334,125.21411292797586L339.33333333333337,124.9796135336956L344.66666666666663,123.67430484057039L350,117.67830726376897L355.3333333333333,111.15530882279911L360.6666666666667,114.301612655748L366,125.61616760315162L372,116.97369127361948L377.33333333333337,117.59845427181426L382.6666666666667,123.54729161113687L387.99999999999994,123.77393594508762L394,128.0919112477507L399.3333333333333,127.23560519761563L404.66666666666663,127.24273956090744L410.66666666666663,116.06230706878988L416,116.31766804547203L422,119.26439600560212L427.3333333333333,122.49465008396965L433.3333333333333,121.59288050747574L438.6666666666667,120.47450519738175L444.6666666666667,124.90323825581146L450,124.6232649445835L456,114.33803271993168L461.3333333333333,114.95222254130513L467.3333333333333,117.80439999745094L473.3333333333333,117.77214957880864L478.6666666666667,115.71464968769551L484.6666666666667,120.65592499700432L490.6666666666667,110.389492382259L496,106.9209233282955L502,116.05058141522218L508,115.87636351218183L514,116.44516194595644L519.3333333333333,115.30573895499039L525.3333333333334,109.94126153203345L531.3333333333334,113.90537461817343L537.3333333333334,115.56794255849177L543.3333333333334,110.19539050464824L549.3333333333334,105.61744534730944L555.3333333333334,113.18991245744405L561.3333333333334,114.14931668811847L567.3333333333334,118.99437362096828L573.3333333333334,113.44503657283622L579.3333333333333,115.85739331293962L585.3333333333333,114.98356120660014L591.3333333333333,119.45498693082493L597.3333333333334,108.96422809740878L603.3333333333334,116.14089701884913L609.3333333333334,112.7334246880873L615.3333333333334,117.93714467276375L622,117.29572797883992L628,112.99908530630469L634,107.58113681389409L640,118.11888740469637L646,130.8075291785995L652.6666666666666,132.35707546503107L658.6666666666666,126.78745976564963L664.6666666666666,131.30619360608014L671.3333333333333,134.21660609356346L677.3333333333333,127.30926401399083L683.3333333333333,132.97009785750458L690,143.1971472885452L696,129.43870962958454L702,133.1759157732406L708.6666666666666,135.14149203752385L714.6666666666666,123.44616247940417L721.3333333333334,124.5151976342149L727.3333333333334,126.01101326518919L734,125.34848583847915L740,124.76834733551698L746.6666666666666,121.20165235192346L753.3333333333334,124.31748268387308L759.3333333333334,126.24974234412764L766,127.21489270126118L772,127.05713866150899L778.6666666666666,122.93576519153781L785.3333333333334,125.6492723948828L791.3333333333334,128.86247183257996L798,134.1560342197848L804.6666666666667,138.15159340963567L810.6666666666667,122.41597196303373L817.3333333333334,125.07376148439037L824,123.8064021856627L830.6666666666666,125.86722163129242L837.3333333333334,115.02528426850955L843.3333333333333,100.61711857907665L850,112.77777789586594L856.6666666666667,114.53915777985615L863.3333333333334,106.25960129311964L870,110.18019088099327L876.6666666666666,114.99748167599174L883.3333333333334,115.95729931641365L890,122.72946834744016L896.6666666666666,111.1553042808417L903.3333333333334,129.07352385848006L910,131.57160985151214L916.6666666666666,134.63227107228718L923.3333333333334,117.72067766534973L930,135.3196797593335L936.6666666666666,135.97274084414533L943.3333333333333,135.62085585756907L950,131.61887880715918L956.6666666666667,133.83448426715884L963.3333333333334,132.72855682493199L970.6666666666666,132.74393875465873L977.3333333333333,131.38432805198806L983.9999999999999,127.99037351811653L990.6666666666667,130.157522193507L997.3333333333334,127.78641089669036L1004.6666666666666,131.85098558787098L1011.3333333333333,132.9774894421145L1018.0000000000001,138.2198833126587L1024.6666666666667,136.88909827655053L1032,114.51776526827737L1038.6666666666665,128.18054831431536L1045.3333333333333,127.12019060620707L1052.6666666666667,133.1394942812038L1059.3333333333333,135.18630573780982L1066.6666666666665,130.43414240618444L1073.3333333333335,132.98391478570463L1080,133.01708455238196L1087.3333333333333,136.74054157413082L1094,118.82267742500281L1101.3333333333333,109.65712007923152L1108,103.60644605943887L1115.3333333333333,127.16278051946166L1122,131.1957369860537L1129.3333333333333,131.37717136101662L1136,108.93831751527219L1143.3333333333333,116.12061262054509L1150,110.04790652040586L1157.3333333333333,129.6655633817077L1164.6666666666665,135.09525876229586L1171.3333333333335,133.74559586915612L1178.6666666666667,134.3441397069379L1186,142.55061562611976L1192.6666666666667,137.40610943714205L1200,139.27288069066958" stroke="#4c78a8" stroke-width="2"></path></g></g><path class="foreground" aria-hidden="true" d="" display="none"></path></g><g transform="translate(0,0)"><path class="background" aria-hidden="true" d="M0,0h1200v600h-1200Z"></path><g><g class="mark-line role-mark marks" role="graphics-object" aria-roledescription="line mark container"><path aria-label="Library: PaddedMatrices; Size: 256; GFLOPS: 71.5702682411" role="graphics-symbol" aria-roledescription="line mark" d="M37.333333333333336,63.22298819193226L41.333333333333336,69.8304964831704L45.333333333333336,73.3465635488107L50,75.36868455838572L54,79.14418580630611L58,67.97396422537827L62.66666666666667,70.28153336251641L66.66666666666666,72.47285188991484L70.66666666666666,76.3546646782753L75.33333333333333,77.41644833862387L79.33333333333333,67.55604628479452L84.00000000000001,69.02284769632847L88,71.1327786277781L92.66666666666666,73.99724114962596L97.33333333333333,74.61547828028132L101.33333333333334,65.47809419227694L106,67.34232654308003L110.66666666666666,68.93948704913515L115.33333333333333,77.8967184548849L119.33333333333334,81.85435877977389L124,81.90772808238674L128.66666666666666,83.55071173115593L133.33333333333331,71.03649297194833L138,74.87044510656948L142.66666666666666,76.8471311282026L147.33333333333334,76.77340450695628L152,78.52873999495391L156.66666666666669,79.62439140960318L161.33333333333334,80.88967440965713L166,81.51217419396221L170.66666666666666,77.86037188641495L176,76.95735719090176L180.66666666666666,75.621096784684L185.33333333333331,83.59240552535196L190,82.27920968749083L195.33333333333331,92.3121896944885L200,91.10340181769723L204.66666666666666,89.89630310977161L210,85.7879188981423L214.66666666666666,92.61684463307664L219.99999999999997,96.14270197679744L224.66666666666669,95.29370717499161L230.00000000000003,98.22161323059629L234.66666666666669,88.8796940752608L240,89.0187843169052L244.66666666666669,92.92802183129152L250,95.30940971899588L255.33333333333334,92.10686087268995L260,94.77487057304717L265.33333333333337,93.56847915563478L270.6666666666667,100.67352583766666L276,93.54939702308316L280.6666666666667,97.41394152716371L286,111.62276224219494L291.33333333333337,106.86710075911053L296.6666666666667,107.26318641808663L302,114.21040042541577L307.33333333333337,109.84611266994018L312.66666666666663,112.15363396706404L318,113.90702550741348L323.3333333333333,112.08799390940686L328.6666666666667,114.42981407118025L334,109.94868009742065L339.33333333333337,110.94758259464115L344.66666666666663,117.0871445107647L350,113.36197722677441L355.3333333333333,117.5457535846824L360.6666666666667,106.08449596631256L366,109.44562150273005L372,121.08620479965579L377.33333333333337,116.00585574765373L382.6666666666667,113.05617431444246L387.99999999999994,113.36183259095642L394,114.27943265269779L399.3333333333333,115.0942010261991L404.66666666666663,115.21535440261366L410.66666666666663,110.66091969895899L416,110.78990283411146L422,120.30537868222476L427.3333333333333,119.36728897417814L433.3333333333333,118.64738917008812L438.6666666666667,119.56121107261168L444.6666666666667,120.38132340143137L450,120.81182298431618L456,119.10491503415628L461.3333333333333,119.79470313742411L467.3333333333333,119.52386181491687L473.3333333333333,120.02994578091395L478.6666666666667,119.47721807587057L484.6666666666667,121.09502806885612L490.6666666666667,118.08216855246005L496,117.20368158386604L502,124.69319213398452L508,124.51896226290135L514,123.56540616436003L519.3333333333333,123.55046689305627L525.3333333333334,122.54559371535787L531.3333333333334,124.72113111949245L537.3333333333334,128.8979079429241L543.3333333333334,125.96967657289801L549.3333333333334,116.70960883584446L555.3333333333334,119.26207164480655L561.3333333333334,124.90346903091596L567.3333333333334,121.9593214657926L573.3333333333334,125.75053714367994L579.3333333333333,124.1610103324175L585.3333333333333,124.2252038549436L591.3333333333333,122.12987901792445L597.3333333333334,122.58155366267486L603.3333333333334,127.45620459890408L609.3333333333334,125.64622509699323L615.3333333333334,130.46625724036213L622,127.46873502580102L628,126.58053610975976L634,120.89022279776597L640,115.29725654252556L646,136.53088724879686L652.6666666666666,137.87173645046323L658.6666666666666,137.80330043964287L664.6666666666666,137.82879071291546L671.3333333333333,134.0844528716056L677.3333333333333,136.0450235100672L683.3333333333333,140.2409393782974L690,136.467181685393L696,137.06034195948223L702,145.02284451545913L708.6666666666666,135.68589112878578L714.6666666666666,136.12055000887457L721.3333333333334,137.71483034774508L727.3333333333334,138.22998537142348L734,135.58793374778918L740,136.1590001291329L746.6666666666666,137.26533258450644L753.3333333333334,139.97548112699218L759.3333333333334,139.7249171149815L766,139.55278160653592L772,138.99119932602645L778.6666666666666,144.2167098271668L785.3333333333334,141.61075781729318L791.3333333333334,140.7686857018728L798,138.6722223642315L804.6666666666667,137.81998266082064L810.6666666666667,138.5225879462556L817.3333333333334,140.34406393783644L824,139.0456160817993L830.6666666666666,126.22923954275824L837.3333333333334,140.3143444566585L843.3333333333333,131.21995783063434L850,121.51073673069293L856.6666666666667,127.97236022752432L863.3333333333334,129.13256821923864L870,120.98217408549363L876.6666666666666,127.2751135391016L883.3333333333334,129.90797581927637L890,130.1075514848772L896.6666666666666,130.78999617952064L903.3333333333334,119.04869649980144L910,138.40102672843716L916.6666666666666,140.12098774261565L923.3333333333334,133.819141346927L930,132.3220568502053L936.6666666666666,144.0275302805088L943.3333333333333,143.5136752166145L950,144.2072118244392L956.6666666666667,144.9336076667234L963.3333333333334,144.43040751280824L970.6666666666666,143.0473876747196L977.3333333333333,147.64474164210495L983.9999999999999,143.82035072542038L990.6666666666667,142.66592529724906L997.3333333333334,143.58130386460573L1004.6666666666666,144.1317890504724L1011.3333333333333,146.288729096876L1018.0000000000001,144.58775551322628L1024.6666666666667,149.16546049600572L1032,139.57270745091813L1038.6666666666665,133.55192354851062L1045.3333333333333,141.24838337179952L1052.6666666666667,145.90899106926597L1059.3333333333333,145.21273263458593L1066.6666666666665,148.082836746645L1073.3333333333335,147.294890956186L1080,147.0723563677597L1087.3333333333333,147.07339036178817L1094,148.08839562878453L1101.3333333333333,133.51688297323966L1108,126.47754979447112L1115.3333333333333,127.27030975008896L1122,146.25092215650918L1129.3333333333333,147.42547618702187L1136,129.09608053448122L1143.3333333333333,134.72236555577695L1150,132.04955214441682L1157.3333333333333,119.80497619438195L1164.6666666666665,142.77658416835638L1171.3333333333335,146.4654610143755L1178.6666666666667,147.62825155303725L1186,150.71517722917096L1192.6666666666667,148.93267804303852L1200,148.23041628172763" stroke="#e45756" stroke-width="2"></path></g></g><path class="foreground" aria-hidden="true" d="" display="none"></path></g></g><g class="mark-group role-legend" role="graphics-symbol" aria-roledescription="legend" aria-label="Symbol legend titled 'Library' for stroke color with 3 values: MKL, OpenBLAS, PaddedMatrices"><g transform="translate(1220,0)"><path class="background" aria-hidden="true" d="M0,0h95v53h-95Z" pointer-events="none"></path><g><g class="mark-group role-legend-entry"><g transform="translate(0,16)"><path class="background" aria-hidden="true" d="M0,0h0v0h0Z" pointer-events="none"></path><g><g class="mark-group role-scope" role="graphics-object" aria-roledescription="group mark container"><g transform="translate(0,0)"><path class="background" aria-hidden="true" d="M0,0h95v11h-95Z" pointer-events="none" opacity="1"></path><g><g class="mark-symbol role-legend-symbol" pointer-events="none"><path transform="translate(6,6)" d="M-5,0L5,0" stroke="#4c78a8" stroke-width="1.5" opacity="1"></path></g><g class="mark-text role-legend-label" pointer-events="none"><text text-anchor="start" transform="translate(16,9)" font-family="sans-serif" font-size="10px" fill="#000" opacity="1">MKL</text></g></g><path class="foreground" aria-hidden="true" d="" pointer-events="none" display="none"></path></g><g transform="translate(0,13)"><path class="background" aria-hidden="true" d="M0,0h95v11h-95Z" pointer-events="none" opacity="1"></path><g><g class="mark-symbol role-legend-symbol" pointer-events="none"><path transform="translate(6,6)" d="M-5,0L5,0" stroke="#f58518" stroke-width="1.5" opacity="1"></path></g><g class="mark-text role-legend-label" pointer-events="none"><text text-anchor="start" transform="translate(16,9)" font-family="sans-serif" font-size="10px" fill="#000" opacity="1">OpenBLAS</text></g></g><path class="foreground" aria-hidden="true" d="" pointer-events="none" display="none"></path></g><g transform="translate(0,26)"><path class="background" aria-hidden="true" d="M0,0h95v11h-95Z" pointer-events="none" opacity="1"></path><g><g class="mark-symbol role-legend-symbol" pointer-events="none"><path transform="translate(6,6)" d="M-5,0L5,0" stroke="#e45756" stroke-width="1.5" opacity="1"></path></g><g class="mark-text role-legend-label" pointer-events="none"><text text-anchor="start" transform="translate(16,9)" font-family="sans-serif" font-size="10px" fill="#000" opacity="1">PaddedMatrices</text></g></g><path class="foreground" aria-hidden="true" d="" pointer-events="none" display="none"></path></g></g></g><path class="foreground" aria-hidden="true" d="" pointer-events="none" display="none"></path></g></g><g class="mark-text role-legend-title" pointer-events="none"><text text-anchor="start" transform="translate(0,9)" font-family="sans-serif" font-size="11px" font-weight="bold" fill="#000" opacity="1">Library</text></g></g><path class="foreground" aria-hidden="true" d="" pointer-events="none" display="none"></path></g></g></g><path class="foreground" aria-hidden="true" d="" display="none"></path></g></g></g></svg>
