<?xml version="1.0" encoding="utf-8"?>
<!DOCTYPE svg PUBLIC "-//W3C//DTD SVG 1.1//EN" "http://www.w3.org/Graphics/SVG/1.1/DTD/svg11.dtd">
<svg class="marks" width="1357" height="647" viewBox="0 0 1357 647" version="1.1" xmlns="http://www.w3.org/2000/svg" xmlns:xlink="http://www.w3.org/1999/xlink"><rect width="1357" height="647" fill="white"></rect><g fill="none" stroke-miterlimit="10" transform="translate(39,10)"><g class="mark-group role-frame root" role="graphics-object" aria-roledescription="group mark container"><g transform="translate(0,0)"><path class="background" aria-hidden="true" d="M0.5,0.5h1200v600h-1200Z" stroke="#ddd"></path><g><g class="mark-group role-axis" aria-hidden="true"><g transform="translate(0.5,600.5)"><path class="background" aria-hidden="true" d="M0,0h0v0h0Z" pointer-events="none"></path><g><g class="mark-rule role-axis-grid" pointer-events="none"><line transform="translate(0,-600)" x2="0" y2="600" stroke="#ddd" stroke-width="1" opacity="1"></line><line transform="translate(46,-600)" x2="0" y2="600" stroke="#ddd" stroke-width="1" opacity="1"></line><line transform="translate(92,-600)" x2="0" y2="600" stroke="#ddd" stroke-width="1" opacity="1"></line><line transform="translate(138,-600)" x2="0" y2="600" stroke="#ddd" stroke-width="1" opacity="1"></line><line transform="translate(185,-600)" x2="0" y2="600" stroke="#ddd" stroke-width="1" opacity="1"></line><line transform="translate(231,-600)" x2="0" y2="600" stroke="#ddd" stroke-width="1" opacity="1"></line><line transform="translate(277,-600)" x2="0" y2="600" stroke="#ddd" stroke-width="1" opacity="1"></line><line transform="translate(323,-600)" x2="0" y2="600" stroke="#ddd" stroke-width="1" opacity="1"></line><line transform="translate(369,-600)" x2="0" y2="600" stroke="#ddd" stroke-width="1" opacity="1"></line><line transform="translate(415,-600)" x2="0" y2="600" stroke="#ddd" stroke-width="1" opacity="1"></line><line transform="translate(462,-600)" x2="0" y2="600" stroke="#ddd" stroke-width="1" opacity="1"></line><line transform="translate(508,-600)" x2="0" y2="600" stroke="#ddd" stroke-width="1" opacity="1"></line><line transform="translate(554,-600)" x2="0" y2="600" stroke="#ddd" stroke-width="1" opacity="1"></line><line transform="translate(600,-600)" x2="0" y2="600" stroke="#ddd" stroke-width="1" opacity="1"></line><line transform="translate(646,-600)" x2="0" y2="600" stroke="#ddd" stroke-width="1" opacity="1"></line><line transform="translate(692,-600)" x2="0" y2="600" stroke="#ddd" stroke-width="1" opacity="1"></line><line transform="translate(738,-600)" x2="0" y2="600" stroke="#ddd" stroke-width="1" opacity="1"></line><line transform="translate(785,-600)" x2="0" y2="600" stroke="#ddd" stroke-width="1" opacity="1"></line><line transform="translate(831,-600)" x2="0" y2="600" stroke="#ddd" stroke-width="1" opacity="1"></line><line transform="translate(877,-600)" x2="0" y2="600" stroke="#ddd" stroke-width="1" opacity="1"></line><line transform="translate(923,-600)" x2="0" y2="600" stroke="#ddd" stroke-width="1" opacity="1"></line><line transform="translate(969,-600)" x2="0" y2="600" stroke="#ddd" stroke-width="1" opacity="1"></line><line transform="translate(1015,-600)" x2="0" y2="600" stroke="#ddd" stroke-width="1" opacity="1"></line><line transform="translate(1062,-600)" x2="0" y2="600" stroke="#ddd" stroke-width="1" opacity="1"></line><line transform="translate(1108,-600)" x2="0" y2="600" stroke="#ddd" stroke-width="1" opacity="1"></line><line transform="translate(1154,-600)" x2="0" y2="600" stroke="#ddd" stroke-width="1" opacity="1"></line><line transform="translate(1200,-600)" x2="0" y2="600" stroke="#ddd" stroke-width="1" opacity="1"></line></g></g><path class="foreground" aria-hidden="true" d="" pointer-events="none" display="none"></path></g></g><g class="mark-group role-axis" aria-hidden="true"><g transform="translate(0.5,0.5)"><path class="background" aria-hidden="true" d="M0,0h0v0h0Z" pointer-events="none"></path><g><g class="mark-rule role-axis-grid" pointer-events="none"><line transform="translate(0,600)" x2="1200" y2="0" stroke="#ddd" stroke-width="1" opacity="1"></line><line transform="translate(0,550)" x2="1200" y2="0" stroke="#ddd" stroke-width="1" opacity="1"></line><line transform="translate(0,500)" x2="1200" y2="0" stroke="#ddd" stroke-width="1" opacity="1"></line><line transform="translate(0,450)" x2="1200" y2="0" stroke="#ddd" stroke-width="1" opacity="1"></line><line transform="translate(0,400)" x2="1200" y2="0" stroke="#ddd" stroke-width="1" opacity="1"></line><line transform="translate(0,350)" x2="1200" y2="0" stroke="#ddd" stroke-width="1" opacity="1"></line><line transform="translate(0,300)" x2="1200" y2="0" stroke="#ddd" stroke-width="1" opacity="1"></line><line transform="translate(0,250)" x2="1200" y2="0" stroke="#ddd" stroke-width="1" opacity="1"></line><line transform="translate(0,200)" x2="1200" y2="0" stroke="#ddd" stroke-width="1" opacity="1"></line><line transform="translate(0,150)" x2="1200" y2="0" stroke="#ddd" stroke-width="1" opacity="1"></line><line transform="translate(0,100)" x2="1200" y2="0" stroke="#ddd" stroke-width="1" opacity="1"></line><line transform="translate(0,50)" x2="1200" y2="0" stroke="#ddd" stroke-width="1" opacity="1"></line><line transform="translate(0,0)" x2="1200" y2="0" stroke="#ddd" stroke-width="1" opacity="1"></line></g></g><path class="foreground" aria-hidden="true" d="" pointer-events="none" display="none"></path></g></g><g class="mark-group role-axis" role="graphics-symbol" aria-roledescription="axis" aria-label="X-axis titled 'Size' for a linear scale with values from 0 to 260"><g transform="translate(0.5,600.5)"><path class="background" aria-hidden="true" d="M0,0h0v0h0Z" pointer-events="none"></path><g><g class="mark-rule role-axis-tick" pointer-events="none"><line transform="translate(0,0)" x2="0" y2="5" stroke="#888" stroke-width="1" opacity="1"></line><line transform="translate(46,0)" x2="0" y2="5" stroke="#888" stroke-width="1" opacity="1"></line><line transform="translate(92,0)" x2="0" y2="5" stroke="#888" stroke-width="1" opacity="1"></line><line transform="translate(138,0)" x2="0" y2="5" stroke="#888" stroke-width="1" opacity="1"></line><line transform="translate(185,0)" x2="0" y2="5" stroke="#888" stroke-width="1" opacity="1"></line><line transform="translate(231,0)" x2="0" y2="5" stroke="#888" stroke-width="1" opacity="1"></line><line transform="translate(277,0)" x2="0" y2="5" stroke="#888" stroke-width="1" opacity="1"></line><line transform="translate(323,0)" x2="0" y2="5" stroke="#888" stroke-width="1" opacity="1"></line><line transform="translate(369,0)" x2="0" y2="5" stroke="#888" stroke-width="1" opacity="1"></line><line transform="translate(415,0)" x2="0" y2="5" stroke="#888" stroke-width="1" opacity="1"></line><line transform="translate(462,0)" x2="0" y2="5" stroke="#888" stroke-width="1" opacity="1"></line><line transform="translate(508,0)" x2="0" y2="5" stroke="#888" stroke-width="1" opacity="1"></line><line transform="translate(554,0)" x2="0" y2="5" stroke="#888" stroke-width="1" opacity="1"></line><line transform="translate(600,0)" x2="0" y2="5" stroke="#888" stroke-width="1" opacity="1"></line><line transform="translate(646,0)" x2="0" y2="5" stroke="#888" stroke-width="1" opacity="1"></line><line transform="translate(692,0)" x2="0" y2="5" stroke="#888" stroke-width="1" opacity="1"></line><line transform="translate(738,0)" x2="0" y2="5" stroke="#888" stroke-width="1" opacity="1"></line><line transform="translate(785,0)" x2="0" y2="5" stroke="#888" stroke-width="1" opacity="1"></line><line transform="translate(831,0)" x2="0" y2="5" stroke="#888" stroke-width="1" opacity="1"></line><line transform="translate(877,0)" x2="0" y2="5" stroke="#888" stroke-width="1" opacity="1"></line><line transform="translate(923,0)" x2="0" y2="5" stroke="#888" stroke-width="1" opacity="1"></line><line transform="translate(969,0)" x2="0" y2="5" stroke="#888" stroke-width="1" opacity="1"></line><line transform="translate(1015,0)" x2="0" y2="5" stroke="#888" stroke-width="1" opacity="1"></line><line transform="translate(1062,0)" x2="0" y2="5" stroke="#888" stroke-width="1" opacity="1"></line><line transform="translate(1108,0)" x2="0" y2="5" stroke="#888" stroke-width="1" opacity="1"></line><line transform="translate(1154,0)" x2="0" y2="5" stroke="#888" stroke-width="1" opacity="1"></line><line transform="translate(1200,0)" x2="0" y2="5" stroke="#888" stroke-width="1" opacity="1"></line></g><g class="mark-text role-axis-label" pointer-events="none"><text text-anchor="start" transform="translate(0,15)" font-family="sans-serif" font-size="10px" fill="#000" opacity="1">0</text><text text-anchor="middle" transform="translate(46.15384615384615,15)" font-family="sans-serif" font-size="10px" fill="#000" opacity="1">10</text><text text-anchor="middle" transform="translate(92.3076923076923,15)" font-family="sans-serif" font-size="10px" fill="#000" opacity="1">20</text><text text-anchor="middle" transform="translate(138.46153846153848,15)" font-family="sans-serif" font-size="10px" fill="#000" opacity="1">30</text><text text-anchor="middle" transform="translate(184.6153846153846,15)" font-family="sans-serif" font-size="10px" fill="#000" opacity="1">40</text><text text-anchor="middle" transform="translate(230.76923076923077,15)" font-family="sans-serif" font-size="10px" fill="#000" opacity="1">50</text><text text-anchor="middle" transform="translate(276.92307692307696,15)" font-family="sans-serif" font-size="10px" fill="#000" opacity="1">60</text><text text-anchor="middle" transform="translate(323.07692307692304,15)" font-family="sans-serif" font-size="10px" fill="#000" opacity="1">70</text><text text-anchor="middle" transform="translate(369.2307692307692,15)" font-family="sans-serif" font-size="10px" fill="#000" opacity="1">80</text><text text-anchor="middle" transform="translate(415.38461538461536,15)" font-family="sans-serif" font-size="10px" fill="#000" opacity="1">90</text><text text-anchor="middle" transform="translate(461.53846153846155,15)" font-family="sans-serif" font-size="10px" fill="#000" opacity="1">100</text><text text-anchor="middle" transform="translate(507.6923076923077,15)" font-family="sans-serif" font-size="10px" fill="#000" opacity="1">110</text><text text-anchor="middle" transform="translate(553.8461538461539,15)" font-family="sans-serif" font-size="10px" fill="#000" opacity="1">120</text><text text-anchor="middle" transform="translate(600,15)" font-family="sans-serif" font-size="10px" fill="#000" opacity="1">130</text><text text-anchor="middle" transform="translate(646.1538461538461,15)" font-family="sans-serif" font-size="10px" fill="#000" opacity="1">140</text><text text-anchor="middle" transform="translate(692.3076923076923,15)" font-family="sans-serif" font-size="10px" fill="#000" opacity="1">150</text><text text-anchor="middle" transform="translate(738.4615384615385,15)" font-family="sans-serif" font-size="10px" fill="#000" opacity="1">160</text><text text-anchor="middle" transform="translate(784.6153846153846,15)" font-family="sans-serif" font-size="10px" fill="#000" opacity="1">170</text><text text-anchor="middle" transform="translate(830.7692307692307,15)" font-family="sans-serif" font-size="10px" fill="#000" opacity="1">180</text><text text-anchor="middle" transform="translate(876.9230769230769,15)" font-family="sans-serif" font-size="10px" fill="#000" opacity="1">190</text><text text-anchor="middle" transform="translate(923.0769230769231,15)" font-family="sans-serif" font-size="10px" fill="#000" opacity="1">200</text><text text-anchor="middle" transform="translate(969.2307692307693,15)" font-family="sans-serif" font-size="10px" fill="#000" opacity="1">210</text><text text-anchor="middle" transform="translate(1015.3846153846154,15)" font-family="sans-serif" font-size="10px" fill="#000" opacity="1">220</text><text text-anchor="middle" transform="translate(1061.5384615384614,15)" font-family="sans-serif" font-size="10px" fill="#000" opacity="1">230</text><text text-anchor="middle" transform="translate(1107.6923076923078,15)" font-family="sans-serif" font-size="10px" fill="#000" opacity="1">240</text><text text-anchor="middle" transform="translate(1153.8461538461538,15)" font-family="sans-serif" font-size="10px" fill="#000" opacity="1">250</text><text text-anchor="end" transform="translate(1200,15)" font-family="sans-serif" font-size="10px" fill="#000" opacity="1">260</text></g><g class="mark-rule role-axis-domain" pointer-events="none"><line transform="translate(0,0)" x2="1200" y2="0" stroke="#888" stroke-width="1" opacity="1"></line></g><g class="mark-text role-axis-title" pointer-events="none"><text text-anchor="middle" transform="translate(600,30)" font-family="sans-serif" font-size="11px" font-weight="bold" fill="#000" opacity="1">Size</text></g></g><path class="foreground" aria-hidden="true" d="" pointer-events="none" display="none"></path></g></g><g class="mark-group role-axis" role="graphics-symbol" aria-roledescription="axis" aria-label="Y-axis titled 'GFLOPS' for a linear scale with values from 0 to 24"><g transform="translate(0.5,0.5)"><path class="background" aria-hidden="true" d="M0,0h0v0h0Z" pointer-events="none"></path><g><g class="mark-rule role-axis-tick" pointer-events="none"><line transform="translate(0,600)" x2="-5" y2="0" stroke="#888" stroke-width="1" opacity="1"></line><line transform="translate(0,550)" x2="-5" y2="0" stroke="#888" stroke-width="1" opacity="1"></line><line transform="translate(0,500)" x2="-5" y2="0" stroke="#888" stroke-width="1" opacity="1"></line><line transform="translate(0,450)" x2="-5" y2="0" stroke="#888" stroke-width="1" opacity="1"></line><line transform="translate(0,400)" x2="-5" y2="0" stroke="#888" stroke-width="1" opacity="1"></line><line transform="translate(0,350)" x2="-5" y2="0" stroke="#888" stroke-width="1" opacity="1"></line><line transform="translate(0,300)" x2="-5" y2="0" stroke="#888" stroke-width="1" opacity="1"></line><line transform="translate(0,250)" x2="-5" y2="0" stroke="#888" stroke-width="1" opacity="1"></line><line transform="translate(0,200)" x2="-5" y2="0" stroke="#888" stroke-width="1" opacity="1"></line><line transform="translate(0,150)" x2="-5" y2="0" stroke="#888" stroke-width="1" opacity="1"></line><line transform="translate(0,100)" x2="-5" y2="0" stroke="#888" stroke-width="1" opacity="1"></line><line transform="translate(0,50)" x2="-5" y2="0" stroke="#888" stroke-width="1" opacity="1"></line><line transform="translate(0,0)" x2="-5" y2="0" stroke="#888" stroke-width="1" opacity="1"></line></g><g class="mark-text role-axis-label" pointer-events="none"><text text-anchor="end" transform="translate(-7,603)" font-family="sans-serif" font-size="10px" fill="#000" opacity="1">0</text><text text-anchor="end" transform="translate(-7,553)" font-family="sans-serif" font-size="10px" fill="#000" opacity="1">2</text><text text-anchor="end" transform="translate(-7,503)" font-family="sans-serif" font-size="10px" fill="#000" opacity="1">4</text><text text-anchor="end" transform="translate(-7,453)" font-family="sans-serif" font-size="10px" fill="#000" opacity="1">6</text><text text-anchor="end" transform="translate(-7,403.00000000000006)" font-family="sans-serif" font-size="10px" fill="#000" opacity="1">8</text><text text-anchor="end" transform="translate(-7,352.99999999999994)" font-family="sans-serif" font-size="10px" fill="#000" opacity="1">10</text><text text-anchor="end" transform="translate(-7,303)" font-family="sans-serif" font-size="10px" fill="#000" opacity="1">12</text><text text-anchor="end" transform="translate(-7,252.99999999999997)" font-family="sans-serif" font-size="10px" fill="#000" opacity="1">14</text><text text-anchor="end" transform="translate(-7,203.00000000000003)" font-family="sans-serif" font-size="10px" fill="#000" opacity="1">16</text><text text-anchor="end" transform="translate(-7,153)" font-family="sans-serif" font-size="10px" fill="#000" opacity="1">18</text><text text-anchor="end" transform="translate(-7,102.99999999999997)" font-family="sans-serif" font-size="10px" fill="#000" opacity="1">20</text><text text-anchor="end" transform="translate(-7,53.00000000000002)" font-family="sans-serif" font-size="10px" fill="#000" opacity="1">22</text><text text-anchor="end" transform="translate(-7,3)" font-family="sans-serif" font-size="10px" fill="#000" opacity="1">24</text></g><g class="mark-rule role-axis-domain" pointer-events="none"><line transform="translate(0,600)" x2="0" y2="-600" stroke="#888" stroke-width="1" opacity="1"></line></g><g class="mark-text role-axis-title" pointer-events="none"><text text-anchor="middle" transform="translate(-23,300) rotate(-90) translate(0,-2)" font-family="sans-serif" font-size="11px" font-weight="bold" fill="#000" opacity="1">GFLOPS</text></g></g><path class="foreground" aria-hidden="true" d="" pointer-events="none" display="none"></path></g></g><g class="mark-group role-scope pathgroup" role="graphics-object" aria-roledescription="group mark container"><g transform="translate(0,0)"><path class="background" aria-hidden="true" d="M0,0h1200v600h-1200Z"></path><g><g class="mark-line role-mark marks" role="graphics-object" aria-roledescription="line mark container"><path aria-label="Library: OpenBLAS; Size: 2; GFLOPS: 0.0567468324289" role="graphics-symbol" aria-roledescription="line mark" d="M9.230769230769232,598.5813291892773L13.846153846153847,595.8551036897387L18.461538461538463,590.0513246586173L23.076923076923077,583.6604463676287L27.692307692307693,574.2187781149911L32.30769230769231,567.1564646312728L36.92307692307693,543.9202037162651L41.53846153846154,540.2912076082785L46.15384615384615,527.496202182019L50.769230769230774,523.1064982668632L55.38461538461539,499.6722416796209L60,490.40207522697796L64.61538461538461,482.0190902055206L69.23076923076924,483.1371191135734L73.84615384615385,412.9680365296804L78.46153846153847,437.90828109534806L83.07692307692308,424.74908347857445L87.6923076923077,441.24318485752497L92.3076923076923,388.88478387079743L96.92307692307693,403.5704185520362L101.53846153846155,403.5585437848475L106.15384615384616,416.1459710626723L110.76923076923077,357.4547723019339L115.38461538461539,381.2160884937166L120,376.7347327638223L124.61538461538463,394.33215906376876L129.23076923076923,350.29412720595406L133.84615384615384,371.0168059337151L138.46153846153848,370.4927322698552L143.0769230769231,387.4273074315887L147.6923076923077,324.6849269030415L152.3076923076923,345.82169254164154L156.92307692307693,346.9889600566481L161.53846153846152,364.3194810905892L166.15384615384616,323.38339920948624L170.76923076923077,347.66862608349106L175.3846153846154,343.3729305022916L180,361.94317360943893L184.6153846153846,291.41755062680807L189.23076923076923,316.8638567085696L193.84615384615387,320.317100792752L198.46153846153845,333.6270436880193L203.0769230769231,290.8246225319396L207.69230769230768,310.1437750493034L212.30769230769232,312.46602859506083L216.9230769230769,335.05078344306634L221.53846153846155,244.76422973146603L226.15384615384616,273.2516802755096L230.76923076923077,276.8522827154749L235.3846153846154,298.12252514678437L240,251.78801386825157L244.6153846153846,276.90220929727855L249.23076923076925,280.92401215805467L253.84615384615384,300.0306505120439L258.46153846153845,223.23865099116102L263.0769230769231,251.30295612878933L267.6923076923077,260.21385531677754L272.3076923076923,280.1149461092767L276.92307692307696,235.8609528305067L281.53846153846155,259.4331412795583L286.1538461538462,264.22271689819377L290.7692307692308,288.01063059915646L295.3846153846154,220.09217124141327L300,237.68832950737476L304.6153846153846,237.90523690773065L309.23076923076917,263.07104608697597L313.84615384615387,216.39664259223107L318.46153846153845,242.27954787987022L323.07692307692304,246.114481449383L327.6923076923077,265.8909301370374L332.3076923076923,179.05943385587008L336.9230769230769,209.21665930003616L341.53846153846155,213.46128164526777L346.15384615384613,235.49136843560447L350.7692307692308,189.94133692037514L355.3846153846154,217.26580707902284L360,223.13813313003286L364.6153846153846,243.99459896600519L369.2307692307692,173.70279091454066L373.84615384615387,202.01225174490014L378.46153846153845,206.78362573099417L383.07692307692304,231.9836519276565L387.69230769230774,187.5062635710706L392.3076923076923,214.44168204819124L396.9230769230769,211.50717060418745L401.5384615384615,231.72620911816023L406.1538461538462,162.05850598940924L410.7692307692308,188.99208264829L415.38461538461536,193.7315395847033L420,215.03790510441775L424.61538461538464,174.81271158676418L429.2307692307692,199.28012036188275L433.8461538461538,206.4925712553062L438.46153846153845,226.40309901870216L443.0769230769231,146.60079740076046L447.6923076923077,171.33792364920723L452.3076923076923,177.4519399125445L456.9230769230769,198.1633024939328L461.53846153846155,159.70024392606487L466.1538461538462,183.1137564638952L470.7692307692308,191.20472738198873L475.38461538461536,210.84666448239997L480,147.76064197610273L484.61538461538464,171.86207865791872L489.2307692307692,176.9367935720831L493.8461538461538,191.62238564161368L498.4615384615385,154.37449590355303L503.0769230769231,175.66744868803895L507.6923076923077,181.235841933048L512.3076923076923,200.0634573432136L516.9230769230769,139.6697247706421L521.5384615384615,163.10799844972505L526.1538461538462,169.82381157013273L530.7692307692307,188.4900320360188L535.3846153846154,153.04129703973928L540,173.93937942922813L544.6153846153846,178.80478251061297L549.2307692307692,197.31047897609412L553.8461538461539,125.04507674040195L558.4615384615385,148.8767507002801L563.0769230769231,154.62920268029708L567.6923076923076,173.47151612947584L572.3076923076924,138.7319036928079L576.9230769230769,162.11101445636186L581.5384615384615,168.63161163440628L586.1538461538462,190.5477798166604L590.7692307692308,142.3483661471449L595.3846153846154,154.2330118860731L600,149.84304951111758L604.6153846153846,166.93526637796845L609.2307692307692,132.4070798619158L613.8461538461538,152.92099942229927L618.4615384615383,157.99884636439455L623.0769230769231,175.58227791328704L627.6923076923077,120.63725583611244L632.3076923076924,141.48811349419762L636.9230769230769,147.34771630433664L641.5384615384615,164.52199265127945L646.1538461538461,132.9918137413414L650.7692307692307,151.0550895096428L655.3846153846154,156.28163286811903L660,173.50569834227392L664.6153846153846,108.08484840497385L669.2307692307693,127.59690955521393L673.8461538461538,133.54716483411067L678.4615384615385,150.8094280550818L683.0769230769231,119.66051065645667L687.6923076923076,137.7221986204121L692.3076923076923,138.51581215747618L696.923076923077,156.57902871008125L701.5384615384615,103.7015262860372L706.1538461538462,124.17065452197546L710.7692307692308,129.13990444242185L715.3846153846154,147.07743241205168L720,115.9583637207452L724.6153846153845,134.72546841335796L729.2307692307692,139.6160346614624L733.8461538461539,155.98081949068472L738.4615384615385,106.73660987393836L743.0769230769231,124.16732037471145L747.6923076923077,129.07623564752564L752.3076923076923,147.43892524311812L756.9230769230769,115.76192441794085L761.5384615384615,134.1008562680981L766.1538461538461,138.43663853471682L770.7692307692308,154.98771249923558L775.3846153846155,93.57445417785438L780,114.0574536287561L784.6153846153846,118.1112865732248L789.2307692307692,136.22994974799803L793.8461538461538,100.6782641462036L798.4615384615385,121.08462040783105L803.076923076923,123.09519584873823L807.6923076923077,139.98360571310852L812.3076923076924,90.36534042787882L816.9230769230769,110.81688823804441L821.5384615384615,113.20094809147385L826.1538461538462,130.7057408437796L830.7692307692307,100.59428594916196L835.3846153846154,118.96238981486135L840,122.50933030877135L844.6153846153846,139.7285305078356L849.2307692307693,90.17556379778249L853.8461538461539,110.59676412025878L858.4615384615385,113.33160896851213L863.0769230769231,130.17634185489442L867.6923076923076,100.34875799143069L872.3076923076923,119.94116651568396L876.9230769230769,122.5559094756537L881.5384615384617,139.8041753901632L886.1538461538462,83.29267064095207L890.7692307692308,98.94429955212702L895.3846153846154,98.17494017042326L900,118.2299280743815L904.6153846153846,85.70850921410323L909.2307692307692,105.77443210467108L913.8461538461538,107.41992963859819L918.4615384615383,125.75365135914211L923.0769230769231,77.30661324740258L927.6923076923077,97.2747747190024L932.3076923076924,99.77192865335948L936.9230769230769,119.12994842622975L941.5384615384615,87.74064772901428L946.1538461538461,108.24722790169876L950.7692307692307,108.5548780693479L955.3846153846154,125.20536667305448L960,78.69142679710993L964.6153846153846,98.06087709999709L969.2307692307693,98.6536568887618L973.8461538461538,117.21614526586706L978.4615384615385,87.8578577394882L983.0769230769231,107.18864487544568L987.6923076923076,106.32615785120383L992.3076923076923,123.02500544723473L996.923076923077,64.41214829396455L1001.5384615384615,85.49879107500153L1006.1538461538462,85.41042070232949L1010.7692307692308,104.11173168532312L1015.3846153846154,74.69840051385617L1020,94.90164166099662L1024.6153846153845,94.93049265872855L1029.2307692307693,112.57307294020016L1033.8461538461538,66.47020624546658L1038.4615384615386,87.54773327670715L1043.076923076923,86.7034976378849L1047.6923076923076,105.59230019468461L1052.3076923076924,77.14763655869963L1056.923076923077,97.9167015074637L1061.5384615384614,98.20968871431648L1066.1538461538462,113.70617833153558L1070.7692307692307,70.31577018452796L1075.3846153846155,90.24084460839974L1080,88.03185070700322L1084.6153846153845,105.26098896909694L1089.2307692307693,74.97319795170031L1093.8461538461538,97.47936623461335L1098.4615384615383,96.29347328178663L1103.076923076923,114.19009613769582L1107.6923076923078,57.34182283529472L1112.3076923076924,79.29414749447766L1116.923076923077,76.37920485681103L1121.5384615384617,95.89670821824726L1126.1538461538462,66.00244671340513L1130.7692307692307,87.10680615271296L1135.3846153846152,86.50864388305573L1140,105.91156311805226L1144.6153846153848,58.83934051664485L1149.2307692307693,81.02609148154265L1153.8461538461538,78.33408787090868L1158.4615384615386,97.49143750186687L1163.076923076923,69.54508118743874L1167.6923076923076,91.31451830250089L1172.3076923076924,91.5343767589268L1176.923076923077,116.40457073527817L1181.5384615384617,73.54927461377268" stroke="#f58518" stroke-width="2"></path></g></g><path class="foreground" aria-hidden="true" d="" display="none"></path></g><g transform="translate(0,0)"><path class="background" aria-hidden="true" d="M0,0h1200v600h-1200Z"></path><g><g class="mark-line role-mark marks" role="graphics-object" aria-roledescription="line mark container"><path aria-label="Library: MKL; Size: 2; GFLOPS: 0.0371446237124" role="graphics-symbol" aria-roledescription="line mark" d="M9.230769230769232,599.071384407191L13.846153846153847,596.8831259692861L18.461538461538463,592.7006290177645L23.076923076923077,586.0335195530726L27.692307692307693,568.9784303987759L32.30769230769231,564.333326223284L36.92307692307693,547.7814694873197L41.53846153846154,536.1324051766005L46.15384615384615,518.7299187299187L50.769230769230774,497.1367949714757L55.38461538461539,467.2010108534734L60,460.97989333264456L64.61538461538461,449.1244889327505L69.23076923076924,403.8575865551342L73.84615384615385,367.73849232821885L78.46153846153847,403.9035682924882L83.07692307692308,352.71370420624146L87.6923076923077,353.4507548526239L92.3076923076923,323.35569541462064L96.92307692307693,319.1934505761068L101.53846153846155,297.2763973389436L106.15384615384616,275.90964786106224L110.76923076923077,177.45445653502873L115.38461538461539,278.02683395915375L120,259.83398563502647L124.61538461538463,226.77608292600704L129.23076923076923,186.17569435716982L133.84615384615384,218.5344490498162L138.46153846153848,184.40758840958938L143.0769230769231,185.96296167610572L147.6923076923077,118.01132602780022L152.3076923076923,188.01342941369137L156.92307692307693,171.95842927375685L161.53846153846152,157.7943126565493L166.15384615384616,106.33049156539087L170.76923076923077,170.47034880434168L175.3846153846154,152.489071573041L180,128.58573335876403L184.6153846153846,60.70445480590967L189.23076923076923,149.71253103358154L193.84615384615387,112.22595299229707L198.46153846153845,131.7241243913931L203.0769230769231,87.23464023435935L207.69230769230768,121.90451206715626L212.30769230769232,115.59669553100429L216.9230769230769,112.01823651062226L221.53846153846155,23.759899958315977L226.15384615384616,131.0920685532084L230.76923076923077,112.74655024557572L235.3846153846154,103.14255749494346L240,62.71303018723715L244.6153846153846,101.45000334873757L249.23076923076925,77.48871781258295L253.84615384615384,86.05276164586677L258.46153846153845,33.82552066541995L263.0769230769231,102.11581890525865L267.6923076923077,86.19581819139404L272.3076923076923,85.05917159763312L276.92307692307696,38.72778297474275L281.53846153846155,86.14280539708415L286.1538461538462,80.33666216039424L290.7692307692308,68.5504782146651L295.3846153846154,35.88551753819671L300,89.94279558708804L304.6153846153846,69.29040832902602L309.23076923076917,77.15214519157215L313.84615384615387,46.38354813719274L318.46153846153845,71.51061776061785L323.07692307692304,61.437005401331454L327.6923076923077,50.92200540009817L332.3076923076923,112.34909851058264L336.9230769230769,145.17958191086376L341.53846153846155,149.31043687160778L346.15384615384613,172.38642583470167L350.7692307692308,119.10959204241702L355.3846153846154,149.69916357610663L360,154.4531029950239L364.6153846153846,174.09989288552572L369.2307692307692,110.62853647346678L373.84615384615387,135.59981124820865L378.46153846153845,143.56197950297192L383.07692307692304,172.99374187863123L387.69230769230774,110.04050591055632L392.3076923076923,140.751847088032L396.9230769230769,143.90856028338274L401.5384615384615,160.89847031993918L406.1538461538462,111.42656400108973L410.7692307692308,139.10942873207023L415.38461538461536,144.19837687103748L420,163.41046557437838L424.61538461538464,105.95251690839642L429.2307692307692,132.17106564146704L433.8461538461538,140.82460776400595L438.46153846153845,157.37421399882294L443.0769230769231,112.46156389485868L447.6923076923077,130.98123252754485L452.3076923076923,133.4489971943252L456.9230769230769,151.2819208464746L461.53846153846155,107.2726556032953L466.1538461538462,129.12149686477397L470.7692307692308,139.52616506118193L475.38461538461536,157.4427326334888L480,108.9688408517474L484.61538461538464,128.9726813310222L489.2307692307692,130.24162058547432L493.8461538461538,147.91457546055733L498.4615384615385,160.40814617328064L503.0769230769231,172.3351628392346L507.6923076923077,109.93026355515951L512.3076923076923,129.8136624608931L516.9230769230769,83.07565511100631L521.5384615384615,110.6932848626249L526.1538461538462,121.95304534131822L530.7692307692307,140.67934306613427L535.3846153846154,79.044929945064L540,107.68982497556306L544.6153846153846,115.20394674723826L549.2307692307692,132.1134261058851L553.8461538461539,76.4048893117511L558.4615384615385,101.8555698024924L563.0769230769231,109.29658154303479L567.6923076923076,125.96863680132051L572.3076923076924,82.40761855121555L576.9230769230769,104.85856542394876L581.5384615384615,113.00139255421709L586.1538461538462,130.5061242825972L590.7692307692308,80.99546615454668L595.3846153846154,104.35249406614504L600,111.07372394025165L604.6153846153846,128.6764058418278L609.2307692307692,80.82220847761408L613.8461538461538,95.81308130813075L618.4615384615383,108.07491004252539L623.0769230769231,119.19694677969675L627.6923076923077,80.08003042478953L632.3076923076924,106.908659267157L636.9230769230769,108.3580581797773L641.5384615384615,126.3341599263474L646.1538461538461,75.41886198010258L650.7692307692307,95.06797942244505L655.3846153846154,102.01608414959928L660,115.68015290438834L664.6153846153846,61.53468846026231L669.2307692307693,88.030463331486L673.8461538461538,90.84210250772212L678.4615384615385,111.74733703253975L683.0769230769231,88.72311365837182L687.6923076923076,108.16579290903307L692.3076923076923,114.16899145801122L696.923076923077,125.24772134967803L701.5384615384615,127.67426033672527L706.1538461538462,79.56264730755926L710.7692307692308,86.08447755229545L715.3846153846154,102.20632662991456L720,49.818703534628916L724.6153846153845,79.20629922107555L729.2307692307692,81.27640099528134L733.8461538461539,102.23282504191732L738.4615384615385,64.02447481988025L743.0769230769231,79.9261003937989L747.6923076923077,90.09239803114465L752.3076923076923,100.0130459077412L756.9230769230769,52.91431321332274L761.5384615384615,82.2056365627341L766.1538461538461,84.63049924738837L770.7692307692308,101.65602383082162L775.3846153846155,52.290347918495584L780,68.41544750904178L784.6153846153846,81.32429636198555L789.2307692307692,92.17257685135907L793.8461538461538,51.19092301386996L798.4615384615385,84.02492521041731L803.076923076923,79.6725547289528L807.6923076923077,96.37980773748546L812.3076923076924,50.10096690181902L816.9230769230769,73.31315322571453L821.5384615384615,75.6684591412484L826.1538461538462,95.42708890515463L830.7692307692307,42.643505917612124L835.3846153846154,68.66024849506888L840,69.75215799685819L844.6153846153846,87.22369761989626L849.2307692307693,48.56420533811105L853.8461538461539,70.00344869727971L858.4615384615385,74.16133597879275L863.0769230769231,88.92512700273542L867.6923076923076,45.123189567634036L872.3076923076923,65.98961604356069L876.9230769230769,69.1472301853147L881.5384615384617,86.65249679520237L886.1538461538462,67.79195584663624L890.7692307692308,49.45527979611093L895.3846153846154,48.9430013177578L900,67.81844228585705L904.6153846153846,22.311357306715497L909.2307692307692,51.031608122468896L913.8461538461538,53.08769319219451L918.4615384615383,69.69204100557047L923.0769230769231,19.659049691693852L927.6923076923077,47.728441240478745L932.3076923076924,47.57015283895478L936.9230769230769,65.98385457628162L941.5384615384615,15.04086607695303L946.1538461538461,40.93714836008442L950.7692307692307,41.968051966621964L955.3846153846154,61.2382161426696L960,21.160802959898305L964.6153846153846,45.035038917270676L969.2307692307693,48.443360773191735L973.8461538461538,62.90194029099781L978.4615384615385,16.82113027947889L983.0769230769231,41.76616975776115L987.6923076923076,45.14336312846628L992.3076923076923,60.84199436449778L996.923076923077,16.961280386559707L1001.5384615384615,38.11336587168383L1006.1538461538462,38.581181185737634L1010.7692307692308,56.66105573752842L1015.3846153846154,18.062576854761513L1020,41.3803579062207L1024.6153846153845,42.84810764732312L1029.2307692307693,59.244932112840345L1033.8461538461538,11.24023048716598L1038.4615384615386,38.97335294274089L1043.076923076923,38.90643106572613L1047.6923076923076,54.90608998436068L1052.3076923076924,9.66816486564026L1056.923076923077,31.572891175621365L1061.5384615384614,34.47968133415748L1066.1538461538462,50.418348293345794L1070.7692307692307,11.066536748067012L1075.3846153846155,35.019505131542395L1080,36.84741188725435L1084.6153846153845,53.07541630810124L1089.2307692307693,9.454474876694952L1093.8461538461538,37.99034218618866L1098.4615384615383,32.75393857994844L1103.076923076923,49.08755088666279L1107.6923076923078,7.8414742279964145L1112.3076923076924,26.31276737535051L1116.923076923077,28.67476620896101L1121.5384615384617,44.01622898821837L1126.1538461538462,7.9588275234158345L1130.7692307692307,29.12512402622911L1135.3846153846152,34.85287585842969L1140,56.69592800182856L1144.6153846153848,13.02904570702459L1149.2307692307693,36.501849096767614L1153.8461538461538,30.927946190731802L1158.4615384615386,46.62978990252744L1163.076923076923,6.154496977523416L1167.6923076923076,26.85594418860131L1172.3076923076924,29.05637710910698L1176.923076923077,49.19365715048782L1181.5384615384617,16.705571003717967" stroke="#4c78a8" stroke-width="2"></path></g></g><path class="foreground" aria-hidden="true" d="" display="none"></path></g><g transform="translate(0,0)"><path class="background" aria-hidden="true" d="M0,0h1200v600h-1200Z"></path><g><g class="mark-line role-mark marks" role="graphics-object" aria-roledescription="line mark container"><path aria-label="Library: PaddedMatrices; Size: 2; GFLOPS: 0.152353019054" role="graphics-symbol" aria-roledescription="line mark" d="M9.230769230769232,596.1911745236422L13.846153846153847,587.6184693756665L18.461538461538463,571.8764046018342L23.076923076923077,550.9170956141588L27.692307692307693,525.5866244800283L32.30769230769231,498.3521111523244L36.92307692307693,448.80298771801483L41.53846153846154,449.74529843334506L46.15384615384615,404.14225341233845L50.769230769230774,358.1062620447394L55.38461538461539,341.5516342380417L60,325.6253668527469L64.61538461538461,291.73787234042544L69.23076923076924,247.51108683077317L73.84615384615385,182.7694117152878L78.46153846153847,288.1321098611023L83.07692307692308,236.60598179453837L87.6923076923077,260.24370913413907L92.3076923076923,203.44998512937437L96.92307692307693,225.5155681358674L101.53846153846155,162.243052129584L106.15384615384616,135.14938488576448L110.76923076923077,93.18081830180371L115.38461538461539,236.19547782894395L120,219.3840230991337L124.61538461538463,169.2369419317187L129.23076923076923,109.75682382133989L133.84615384615384,130.5594764532272L138.46153846153848,120.9368346344925L143.0769230769231,115.59349593495931L147.6923076923077,65.14323022933158L152.3076923076923,185.14627791154055L156.92307692307693,138.71638387767428L161.53846153846152,149.36186186186177L166.15384615384616,86.6519962276014L170.76923076923077,137.5703721737013L175.3846153846154,144.02526175835135L180,134.21226207676364L184.6153846153846,66.77331200426568L189.23076923076923,155.46310629514963L193.84615384615387,112.22595299229707L198.46153846153845,159.5180055401662L203.0769230769231,109.27106536600351L207.69230769230768,133.45791521605568L212.30769230769232,115.01743896362721L216.9230769230769,109.20393306230494L221.53846153846155,58.25413931615555L226.15384615384616,175.09029182317246L230.76923076923077,139.11953395767273L235.3846153846154,131.66572518005918L240,76.47628267182955L244.6153846153846,178.70564265097065L249.23076923076925,177.79922779922774L253.84615384615384,173.94366197183092L258.46153846153845,64.97684621009014L263.0769230769231,173.05191811139798L267.6923076923077,159.80507174442735L272.3076923076923,147.86236350827753L276.92307692307696,66.3240598902999L281.53846153846155,175.75230832492238L286.1538461538462,163.5817615821278L290.7692307692308,155.0131691343963L295.3846153846154,47.65276021913187L300,160.07913369429406L304.6153846153846,141.67835735237847L309.23076923076917,151.9025625744934L313.84615384615387,71.72043010752682L318.46153846153845,163.80258126195034L323.07692307692304,150.0341082017107L327.6923076923077,141.0338283193557L332.3076923076923,24.053328395518946L336.9230769230769,153.49042743675682L341.53846153846155,141.05148707726457L346.15384615384613,134.42624759970855L350.7692307692308,53.01667206618976L355.3846153846154,142.0657211065861L360,133.89384355478722L364.6153846153846,144.50305796271311L369.2307692307692,43.6113103388319L373.84615384615387,141.43426638594548L378.46153846153845,125.98222115235815L383.07692307692304,125.7870554670913L387.69230769230774,45.40759038850213L392.3076923076923,149.99926724895943L396.9230769230769,134.03173579874277L401.5384615384615,130.4456645750142L406.1538461538462,22.26592966869001L410.7692307692308,125.19666478084002L415.38461538461536,116.55901428438789L420,126.05597484276726L424.61538461538464,51.651338675830495L429.2307692307692,131.16213191578652L433.8461538461538,120.25414428464147L438.46153846153845,114.83436888149478L443.0769230769231,18.082321524882005L447.6923076923077,135.27521767910793L452.3076923076923,124.12175144099503L456.9230769230769,116.64856732953402L461.53846153846155,35.72323353158255L466.1538461538462,119.98648900484537L470.7692307692308,115.03153276665745L475.38461538461536,129.0254036394355L480,32.643344227898005L484.61538461538464,119.54603559333287L489.2307692307692,110.60304728719119L493.8461538461538,104.46050790003791L498.4615384615385,31.67639654596801L503.0769230769231,128.11600434342182L507.6923076923077,121.20579876973983L512.3076923076923,113.64473684210523L516.9230769230769,15.985766781396983L521.5384615384615,113.30101934117238L526.1538461538462,114.3561435483236L530.7692307692307,117.83461097056038L535.3846153846154,39.05124703514691L540,130.32703236893195L544.6153846153846,118.68339182451477L549.2307692307692,118.19010967646015L553.8461538461539,14.507210235281299L558.4615384615385,129.803062876556L563.0769230769231,122.84091088255538L567.6923076923076,116.09231569366783L572.3076923076924,28.945902395485778L576.9230769230769,144.12890546590168L581.5384615384615,134.60795763867236L586.1538461538462,141.2767053343486L590.7692307692308,24.3590728927634L595.3846153846154,120.5243949289281L600,105.75679725005509L604.6153846153846,106.59290734066973L609.2307692307692,21.409165006339293L613.8461538461538,122.11508383065679L618.4615384615383,111.53625965821202L623.0769230769231,108.36157492146963L627.6923076923077,13.137732485978471L632.3076923076924,108.76066498293986L636.9230769230769,100.62856751970453L641.5384615384615,111.10829959514163L646.1538461538461,30.653420644208108L650.7692307692307,109.03201286259225L655.3846153846154,98.64509464026192L660,98.52569445158987L664.6153846153846,84.76831705036041L669.2307692307693,116.47962112969577L673.8461538461538,107.78837090131523L678.4615384615385,104.82420724122133L683.0769230769231,90.15280669858254L687.6923076923076,104.27264226155859L692.3076923076923,97.92176802944326L696.923076923077,104.84220305929324L701.5384615384615,90.41604754829117L706.1538461538462,109.1053752593879L710.7692307692308,101.87750782181269L715.3846153846154,108.6510143979057L720,94.47714211145843L724.6153846153845,120.37020511867131L729.2307692307692,113.97315234454896L733.8461538461539,111.57976466471284L738.4615384615385,95.01674236484037L743.0769230769231,112.505899064093L747.6923076923077,104.25742297180068L752.3076923076923,111.52434512691404L756.9230769230769,98.43604665706967L761.5384615384615,112.24722687907713L766.1538461538461,102.09901645339798L770.7692307692308,102.02900069283467L775.3846153846155,85.99749374520316L780,113.63243384857216L784.6153846153846,103.34908302046237L789.2307692307692,106.16663209978965L793.8461538461538,86.69871827203775L798.4615384615385,105.64585581026765L803.076923076923,98.07501019470936L807.6923076923077,105.66111700410463L812.3076923076924,87.90381363892543L816.9230769230769,107.45641461100905L821.5384615384615,98.64058060684933L826.1538461538462,99.97306029785358L830.7692307692307,84.42215853134576L835.3846153846154,109.35322814995743L840,99.9495683448463L844.6153846153846,99.69410946423851L849.2307692307693,80.6487488724261L853.8461538461539,102.32542236461298L858.4615384615385,94.5410785878568L863.0769230769231,103.7132691674268L867.6923076923076,86.32593204170193L872.3076923076923,103.41227716596586L876.9230769230769,94.20238983655773L881.5384615384617,94.70540373553627L886.1538461538462,78.63243078400848L890.7692307692308,104.95270610854182L895.3846153846154,95.0689342303266L900,95.16294631003166L904.6153846153846,78.07821129915935L909.2307692307692,97.88504657061374L913.8461538461538,89.60643423738081L918.4615384615383,95.86429032939046L923.0769230769231,79.85883368746272L927.6923076923077,96.30562557684861L932.3076923076924,87.7265557313737L936.9230769230769,89.66591142296944L941.5384615384615,74.51618294245448L946.1538461538461,105.1548730767949L950.7692307692307,91.10100769011345L955.3846153846154,89.78194017332956L960,72.47251542618223L964.6153846153846,92.39374236171581L969.2307692307693,83.98578495340212L973.8461538461538,92.6790028914376L978.4615384615385,78.46348034466482L983.0769230769231,90.5987190638095L987.6923076923076,85.32957181973721L992.3076923076923,86.52422358964822L996.923076923077,72.30894577991506L1001.5384615384615,96.54207228326787L1006.1538461538462,88.5048482335051L1010.7692307692308,86.91281855884627L1015.3846153846154,72.72197869891863L1020,90.04545901224199L1024.6153846153845,82.93333030873578L1029.2307692307693,90.38415230434407L1033.8461538461538,73.16895737418446L1038.4615384615386,91.66333446985047L1043.076923076923,87.79858362471373L1047.6923076923076,87.21204378986054L1052.3076923076924,75.06955608997778L1056.923076923077,95.34387163089504L1061.5384615384614,89.26778117976755L1066.1538461538462,89.11657189277003L1070.7692307692307,77.68781987896666L1075.3846153846155,95.236740391238L1080,89.20338572230442L1084.6153846153845,96.53119922783632L1089.2307692307693,84.67235931092343L1093.8461538461538,107.46156498728698L1098.4615384615383,98.89261256010488L1103.076923076923,101.32708710025015L1107.6923076923078,89.80382691417672L1112.3076923076924,106.3198372542007L1116.923076923077,110.6506133920772L1121.5384615384617,110.19530188604524L1126.1538461538462,100.97340317359107L1130.7692307692307,119.79905919815677L1135.3846153846152,110.72337790643783L1140,118.13519898492994L1144.6153846153848,107.08839128405907L1149.2307692307693,114.52321967988854L1153.8461538461538,106.80654316997294L1158.4615384615386,107.6587995446857L1163.076923076923,98.40466245531152L1167.6923076923076,133.4543035612322L1172.3076923076924,126.48205308396616L1176.923076923077,126.71052271030227L1181.5384615384617,119.10248141873983" stroke="#e45756" stroke-width="2"></path></g></g><path class="foreground" aria-hidden="true" d="" display="none"></path></g></g><g class="mark-group role-legend" role="graphics-symbol" aria-roledescription="legend" aria-label="Symbol legend titled 'Library' for stroke color with 3 values: MKL, OpenBLAS, PaddedMatrices"><g transform="translate(1218,0)"><path class="background" aria-hidden="true" d="M0,0h95v53h-95Z" pointer-events="none"></path><g><g class="mark-group role-legend-entry"><g transform="translate(0,16)"><path class="background" aria-hidden="true" d="M0,0h0v0h0Z" pointer-events="none"></path><g><g class="mark-group role-scope" role="graphics-object" aria-roledescription="group mark container"><g transform="translate(0,0)"><path class="background" aria-hidden="true" d="M0,0h95v11h-95Z" pointer-events="none" opacity="1"></path><g><g class="mark-symbol role-legend-symbol" pointer-events="none"><path transform="translate(6,6)" d="M-5,0L5,0" stroke="#4c78a8" stroke-width="1.5" opacity="1"></path></g><g class="mark-text role-legend-label" pointer-events="none"><text text-anchor="start" transform="translate(16,9)" font-family="sans-serif" font-size="10px" fill="#000" opacity="1">MKL</text></g></g><path class="foreground" aria-hidden="true" d="" pointer-events="none" display="none"></path></g><g transform="translate(0,13)"><path class="background" aria-hidden="true" d="M0,0h95v11h-95Z" pointer-events="none" opacity="1"></path><g><g class="mark-symbol role-legend-symbol" pointer-events="none"><path transform="translate(6,6)" d="M-5,0L5,0" stroke="#f58518" stroke-width="1.5" opacity="1"></path></g><g class="mark-text role-legend-label" pointer-events="none"><text text-anchor="start" transform="translate(16,9)" font-family="sans-serif" font-size="10px" fill="#000" opacity="1">OpenBLAS</text></g></g><path class="foreground" aria-hidden="true" d="" pointer-events="none" display="none"></path></g><g transform="translate(0,26)"><path class="background" aria-hidden="true" d="M0,0h95v11h-95Z" pointer-events="none" opacity="1"></path><g><g class="mark-symbol role-legend-symbol" pointer-events="none"><path transform="translate(6,6)" d="M-5,0L5,0" stroke="#e45756" stroke-width="1.5" opacity="1"></path></g><g class="mark-text role-legend-label" pointer-events="none"><text text-anchor="start" transform="translate(16,9)" font-family="sans-serif" font-size="10px" fill="#000" opacity="1">PaddedMatrices</text></g></g><path class="foreground" aria-hidden="true" d="" pointer-events="none" display="none"></path></g></g></g><path class="foreground" aria-hidden="true" d="" pointer-events="none" display="none"></path></g></g><g class="mark-text role-legend-title" pointer-events="none"><text text-anchor="start" transform="translate(0,9)" font-family="sans-serif" font-size="11px" font-weight="bold" fill="#000" opacity="1">Library</text></g></g><path class="foreground" aria-hidden="true" d="" pointer-events="none" display="none"></path></g></g></g><path class="foreground" aria-hidden="true" d="" display="none"></path></g></g></g></svg>
