<?xml version="1.0" encoding="utf-8"?>
<!DOCTYPE svg PUBLIC "-//W3C//DTD SVG 1.1//EN" "http://www.w3.org/Graphics/SVG/1.1/DTD/svg11.dtd">
<svg class="marks" width="1357" height="647" viewBox="0 0 1357 647" version="1.1" xmlns="http://www.w3.org/2000/svg" xmlns:xlink="http://www.w3.org/1999/xlink"><rect width="1357" height="647" fill="white"></rect><g fill="none" stroke-miterlimit="10" transform="translate(39,10)"><g class="mark-group role-frame root" role="graphics-object" aria-roledescription="group mark container"><g transform="translate(0,0)"><path class="background" aria-hidden="true" d="M0.5,0.5h1200v600h-1200Z" stroke="#ddd"></path><g><g class="mark-group role-axis" aria-hidden="true"><g transform="translate(0.5,600.5)"><path class="background" aria-hidden="true" d="M0,0h0v0h0Z" pointer-events="none"></path><g><g class="mark-rule role-axis-grid" pointer-events="none"><line transform="translate(0,-600)" x2="0" y2="600" stroke="#ddd" stroke-width="1" opacity="1"></line><line transform="translate(46,-600)" x2="0" y2="600" stroke="#ddd" stroke-width="1" opacity="1"></line><line transform="translate(92,-600)" x2="0" y2="600" stroke="#ddd" stroke-width="1" opacity="1"></line><line transform="translate(138,-600)" x2="0" y2="600" stroke="#ddd" stroke-width="1" opacity="1"></line><line transform="translate(185,-600)" x2="0" y2="600" stroke="#ddd" stroke-width="1" opacity="1"></line><line transform="translate(231,-600)" x2="0" y2="600" stroke="#ddd" stroke-width="1" opacity="1"></line><line transform="translate(277,-600)" x2="0" y2="600" stroke="#ddd" stroke-width="1" opacity="1"></line><line transform="translate(323,-600)" x2="0" y2="600" stroke="#ddd" stroke-width="1" opacity="1"></line><line transform="translate(369,-600)" x2="0" y2="600" stroke="#ddd" stroke-width="1" opacity="1"></line><line transform="translate(415,-600)" x2="0" y2="600" stroke="#ddd" stroke-width="1" opacity="1"></line><line transform="translate(462,-600)" x2="0" y2="600" stroke="#ddd" stroke-width="1" opacity="1"></line><line transform="translate(508,-600)" x2="0" y2="600" stroke="#ddd" stroke-width="1" opacity="1"></line><line transform="translate(554,-600)" x2="0" y2="600" stroke="#ddd" stroke-width="1" opacity="1"></line><line transform="translate(600,-600)" x2="0" y2="600" stroke="#ddd" stroke-width="1" opacity="1"></line><line transform="translate(646,-600)" x2="0" y2="600" stroke="#ddd" stroke-width="1" opacity="1"></line><line transform="translate(692,-600)" x2="0" y2="600" stroke="#ddd" stroke-width="1" opacity="1"></line><line transform="translate(738,-600)" x2="0" y2="600" stroke="#ddd" stroke-width="1" opacity="1"></line><line transform="translate(785,-600)" x2="0" y2="600" stroke="#ddd" stroke-width="1" opacity="1"></line><line transform="translate(831,-600)" x2="0" y2="600" stroke="#ddd" stroke-width="1" opacity="1"></line><line transform="translate(877,-600)" x2="0" y2="600" stroke="#ddd" stroke-width="1" opacity="1"></line><line transform="translate(923,-600)" x2="0" y2="600" stroke="#ddd" stroke-width="1" opacity="1"></line><line transform="translate(969,-600)" x2="0" y2="600" stroke="#ddd" stroke-width="1" opacity="1"></line><line transform="translate(1015,-600)" x2="0" y2="600" stroke="#ddd" stroke-width="1" opacity="1"></line><line transform="translate(1062,-600)" x2="0" y2="600" stroke="#ddd" stroke-width="1" opacity="1"></line><line transform="translate(1108,-600)" x2="0" y2="600" stroke="#ddd" stroke-width="1" opacity="1"></line><line transform="translate(1154,-600)" x2="0" y2="600" stroke="#ddd" stroke-width="1" opacity="1"></line><line transform="translate(1200,-600)" x2="0" y2="600" stroke="#ddd" stroke-width="1" opacity="1"></line></g></g><path class="foreground" aria-hidden="true" d="" pointer-events="none" display="none"></path></g></g><g class="mark-group role-axis" aria-hidden="true"><g transform="translate(0.5,0.5)"><path class="background" aria-hidden="true" d="M0,0h0v0h0Z" pointer-events="none"></path><g><g class="mark-rule role-axis-grid" pointer-events="none"><line transform="translate(0,600)" x2="1200" y2="0" stroke="#ddd" stroke-width="1" opacity="1"></line><line transform="translate(0,545)" x2="1200" y2="0" stroke="#ddd" stroke-width="1" opacity="1"></line><line transform="translate(0,491)" x2="1200" y2="0" stroke="#ddd" stroke-width="1" opacity="1"></line><line transform="translate(0,436)" x2="1200" y2="0" stroke="#ddd" stroke-width="1" opacity="1"></line><line transform="translate(0,382)" x2="1200" y2="0" stroke="#ddd" stroke-width="1" opacity="1"></line><line transform="translate(0,327)" x2="1200" y2="0" stroke="#ddd" stroke-width="1" opacity="1"></line><line transform="translate(0,273)" x2="1200" y2="0" stroke="#ddd" stroke-width="1" opacity="1"></line><line transform="translate(0,218)" x2="1200" y2="0" stroke="#ddd" stroke-width="1" opacity="1"></line><line transform="translate(0,164)" x2="1200" y2="0" stroke="#ddd" stroke-width="1" opacity="1"></line><line transform="translate(0,109)" x2="1200" y2="0" stroke="#ddd" stroke-width="1" opacity="1"></line><line transform="translate(0,55)" x2="1200" y2="0" stroke="#ddd" stroke-width="1" opacity="1"></line><line transform="translate(0,0)" x2="1200" y2="0" stroke="#ddd" stroke-width="1" opacity="1"></line></g></g><path class="foreground" aria-hidden="true" d="" pointer-events="none" display="none"></path></g></g><g class="mark-group role-axis" role="graphics-symbol" aria-roledescription="axis" aria-label="X-axis titled 'Size' for a linear scale with values from 0 to 260"><g transform="translate(0.5,600.5)"><path class="background" aria-hidden="true" d="M0,0h0v0h0Z" pointer-events="none"></path><g><g class="mark-rule role-axis-tick" pointer-events="none"><line transform="translate(0,0)" x2="0" y2="5" stroke="#888" stroke-width="1" opacity="1"></line><line transform="translate(46,0)" x2="0" y2="5" stroke="#888" stroke-width="1" opacity="1"></line><line transform="translate(92,0)" x2="0" y2="5" stroke="#888" stroke-width="1" opacity="1"></line><line transform="translate(138,0)" x2="0" y2="5" stroke="#888" stroke-width="1" opacity="1"></line><line transform="translate(185,0)" x2="0" y2="5" stroke="#888" stroke-width="1" opacity="1"></line><line transform="translate(231,0)" x2="0" y2="5" stroke="#888" stroke-width="1" opacity="1"></line><line transform="translate(277,0)" x2="0" y2="5" stroke="#888" stroke-width="1" opacity="1"></line><line transform="translate(323,0)" x2="0" y2="5" stroke="#888" stroke-width="1" opacity="1"></line><line transform="translate(369,0)" x2="0" y2="5" stroke="#888" stroke-width="1" opacity="1"></line><line transform="translate(415,0)" x2="0" y2="5" stroke="#888" stroke-width="1" opacity="1"></line><line transform="translate(462,0)" x2="0" y2="5" stroke="#888" stroke-width="1" opacity="1"></line><line transform="translate(508,0)" x2="0" y2="5" stroke="#888" stroke-width="1" opacity="1"></line><line transform="translate(554,0)" x2="0" y2="5" stroke="#888" stroke-width="1" opacity="1"></line><line transform="translate(600,0)" x2="0" y2="5" stroke="#888" stroke-width="1" opacity="1"></line><line transform="translate(646,0)" x2="0" y2="5" stroke="#888" stroke-width="1" opacity="1"></line><line transform="translate(692,0)" x2="0" y2="5" stroke="#888" stroke-width="1" opacity="1"></line><line transform="translate(738,0)" x2="0" y2="5" stroke="#888" stroke-width="1" opacity="1"></line><line transform="translate(785,0)" x2="0" y2="5" stroke="#888" stroke-width="1" opacity="1"></line><line transform="translate(831,0)" x2="0" y2="5" stroke="#888" stroke-width="1" opacity="1"></line><line transform="translate(877,0)" x2="0" y2="5" stroke="#888" stroke-width="1" opacity="1"></line><line transform="translate(923,0)" x2="0" y2="5" stroke="#888" stroke-width="1" opacity="1"></line><line transform="translate(969,0)" x2="0" y2="5" stroke="#888" stroke-width="1" opacity="1"></line><line transform="translate(1015,0)" x2="0" y2="5" stroke="#888" stroke-width="1" opacity="1"></line><line transform="translate(1062,0)" x2="0" y2="5" stroke="#888" stroke-width="1" opacity="1"></line><line transform="translate(1108,0)" x2="0" y2="5" stroke="#888" stroke-width="1" opacity="1"></line><line transform="translate(1154,0)" x2="0" y2="5" stroke="#888" stroke-width="1" opacity="1"></line><line transform="translate(1200,0)" x2="0" y2="5" stroke="#888" stroke-width="1" opacity="1"></line></g><g class="mark-text role-axis-label" pointer-events="none"><text text-anchor="start" transform="translate(0,15)" font-family="sans-serif" font-size="10px" fill="#000" opacity="1">0</text><text text-anchor="middle" transform="translate(46.15384615384615,15)" font-family="sans-serif" font-size="10px" fill="#000" opacity="1">10</text><text text-anchor="middle" transform="translate(92.3076923076923,15)" font-family="sans-serif" font-size="10px" fill="#000" opacity="1">20</text><text text-anchor="middle" transform="translate(138.46153846153848,15)" font-family="sans-serif" font-size="10px" fill="#000" opacity="1">30</text><text text-anchor="middle" transform="translate(184.6153846153846,15)" font-family="sans-serif" font-size="10px" fill="#000" opacity="1">40</text><text text-anchor="middle" transform="translate(230.76923076923077,15)" font-family="sans-serif" font-size="10px" fill="#000" opacity="1">50</text><text text-anchor="middle" transform="translate(276.92307692307696,15)" font-family="sans-serif" font-size="10px" fill="#000" opacity="1">60</text><text text-anchor="middle" transform="translate(323.07692307692304,15)" font-family="sans-serif" font-size="10px" fill="#000" opacity="1">70</text><text text-anchor="middle" transform="translate(369.2307692307692,15)" font-family="sans-serif" font-size="10px" fill="#000" opacity="1">80</text><text text-anchor="middle" transform="translate(415.38461538461536,15)" font-family="sans-serif" font-size="10px" fill="#000" opacity="1">90</text><text text-anchor="middle" transform="translate(461.53846153846155,15)" font-family="sans-serif" font-size="10px" fill="#000" opacity="1">100</text><text text-anchor="middle" transform="translate(507.6923076923077,15)" font-family="sans-serif" font-size="10px" fill="#000" opacity="1">110</text><text text-anchor="middle" transform="translate(553.8461538461539,15)" font-family="sans-serif" font-size="10px" fill="#000" opacity="1">120</text><text text-anchor="middle" transform="translate(600,15)" font-family="sans-serif" font-size="10px" fill="#000" opacity="1">130</text><text text-anchor="middle" transform="translate(646.1538461538461,15)" font-family="sans-serif" font-size="10px" fill="#000" opacity="1">140</text><text text-anchor="middle" transform="translate(692.3076923076923,15)" font-family="sans-serif" font-size="10px" fill="#000" opacity="1">150</text><text text-anchor="middle" transform="translate(738.4615384615385,15)" font-family="sans-serif" font-size="10px" fill="#000" opacity="1">160</text><text text-anchor="middle" transform="translate(784.6153846153846,15)" font-family="sans-serif" font-size="10px" fill="#000" opacity="1">170</text><text text-anchor="middle" transform="translate(830.7692307692307,15)" font-family="sans-serif" font-size="10px" fill="#000" opacity="1">180</text><text text-anchor="middle" transform="translate(876.9230769230769,15)" font-family="sans-serif" font-size="10px" fill="#000" opacity="1">190</text><text text-anchor="middle" transform="translate(923.0769230769231,15)" font-family="sans-serif" font-size="10px" fill="#000" opacity="1">200</text><text text-anchor="middle" transform="translate(969.2307692307693,15)" font-family="sans-serif" font-size="10px" fill="#000" opacity="1">210</text><text text-anchor="middle" transform="translate(1015.3846153846154,15)" font-family="sans-serif" font-size="10px" fill="#000" opacity="1">220</text><text text-anchor="middle" transform="translate(1061.5384615384614,15)" font-family="sans-serif" font-size="10px" fill="#000" opacity="1">230</text><text text-anchor="middle" transform="translate(1107.6923076923078,15)" font-family="sans-serif" font-size="10px" fill="#000" opacity="1">240</text><text text-anchor="middle" transform="translate(1153.8461538461538,15)" font-family="sans-serif" font-size="10px" fill="#000" opacity="1">250</text><text text-anchor="end" transform="translate(1200,15)" font-family="sans-serif" font-size="10px" fill="#000" opacity="1">260</text></g><g class="mark-rule role-axis-domain" pointer-events="none"><line transform="translate(0,0)" x2="1200" y2="0" stroke="#888" stroke-width="1" opacity="1"></line></g><g class="mark-text role-axis-title" pointer-events="none"><text text-anchor="middle" transform="translate(600,30)" font-family="sans-serif" font-size="11px" font-weight="bold" fill="#000" opacity="1">Size</text></g></g><path class="foreground" aria-hidden="true" d="" pointer-events="none" display="none"></path></g></g><g class="mark-group role-axis" role="graphics-symbol" aria-roledescription="axis" aria-label="Y-axis titled 'GFLOPS' for a linear scale with values from 0 to 55"><g transform="translate(0.5,0.5)"><path class="background" aria-hidden="true" d="M0,0h0v0h0Z" pointer-events="none"></path><g><g class="mark-rule role-axis-tick" pointer-events="none"><line transform="translate(0,600)" x2="-5" y2="0" stroke="#888" stroke-width="1" opacity="1"></line><line transform="translate(0,545)" x2="-5" y2="0" stroke="#888" stroke-width="1" opacity="1"></line><line transform="translate(0,491)" x2="-5" y2="0" stroke="#888" stroke-width="1" opacity="1"></line><line transform="translate(0,436)" x2="-5" y2="0" stroke="#888" stroke-width="1" opacity="1"></line><line transform="translate(0,382)" x2="-5" y2="0" stroke="#888" stroke-width="1" opacity="1"></line><line transform="translate(0,327)" x2="-5" y2="0" stroke="#888" stroke-width="1" opacity="1"></line><line transform="translate(0,273)" x2="-5" y2="0" stroke="#888" stroke-width="1" opacity="1"></line><line transform="translate(0,218)" x2="-5" y2="0" stroke="#888" stroke-width="1" opacity="1"></line><line transform="translate(0,164)" x2="-5" y2="0" stroke="#888" stroke-width="1" opacity="1"></line><line transform="translate(0,109)" x2="-5" y2="0" stroke="#888" stroke-width="1" opacity="1"></line><line transform="translate(0,55)" x2="-5" y2="0" stroke="#888" stroke-width="1" opacity="1"></line><line transform="translate(0,0)" x2="-5" y2="0" stroke="#888" stroke-width="1" opacity="1"></line></g><g class="mark-text role-axis-label" pointer-events="none"><text text-anchor="end" transform="translate(-7,603)" font-family="sans-serif" font-size="10px" fill="#000" opacity="1">0</text><text text-anchor="end" transform="translate(-7,548.4545454545454)" font-family="sans-serif" font-size="10px" fill="#000" opacity="1">5</text><text text-anchor="end" transform="translate(-7,493.9090909090909)" font-family="sans-serif" font-size="10px" fill="#000" opacity="1">10</text><text text-anchor="end" transform="translate(-7,439.3636363636364)" font-family="sans-serif" font-size="10px" fill="#000" opacity="1">15</text><text text-anchor="end" transform="translate(-7,384.8181818181818)" font-family="sans-serif" font-size="10px" fill="#000" opacity="1">20</text><text text-anchor="end" transform="translate(-7,330.27272727272725)" font-family="sans-serif" font-size="10px" fill="#000" opacity="1">25</text><text text-anchor="end" transform="translate(-7,275.72727272727275)" font-family="sans-serif" font-size="10px" fill="#000" opacity="1">30</text><text text-anchor="end" transform="translate(-7,221.1818181818182)" font-family="sans-serif" font-size="10px" fill="#000" opacity="1">35</text><text text-anchor="end" transform="translate(-7,166.63636363636363)" font-family="sans-serif" font-size="10px" fill="#000" opacity="1">40</text><text text-anchor="end" transform="translate(-7,112.09090909090907)" font-family="sans-serif" font-size="10px" fill="#000" opacity="1">45</text><text text-anchor="end" transform="translate(-7,57.54545454545456)" font-family="sans-serif" font-size="10px" fill="#000" opacity="1">50</text><text text-anchor="end" transform="translate(-7,3)" font-family="sans-serif" font-size="10px" fill="#000" opacity="1">55</text></g><g class="mark-rule role-axis-domain" pointer-events="none"><line transform="translate(0,600)" x2="0" y2="-600" stroke="#888" stroke-width="1" opacity="1"></line></g><g class="mark-text role-axis-title" pointer-events="none"><text text-anchor="middle" transform="translate(-23,300) rotate(-90) translate(0,-2)" font-family="sans-serif" font-size="11px" font-weight="bold" fill="#000" opacity="1">GFLOPS</text></g></g><path class="foreground" aria-hidden="true" d="" pointer-events="none" display="none"></path></g></g><g class="mark-group role-scope pathgroup" role="graphics-object" aria-roledescription="group mark container"><g transform="translate(0,0)"><path class="background" aria-hidden="true" d="M0,0h1200v600h-1200Z"></path><g><g class="mark-line role-mark marks" role="graphics-object" aria-roledescription="line mark container"><path aria-label="Library: PaddedMatrices; Size: 2; GFLOPS: 0.594029850746" role="graphics-symbol" aria-roledescription="line mark" d="M9.230769230769232,593.5196743554952L13.846153846153847,578.6856198347108L18.461538461538463,554.191899189919L23.076923076923077,522.6233766233767L27.692307692307693,479.94054685674223L32.30769230769231,445.7964699183906L36.92307692307693,377.25884297520656L41.53846153846154,404.5207494795281L46.15384615384615,354.8979809849375L50.769230769230774,315.04499999999996L55.38461538461539,245.02521994134895L60,284.9463343108503L64.61538461538461,236.42444396458646L69.23076923076924,185.64935064935068L73.84615384615385,131.02146074883686L78.46153846153847,226.86910432740697L83.07692307692308,182.88756957328383L87.6923076923077,263.84003317093396L92.3076923076923,217.93939393939382L96.92307692307693,223.65657370517923L101.53846153846155,197.39999999999998L106.15384615384616,174.37539809588L110.76923076923077,56.10491803278676L115.38461538461539,172.63557767880533L120,148.85133689839572L124.61538461538463,122.83636363636359L129.23076923076923,104.53166144200611L133.84615384615384,141.27272727272714L138.46153846153848,113.14800901577757L143.0769230769231,160.8206388206388L147.6923076923077,92.95164410058024L152.3076923076923,151.95428571428565L156.92307692307693,128.8231768231768L161.53846153846152,122.72727272727262L166.15384615384616,91.02545454545448L170.76923076923077,128.6062903920723L175.3846153846154,105.74011676396997L180,82.30690909090912L184.6153846153846,76.36363636363619L189.23076923076923,113.18064094179196L193.84615384615387,112.01042881646653L198.46153846153845,167.67646559048427L203.0769230769231,151.3820689655173L207.69230769230768,149.6028243601059L212.30769230769232,77.24441958041946L216.9230769230769,62.488012326656396L221.53846153846155,40.71475015051171L226.15384615384616,117.19988600740945L230.76923076923077,99.58298582151792L235.3846153846154,89.2581818181818L240,61.78755980861237L244.6153846153846,82.76664736537349L249.23076923076925,64.86321155480034L253.84615384615384,76.94524495677221L258.46153846153845,51.0570461057567L263.0769230769231,96.5016142735769L267.6923076923077,95.21868487243985L272.3076923076923,88.85973038368473L276.92307692307696,58.307210031347864L281.53846153846155,132.8006861063465L286.1538461538462,114.02956669498717L290.7692307692308,99.48890742285235L295.3846153846154,75.274728940784L300,120.65454545454546L304.6153846153846,106.09133858267708L309.23076923076917,124.48537549407115L313.84615384615387,88.03473541383988L318.46153846153845,112.4170686456401L323.07692307692304,87.42216687422169L327.6923076923077,82.84984948825999L332.3076923076923,57.09381818181822L336.9230769230769,117.74752066115705L341.53846153846155,103.30051072522978L346.15384615384613,120.5965909090908L350.7692307692308,76.63070044709382L355.3846153846154,111.72941176470587L360,87.43258325832575L364.6153846153846,94.9664532650448L369.2307692307692,62.937062937062805L373.84615384615387,112.81191749427046L378.46153846153845,100.83621274990568L383.07692307692304,98.98181818181813L387.69230769230774,61.17818181818188L392.3076923076923,112.76033057851234L396.9230769230769,91.66353646353637L401.5384615384615,77.5513388429752L406.1538461538462,47.26840148698883L410.7692307692308,98.98560852827949L415.38461538461536,76.79425837320566L420,89.39288537549395L424.61538461538464,53.71201403098507L429.2307692307692,80.78084991931149L433.8461538461538,63.851102743410415L438.46153846153845,76.01222307104653L443.0769230769231,51.609917355371906L447.6923076923077,103.41981410111086L452.3076923076923,84.04275925079938L456.9230769230769,101.8785882352941L461.53846153846155,57.259158751696006L466.1538461538462,97.10750457596103L470.7692307692308,73.78115702479332L475.38461538461536,91.65636751308391L480,50.95106772422202L484.61538461538464,91.8053777208707L489.2307692307692,78.19671412924416L493.8461538461538,168.8998240469208L498.4615384615385,94.76791443850266L503.0769230769231,159.88819031435858L507.6923076923077,76.7567567567567L512.3076923076923,67.15675324675328L516.9230769230769,41.65802285146545L521.5384615384615,82.21399521531099L526.1538461538462,84.45619834710753L530.7692307692307,89.49650349650346L535.3846153846154,54.2321678321678L540,82.30690909090912L544.6153846153846,65.75304159328013L549.2307692307692,62.46921850079736L553.8461538461539,36.44516918059508L558.4615384615385,88.72698412698409L563.0769230769231,76.63802089588083L567.6923076923076,78.13965879878464L572.3076923076924,44.60521907998547L576.9230769230769,81.58593231585942L581.5384615384615,63.16645420999656L586.1538461538462,71.72585428755642L590.7692307692308,44.70820829655779L595.3846153846154,89.79465240641709L600,74.401913875598L604.6153846153846,79.85940422250066L609.2307692307692,41.81179087875408L613.8461538461538,90.771212121212L618.4615384615383,73.45221117899148L623.0769230769231,69.55623427955433L627.6923076923077,51.72151484878751L632.3076923076924,137.49177846061596L636.9230769230769,176.8283931566588L641.5384615384615,87.35499880696726L646.1538461538461,78.94611915499641L650.7692307692307,73.65589109685496L655.3846153846154,66.05351981351977L660,62.049915682967935L664.6153846153846,48.359510430297824L669.2307692307693,83.97630298328511L673.8461538461538,74.85576882514233L678.4615384615385,70.9468979875087L683.0769230769231,58.00760710553809L687.6923076923076,68.13977356468146L692.3076923076923,61.722488038277405L696.923076923077,70.24731375817414L701.5384615384615,58.1240066863828L706.1538461538462,86.2360408821947L710.7692307692308,65.91313672922243L715.3846153846154,65.12059369202223L720,53.26142214221412L724.6153846153845,71.29599817840264L729.2307692307692,63.48057129902516L733.8461538461539,59.2966259387961L738.4615384615385,44.92377188029355L743.0769230769231,73.07058080808078L747.6923076923077,66.27956899257241L752.3076923076923,71.8332842115961L756.9230769230769,60.54496534855278L761.5384615384615,78.11501597444087L766.1538461538461,76.37554135266618L770.7692307692308,58.32955999224654L775.3846153846155,43.497638026309374L780,74.49003810560693L784.6153846153846,67.49762904755445L789.2307692307692,63.90411436229621L793.8461538461538,52.020317688234655L798.4615384615385,61.542560013866044L803.076923076923,55.78264462809916L807.6923076923077,61.887629167886814L812.3076923076924,47.26840148698883L816.9230769230769,72.36414383697411L821.5384615384615,72.79719560645013L826.1538461538462,73.78187934857397L830.7692307692307,48.6844178351977L835.3846153846154,65.38773854244924L840,60.26921326519186L844.6153846153846,54.68008304908791L849.2307692307693,40.90312254590327L853.8461538461539,108.90669941505344L858.4615384615385,73.7748943709963L863.0769230769231,79.2937226277372L867.6923076923076,83.34047819607329L872.3076923076923,61.03031633569498L876.9230769230769,59.74401050213327L881.5384615384617,61.09083174889629L886.1538461538462,54.70816640986131L890.7692307692308,68.47796432642248L895.3846153846154,59.99008936825885L900,59.47513896060504L904.6153846153846,46.67973912244703L909.2307692307692,55.58701637787797L913.8461538461538,50.66078494972424L918.4615384615383,135.1707439357074L923.0769230769231,41.8117859115621L927.6923076923077,64.07516911400764L932.3076923076924,59.469923764243006L936.9230769230769,63.18115508021398L941.5384615384615,58.23623068946262L946.1538461538461,64.94061020107118L950.7692307692307,55.677708592776966L955.3846153846154,53.32862865947598L960,39.509282952274646L964.6153846153846,122.56625119846596L969.2307692307693,56.39445300462243L973.8461538461538,59.924915558749504L978.4615384615385,49.16155513802573L983.0769230769231,56.17199803034205L987.6923076923076,49.470424117591925L992.3076923076923,50.76678640508416L996.923076923077,42.926263905843285L1001.5384615384615,74.06225310429124L1006.1538461538462,55.71532517566708L1010.7692307692308,53.454857663204855L1015.3846153846154,43.14477468839883L1020,51.55467671592498L1024.6153846153845,46.268210286581905L1029.2307692307693,52.096492094861624L1033.8461538461538,39.36031924180065L1038.4615384615386,57.25545474398932L1043.076923076923,51.42428070731269L1047.6923076923076,50.217398456778014L1052.3076923076924,44.475250463821816L1056.923076923077,62.314168983079284L1061.5384615384614,60.004438198091556L1066.1538461538462,46.512780407491185L1070.7692307692307,33.463710089037505L1075.3846153846155,51.75698342182251L1080,84.97739666376364L1084.6153846153845,53.2658112306692L1089.2307692307693,42.8137414557465L1093.8461538461538,48.87136104881839L1098.4615384615383,43.02813172436346L1103.076923076923,91.44604591242802L1107.6923076923078,81.40552707265225L1112.3076923076924,65.24171216631373L1116.923076923077,60.069984284965905L1121.5384615384617,61.71413029886206L1126.1538461538462,39.42692864263429L1130.7692307692307,47.36322926126577L1135.3846153846152,42.393345298478295L1140,47.98010867574325L1144.6153846153848,36.040412256782275L1149.2307692307693,50.962471660368955L1153.8461538461538,45.76639423005873L1158.4615384615386,44.77569125435239L1163.076923076923,37.38875574956779L1167.6923076923076,50.839788622940674L1172.3076923076924,81.07991027840085L1176.923076923077,50.69016922949496L1181.5384615384617,144.375965781791" stroke="#e45756" stroke-width="2"></path></g></g><path class="foreground" aria-hidden="true" d="" display="none"></path></g><g transform="translate(0,0)"><path class="background" aria-hidden="true" d="M0,0h1200v600h-1200Z"></path><g><g class="mark-line role-mark marks" role="graphics-object" aria-roledescription="line mark container"><path aria-label="Library: OpenBLAS; Size: 2; GFLOPS: 0.141384615385" role="graphics-symbol" aria-roledescription="line mark" d="M9.230769230769232,598.4576223776224L13.846153846153847,595.4358260869565L18.461538461538463,589.170559745931L23.076923076923077,582.3337205925066L27.692307692307693,572.5029062276307L32.30769230769231,565.1158551211322L36.92307692307693,538.7231111430007L41.53846153846154,537.8210092283526L46.15384615384615,524.9149852641125L50.769230769230774,522.4093385214007L55.38461538461539,485.6912959381044L60,487.7767700534759L64.61538461538461,476.46060606060604L69.23076923076924,480.8118393234672L73.84615384615385,406.7469514020557L78.46153846153847,429.12744123346533L83.07692307692308,444.22718519444794L87.6923076923077,466.3831168831169L92.3076923076923,424.72422974515024L96.92307692307693,448.0765550239234L101.53846153846155,435.2340425531915L106.15384615384616,423.0254545454545L110.76923076923077,374.9145183175034L115.38461538461539,393.3884297520661L120,389.29870129870125L124.61538461538463,401.7935664335664L129.23076923076923,358.10468319559226L133.84615384615384,380.31592994161804L138.46153846153848,376.29459148446495L143.0769230769231,389.57305428384564L147.6923076923077,341.58860898138005L152.3076923076923,354.01411764705875L156.92307692307693,354.10987292277616L161.53846153846152,366.86491079014445L166.15384615384616,324.878624078624L170.76923076923077,342.9868921775898L175.3846153846154,343.7170975813178L180,362.526105087573L184.6153846153846,301.99556541019945L189.23076923076923,324.92727272727274L193.84615384615387,355.8209283163966L198.46153846153845,367.93335360291877L203.0769230769231,323.4285714285714L207.69230769230768,345.10489510489515L212.30769230769232,312.04141756548535L216.9230769230769,337.61825201825195L221.53846153846155,260.15262483994877L226.15384615384616,286.9649667405765L230.76923076923077,288.90425164189423L235.3846153846154,326.9619210977702L240,265.3297190082644L244.6153846153846,309.9798701298701L249.23076923076925,306.36083916083913L253.84615384615384,322.9007633587786L258.46153846153845,260.9184231697506L263.0769230769231,286.77716701902744L267.6923076923077,284.66747474747467L272.3076923076923,303.2452739313666L276.92307692307696,263.37662337662334L281.53846153846155,280.4959530791789L286.1538461538462,282.93392461197334L290.7692307692308,301.88137108792847L295.3846153846154,242.5309090909091L300,265.26155408836973L304.6153846153846,299.8736842105263L309.23076923076917,279.8974722838137L313.84615384615387,240.8201808662541L318.46153846153845,260.309521757863L323.07692307692304,259.8347107438016L327.6923076923077,278.6433221099888L332.3076923076923,212.2098701298701L336.9230769230769,238.82367504835585L341.53846153846155,237.65365126676602L346.15384615384613,256.54681139755763L350.7692307692308,216.89367272727273L355.3846153846154,240.40722021660642L360,237.97685950413222L364.6153846153846,259.5818181818182L369.2307692307692,199.60899315738018L373.84615384615387,223.53648170011806L378.46153846153845,275.7453565302622L383.07692307692304,245.5865702479339L387.69230769230774,204.53444537114265L392.3076923076923,227.80303030303025L396.9230769230769,226.9466275659824L401.5384615384615,246.12467532467528L406.1538461538462,185.8362116991643L410.7692307692308,210.60400460299186L415.38461538461536,209.20259102077281L420,230.52698672114394L424.61538461538464,192.57658600392406L429.2307692307692,213.44477372847413L433.8461538461538,214.4290909090908L438.46153846153845,236.06296427308098L443.0769230769231,175.75096903096903L447.6923076923077,196.08792181449382L452.3076923076923,196.55995713520264L456.9230769230769,216.48260869565217L461.53846153846155,179.61114030478186L466.1538461538462,200.0125525719832L470.7692307692308,202.17132146204304L475.38461538461536,222.16614320703064L480,165.61969428801282L484.61538461538464,213.2117499651956L489.2307692307692,212.15218453188606L493.8461538461538,253.33059780686241L498.4615384615385,219.32651725006298L503.0769230769231,227.73151275601867L507.6923076923077,192.7068723702664L512.3076923076923,211.97370847617918L516.9230769230769,158.95000654022232L521.5384615384615,180.8070693620627L526.1538461538462,181.28761186999526L530.7692307692307,200.68920249425665L535.3846153846154,165.05858585858576L540,184.98475491254584L544.6153846153846,186.5285938974521L549.2307692307692,204.654780058651L553.8461538461539,148.48121937942287L558.4615384615385,170.05294771968852L563.0769230769231,170.76379395252624L567.6923076923076,189.06139124033857L572.3076923076924,156.03981759968948L576.9230769230769,176.4052051328393L581.5384615384615,179.5321071991591L586.1538461538462,198.81514607475108L590.7692307692308,195.79466752328943L595.3846153846154,173.04602635286312L600,165.41663232506386L604.6153846153846,184.32832049306623L609.2307692307692,148.73093525179854L613.8461538461538,169.01543393634066L618.4615384615383,169.34524573047952L623.0769230769231,187.70423125261826L627.6923076923077,138.41315085251165L632.3076923076924,210.67142767017853L636.9230769230769,232.9081131416599L641.5384615384615,177.23431719795352L646.1538461538461,160.10954512056642L650.7692307692307,164.06852847793678L655.3846153846154,164.04927995939852L660,181.90773263433806L664.6153846153846,131.6409646428337L669.2307692307693,150.87471610091455L673.8461538461538,150.32351595424444L678.4615384615385,168.99280868385347L683.0769230769231,137.41002437719246L687.6923076923076,156.401765659049L692.3076923076923,155.06728920626202L696.923076923077,172.7023270245113L701.5384615384615,126.44458927969427L706.1538461538462,145.67733615221985L710.7692307692308,145.4320593268682L715.3846153846154,162.94684336642376L720,132.0288443759629L724.6153846153845,151.12158909670862L729.2307692307692,151.08129179115093L733.8461538461539,169.03151217333033L738.4615384615385,124.1359279697937L743.0769230769231,141.98489116517283L747.6923076923077,141.92290909090906L752.3076923076923,158.87476445123497L756.9230769230769,130.0840909090909L761.5384615384615,148.1327800829875L766.1538461538461,148.6077710620451L770.7692307692308,165.55205410237468L775.3846153846155,117.24783438679844L780,135.86515485396043L784.6153846153846,134.75378787878785L789.2307692307692,152.15306762203315L793.8461538461538,122.49168328445745L798.4615384615385,140.59222891788977L803.076923076923,140.97961080453086L807.6923076923077,157.57919719327208L812.3076923076924,113.50576687116562L816.9230769230769,132.3273992339319L821.5384615384615,131.2413922077922L826.1538461538462,148.57622983077528L830.7692307692307,119.10946196660477L835.3846153846154,136.61831206043234L840,136.85777208706784L844.6153846153846,153.54776749127333L849.2307692307693,110.91597369884516L853.8461538461539,181.88696896324018L858.4615384615385,156.6881648821655L863.0769230769231,146.20381679389317L867.6923076923076,117.87608307887649L872.3076923076923,135.32992256954404L876.9230769230769,135.2456239412761L881.5384615384617,151.2801760223247L886.1538461538462,109.91225873460084L890.7692307692308,125.40952276165586L895.3846153846154,122.90229518908764L900,139.61556371914935L904.6153846153846,111.50524693860997L909.2307692307692,129.05663980288483L913.8461538461538,193.85784172661863L918.4615384615383,144.04576553120705L923.0769230769231,103.56810425069804L927.6923076923077,120.49594292040844L932.3076923076924,119.41647150284244L936.9230769230769,136.04878680038823L941.5384615384615,108.67630576320228L946.1538461538461,125.21757101196343L950.7692307692307,125.07337921043096L955.3846153846154,140.7649134918237L960,101.92821364328208L964.6153846153846,118.75970041072719L969.2307692307693,117.41537659856263L973.8461538461538,133.0177841297457L978.4615384615385,107.14454933402303L983.0769230769231,124.2732031506399L987.6923076923076,122.60395786397125L992.3076923076923,137.46315544523736L996.923076923077,94.76791443850266L1001.5384615384615,112.04856443622033L1006.1538461538462,110.94455764918763L1010.7692307692308,126.8090477352505L1015.3846153846154,99.63385741977169L1020,117.11621525900794L1024.6153846153845,115.69532451723563L1029.2307692307693,131.64113609967262L1033.8461538461538,95.11262844629114L1038.4615384615386,110.106983495511L1043.076923076923,108.96644038355878L1047.6923076923076,125.45726359917504L1052.3076923076924,100.9711097856216L1056.923076923077,115.86418060874821L1061.5384615384614,115.1382316313823L1066.1538461538462,130.15471698113208L1070.7692307692307,92.93262270950706L1075.3846153846155,109.27180912970387L1080,109.29564842740203L1084.6153846153845,122.02289607758883L1089.2307692307693,97.22340940966461L1093.8461538461538,113.41130385781082L1098.4615384615383,111.48174117860215L1103.076923076923,169.25516860579762L1107.6923076923078,137.68463296360292L1112.3076923076924,102.19974216492551L1116.923076923077,101.74360296487271L1121.5384615384617,117.3931527390445L1126.1538461538462,92.07048951048947L1130.7692307692307,108.48512700534765L1135.3846153846152,107.49677579433457L1140,121.97870416875945L1144.6153846153848,86.1140322308945L1149.2307692307693,102.75387712376191L1153.8461538461538,100.71896469084523L1158.4615384615386,116.03817442201509L1163.076923076923,91.09963827165394L1167.6923076923076,108.03441938178781L1172.3076923076924,108.54166073102154L1176.923076923077,123.9170225747406L1181.5384615384617,188.2007547632927" stroke="#f58518" stroke-width="2"></path></g></g><path class="foreground" aria-hidden="true" d="" display="none"></path></g><g transform="translate(0,0)"><path class="background" aria-hidden="true" d="M0,0h1200v600h-1200Z"></path><g><g class="mark-line role-mark marks" role="graphics-object" aria-roledescription="line mark container"><path aria-label="Library: MKL; Size: 2; GFLOPS: 0.0828219852338" role="graphics-symbol" aria-roledescription="line mark" d="M9.230769230769232,599.0964874338131L13.846153846153847,596.9623483600419L18.461538461538463,592.8571514153062L23.076923076923077,586.536248561565L27.692307692307693,570.1089170590366L32.30769230769231,566.1324485733245L36.92307692307693,550.1446464646465L41.53846153846154,538.5793831168832L46.15384615384615,522.5548013797708L50.769230769230774,502.2046272493573L55.38461538461539,473.0448979591837L60,466.4952978056426L64.61538461538461,444.58535224366426L69.23076923076924,414.52494873547505L73.84615384615385,375.46472727272726L78.46153846153847,393.98394758394755L83.07692307692308,392.4203389830509L87.6923076923077,402.2106546514709L92.3076923076923,356.7176186645213L96.92307692307693,376.16309199782256L101.53846153846155,365.548623853211L106.15384615384616,292.6231578947368L110.76923076923077,207.93548253343013L115.38461538461539,311.0939907550077L120,298.05010737294197L124.61538461538463,269.6559440559441L129.23076923076923,234.38723108952112L133.84615384615384,261.067747539085L138.46153846153848,231.81818181818176L143.0769230769231,224.2858644245927L147.6923076923077,179.44812834224598L152.3076923076923,230.53821989528788L156.92307692307693,214.10618181818174L161.53846153846152,199.09090909090907L166.15384615384616,157.41343873517778L170.76923076923077,200.54589266155526L175.3846153846154,188.74559333795972L180,166.9853328827306L184.6153846153846,120.33310201249128L189.23076923076923,182.29696969696965L193.84615384615387,212.4911581569116L198.46153846153845,215.73141542002307L203.0769230769231,192.16551724137932L207.69230769230768,185.7954545454545L212.30769230769232,146.77250554323717L216.9230769230769,139.0522198731501L221.53846153846155,92.78034398034399L226.15384615384616,166.1598975672215L230.76923076923077,157.26092089728456L235.3846153846154,139.1395483497394L240,113.04588744588735L244.6153846153846,139.9114087046098L249.23076923076925,122.83636363636359L253.84615384615384,128.57142857142858L258.46153846153845,97.49222056631888L263.0769230769231,144.29610389610386L267.6923076923077,133.90630391506306L272.3076923076923,160.6866310160428L276.92307692307696,137.9679144385027L281.53846153846155,165.58660287081332L286.1538461538462,151.73416927899686L290.7692307692308,137.66348228043137L295.3846153846154,123.3745454545455L300,152.84938941655355L304.6153846153846,145.46086956521734L309.23076923076917,144.29848484848483L313.84615384615387,126.87347962382442L318.46153846153845,146.36271576524743L323.07692307692304,123.33526346265187L327.6923076923077,117.96498316498312L332.3076923076923,162.17243401759532L336.9230769230769,185.96860310421286L341.53846153846155,186.8574341546303L346.15384615384613,204.95513070620365L350.7692307692308,172.42597402597397L355.3846153846154,188.39999999999998L360,192.36764495347168L364.6153846153846,207.40092899800925L369.2307692307692,161.92513368983953L373.84615384615387,176.8220305242202L378.46153846153845,180.84155844155848L383.07692307692304,197.56926686217005L387.69230769230774,158.64424449270868L392.3076923076923,175.97813578826228L396.9230769230769,179.46710743801654L401.5384615384615,197.5535523300229L406.1538461538462,163.97419354838706L410.7692307692308,178.59885429638845L415.38461538461536,182.53400143163918L420,196.0307348670985L424.61538461538464,154.0798854688618L429.2307692307692,171.9607982261641L433.8461538461538,174.60486555697813L438.46153846153845,187.9655586704044L443.0769230769231,157.26305254378647L447.6923076923077,168.9855962219598L452.3076923076923,173.96061863447747L456.9230769230769,184.89882352941166L461.53846153846155,156.54101995565415L466.1538461538462,171.822961038961L470.7692307692308,176.71610437094893L475.38461538461536,189.65032076357375L480,150.50389610389598L484.61538461538464,164.5297805642633L489.2307692307692,166.90327272727274L493.8461538461538,227.22160517306955L498.4615384615385,233.04905935186312L503.0769230769231,195.7771361685525L507.6923076923077,145.53990610328628L512.3076923076923,160.5416521622707L516.9230769230769,131.3000834028357L521.5384615384615,145.06663163426168L526.1538461538462,154.75762584522917L530.7692307692307,162.23314943631567L535.3846153846154,121.6866189989785L540,142.6140885292718L544.6153846153846,143.91894517696042L549.2307692307692,182.19198347107437L553.8461538461539,121.55053068758647L558.4615384615385,137.6526315789473L563.0769230769231,142.51152634893973L567.6923076923076,153.83808191808188L572.3076923076924,127.81987410999889L576.9230769230769,140.80133228840128L581.5384615384615,148.66011093353384L586.1538461538462,157.06647445715828L590.7692307692308,150.97111249888476L595.3846153846154,137.642143049448L600,141.2962157459765L604.6153846153846,155.71324110671932L609.2307692307692,124.79999999999998L613.8461538461538,134.20815047021935L618.4615384615383,145.87530670022016L623.0769230769231,150.78737162419165L627.6923076923077,181.68691796008864L632.3076923076924,209.31582679159283L636.9230769230769,201.80727272727276L641.5384615384615,156.76759730435967L646.1538461538461,135.53847238874383L650.7692307692307,132.04907838909367L655.3846153846154,138.61345508258356L660,142.3179340028694L664.6153846153846,109.05243543193804L669.2307692307693,127.58910123966945L673.8461538461538,124.50175706646294L678.4615384615385,137.96029090909087L683.0769230769231,124.02417716872624L687.6923076923076,136.7558875014587L692.3076923076923,140.06018965419332L696.923076923077,146.93045290053735L701.5384615384615,156.84635364635363L706.1538461538462,113.12462192013588L710.7692307692308,116.76312916919342L715.3846153846154,127.90132586762452L720,96.77463824146683L724.6153846153845,109.95920434759665L729.2307692307692,115.16779513444297L733.8461538461539,130.7539471764191L738.4615384615385,108.16030419772842L743.0769230769231,114.89928803215965L747.6923076923077,123.81616576442039L752.3076923076923,129.43712423035132L756.9230769230769,95.07461604502527L761.5384615384615,114.32111000991078L766.1538461538461,112.91936643151868L770.7692307692308,125.81719764136932L775.3846153846155,98.04080984517665L780,106.96537282941765L784.6153846153846,111.87282662692493L789.2307692307692,117.70330359295875L793.8461538461538,100.80627861347283L798.4615384615385,113.69620788165773L803.076923076923,111.93755645628256L807.6923076923077,122.33734402852043L812.3076923076924,91.6758974358974L816.9230769230769,103.74527556119027L821.5384615384615,111.70978354978354L826.1538461538462,118.15683830993802L830.7692307692307,88.7760692501552L835.3846153846154,101.63263762431716L840,104.77261774370199L844.6153846153846,114.83148172582125L849.2307692307693,93.79347892331128L853.8461538461539,106.27396192085254L858.4615384615385,108.7583688529805L863.0769230769231,159.64962962962963L867.6923076923076,88.26451882039588L872.3076923076923,100.6765608628659L876.9230769230769,103.48072630753451L881.5384615384617,113.36019089745082L886.1538461538462,102.81182462096825L890.7692307692308,79.76068747173221L895.3846153846154,83.11835289953396L900,92.21879815100151L904.6153846153846,65.75354323725055L909.2307692307692,83.56613566000559L913.8461538461538,166.07409684857794L918.4615384615383,93.10040737564323L923.0769230769231,60.78018367174991L927.6923076923077,75.0318545454546L932.3076923076924,78.13593626338837L936.9230769230769,88.02690807089122L941.5384615384615,58.71118431539235L946.1538461538461,72.59718396082022L950.7692307692307,74.71624646353365L955.3846153846154,85.5883427577207L960,64.57622530183198L964.6153846153846,76.37917981072549L969.2307692307693,78.29026124920784L973.8461538461538,88.4988905778523L978.4615384615385,57.640414581505105L983.0769230769231,71.04336085389768L987.6923076923076,73.5950584127836L992.3076923076923,83.7207792207792L996.923076923077,54.80534679800731L1001.5384615384615,68.79911625186814L1006.1538461538462,71.61892133112329L1010.7692307692308,81.4067024625069L1015.3846153846154,61.59907300115872L1020,72.32260403723541L1024.6153846153845,75.12362676900936L1029.2307692307693,84.32611020692866L1033.8461538461538,54.815926270261485L1038.4615384615386,67.37520944550522L1043.076923076923,69.89873136755892L1047.6923076923076,78.9524629718994L1052.3076923076924,54.4371921749137L1056.923076923077,65.2769276437847L1061.5384615384614,67.69236378219732L1066.1538461538462,77.5846153846154L1070.7692307692307,56.41001233403464L1075.3846153846155,114.87865258313492L1080,85.9244775819987L1084.6153846153845,80.4520433694745L1089.2307692307693,52.075339562997215L1093.8461538461538,64.12399865816838L1098.4615384615383,66.37002243039976L1103.076923076923,121.66364074339022L1107.6923076923078,50.8110971330199L1112.3076923076924,61.65968943800768L1116.923076923077,64.55771428571431L1121.5384615384617,73.65994986855782L1126.1538461538462,52.972014937082214L1130.7692307692307,64.78580635377963L1135.3846153846152,67.3567130802945L1140,76.37673630717106L1144.6153846153848,48.745150360654655L1149.2307692307693,60.71962274037197L1153.8461538461538,63.81080385484286L1158.4615384615386,72.37133284210825L1163.076923076923,48.32273948203789L1167.6923076923076,60.64771790566334L1172.3076923076924,62.59440580462676L1176.923076923077,127.70828388321851L1181.5384615384617,114.58911405528565" stroke="#4c78a8" stroke-width="2"></path></g></g><path class="foreground" aria-hidden="true" d="" display="none"></path></g></g><g class="mark-group role-legend" role="graphics-symbol" aria-roledescription="legend" aria-label="Symbol legend titled 'Library' for stroke color with 3 values: MKL, OpenBLAS, PaddedMatrices"><g transform="translate(1218,0)"><path class="background" aria-hidden="true" d="M0,0h95v53h-95Z" pointer-events="none"></path><g><g class="mark-group role-legend-entry"><g transform="translate(0,16)"><path class="background" aria-hidden="true" d="M0,0h0v0h0Z" pointer-events="none"></path><g><g class="mark-group role-scope" role="graphics-object" aria-roledescription="group mark container"><g transform="translate(0,0)"><path class="background" aria-hidden="true" d="M0,0h95v11h-95Z" pointer-events="none" opacity="1"></path><g><g class="mark-symbol role-legend-symbol" pointer-events="none"><path transform="translate(6,6)" d="M-5,0L5,0" stroke="#4c78a8" stroke-width="1.5" opacity="1"></path></g><g class="mark-text role-legend-label" pointer-events="none"><text text-anchor="start" transform="translate(16,9)" font-family="sans-serif" font-size="10px" fill="#000" opacity="1">MKL</text></g></g><path class="foreground" aria-hidden="true" d="" pointer-events="none" display="none"></path></g><g transform="translate(0,13)"><path class="background" aria-hidden="true" d="M0,0h95v11h-95Z" pointer-events="none" opacity="1"></path><g><g class="mark-symbol role-legend-symbol" pointer-events="none"><path transform="translate(6,6)" d="M-5,0L5,0" stroke="#f58518" stroke-width="1.5" opacity="1"></path></g><g class="mark-text role-legend-label" pointer-events="none"><text text-anchor="start" transform="translate(16,9)" font-family="sans-serif" font-size="10px" fill="#000" opacity="1">OpenBLAS</text></g></g><path class="foreground" aria-hidden="true" d="" pointer-events="none" display="none"></path></g><g transform="translate(0,26)"><path class="background" aria-hidden="true" d="M0,0h95v11h-95Z" pointer-events="none" opacity="1"></path><g><g class="mark-symbol role-legend-symbol" pointer-events="none"><path transform="translate(6,6)" d="M-5,0L5,0" stroke="#e45756" stroke-width="1.5" opacity="1"></path></g><g class="mark-text role-legend-label" pointer-events="none"><text text-anchor="start" transform="translate(16,9)" font-family="sans-serif" font-size="10px" fill="#000" opacity="1">PaddedMatrices</text></g></g><path class="foreground" aria-hidden="true" d="" pointer-events="none" display="none"></path></g></g></g><path class="foreground" aria-hidden="true" d="" pointer-events="none" display="none"></path></g></g><g class="mark-text role-legend-title" pointer-events="none"><text text-anchor="start" transform="translate(0,9)" font-family="sans-serif" font-size="11px" font-weight="bold" fill="#000" opacity="1">Library</text></g></g><path class="foreground" aria-hidden="true" d="" pointer-events="none" display="none"></path></g></g></g><path class="foreground" aria-hidden="true" d="" display="none"></path></g></g></g></svg>
