<?xml version="1.0" encoding="utf-8"?>
<!DOCTYPE svg PUBLIC "-//W3C//DTD SVG 1.1//EN" "http://www.w3.org/Graphics/SVG/1.1/DTD/svg11.dtd">
<svg class="marks" width="1051" height="642" viewBox="0 0 1051 642" version="1.1" xmlns="http://www.w3.org/2000/svg" xmlns:xlink="http://www.w3.org/1999/xlink"><rect width="1051" height="642" style="fill: white;"></rect><g transform="translate(39,5)"><g class="mark-group role-frame root"><g transform="translate(0,0)"><path class="background" d="M0.5,0.5h900v600h-900Z" style="fill: none; stroke: #ddd;"></path><g><g class="mark-group role-axis"><g transform="translate(0.5,600.5)"><path class="background" d="M0,0h0v0h0Z" style="pointer-events: none; fill: none;"></path><g><g class="mark-rule role-axis-grid" style="pointer-events: none;"><line transform="translate(0,-600)" x2="0" y2="600" style="fill: none; stroke: #ddd; stroke-width: 1; opacity: 1;"></line><line transform="translate(68,-600)" x2="0" y2="600" style="fill: none; stroke: #ddd; stroke-width: 1; opacity: 1;"></line><line transform="translate(107,-600)" x2="0" y2="600" style="fill: none; stroke: #ddd; stroke-width: 1; opacity: 1;"></line><line transform="translate(135,-600)" x2="0" y2="600" style="fill: none; stroke: #ddd; stroke-width: 1; opacity: 1;"></line><line transform="translate(157,-600)" x2="0" y2="600" style="fill: none; stroke: #ddd; stroke-width: 1; opacity: 1;"></line><line transform="translate(175,-600)" x2="0" y2="600" style="fill: none; stroke: #ddd; stroke-width: 1; opacity: 1;"></line><line transform="translate(190,-600)" x2="0" y2="600" style="fill: none; stroke: #ddd; stroke-width: 1; opacity: 1;"></line><line transform="translate(203,-600)" x2="0" y2="600" style="fill: none; stroke: #ddd; stroke-width: 1; opacity: 1;"></line><line transform="translate(215,-600)" x2="0" y2="600" style="fill: none; stroke: #ddd; stroke-width: 1; opacity: 1;"></line><line transform="translate(225,-600)" x2="0" y2="600" style="fill: none; stroke: #ddd; stroke-width: 1; opacity: 1;"></line><line transform="translate(293,-600)" x2="0" y2="600" style="fill: none; stroke: #ddd; stroke-width: 1; opacity: 1;"></line><line transform="translate(332,-600)" x2="0" y2="600" style="fill: none; stroke: #ddd; stroke-width: 1; opacity: 1;"></line><line transform="translate(360,-600)" x2="0" y2="600" style="fill: none; stroke: #ddd; stroke-width: 1; opacity: 1;"></line><line transform="translate(382,-600)" x2="0" y2="600" style="fill: none; stroke: #ddd; stroke-width: 1; opacity: 1;"></line><line transform="translate(400,-600)" x2="0" y2="600" style="fill: none; stroke: #ddd; stroke-width: 1; opacity: 1;"></line><line transform="translate(415,-600)" x2="0" y2="600" style="fill: none; stroke: #ddd; stroke-width: 1; opacity: 1;"></line><line transform="translate(428,-600)" x2="0" y2="600" style="fill: none; stroke: #ddd; stroke-width: 1; opacity: 1;"></line><line transform="translate(440,-600)" x2="0" y2="600" style="fill: none; stroke: #ddd; stroke-width: 1; opacity: 1;"></line><line transform="translate(450,-600)" x2="0" y2="600" style="fill: none; stroke: #ddd; stroke-width: 1; opacity: 1;"></line><line transform="translate(518,-600)" x2="0" y2="600" style="fill: none; stroke: #ddd; stroke-width: 1; opacity: 1;"></line><line transform="translate(557,-600)" x2="0" y2="600" style="fill: none; stroke: #ddd; stroke-width: 1; opacity: 1;"></line><line transform="translate(585,-600)" x2="0" y2="600" style="fill: none; stroke: #ddd; stroke-width: 1; opacity: 1;"></line><line transform="translate(607,-600)" x2="0" y2="600" style="fill: none; stroke: #ddd; stroke-width: 1; opacity: 1;"></line><line transform="translate(625,-600)" x2="0" y2="600" style="fill: none; stroke: #ddd; stroke-width: 1; opacity: 1;"></line><line transform="translate(640,-600)" x2="0" y2="600" style="fill: none; stroke: #ddd; stroke-width: 1; opacity: 1;"></line><line transform="translate(653,-600)" x2="0" y2="600" style="fill: none; stroke: #ddd; stroke-width: 1; opacity: 1;"></line><line transform="translate(665,-600)" x2="0" y2="600" style="fill: none; stroke: #ddd; stroke-width: 1; opacity: 1;"></line><line transform="translate(675,-600)" x2="0" y2="600" style="fill: none; stroke: #ddd; stroke-width: 1; opacity: 1;"></line><line transform="translate(743,-600)" x2="0" y2="600" style="fill: none; stroke: #ddd; stroke-width: 1; opacity: 1;"></line><line transform="translate(782,-600)" x2="0" y2="600" style="fill: none; stroke: #ddd; stroke-width: 1; opacity: 1;"></line><line transform="translate(810,-600)" x2="0" y2="600" style="fill: none; stroke: #ddd; stroke-width: 1; opacity: 1;"></line><line transform="translate(832,-600)" x2="0" y2="600" style="fill: none; stroke: #ddd; stroke-width: 1; opacity: 1;"></line><line transform="translate(850,-600)" x2="0" y2="600" style="fill: none; stroke: #ddd; stroke-width: 1; opacity: 1;"></line><line transform="translate(865,-600)" x2="0" y2="600" style="fill: none; stroke: #ddd; stroke-width: 1; opacity: 1;"></line><line transform="translate(878,-600)" x2="0" y2="600" style="fill: none; stroke: #ddd; stroke-width: 1; opacity: 1;"></line><line transform="translate(890,-600)" x2="0" y2="600" style="fill: none; stroke: #ddd; stroke-width: 1; opacity: 1;"></line><line transform="translate(900,-600)" x2="0" y2="600" style="fill: none; stroke: #ddd; stroke-width: 1; opacity: 1;"></line></g></g><path class="foreground" d="" style="pointer-events: none; display: none; fill: none;"></path></g></g><g class="mark-group role-axis"><g transform="translate(0.5,0.5)"><path class="background" d="M0,0h0v0h0Z" style="pointer-events: none; fill: none;"></path><g><g class="mark-rule role-axis-grid" style="pointer-events: none;"><line transform="translate(0,600)" x2="900" y2="0" style="fill: none; stroke: #ddd; stroke-width: 1; opacity: 1;"></line><line transform="translate(0,566)" x2="900" y2="0" style="fill: none; stroke: #ddd; stroke-width: 1; opacity: 1;"></line><line transform="translate(0,531)" x2="900" y2="0" style="fill: none; stroke: #ddd; stroke-width: 1; opacity: 1;"></line><line transform="translate(0,497)" x2="900" y2="0" style="fill: none; stroke: #ddd; stroke-width: 1; opacity: 1;"></line><line transform="translate(0,463)" x2="900" y2="0" style="fill: none; stroke: #ddd; stroke-width: 1; opacity: 1;"></line><line transform="translate(0,429)" x2="900" y2="0" style="fill: none; stroke: #ddd; stroke-width: 1; opacity: 1;"></line><line transform="translate(0,394)" x2="900" y2="0" style="fill: none; stroke: #ddd; stroke-width: 1; opacity: 1;"></line><line transform="translate(0,360)" x2="900" y2="0" style="fill: none; stroke: #ddd; stroke-width: 1; opacity: 1;"></line><line transform="translate(0,326)" x2="900" y2="0" style="fill: none; stroke: #ddd; stroke-width: 1; opacity: 1;"></line><line transform="translate(0,291)" x2="900" y2="0" style="fill: none; stroke: #ddd; stroke-width: 1; opacity: 1;"></line><line transform="translate(0,257)" x2="900" y2="0" style="fill: none; stroke: #ddd; stroke-width: 1; opacity: 1;"></line><line transform="translate(0,223)" x2="900" y2="0" style="fill: none; stroke: #ddd; stroke-width: 1; opacity: 1;"></line><line transform="translate(0,189)" x2="900" y2="0" style="fill: none; stroke: #ddd; stroke-width: 1; opacity: 1;"></line><line transform="translate(0,154)" x2="900" y2="0" style="fill: none; stroke: #ddd; stroke-width: 1; opacity: 1;"></line><line transform="translate(0,120)" x2="900" y2="0" style="fill: none; stroke: #ddd; stroke-width: 1; opacity: 1;"></line><line transform="translate(0,86)" x2="900" y2="0" style="fill: none; stroke: #ddd; stroke-width: 1; opacity: 1;"></line><line transform="translate(0,51)" x2="900" y2="0" style="fill: none; stroke: #ddd; stroke-width: 1; opacity: 1;"></line><line transform="translate(0,17)" x2="900" y2="0" style="fill: none; stroke: #ddd; stroke-width: 1; opacity: 1;"></line></g></g><path class="foreground" d="" style="pointer-events: none; display: none; fill: none;"></path></g></g><g class="mark-group role-axis"><g transform="translate(0.5,600.5)"><path class="background" d="M0,0h0v0h0Z" style="pointer-events: none; fill: none;"></path><g><g class="mark-rule role-axis-tick" style="pointer-events: none;"><line transform="translate(0,0)" x2="0" y2="5" style="fill: none; stroke: #888; stroke-width: 1; opacity: 1;"></line><line transform="translate(68,0)" x2="0" y2="5" style="fill: none; stroke: #888; stroke-width: 1; opacity: 1;"></line><line transform="translate(107,0)" x2="0" y2="5" style="fill: none; stroke: #888; stroke-width: 1; opacity: 1;"></line><line transform="translate(135,0)" x2="0" y2="5" style="fill: none; stroke: #888; stroke-width: 1; opacity: 1;"></line><line transform="translate(157,0)" x2="0" y2="5" style="fill: none; stroke: #888; stroke-width: 1; opacity: 1;"></line><line transform="translate(175,0)" x2="0" y2="5" style="fill: none; stroke: #888; stroke-width: 1; opacity: 1;"></line><line transform="translate(190,0)" x2="0" y2="5" style="fill: none; stroke: #888; stroke-width: 1; opacity: 1;"></line><line transform="translate(203,0)" x2="0" y2="5" style="fill: none; stroke: #888; stroke-width: 1; opacity: 1;"></line><line transform="translate(215,0)" x2="0" y2="5" style="fill: none; stroke: #888; stroke-width: 1; opacity: 1;"></line><line transform="translate(225,0)" x2="0" y2="5" style="fill: none; stroke: #888; stroke-width: 1; opacity: 1;"></line><line transform="translate(293,0)" x2="0" y2="5" style="fill: none; stroke: #888; stroke-width: 1; opacity: 1;"></line><line transform="translate(332,0)" x2="0" y2="5" style="fill: none; stroke: #888; stroke-width: 1; opacity: 1;"></line><line transform="translate(360,0)" x2="0" y2="5" style="fill: none; stroke: #888; stroke-width: 1; opacity: 1;"></line><line transform="translate(382,0)" x2="0" y2="5" style="fill: none; stroke: #888; stroke-width: 1; opacity: 1;"></line><line transform="translate(400,0)" x2="0" y2="5" style="fill: none; stroke: #888; stroke-width: 1; opacity: 1;"></line><line transform="translate(415,0)" x2="0" y2="5" style="fill: none; stroke: #888; stroke-width: 1; opacity: 1;"></line><line transform="translate(428,0)" x2="0" y2="5" style="fill: none; stroke: #888; stroke-width: 1; opacity: 1;"></line><line transform="translate(440,0)" x2="0" y2="5" style="fill: none; stroke: #888; stroke-width: 1; opacity: 1;"></line><line transform="translate(450,0)" x2="0" y2="5" style="fill: none; stroke: #888; stroke-width: 1; opacity: 1;"></line><line transform="translate(518,0)" x2="0" y2="5" style="fill: none; stroke: #888; stroke-width: 1; opacity: 1;"></line><line transform="translate(557,0)" x2="0" y2="5" style="fill: none; stroke: #888; stroke-width: 1; opacity: 1;"></line><line transform="translate(585,0)" x2="0" y2="5" style="fill: none; stroke: #888; stroke-width: 1; opacity: 1;"></line><line transform="translate(607,0)" x2="0" y2="5" style="fill: none; stroke: #888; stroke-width: 1; opacity: 1;"></line><line transform="translate(625,0)" x2="0" y2="5" style="fill: none; stroke: #888; stroke-width: 1; opacity: 1;"></line><line transform="translate(640,0)" x2="0" y2="5" style="fill: none; stroke: #888; stroke-width: 1; opacity: 1;"></line><line transform="translate(653,0)" x2="0" y2="5" style="fill: none; stroke: #888; stroke-width: 1; opacity: 1;"></line><line transform="translate(665,0)" x2="0" y2="5" style="fill: none; stroke: #888; stroke-width: 1; opacity: 1;"></line><line transform="translate(675,0)" x2="0" y2="5" style="fill: none; stroke: #888; stroke-width: 1; opacity: 1;"></line><line transform="translate(743,0)" x2="0" y2="5" style="fill: none; stroke: #888; stroke-width: 1; opacity: 1;"></line><line transform="translate(782,0)" x2="0" y2="5" style="fill: none; stroke: #888; stroke-width: 1; opacity: 1;"></line><line transform="translate(810,0)" x2="0" y2="5" style="fill: none; stroke: #888; stroke-width: 1; opacity: 1;"></line><line transform="translate(832,0)" x2="0" y2="5" style="fill: none; stroke: #888; stroke-width: 1; opacity: 1;"></line><line transform="translate(850,0)" x2="0" y2="5" style="fill: none; stroke: #888; stroke-width: 1; opacity: 1;"></line><line transform="translate(865,0)" x2="0" y2="5" style="fill: none; stroke: #888; stroke-width: 1; opacity: 1;"></line><line transform="translate(878,0)" x2="0" y2="5" style="fill: none; stroke: #888; stroke-width: 1; opacity: 1;"></line><line transform="translate(890,0)" x2="0" y2="5" style="fill: none; stroke: #888; stroke-width: 1; opacity: 1;"></line><line transform="translate(900,0)" x2="0" y2="5" style="fill: none; stroke: #888; stroke-width: 1; opacity: 1;"></line></g><g class="mark-text role-axis-label" style="pointer-events: none;"><text text-anchor="start" transform="translate(0,15)" style="font-family: sans-serif; font-size: 10px; fill: #000; opacity: 1;">1</text><text text-anchor="middle" transform="translate(67.73174902439575,15)" style="font-family: sans-serif; font-size: 10px; fill: #000; opacity: 1;">2</text><text text-anchor="middle" transform="translate(107.35228231192403,15)" style="font-family: sans-serif; font-size: 10px; fill: #000; opacity: 1;"></text><text text-anchor="middle" transform="translate(135.4634980487915,15)" style="font-family: sans-serif; font-size: 10px; fill: #000; opacity: 1;"></text><text text-anchor="middle" transform="translate(157.26825097560422,15)" style="font-family: sans-serif; font-size: 10px; fill: #000; opacity: 1;"></text><text text-anchor="middle" transform="translate(175.08403133631978,15)" style="font-family: sans-serif; font-size: 10px; fill: #000; opacity: 1;"></text><text text-anchor="middle" transform="translate(190.14705900320774,15)" style="font-family: sans-serif; font-size: 10px; fill: #000; opacity: 1;"></text><text text-anchor="middle" transform="translate(203.19524707318726,15)" style="font-family: sans-serif; font-size: 10px; fill: #000; opacity: 1;"></text><text text-anchor="middle" transform="translate(214.70456462384809,15)" style="font-family: sans-serif; font-size: 10px; fill: #000; opacity: 1;"></text><text text-anchor="middle" transform="translate(225,15)" style="font-family: sans-serif; font-size: 10px; fill: #000; opacity: 1;">10</text><text text-anchor="middle" transform="translate(292.73174902439575,15)" style="font-family: sans-serif; font-size: 10px; fill: #000; opacity: 1;">20</text><text text-anchor="middle" transform="translate(332.35228231192406,15)" style="font-family: sans-serif; font-size: 10px; fill: #000; opacity: 1;"></text><text text-anchor="middle" transform="translate(360.4634980487915,15)" style="font-family: sans-serif; font-size: 10px; fill: #000; opacity: 1;"></text><text text-anchor="middle" transform="translate(382.2682509756042,15)" style="font-family: sans-serif; font-size: 10px; fill: #000; opacity: 1;"></text><text text-anchor="middle" transform="translate(400.08403133631975,15)" style="font-family: sans-serif; font-size: 10px; fill: #000; opacity: 1;"></text><text text-anchor="middle" transform="translate(415.1470590032078,15)" style="font-family: sans-serif; font-size: 10px; fill: #000; opacity: 1;"></text><text text-anchor="middle" transform="translate(428.19524707318726,15)" style="font-family: sans-serif; font-size: 10px; fill: #000; opacity: 1;"></text><text text-anchor="middle" transform="translate(439.70456462384806,15)" style="font-family: sans-serif; font-size: 10px; fill: #000; opacity: 1;"></text><text text-anchor="middle" transform="translate(450,15)" style="font-family: sans-serif; font-size: 10px; fill: #000; opacity: 1;">100</text><text text-anchor="middle" transform="translate(517.7317490243956,15)" style="font-family: sans-serif; font-size: 10px; fill: #000; opacity: 1;">200</text><text text-anchor="middle" transform="translate(557.352282311924,15)" style="font-family: sans-serif; font-size: 10px; fill: #000; opacity: 1;"></text><text text-anchor="middle" transform="translate(585.4634980487915,15)" style="font-family: sans-serif; font-size: 10px; fill: #000; opacity: 1;"></text><text text-anchor="middle" transform="translate(607.2682509756041,15)" style="font-family: sans-serif; font-size: 10px; fill: #000; opacity: 1;"></text><text text-anchor="middle" transform="translate(625.0840313363198,15)" style="font-family: sans-serif; font-size: 10px; fill: #000; opacity: 1;"></text><text text-anchor="middle" transform="translate(640.1470590032077,15)" style="font-family: sans-serif; font-size: 10px; fill: #000; opacity: 1;"></text><text text-anchor="middle" transform="translate(653.1952470731873,15)" style="font-family: sans-serif; font-size: 10px; fill: #000; opacity: 1;"></text><text text-anchor="middle" transform="translate(664.7045646238481,15)" style="font-family: sans-serif; font-size: 10px; fill: #000; opacity: 1;"></text><text text-anchor="middle" transform="translate(674.9999999999999,15)" style="font-family: sans-serif; font-size: 10px; fill: #000; opacity: 1;">1,000</text><text text-anchor="middle" transform="translate(742.7317490243956,15)" style="font-family: sans-serif; font-size: 10px; fill: #000; opacity: 1;">2,000</text><text text-anchor="middle" transform="translate(782.3522823119239,15)" style="font-family: sans-serif; font-size: 10px; fill: #000; opacity: 1;"></text><text text-anchor="middle" transform="translate(810.4634980487915,15)" style="font-family: sans-serif; font-size: 10px; fill: #000; opacity: 1;"></text><text text-anchor="middle" transform="translate(832.2682509756042,15)" style="font-family: sans-serif; font-size: 10px; fill: #000; opacity: 1;"></text><text text-anchor="middle" transform="translate(850.0840313363196,15)" style="font-family: sans-serif; font-size: 10px; fill: #000; opacity: 1;"></text><text text-anchor="middle" transform="translate(865.1470590032077,15)" style="font-family: sans-serif; font-size: 10px; fill: #000; opacity: 1;"></text><text text-anchor="middle" transform="translate(878.1952470731873,15)" style="font-family: sans-serif; font-size: 10px; fill: #000; opacity: 1;"></text><text text-anchor="middle" transform="translate(889.7045646238481,15)" style="font-family: sans-serif; font-size: 10px; fill: #000; opacity: 1;"></text><text text-anchor="end" transform="translate(900,15)" style="font-family: sans-serif; font-size: 10px; fill: #000; opacity: 1;">10,000</text></g><g class="mark-rule role-axis-domain" style="pointer-events: none;"><line transform="translate(0,0)" x2="900" y2="0" style="fill: none; stroke: #888; stroke-width: 1; opacity: 1;"></line></g><g class="mark-text role-axis-title" style="pointer-events: none;"><text text-anchor="middle" transform="translate(450,30)" style="font-family: sans-serif; font-size: 11px; font-weight: bold; fill: #000; opacity: 1;">Size</text></g></g><path class="foreground" d="" style="pointer-events: none; display: none; fill: none;"></path></g></g><g class="mark-group role-axis"><g transform="translate(0.5,0.5)"><path class="background" d="M0,0h0v0h0Z" style="pointer-events: none; fill: none;"></path><g><g class="mark-rule role-axis-tick" style="pointer-events: none;"><line transform="translate(0,600)" x2="-5" y2="0" style="fill: none; stroke: #888; stroke-width: 1; opacity: 1;"></line><line transform="translate(0,566)" x2="-5" y2="0" style="fill: none; stroke: #888; stroke-width: 1; opacity: 1;"></line><line transform="translate(0,531)" x2="-5" y2="0" style="fill: none; stroke: #888; stroke-width: 1; opacity: 1;"></line><line transform="translate(0,497)" x2="-5" y2="0" style="fill: none; stroke: #888; stroke-width: 1; opacity: 1;"></line><line transform="translate(0,463)" x2="-5" y2="0" style="fill: none; stroke: #888; stroke-width: 1; opacity: 1;"></line><line transform="translate(0,429)" x2="-5" y2="0" style="fill: none; stroke: #888; stroke-width: 1; opacity: 1;"></line><line transform="translate(0,394)" x2="-5" y2="0" style="fill: none; stroke: #888; stroke-width: 1; opacity: 1;"></line><line transform="translate(0,360)" x2="-5" y2="0" style="fill: none; stroke: #888; stroke-width: 1; opacity: 1;"></line><line transform="translate(0,326)" x2="-5" y2="0" style="fill: none; stroke: #888; stroke-width: 1; opacity: 1;"></line><line transform="translate(0,291)" x2="-5" y2="0" style="fill: none; stroke: #888; stroke-width: 1; opacity: 1;"></line><line transform="translate(0,257)" x2="-5" y2="0" style="fill: none; stroke: #888; stroke-width: 1; opacity: 1;"></line><line transform="translate(0,223)" x2="-5" y2="0" style="fill: none; stroke: #888; stroke-width: 1; opacity: 1;"></line><line transform="translate(0,189)" x2="-5" y2="0" style="fill: none; stroke: #888; stroke-width: 1; opacity: 1;"></line><line transform="translate(0,154)" x2="-5" y2="0" style="fill: none; stroke: #888; stroke-width: 1; opacity: 1;"></line><line transform="translate(0,120)" x2="-5" y2="0" style="fill: none; stroke: #888; stroke-width: 1; opacity: 1;"></line><line transform="translate(0,86)" x2="-5" y2="0" style="fill: none; stroke: #888; stroke-width: 1; opacity: 1;"></line><line transform="translate(0,51)" x2="-5" y2="0" style="fill: none; stroke: #888; stroke-width: 1; opacity: 1;"></line><line transform="translate(0,17)" x2="-5" y2="0" style="fill: none; stroke: #888; stroke-width: 1; opacity: 1;"></line></g><g class="mark-text role-axis-label" style="pointer-events: none;"><text text-anchor="end" transform="translate(-7,603)" style="font-family: sans-serif; font-size: 10px; fill: #000; opacity: 1;">0</text><text text-anchor="end" transform="translate(-7,568.7142857142857)" style="font-family: sans-serif; font-size: 10px; fill: #000; opacity: 1;">2</text><text text-anchor="end" transform="translate(-7,534.4285714285714)" style="font-family: sans-serif; font-size: 10px; fill: #000; opacity: 1;">4</text><text text-anchor="end" transform="translate(-7,500.1428571428571)" style="font-family: sans-serif; font-size: 10px; fill: #000; opacity: 1;">6</text><text text-anchor="end" transform="translate(-7,465.8571428571429)" style="font-family: sans-serif; font-size: 10px; fill: #000; opacity: 1;">8</text><text text-anchor="end" transform="translate(-7,431.57142857142856)" style="font-family: sans-serif; font-size: 10px; fill: #000; opacity: 1;">10</text><text text-anchor="end" transform="translate(-7,397.2857142857143)" style="font-family: sans-serif; font-size: 10px; fill: #000; opacity: 1;">12</text><text text-anchor="end" transform="translate(-7,363)" style="font-family: sans-serif; font-size: 10px; fill: #000; opacity: 1;">14</text><text text-anchor="end" transform="translate(-7,328.7142857142858)" style="font-family: sans-serif; font-size: 10px; fill: #000; opacity: 1;">16</text><text text-anchor="end" transform="translate(-7,294.42857142857144)" style="font-family: sans-serif; font-size: 10px; fill: #000; opacity: 1;">18</text><text text-anchor="end" transform="translate(-7,260.14285714285717)" style="font-family: sans-serif; font-size: 10px; fill: #000; opacity: 1;">20</text><text text-anchor="end" transform="translate(-7,225.85714285714286)" style="font-family: sans-serif; font-size: 10px; fill: #000; opacity: 1;">22</text><text text-anchor="end" transform="translate(-7,191.57142857142856)" style="font-family: sans-serif; font-size: 10px; fill: #000; opacity: 1;">24</text><text text-anchor="end" transform="translate(-7,157.28571428571428)" style="font-family: sans-serif; font-size: 10px; fill: #000; opacity: 1;">26</text><text text-anchor="end" transform="translate(-7,122.99999999999997)" style="font-family: sans-serif; font-size: 10px; fill: #000; opacity: 1;">28</text><text text-anchor="end" transform="translate(-7,88.71428571428574)" style="font-family: sans-serif; font-size: 10px; fill: #000; opacity: 1;">30</text><text text-anchor="end" transform="translate(-7,54.428571428571445)" style="font-family: sans-serif; font-size: 10px; fill: #000; opacity: 1;">32</text><text text-anchor="end" transform="translate(-7,20.14285714285715)" style="font-family: sans-serif; font-size: 10px; fill: #000; opacity: 1;">34</text></g><g class="mark-rule role-axis-domain" style="pointer-events: none;"><line transform="translate(0,600)" x2="0" y2="-600" style="fill: none; stroke: #888; stroke-width: 1; opacity: 1;"></line></g><g class="mark-text role-axis-title" style="pointer-events: none;"><text text-anchor="middle" transform="translate(-23,300) rotate(-90) translate(0,-2)" style="font-family: sans-serif; font-size: 11px; font-weight: bold; fill: #000; opacity: 1;">GFLOPS</text></g></g><path class="foreground" d="" style="pointer-events: none; display: none; fill: none;"></path></g></g><g class="mark-group role-scope pathgroup"><g transform="translate(0,0)"><path class="background" d="M0,0h900v600h-900Z" style="fill: none;"></path><g><g class="mark-line role-mark marks"><path d="M67.73174902439575,587.8663747977539L135.4634980487915,531.5275946505933L203.19524707318726,342.1595404354855L270.926996097583,155.45711614417365L310.5475293851113,110.5626265192555L338.6587451219788,110.77663192236433L360.4634980487915,142.47587275110206L378.27927840950707,130.92053019145797L393.3423060763951,116.53123494459601L406.3904941463745,119.26645883000175L417.8998116970354,130.77863507079212L428.19524707318726,125.89300182883069L437.50860123378794,116.81788639022493L446.0110274339028,117.26971395834185L453.83250134222556,128.4429399373277L461.07405510079076,125.62058675805822L467.81578036071556,119.00014381747242L474.1222431707703,119.87637197535828L494.6978445647451,125.44135185577876L515.2577875565665,149.28128452440467L534.3183778522734,172.43619449814628L551.3060493718563,191.0648899746175L567.2560688334081,185.6484189610875L582.2349671292551,206.753379569334L596.1003432102319,195.25999099769604L609.0115010257706,195.63175299579922L621.433763644619,196.23118751262268L633.0557224278432,220.49227800079777L643.9795603454332,178.4724806280225L654.5296921975101,211.6999937638478L664.4871757501434,210.55538752950218L674.0179187844486,204.79216301331996L683.2415014564862,186.4109743694298L691.9980663133193,226.74299695742283L700.4114946189179,230.3618814435459L708.5049734496051,223.7701601060525L716.3637833376947,238.84360900334192L723.8746475200167,251.264008115506L731.1796712561928,246.78718337986734L738.2325076307386,251.56029872601658L745.0492392683534,432.3155371045654L751.6445349511586,265.3690011808152L758.073567917282,268.628364264014L764.3017010570678,282.81448011730924L770.3777066688937,283.59291197927865L776.2713920711104,292.9341086249747L781.993330883838,299.6225024857882L787.5840857295091,303.63224945755724L793.0183357409345,303.3040516076593L798.3323184228401,303.4476949571421L803.50341234397,293.26953696212263L808.5641193291455,311.18694335653345L813.5177554974185,282.273723832051L818.3450865443243,279.9525768088645L823.0740379889384,320.52852727491734L827.6871187257584,310.5796553311097L832.2096036245821,321.69059839450654L836.6441944116724,325.5343424641162L840.9935416256002,337.3974113913353L845.2431243553158,324.7360784056161L849.4140117205769,331.8384066766519L853.5242549199742,329.8563143018539L857.52894886949,329.75407317072467L861.4774683416143,327.5919852251806L865.3562269569852,331.766555546695L869.1538980516744,332.5998377342625L872.8997852112692,321.97236711947824L876.5694790306422,304.1709806814862L880.1901425413546,344.2149360898262L883.7391509486222,336.1973660961302L887.2306031560188,305.12793805121646L890.6768737249425,334.0111320937378L894.0576652711328,334.83163831176506L897.3956632514182,339.7868773339189" style="fill: none; stroke: #4c78a8; stroke-width: 2;"></path></g></g><path class="foreground" d="" style="display: none; fill: none;"></path></g><g transform="translate(0,0)"><path class="background" d="M0,0h900v600h-900Z" style="fill: none;"></path><g><g class="mark-line role-mark marks"><path d="M67.73174902439575,587.8301598615212L135.4634980487915,531.7247855756589L203.19524707318726,340.91278713431103L270.926996097583,151.2381767339516L310.5475293851113,104.71449606774743L338.6587451219788,103.86317117622316L360.4634980487915,93.63750247247309L378.27927840950707,97.35193023321872L393.3423060763951,92.61649953652984L406.3904941463745,88.22490116647947L417.8998116970354,86.59735674740092L428.19524707318726,82.83045946776303L437.50860123378794,87.18769400565631L446.0110274339028,88.14933914439504L453.83250134222556,84.76659967822637L461.07405510079076,83.76387876709381L467.81578036071556,80.59234915736522L474.1222431707703,83.04787376633458L494.6978445647451,96.10038868998375L515.2577875565665,106.73415139159526L534.3183778522734,131.27282260846115L551.3060493718563,131.8787873727453L567.2560688334081,129.66630515088232L582.2349671292551,127.2565286341504L596.1003432102319,119.5592466320472L609.0115010257706,115.86186926126514L621.433763644619,111.04049986660314L633.0557224278432,119.33699750665203L643.9795603454332,110.76923623138923L654.5296921975101,112.3160760794113L664.4871757501434,110.60557144068261L674.0179187844486,109.15797081498995L683.2415014564862,104.87113141167646L691.9980663133193,105.59682550350402L700.4114946189179,111.54453433311701L708.5049734496051,109.4398546828772L716.3637833376947,108.52072982773342L723.8746475200167,108.67603780496349L731.1796712561928,106.04941500478463L738.2325076307386,108.38121015790607L745.0492392683534,105.53199655255605L751.6445349511586,106.32595483670228L758.073567917282,105.17002293799325L764.3017010570678,107.01826176253238L770.3777066688937,107.01682041329974L776.2713920711104,107.40505103149849L781.993330883838,104.20668542455047L787.5840857295091,106.58050410378384L793.0183357409345,107.31602058901318L798.3323184228401,105.9589837912154L803.50341234397,107.32730207886148L808.5641193291455,107.5913670438017L813.5177554974185,104.49301199380685L818.3450865443243,104.89050392299244L823.0740379889384,107.15049653792124L827.6871187257584,105.55477834473493L832.2096036245821,106.62109664670582L836.6441944116724,106.01417402838524L840.9935416256002,108.30869609116849L845.2431243553158,106.63841344689355L849.4140117205769,106.49634686415862L853.5242549199742,106.49330882098181L857.52894886949,107.18764394079506L861.4774683416143,106.79163948663934L865.3562269569852,106.68632528462865L869.1538980516744,107.1069600083751L872.8997852112692,106.75969667112088L876.5694790306422,106.25628127476287L880.1901425413546,108.58895891014751L883.7391509486222,107.25242750935291L887.2306031560188,106.67898409338908L890.6768737249425,107.23184331579678L894.0576652711328,106.62438205655587L897.3956632514182,107.6195714307805" style="fill: none; stroke: #e45756; stroke-width: 2;"></path></g></g><path class="foreground" d="" style="display: none; fill: none;"></path></g><g transform="translate(0,0)"><path class="background" d="M0,0h900v600h-900Z" style="fill: none;"></path><g><g class="mark-line role-mark marks"><path d="M67.73174902439575,570.756517761854L135.4634980487915,585.4161191923225L203.19524707318726,557.789960643513L270.926996097583,534.7626421271513L310.5475293851113,532.9657429763504L338.6587451219788,437.61537222642073L360.4634980487915,503.2800408037328L378.27927840950707,507.12473143864906L393.3423060763951,509.7810875200408L406.3904941463745,512.0525046654506L417.8998116970354,458.42534892064157L428.19524707318726,486.70999861706537L437.50860123378794,492.1339635670065L446.0110274339028,495.2666835355378L453.83250134222556,451.4634762299073L461.07405510079076,475.6923648638187L467.81578036071556,480.91816368411725L474.1222431707703,484.405634059007L494.6978445647451,477.30234266640207L515.2577875565665,473.6236832471506L534.3183778522734,475.61967056676L551.3060493718563,475.1428241085707L567.2560688334081,467.8675948691638L582.2349671292551,474.8504497146306L596.1003432102319,470.559134236546L609.0115010257706,465.9225517224156L621.433763644619,466.5855889518352L633.0557224278432,465.7129714125749L643.9795603454332,465.70847632719136L654.5296921975101,468.2467985644095L664.4871757501434,464.10542441868546L674.0179187844486,467.89434707794436L683.2415014564862,467.335911849191L691.9980663133193,468.7169078956363L700.4114946189179,468.329733822402L708.5049734496051,470.0514024308762L716.3637833376947,478.30679988773863L723.8746475200167,481.2383501576119L731.1796712561928,479.3410176441756L738.2325076307386,482.3145350382107L745.0492392683534,481.3489655061526L751.6445349511586,487.8368757740321L758.073567917282,485.955328183774L764.3017010570678,487.6001866932234L770.3777066688937,486.79403545347424L776.2713920711104,488.1767004391303L781.993330883838,486.51192524742754L787.5840857295091,486.75895597077687L793.0183357409345,485.3855035082785L798.3323184228401,486.24807124284155L803.50341234397,486.8993931790867L808.5641193291455,485.6875004398899L813.5177554974185,486.1888085335918L818.3450865443243,486.2074021106507L823.0740379889384,490.39606104756206L827.6871187257584,487.81237246568566L832.2096036245821,486.5348588893831L836.6441944116724,489.11283845375675L840.9935416256002,487.6779817809428L845.2431243553158,487.0934382549256L849.4140117205769,487.76384900655705L853.5242549199742,487.7445506384749L857.52894886949,489.0579225244064L861.4774683416143,486.97507738092673L865.3562269569852,487.36352371078726L869.1538980516744,487.5574994408841L872.8997852112692,485.53120408879624L876.5694790306422,486.83529205323157L880.1901425413546,489.03740665193925L883.7391509486222,488.07726929919926L887.2306031560188,487.25471947518207L890.6768737249425,486.71733815813116L894.0576652711328,486.85699248096074L897.3956632514182,489.4966262454924" style="fill: none; stroke: #f58518; stroke-width: 2;"></path></g></g><path class="foreground" d="" style="display: none; fill: none;"></path></g></g><g class="mark-group role-legend"><g transform="translate(918,0)"><path class="background" d="M0,0h89v53h-89Z" style="pointer-events: none; fill: none;"></path><g><g class="mark-group role-legend-entry"><g transform="translate(0,16)"><path class="background" d="M0,0h0v0h0Z" style="pointer-events: none; fill: none;"></path><g><g class="mark-group role-scope"><g transform="translate(0,0)"><path class="background" d="M0,0h89v11h-89Z" style="pointer-events: none; fill: none; opacity: 1;"></path><g><g class="mark-symbol role-legend-symbol" style="pointer-events: none;"><path transform="translate(6,6)" d="M-5,0L5,0" style="fill: none; stroke: #4c78a8; stroke-width: 1.5; opacity: 1;"></path></g><g class="mark-text role-legend-label" style="pointer-events: none;"><text text-anchor="start" transform="translate(16,9)" style="font-family: sans-serif; font-size: 10px; fill: #000; opacity: 1;">Gaius</text></g></g><path class="foreground" d="" style="pointer-events: none; display: none; fill: none;"></path></g><g transform="translate(0,13)"><path class="background" d="M0,0h89v11h-89Z" style="pointer-events: none; fill: none; opacity: 1;"></path><g><g class="mark-symbol role-legend-symbol" style="pointer-events: none;"><path transform="translate(6,6)" d="M-5,0L5,0" style="fill: none; stroke: #f58518; stroke-width: 1.5; opacity: 1;"></path></g><g class="mark-text role-legend-label" style="pointer-events: none;"><text text-anchor="start" transform="translate(16,9)" style="font-family: sans-serif; font-size: 10px; fill: #000; opacity: 1;">GenericMatMul</text></g></g><path class="foreground" d="" style="pointer-events: none; display: none; fill: none;"></path></g><g transform="translate(0,26)"><path class="background" d="M0,0h89v11h-89Z" style="pointer-events: none; fill: none; opacity: 1;"></path><g><g class="mark-symbol role-legend-symbol" style="pointer-events: none;"><path transform="translate(6,6)" d="M-5,0L5,0" style="fill: none; stroke: #e45756; stroke-width: 1.5; opacity: 1;"></path></g><g class="mark-text role-legend-label" style="pointer-events: none;"><text text-anchor="start" transform="translate(16,9)" style="font-family: sans-serif; font-size: 10px; fill: #000; opacity: 1;">PaddedMatrices</text></g></g><path class="foreground" d="" style="pointer-events: none; display: none; fill: none;"></path></g></g></g><path class="foreground" d="" style="pointer-events: none; display: none; fill: none;"></path></g></g><g class="mark-text role-legend-title" style="pointer-events: none;"><text text-anchor="start" transform="translate(0,9)" style="font-family: sans-serif; font-size: 11px; font-weight: bold; fill: #000; opacity: 1;">Library</text></g></g><path class="foreground" d="" style="pointer-events: none; display: none; fill: none;"></path></g></g></g><path class="foreground" d="" style="display: none; fill: none;"></path></g></g></g></svg>
