<?xml version="1.0" encoding="utf-8"?>
<!DOCTYPE svg PUBLIC "-//W3C//DTD SVG 1.1//EN" "http://www.w3.org/Graphics/SVG/1.1/DTD/svg11.dtd">
<svg class="marks" width="1359" height="647" viewBox="0 0 1359 647" version="1.1" xmlns="http://www.w3.org/2000/svg" xmlns:xlink="http://www.w3.org/1999/xlink"><rect width="1359" height="647" fill="white"></rect><g fill="none" stroke-miterlimit="10" transform="translate(39,10)"><g class="mark-group role-frame root" role="graphics-object" aria-roledescription="group mark container"><g transform="translate(0,0)"><path class="background" aria-hidden="true" d="M0.5,0.5h1200v600h-1200Z" stroke="#ddd"></path><g><g class="mark-group role-axis" aria-hidden="true"><g transform="translate(0.5,600.5)"><path class="background" aria-hidden="true" d="M0,0h0v0h0Z" pointer-events="none"></path><g><g class="mark-rule role-axis-grid" pointer-events="none"><line transform="translate(0,-600)" x2="0" y2="600" stroke="#ddd" stroke-width="1" opacity="1"></line><line transform="translate(33,-600)" x2="0" y2="600" stroke="#ddd" stroke-width="1" opacity="1"></line><line transform="translate(67,-600)" x2="0" y2="600" stroke="#ddd" stroke-width="1" opacity="1"></line><line transform="translate(100,-600)" x2="0" y2="600" stroke="#ddd" stroke-width="1" opacity="1"></line><line transform="translate(133,-600)" x2="0" y2="600" stroke="#ddd" stroke-width="1" opacity="1"></line><line transform="translate(167,-600)" x2="0" y2="600" stroke="#ddd" stroke-width="1" opacity="1"></line><line transform="translate(200,-600)" x2="0" y2="600" stroke="#ddd" stroke-width="1" opacity="1"></line><line transform="translate(233,-600)" x2="0" y2="600" stroke="#ddd" stroke-width="1" opacity="1"></line><line transform="translate(267,-600)" x2="0" y2="600" stroke="#ddd" stroke-width="1" opacity="1"></line><line transform="translate(300,-600)" x2="0" y2="600" stroke="#ddd" stroke-width="1" opacity="1"></line><line transform="translate(333,-600)" x2="0" y2="600" stroke="#ddd" stroke-width="1" opacity="1"></line><line transform="translate(367,-600)" x2="0" y2="600" stroke="#ddd" stroke-width="1" opacity="1"></line><line transform="translate(400,-600)" x2="0" y2="600" stroke="#ddd" stroke-width="1" opacity="1"></line><line transform="translate(433,-600)" x2="0" y2="600" stroke="#ddd" stroke-width="1" opacity="1"></line><line transform="translate(467,-600)" x2="0" y2="600" stroke="#ddd" stroke-width="1" opacity="1"></line><line transform="translate(500,-600)" x2="0" y2="600" stroke="#ddd" stroke-width="1" opacity="1"></line><line transform="translate(533,-600)" x2="0" y2="600" stroke="#ddd" stroke-width="1" opacity="1"></line><line transform="translate(567,-600)" x2="0" y2="600" stroke="#ddd" stroke-width="1" opacity="1"></line><line transform="translate(600,-600)" x2="0" y2="600" stroke="#ddd" stroke-width="1" opacity="1"></line><line transform="translate(633,-600)" x2="0" y2="600" stroke="#ddd" stroke-width="1" opacity="1"></line><line transform="translate(667,-600)" x2="0" y2="600" stroke="#ddd" stroke-width="1" opacity="1"></line><line transform="translate(700,-600)" x2="0" y2="600" stroke="#ddd" stroke-width="1" opacity="1"></line><line transform="translate(733,-600)" x2="0" y2="600" stroke="#ddd" stroke-width="1" opacity="1"></line><line transform="translate(767,-600)" x2="0" y2="600" stroke="#ddd" stroke-width="1" opacity="1"></line><line transform="translate(800,-600)" x2="0" y2="600" stroke="#ddd" stroke-width="1" opacity="1"></line><line transform="translate(833,-600)" x2="0" y2="600" stroke="#ddd" stroke-width="1" opacity="1"></line><line transform="translate(867,-600)" x2="0" y2="600" stroke="#ddd" stroke-width="1" opacity="1"></line><line transform="translate(900,-600)" x2="0" y2="600" stroke="#ddd" stroke-width="1" opacity="1"></line><line transform="translate(933,-600)" x2="0" y2="600" stroke="#ddd" stroke-width="1" opacity="1"></line><line transform="translate(967,-600)" x2="0" y2="600" stroke="#ddd" stroke-width="1" opacity="1"></line><line transform="translate(1000,-600)" x2="0" y2="600" stroke="#ddd" stroke-width="1" opacity="1"></line><line transform="translate(1033,-600)" x2="0" y2="600" stroke="#ddd" stroke-width="1" opacity="1"></line><line transform="translate(1067,-600)" x2="0" y2="600" stroke="#ddd" stroke-width="1" opacity="1"></line><line transform="translate(1100,-600)" x2="0" y2="600" stroke="#ddd" stroke-width="1" opacity="1"></line><line transform="translate(1133,-600)" x2="0" y2="600" stroke="#ddd" stroke-width="1" opacity="1"></line><line transform="translate(1167,-600)" x2="0" y2="600" stroke="#ddd" stroke-width="1" opacity="1"></line><line transform="translate(1200,-600)" x2="0" y2="600" stroke="#ddd" stroke-width="1" opacity="1"></line></g></g><path class="foreground" aria-hidden="true" d="" pointer-events="none" display="none"></path></g></g><g class="mark-group role-axis" aria-hidden="true"><g transform="translate(0.5,0.5)"><path class="background" aria-hidden="true" d="M0,0h0v0h0Z" pointer-events="none"></path><g><g class="mark-rule role-axis-grid" pointer-events="none"><line transform="translate(0,600)" x2="1200" y2="0" stroke="#ddd" stroke-width="1" opacity="1"></line><line transform="translate(0,545)" x2="1200" y2="0" stroke="#ddd" stroke-width="1" opacity="1"></line><line transform="translate(0,491)" x2="1200" y2="0" stroke="#ddd" stroke-width="1" opacity="1"></line><line transform="translate(0,436)" x2="1200" y2="0" stroke="#ddd" stroke-width="1" opacity="1"></line><line transform="translate(0,382)" x2="1200" y2="0" stroke="#ddd" stroke-width="1" opacity="1"></line><line transform="translate(0,327)" x2="1200" y2="0" stroke="#ddd" stroke-width="1" opacity="1"></line><line transform="translate(0,273)" x2="1200" y2="0" stroke="#ddd" stroke-width="1" opacity="1"></line><line transform="translate(0,218)" x2="1200" y2="0" stroke="#ddd" stroke-width="1" opacity="1"></line><line transform="translate(0,164)" x2="1200" y2="0" stroke="#ddd" stroke-width="1" opacity="1"></line><line transform="translate(0,109)" x2="1200" y2="0" stroke="#ddd" stroke-width="1" opacity="1"></line><line transform="translate(0,55)" x2="1200" y2="0" stroke="#ddd" stroke-width="1" opacity="1"></line><line transform="translate(0,0)" x2="1200" y2="0" stroke="#ddd" stroke-width="1" opacity="1"></line></g></g><path class="foreground" aria-hidden="true" d="" pointer-events="none" display="none"></path></g></g><g class="mark-group role-axis" role="graphics-symbol" aria-roledescription="axis" aria-label="X-axis titled 'Size' for a linear scale with values from 200 to 2,000"><g transform="translate(0.5,600.5)"><path class="background" aria-hidden="true" d="M0,0h0v0h0Z" pointer-events="none"></path><g><g class="mark-rule role-axis-tick" pointer-events="none"><line transform="translate(0,0)" x2="0" y2="5" stroke="#888" stroke-width="1" opacity="1"></line><line transform="translate(33,0)" x2="0" y2="5" stroke="#888" stroke-width="1" opacity="1"></line><line transform="translate(67,0)" x2="0" y2="5" stroke="#888" stroke-width="1" opacity="1"></line><line transform="translate(100,0)" x2="0" y2="5" stroke="#888" stroke-width="1" opacity="1"></line><line transform="translate(133,0)" x2="0" y2="5" stroke="#888" stroke-width="1" opacity="1"></line><line transform="translate(167,0)" x2="0" y2="5" stroke="#888" stroke-width="1" opacity="1"></line><line transform="translate(200,0)" x2="0" y2="5" stroke="#888" stroke-width="1" opacity="1"></line><line transform="translate(233,0)" x2="0" y2="5" stroke="#888" stroke-width="1" opacity="1"></line><line transform="translate(267,0)" x2="0" y2="5" stroke="#888" stroke-width="1" opacity="1"></line><line transform="translate(300,0)" x2="0" y2="5" stroke="#888" stroke-width="1" opacity="1"></line><line transform="translate(333,0)" x2="0" y2="5" stroke="#888" stroke-width="1" opacity="1"></line><line transform="translate(367,0)" x2="0" y2="5" stroke="#888" stroke-width="1" opacity="1"></line><line transform="translate(400,0)" x2="0" y2="5" stroke="#888" stroke-width="1" opacity="1"></line><line transform="translate(433,0)" x2="0" y2="5" stroke="#888" stroke-width="1" opacity="1"></line><line transform="translate(467,0)" x2="0" y2="5" stroke="#888" stroke-width="1" opacity="1"></line><line transform="translate(500,0)" x2="0" y2="5" stroke="#888" stroke-width="1" opacity="1"></line><line transform="translate(533,0)" x2="0" y2="5" stroke="#888" stroke-width="1" opacity="1"></line><line transform="translate(567,0)" x2="0" y2="5" stroke="#888" stroke-width="1" opacity="1"></line><line transform="translate(600,0)" x2="0" y2="5" stroke="#888" stroke-width="1" opacity="1"></line><line transform="translate(633,0)" x2="0" y2="5" stroke="#888" stroke-width="1" opacity="1"></line><line transform="translate(667,0)" x2="0" y2="5" stroke="#888" stroke-width="1" opacity="1"></line><line transform="translate(700,0)" x2="0" y2="5" stroke="#888" stroke-width="1" opacity="1"></line><line transform="translate(733,0)" x2="0" y2="5" stroke="#888" stroke-width="1" opacity="1"></line><line transform="translate(767,0)" x2="0" y2="5" stroke="#888" stroke-width="1" opacity="1"></line><line transform="translate(800,0)" x2="0" y2="5" stroke="#888" stroke-width="1" opacity="1"></line><line transform="translate(833,0)" x2="0" y2="5" stroke="#888" stroke-width="1" opacity="1"></line><line transform="translate(867,0)" x2="0" y2="5" stroke="#888" stroke-width="1" opacity="1"></line><line transform="translate(900,0)" x2="0" y2="5" stroke="#888" stroke-width="1" opacity="1"></line><line transform="translate(933,0)" x2="0" y2="5" stroke="#888" stroke-width="1" opacity="1"></line><line transform="translate(967,0)" x2="0" y2="5" stroke="#888" stroke-width="1" opacity="1"></line><line transform="translate(1000,0)" x2="0" y2="5" stroke="#888" stroke-width="1" opacity="1"></line><line transform="translate(1033,0)" x2="0" y2="5" stroke="#888" stroke-width="1" opacity="1"></line><line transform="translate(1067,0)" x2="0" y2="5" stroke="#888" stroke-width="1" opacity="1"></line><line transform="translate(1100,0)" x2="0" y2="5" stroke="#888" stroke-width="1" opacity="1"></line><line transform="translate(1133,0)" x2="0" y2="5" stroke="#888" stroke-width="1" opacity="1"></line><line transform="translate(1167,0)" x2="0" y2="5" stroke="#888" stroke-width="1" opacity="1"></line><line transform="translate(1200,0)" x2="0" y2="5" stroke="#888" stroke-width="1" opacity="1"></line></g><g class="mark-text role-axis-label" pointer-events="none"><text text-anchor="start" transform="translate(0,15)" font-family="sans-serif" font-size="10px" fill="#000" opacity="1">200</text><text text-anchor="middle" transform="translate(33.33333333333333,15)" font-family="sans-serif" font-size="10px" fill="#000" opacity="0">250</text><text text-anchor="middle" transform="translate(66.66666666666666,15)" font-family="sans-serif" font-size="10px" fill="#000" opacity="1">300</text><text text-anchor="middle" transform="translate(100,15)" font-family="sans-serif" font-size="10px" fill="#000" opacity="0">350</text><text text-anchor="middle" transform="translate(133.33333333333331,15)" font-family="sans-serif" font-size="10px" fill="#000" opacity="1">400</text><text text-anchor="middle" transform="translate(166.66666666666669,15)" font-family="sans-serif" font-size="10px" fill="#000" opacity="0">450</text><text text-anchor="middle" transform="translate(200,15)" font-family="sans-serif" font-size="10px" fill="#000" opacity="1">500</text><text text-anchor="middle" transform="translate(233.33333333333334,15)" font-family="sans-serif" font-size="10px" fill="#000" opacity="0">550</text><text text-anchor="middle" transform="translate(266.66666666666663,15)" font-family="sans-serif" font-size="10px" fill="#000" opacity="1">600</text><text text-anchor="middle" transform="translate(300,15)" font-family="sans-serif" font-size="10px" fill="#000" opacity="0">650</text><text text-anchor="middle" transform="translate(333.33333333333337,15)" font-family="sans-serif" font-size="10px" fill="#000" opacity="1">700</text><text text-anchor="middle" transform="translate(366.6666666666667,15)" font-family="sans-serif" font-size="10px" fill="#000" opacity="0">750</text><text text-anchor="middle" transform="translate(400,15)" font-family="sans-serif" font-size="10px" fill="#000" opacity="1">800</text><text text-anchor="middle" transform="translate(433.3333333333333,15)" font-family="sans-serif" font-size="10px" fill="#000" opacity="0">850</text><text text-anchor="middle" transform="translate(466.6666666666667,15)" font-family="sans-serif" font-size="10px" fill="#000" opacity="1">900</text><text text-anchor="middle" transform="translate(500,15)" font-family="sans-serif" font-size="10px" fill="#000" opacity="0">950</text><text text-anchor="middle" transform="translate(533.3333333333333,15)" font-family="sans-serif" font-size="10px" fill="#000" opacity="1">1,000</text><text text-anchor="middle" transform="translate(566.6666666666666,15)" font-family="sans-serif" font-size="10px" fill="#000" opacity="0">1,050</text><text text-anchor="middle" transform="translate(600,15)" font-family="sans-serif" font-size="10px" fill="#000" opacity="1">1,100</text><text text-anchor="middle" transform="translate(633.3333333333334,15)" font-family="sans-serif" font-size="10px" fill="#000" opacity="0">1,150</text><text text-anchor="middle" transform="translate(666.6666666666667,15)" font-family="sans-serif" font-size="10px" fill="#000" opacity="1">1,200</text><text text-anchor="middle" transform="translate(700,15)" font-family="sans-serif" font-size="10px" fill="#000" opacity="0">1,250</text><text text-anchor="middle" transform="translate(733.3333333333334,15)" font-family="sans-serif" font-size="10px" fill="#000" opacity="1">1,300</text><text text-anchor="middle" transform="translate(766.6666666666666,15)" font-family="sans-serif" font-size="10px" fill="#000" opacity="0">1,350</text><text text-anchor="middle" transform="translate(800,15)" font-family="sans-serif" font-size="10px" fill="#000" opacity="1">1,400</text><text text-anchor="middle" transform="translate(833.3333333333333,15)" font-family="sans-serif" font-size="10px" fill="#000" opacity="0">1,450</text><text text-anchor="middle" transform="translate(866.6666666666666,15)" font-family="sans-serif" font-size="10px" fill="#000" opacity="1">1,500</text><text text-anchor="middle" transform="translate(900,15)" font-family="sans-serif" font-size="10px" fill="#000" opacity="0">1,550</text><text text-anchor="middle" transform="translate(933.3333333333334,15)" font-family="sans-serif" font-size="10px" fill="#000" opacity="1">1,600</text><text text-anchor="middle" transform="translate(966.6666666666667,15)" font-family="sans-serif" font-size="10px" fill="#000" opacity="0">1,650</text><text text-anchor="middle" transform="translate(1000,15)" font-family="sans-serif" font-size="10px" fill="#000" opacity="1">1,700</text><text text-anchor="middle" transform="translate(1033.3333333333335,15)" font-family="sans-serif" font-size="10px" fill="#000" opacity="0">1,750</text><text text-anchor="middle" transform="translate(1066.6666666666665,15)" font-family="sans-serif" font-size="10px" fill="#000" opacity="1">1,800</text><text text-anchor="middle" transform="translate(1100,15)" font-family="sans-serif" font-size="10px" fill="#000" opacity="0">1,850</text><text text-anchor="middle" transform="translate(1133.3333333333333,15)" font-family="sans-serif" font-size="10px" fill="#000" opacity="1">1,900</text><text text-anchor="middle" transform="translate(1166.6666666666667,15)" font-family="sans-serif" font-size="10px" fill="#000" opacity="0">1,950</text><text text-anchor="end" transform="translate(1200,15)" font-family="sans-serif" font-size="10px" fill="#000" opacity="1">2,000</text></g><g class="mark-rule role-axis-domain" pointer-events="none"><line transform="translate(0,0)" x2="1200" y2="0" stroke="#888" stroke-width="1" opacity="1"></line></g><g class="mark-text role-axis-title" pointer-events="none"><text text-anchor="middle" transform="translate(600,30)" font-family="sans-serif" font-size="11px" font-weight="bold" fill="#000" opacity="1">Size</text></g></g><path class="foreground" aria-hidden="true" d="" pointer-events="none" display="none"></path></g></g><g class="mark-group role-axis" role="graphics-symbol" aria-roledescription="axis" aria-label="Y-axis titled 'GFLOPS' for a linear scale with values from 0 to 55"><g transform="translate(0.5,0.5)"><path class="background" aria-hidden="true" d="M0,0h0v0h0Z" pointer-events="none"></path><g><g class="mark-rule role-axis-tick" pointer-events="none"><line transform="translate(0,600)" x2="-5" y2="0" stroke="#888" stroke-width="1" opacity="1"></line><line transform="translate(0,545)" x2="-5" y2="0" stroke="#888" stroke-width="1" opacity="1"></line><line transform="translate(0,491)" x2="-5" y2="0" stroke="#888" stroke-width="1" opacity="1"></line><line transform="translate(0,436)" x2="-5" y2="0" stroke="#888" stroke-width="1" opacity="1"></line><line transform="translate(0,382)" x2="-5" y2="0" stroke="#888" stroke-width="1" opacity="1"></line><line transform="translate(0,327)" x2="-5" y2="0" stroke="#888" stroke-width="1" opacity="1"></line><line transform="translate(0,273)" x2="-5" y2="0" stroke="#888" stroke-width="1" opacity="1"></line><line transform="translate(0,218)" x2="-5" y2="0" stroke="#888" stroke-width="1" opacity="1"></line><line transform="translate(0,164)" x2="-5" y2="0" stroke="#888" stroke-width="1" opacity="1"></line><line transform="translate(0,109)" x2="-5" y2="0" stroke="#888" stroke-width="1" opacity="1"></line><line transform="translate(0,55)" x2="-5" y2="0" stroke="#888" stroke-width="1" opacity="1"></line><line transform="translate(0,0)" x2="-5" y2="0" stroke="#888" stroke-width="1" opacity="1"></line></g><g class="mark-text role-axis-label" pointer-events="none"><text text-anchor="end" transform="translate(-7,603)" font-family="sans-serif" font-size="10px" fill="#000" opacity="1">0</text><text text-anchor="end" transform="translate(-7,548.4545454545454)" font-family="sans-serif" font-size="10px" fill="#000" opacity="1">5</text><text text-anchor="end" transform="translate(-7,493.9090909090909)" font-family="sans-serif" font-size="10px" fill="#000" opacity="1">10</text><text text-anchor="end" transform="translate(-7,439.3636363636364)" font-family="sans-serif" font-size="10px" fill="#000" opacity="1">15</text><text text-anchor="end" transform="translate(-7,384.8181818181818)" font-family="sans-serif" font-size="10px" fill="#000" opacity="1">20</text><text text-anchor="end" transform="translate(-7,330.27272727272725)" font-family="sans-serif" font-size="10px" fill="#000" opacity="1">25</text><text text-anchor="end" transform="translate(-7,275.72727272727275)" font-family="sans-serif" font-size="10px" fill="#000" opacity="1">30</text><text text-anchor="end" transform="translate(-7,221.1818181818182)" font-family="sans-serif" font-size="10px" fill="#000" opacity="1">35</text><text text-anchor="end" transform="translate(-7,166.63636363636363)" font-family="sans-serif" font-size="10px" fill="#000" opacity="1">40</text><text text-anchor="end" transform="translate(-7,112.09090909090907)" font-family="sans-serif" font-size="10px" fill="#000" opacity="1">45</text><text text-anchor="end" transform="translate(-7,57.54545454545456)" font-family="sans-serif" font-size="10px" fill="#000" opacity="1">50</text><text text-anchor="end" transform="translate(-7,3)" font-family="sans-serif" font-size="10px" fill="#000" opacity="1">55</text></g><g class="mark-rule role-axis-domain" pointer-events="none"><line transform="translate(0,600)" x2="0" y2="-600" stroke="#888" stroke-width="1" opacity="1"></line></g><g class="mark-text role-axis-title" pointer-events="none"><text text-anchor="middle" transform="translate(-23,300) rotate(-90) translate(0,-2)" font-family="sans-serif" font-size="11px" font-weight="bold" fill="#000" opacity="1">GFLOPS</text></g></g><path class="foreground" aria-hidden="true" d="" pointer-events="none" display="none"></path></g></g><g class="mark-group role-scope pathgroup" role="graphics-object" aria-roledescription="group mark container"><g transform="translate(0,0)"><path class="background" aria-hidden="true" d="M0,0h1200v600h-1200Z"></path><g><g class="mark-line role-mark marks" role="graphics-object" aria-roledescription="line mark container"><path aria-label="Library: PaddedMatrices; Size: 256; GFLOPS: 41.76553647" role="graphics-symbol" aria-roledescription="line mark" d="M37.333333333333336,144.375965781791L41.333333333333336,40.07696139476962L45.333333333333336,127.37506598735504L50,42.43057262226593L54,56.55285953382037L58,37.59709757040479L62.66666666666667,48.80440311254499L66.66666666666666,33.893033739276255L70.66666666666666,50.17767330295031L75.33333333333333,49.03301715166983L79.33333333333333,51.60157955865265L84.00000000000001,40.02355460673848L88,47.190628992969174L92.66666666666666,47.551341833780384L97.33333333333333,44.702324256388756L101.33333333333334,34.79287241625089L106,39.670446471823006L110.66666666666666,39.33143818286639L115.33333333333333,47.463840434404524L119.33333333333334,47.5696538427387L124,46.973458872551L128.66666666666666,63.508215147218564L133.33333333333331,35.01370165339415L138,44.58423198912549L142.66666666666666,43.84332951238863L147.33333333333334,54.70285735165146L152,46.53136888671878L156.66666666666669,60.31274672378131L161.33333333333334,51.07529440433118L166,56.74294287986314L170.66666666666666,45.24987469893615L176,53.09552240848745L180.66666666666666,57.248580945516835L185.33333333333331,58.26390049726569L190,60.951970326970326L195.33333333333331,65.78866617872698L200,64.88389764299194L204.66666666666666,82.50476798708152L210,66.8566772595539L214.66666666666666,66.02686822107987L219.99999999999997,75.21237971024703L224.66666666666669,69.68512549763837L230.00000000000003,73.83280853224983L234.66666666666669,70.22604669475176L240,80.7959811672649L244.66666666666669,83.0959835812801L250,81.7789968652037L255.33333333333334,91.93394676537984L260,195.76036412842905L265.33333333333337,85.60626693821254L270.6666666666667,86.784946430802L276,87.97847586534874L280.6666666666667,87.50061623760669L286,88.24840813339854L291.33333333333337,103.56942445582587L296.6666666666667,89.83466537383869L302,87.85077546440874L307.33333333333337,97.62051059036875L312.66666666666663,93.38396533090254L318,93.25688505525771L323.3333333333333,99.42317950155541L328.6666666666667,93.93216899209678L334,94.67801610217768L339.33333333333337,108.24534002373214L344.66666666666663,111.98336258932645L350,111.18606075571044L355.3333333333333,110.6207602266513L360.6666666666667,103.7015057912506L366,104.04239427545676L372,100.0134754968788L377.33333333333337,113.5815615104828L382.6666666666667,101.58097733419851L387.99999999999994,101.5020662953621L394,109.68244319807204L399.3333333333333,103.41478708697589L404.66666666666663,162.1718687910028L410.66666666666663,94.64973614688807L416,86.41632889111233L422,103.85678149565119L427.3333333333333,146.90470003830868L433.3333333333333,100.10480196498588L438.6666666666667,100.71951800070289L444.6666666666667,103.02074825490115L450,102.66328883692222L456,91.84763015155966L461.3333333333333,200.92190624171934L467.3333333333333,214.37918861922913L473.3333333333333,92.67474409613918L478.6666666666667,96.66323910298351L484.6666666666667,98.23839216680493L490.6666666666667,84.01640335640938L496,84.72894449656533L502,113.60369344085031L508,100.27969376867811L514,107.1318907819482L519.3333333333333,132.91581656399728L525.3333333333334,105.55338792406053L531.3333333333334,120.19299578304205L537.3333333333334,100.17393080255775L543.3333333333334,106.7731264329774L549.3333333333334,98.26320693441733L555.3333333333334,123.99503815557733L561.3333333333334,113.16854039596222L567.3333333333334,222.633140806516L573.3333333333334,104.39605061805754L579.3333333333333,107.25087834143775L585.3333333333333,93.1673880673126L591.3333333333333,104.63553566047874L597.3333333333334,95.89333574988788L603.3333333333334,105.12308582699315L609.3333333333334,134.4580988887222L615.3333333333334,112.42061498499108L622,99.42434795228459L628,108.50901962854915L634,112.4810424687897L640,88.43949722148857L646,102.04071894800049L652.6666666666666,108.88156217531737L658.6666666666666,104.78956785886876L664.6666666666666,110.22409334001885L671.3333333333333,103.70286157000726L677.3333333333333,103.47254660263243L683.3333333333333,120.89431649180074L690,107.37027756392334L696,102.14488534940843L702,117.96689766422779L708.6666666666666,111.45146168199808L714.6666666666666,89.2864360447623L721.3333333333334,109.31389134737854L727.3333333333334,152.86081670949258L734,101.45273969637059L740,100.4582188156639L746.6666666666666,88.13787531977906L753.3333333333334,99.95458583843325L759.3333333333334,109.84328411829128L766,102.6634280436858L772,106.78206060168398L778.6666666666666,103.25576262060332L785.3333333333334,102.63479948346794L791.3333333333334,107.68452754424544L798,105.95870337610566L804.6666666666667,105.34666369696615L810.6666666666667,92.65216283450775L817.3333333333334,110.61404579394714L824,99.03274439362504L830.6666666666666,226.85677051761607L837.3333333333334,106.57343139380482L843.3333333333333,120.75088928871509L850,121.90768190564695L856.6666666666667,171.5686021724595L863.3333333333334,116.89868786288982L870,116.5425906528037L876.6666666666666,115.83450752047351L883.3333333333334,124.59107360594102L890,141.30835927113944L896.6666666666666,113.598701023147L903.3333333333334,116.37514701836096L910,127.45007560869385L916.6666666666666,119.52057935694978L923.3333333333334,116.08068812573946L930,116.99206517208492L936.6666666666666,120.10690902823136L943.3333333333333,114.09807591206945L950,126.3074483632428L956.6666666666667,106.16469856477661L963.3333333333334,110.29957690094798L970.6666666666666,89.70746795718736L977.3333333333333,110.4757670226689L983.9999999999999,95.098570251984L990.6666666666667,100.8588102607595L997.3333333333334,90.27215392834333L1004.6666666666666,101.79760079041577L1011.3333333333333,115.24558581256944L1018.0000000000001,119.84818612758986L1024.6666666666667,118.02713180988778L1032,112.2322777720171L1038.6666666666665,107.6108072788535L1045.3333333333333,99.33797174957071L1052.6666666666667,113.4746356326928L1059.3333333333333,211.47071803584709L1066.6666666666665,217.4540001472045L1073.3333333333335,117.75191006642652L1080,102.3593604252824L1087.3333333333333,118.30262566290426L1094,118.20905323177048L1101.3333333333333,185.69993502289037L1108,107.99162616407396L1115.3333333333333,131.44485934290785L1122,116.63140186530212L1129.3333333333333,126.99229111961895L1136,153.06935217721778L1143.3333333333333,138.25168629455723L1150,111.83431952662718L1157.3333333333333,99.14417378655551L1164.6666666666665,180.2261345217322L1171.3333333333335,142.18318279296224L1178.6666666666667,116.11886062213614L1186,122.03845636037722L1192.6666666666667,131.97995580052543L1200,106.67384216414987" stroke="#e45756" stroke-width="2"></path></g></g><path class="foreground" aria-hidden="true" d="" display="none"></path></g><g transform="translate(0,0)"><path class="background" aria-hidden="true" d="M0,0h1200v600h-1200Z"></path><g><g class="mark-line role-mark marks" role="graphics-object" aria-roledescription="line mark container"><path aria-label="Library: OpenBLAS; Size: 256; GFLOPS: 37.7482641467" role="graphics-symbol" aria-roledescription="line mark" d="M37.333333333333336,188.2007547632927L41.333333333333336,192.44488423915092L45.333333333333336,133.0503487173266L50,111.25592417061607L54,98.13112924811034L58,113.2776240273834L62.66666666666667,98.05572070515038L66.66666666666666,84.33919022154308L70.66666666666666,92.28621338865801L75.33333333333333,89.633681232186L79.33333333333333,103.77877110628464L84.00000000000001,92.23335552068002L88,80.46422791159908L92.66666666666666,95.73000388315998L97.33333333333333,83.89756880090957L101.33333333333334,74.8149897897235L106,99.03740576826779L110.66666666666666,86.757725222671L115.33333333333333,85.24409066111185L119.33333333333334,93.3973866447465L124,81.78028338226578L128.66666666666666,80.53268576563461L133.33333333333331,70.2717616222927L138,92.12335738701105L142.66666666666666,81.81767793407504L147.33333333333334,81.2022723651543L152,73.98354914458234L156.66666666666669,86.61675355117688L161.33333333333334,77.12606168254482L166,77.95281503144355L170.66666666666666,69.6538742635543L176,70.17880924073734L180.66666666666666,89.28742653018831L185.33333333333331,84.24734702551243L190,82.92239357302297L195.33333333333331,82.52737961351797L200,76.3904451728435L204.66666666666666,88.8033184441361L210,103.91774387346516L214.66666666666666,95.89924835568564L219.99999999999997,94.03011705264109L224.66666666666669,94.36754482871198L230.00000000000003,93.02424816592412L234.66666666666669,85.01323698824648L240,143.0003914242312L244.66666666666669,102.41327285466006L250,101.09564595545908L255.33333333333334,173.35266741666172L260,95.02503311624643L265.33333333333337,112.24093204223036L270.6666666666667,94.86833446192603L276,94.02132912672113L280.6666666666667,95.91091831740914L286,94.20266660343415L291.33333333333337,97.69296272574238L296.6666666666667,96.22193852407072L302,94.07350796438728L307.33333333333337,93.28160785681227L312.66666666666663,96.02210196764915L318,95.50751583709476L323.3333333333333,91.41101705810486L328.6666666666667,93.3354117097064L334,92.0242688040896L339.33333333333337,90.2843488769548L344.66666666666663,92.10123753210084L350,88.45598401696732L355.3333333333333,88.22720271848499L360.6666666666667,90.52798542466014L366,89.0013130992212L372,89.72747688571954L377.33333333333337,91.39858597698425L382.6666666666667,110.02257929019457L387.99999999999994,92.33858159259543L394,96.80947383270573L399.3333333333333,96.47682950103314L404.66666666666663,97.58276674230764L410.66666666666663,83.31758058623875L416,83.60708259061191L422,86.6225454545454L427.3333333333333,87.02891084156556L433.3333333333333,88.01370576784396L438.6666666666667,87.38110439488904L444.6666666666667,89.00978677194111L450,88.6321892052551L456,82.10636102493108L461.3333333333333,160.37928718964264L467.3333333333333,85.44269676754067L473.3333333333333,85.17515888211204L478.6666666666667,82.71067134320171L484.6666666666667,87.04443184601851L490.6666666666667,76.32157992629358L496,76.6853865675622L502,80.45554594851455L508,127.86202942872731L514,84.1319221209883L519.3333333333333,95.1929182067676L525.3333333333334,97.32166685488426L531.3333333333334,83.84247050957441L537.3333333333334,84.44822107967404L543.3333333333334,85.02691902582204L549.3333333333334,95.11116600428471L555.3333333333334,90.76621648075796L561.3333333333334,132.95774067623873L567.3333333333334,193.14737712702663L573.3333333333334,86.46382164307447L579.3333333333333,92.5270504468542L585.3333333333333,94.92535036366851L591.3333333333333,96.91262712128584L597.3333333333334,86.8452443254901L603.3333333333334,83.17012543763991L609.3333333333334,88.15157316639531L615.3333333333334,86.49934172409881L622,82.23566924084771L628,83.82169479414759L634,86.90295690124255L640,77.4183774506015L646,80.12810118158266L652.6666666666666,82.07966444457138L658.6666666666666,85.48037704959526L664.6666666666666,89.82978494927507L671.3333333333333,97.58445023821932L677.3333333333333,83.88186390552714L683.3333333333333,85.06240813622018L690,88.90161770243941L696,84.56072011866318L702,86.84274177402791L708.6666666666666,92.34942665535027L714.6666666666666,82.9201964102422L721.3333333333334,77.82400382648585L727.3333333333334,80.65006580823137L734,76.23131880563577L740,77.0059531396838L746.6666666666666,70.31407837445573L753.3333333333334,73.63888901577414L759.3333333333334,77.51771003871193L766,74.3374072819383L772,73.70998656101816L778.6666666666666,68.72976461156308L785.3333333333334,71.38334127382015L791.3333333333334,73.06767682618963L798,71.21680655536022L804.6666666666667,75.07039812922218L810.6666666666667,66.16878508270841L817.3333333333334,68.83789251462827L824,66.46377269044892L830.6666666666666,104.9232694114396L837.3333333333334,73.62780440700287L843.3333333333333,77.18909695048272L850,81.86740692472173L856.6666666666667,133.5288679622223L863.3333333333334,81.09179299759546L870,77.26698960331741L876.6666666666666,79.2795266702831L883.3333333333334,123.59855168553042L890,90.46254071814197L896.6666666666666,80.63766681142477L903.3333333333334,85.29457276840206L910,82.40912497707933L916.6666666666666,84.71464574567223L923.3333333333334,79.766006123369L930,82.84986115021593L936.6666666666666,83.77278434316086L943.3333333333333,84.71160613509132L950,80.38899944771597L956.6666666666667,72.31530103462515L963.3333333333334,70.33301971585828L970.6666666666666,65.62225336239591L977.3333333333333,70.55408278381212L983.9999999999999,66.2048908086513L990.6666666666667,79.9241719536211L997.3333333333334,65.05174590678698L1004.6666666666666,88.63672418573105L1011.3333333333333,80.11381444364851L1018.0000000000001,83.57252911926034L1024.6666666666667,80.37819988311166L1032,75.04018533895011L1038.6666666666665,78.68665635797055L1045.3333333333333,71.36460599843006L1052.6666666666667,80.41161717141172L1059.3333333333333,178.61385591945157L1066.6666666666665,79.56591228115568L1073.3333333333335,77.23189249549253L1080,71.95574060634762L1087.3333333333333,77.53376337591229L1094,75.62847514858686L1101.3333333333333,146.38980106147602L1108,77.21931464777805L1115.3333333333333,70.59538950516877L1122,75.48076183565257L1129.3333333333333,81.3759569471314L1136,112.47142630869375L1143.3333333333333,73.51218303243039L1150,72.34794548413339L1157.3333333333333,71.89876440257217L1164.6666666666665,205.59254514656652L1171.3333333333335,73.21792812689272L1178.6666666666667,69.12489342415799L1186,71.65630084872573L1192.6666666666667,71.16530519600732L1200,71.34031200833957" stroke="#f58518" stroke-width="2"></path></g></g><path class="foreground" aria-hidden="true" d="" display="none"></path></g><g transform="translate(0,0)"><path class="background" aria-hidden="true" d="M0,0h1200v600h-1200Z"></path><g><g class="mark-line role-mark marks" role="graphics-object" aria-roledescription="line mark container"><path aria-label="Library: MKL; Size: 256; GFLOPS: 44.4959978783" role="graphics-symbol" aria-roledescription="line mark" d="M37.333333333333336,114.58911405528565L41.333333333333336,150.21312992372137L45.333333333333336,60.60298437755407L50,79.3459552495696L54,65.78822254770161L58,69.47160890950236L62.66666666666667,62.014699292556855L66.66666666666666,46.70713901483121L70.66666666666666,63.438343957990284L75.33333333333333,53.443993731944L79.33333333333333,70.54155640278088L84.00000000000001,53.74172305509195L88,41.89670449779486L92.66666666666666,62.84283022336614L97.33333333333333,58.28270258782751L101.33333333333334,45.9489257641921L106,59.21159070211404L110.66666666666666,55.069001991386045L115.33333333333333,50.12039328744682L119.33333333333334,59.28871157976629L124,77.70354971147479L128.66666666666666,57.99706519231766L133.33333333333331,47.68466246197438L138,61.56040850689999L142.66666666666666,58.51025720108984L147.33333333333334,54.61152085661816L152,46.74617607884526L156.66666666666669,62.622000979271974L161.33333333333334,58.35052337479387L166,59.61181343077524L170.66666666666666,47.45755528091473L176,49.55971044638359L180.66666666666666,64.13774640844656L185.33333333333331,60.30068688332864L190,62.66256895749795L195.33333333333331,62.42732656387857L200,56.404550981099156L204.66666666666666,73.26343932826092L210,77.40249264290928L214.66666666666666,70.7711510645257L219.99999999999997,65.5853877781783L224.66666666666669,68.65095060948224L230.00000000000003,64.41773102930124L234.66666666666669,61.108376964748736L240,59.36790905114526L244.66666666666669,70.96702545628676L250,72.66058417782378L255.33333333333334,216.57815143936568L260,74.10466703013098L265.33333333333337,73.43246962840001L270.6666666666667,73.42721810886219L276,72.41890945558251L280.6666666666667,76.04013444514031L286,72.57462994720969L291.33333333333337,72.27278495065465L296.6666666666667,73.93239611498208L302,73.2272027292906L307.33333333333337,73.13980703700015L312.66666666666663,69.87234395402544L318,72.60676559780053L323.3333333333333,73.55051767591456L328.6666666666667,74.52239155920286L334,71.95606533252597L339.33333333333337,73.44420002622425L344.66666666666663,68.56046266442955L350,71.81786996354766L355.3333333333333,70.79734412940954L360.6666666666667,71.84074701692447L366,71.77753145511431L372,71.46037733368456L377.33333333333337,70.29088276976961L382.6666666666667,80.28029691234686L387.99999999999994,77.8941396915425L394,80.82983353934743L399.3333333333333,163.0706752501319L404.66666666666663,77.98588035474174L410.66666666666663,66.72703128450487L416,66.66052158909177L422,73.51012929758487L427.3333333333333,70.79481447294525L433.3333333333333,73.65376209535732L438.6666666666667,75.5712901617697L444.6666666666667,76.90176231740973L450,76.71023909124428L456,66.50827036894376L461.3333333333333,165.51436302418116L467.3333333333333,70.951656637853L473.3333333333333,69.91472070268073L478.6666666666667,70.21024591263192L484.6666666666667,71.85765248110174L490.6666666666667,59.53905341579488L496,58.63042115627592L502,65.6621155015573L508,78.75270704408894L514,137.12122622191583L519.3333333333333,76.92548085767423L525.3333333333334,71.5160984163515L531.3333333333334,69.29632687814649L537.3333333333334,66.95486299630613L543.3333333333334,70.73040747987737L549.3333333333334,62.701039828396546L555.3333333333334,68.47818576813904L561.3333333333334,163.3314167130897L567.3333333333334,69.62246531482434L573.3333333333334,57.935700325757566L579.3333333333333,62.30467838059093L585.3333333333333,60.37938828211986L591.3333333333333,66.05973294994432L597.3333333333334,52.36151241939921L603.3333333333334,63.12536288663275L609.3333333333334,62.092072541027285L615.3333333333334,68.60182804998622L622,65.96221707996402L628,62.462127297630765L634,64.85601821428104L640,63.76917062763978L646,72.17988758904843L652.6666666666666,71.505081224017L658.6666666666666,57.763547671314484L664.6666666666666,63.451356644319226L671.3333333333333,67.11387625203362L677.3333333333333,116.87202848358409L683.3333333333333,61.182786427559144L690,61.23043865325683L696,52.681921762212355L702,61.48587257466058L708.6666666666666,59.89478516043223L714.6666666666666,49.84588686034077L721.3333333333334,59.704101650271845L727.3333333333334,61.3897911297169L734,58.417467295089494L740,56.86155150793033L746.6666666666666,49.663422626685325L753.3333333333334,54.8884898674151L759.3333333333334,57.40931022503493L766,68.09615550207629L772,64.1787988617642L778.6666666666666,57.35331389991243L785.3333333333334,60.91616898899459L791.3333333333334,62.749858326567164L798,60.78717384151133L804.6666666666667,61.5633212053339L810.6666666666667,51.85279221554933L817.3333333333334,58.2076909261402L824,51.98136004526768L830.6666666666666,63.410853168559676L837.3333333333334,52.83047856309413L843.3333333333333,56.61762482102386L850,65.70009255207935L856.6666666666667,94.60084033613438L863.3333333333334,57.30130884858087L870,78.42611274345043L876.6666666666666,54.607271190188996L883.3333333333334,129.80706527818552L890,63.41174701180323L896.6666666666666,67.39061142596057L903.3333333333334,66.78015031082683L910,60.27745173539489L916.6666666666666,62.66643393274347L923.3333333333334,60.62189229103612L930,57.887150333753176L936.6666666666666,53.297529090740525L943.3333333333333,58.16728602777923L950,51.931168714848106L956.6666666666667,55.966569052812275L963.3333333333334,54.76762754673712L970.6666666666666,47.37638744060215L977.3333333333333,53.089341243142684L983.9999999999999,47.050047203835256L990.6666666666667,65.76556921216365L997.3333333333334,53.078874079477536L1004.6666666666666,58.5735196926654L1011.3333333333333,56.0138561726371L1018.0000000000001,55.244524436796326L1024.6666666666667,63.52714408953521L1032,56.561491361971484L1038.6666666666665,63.93859440068008L1045.3333333333333,54.54354649397055L1052.6666666666667,91.64262716745242L1059.3333333333333,166.48861220335633L1066.6666666666665,47.654393793120356L1073.3333333333335,58.300201048984036L1080,51.01715147956072L1087.3333333333333,59.70398410206981L1094,54.577244514995684L1101.3333333333333,48.52891366553387L1108,52.411858561581795L1115.3333333333333,57.95077972154088L1122,64.13425563577458L1129.3333333333333,55.92980995577168L1136,49.32272793590193L1143.3333333333333,58.667393343971575L1150,65.80690534319227L1157.3333333333333,56.524317306616176L1164.6666666666665,197.06129667171942L1171.3333333333335,63.5981051702327L1178.6666666666667,56.00792171847928L1186,57.23355665559493L1192.6666666666667,56.745256269060484L1200,65.1374053648389" stroke="#4c78a8" stroke-width="2"></path></g></g><path class="foreground" aria-hidden="true" d="" display="none"></path></g></g><g class="mark-group role-legend" role="graphics-symbol" aria-roledescription="legend" aria-label="Symbol legend titled 'Library' for stroke color with 3 values: MKL, OpenBLAS, PaddedMatrices"><g transform="translate(1220,0)"><path class="background" aria-hidden="true" d="M0,0h95v53h-95Z" pointer-events="none"></path><g><g class="mark-group role-legend-entry"><g transform="translate(0,16)"><path class="background" aria-hidden="true" d="M0,0h0v0h0Z" pointer-events="none"></path><g><g class="mark-group role-scope" role="graphics-object" aria-roledescription="group mark container"><g transform="translate(0,0)"><path class="background" aria-hidden="true" d="M0,0h95v11h-95Z" pointer-events="none" opacity="1"></path><g><g class="mark-symbol role-legend-symbol" pointer-events="none"><path transform="translate(6,6)" d="M-5,0L5,0" stroke="#4c78a8" stroke-width="1.5" opacity="1"></path></g><g class="mark-text role-legend-label" pointer-events="none"><text text-anchor="start" transform="translate(16,9)" font-family="sans-serif" font-size="10px" fill="#000" opacity="1">MKL</text></g></g><path class="foreground" aria-hidden="true" d="" pointer-events="none" display="none"></path></g><g transform="translate(0,13)"><path class="background" aria-hidden="true" d="M0,0h95v11h-95Z" pointer-events="none" opacity="1"></path><g><g class="mark-symbol role-legend-symbol" pointer-events="none"><path transform="translate(6,6)" d="M-5,0L5,0" stroke="#f58518" stroke-width="1.5" opacity="1"></path></g><g class="mark-text role-legend-label" pointer-events="none"><text text-anchor="start" transform="translate(16,9)" font-family="sans-serif" font-size="10px" fill="#000" opacity="1">OpenBLAS</text></g></g><path class="foreground" aria-hidden="true" d="" pointer-events="none" display="none"></path></g><g transform="translate(0,26)"><path class="background" aria-hidden="true" d="M0,0h95v11h-95Z" pointer-events="none" opacity="1"></path><g><g class="mark-symbol role-legend-symbol" pointer-events="none"><path transform="translate(6,6)" d="M-5,0L5,0" stroke="#e45756" stroke-width="1.5" opacity="1"></path></g><g class="mark-text role-legend-label" pointer-events="none"><text text-anchor="start" transform="translate(16,9)" font-family="sans-serif" font-size="10px" fill="#000" opacity="1">PaddedMatrices</text></g></g><path class="foreground" aria-hidden="true" d="" pointer-events="none" display="none"></path></g></g></g><path class="foreground" aria-hidden="true" d="" pointer-events="none" display="none"></path></g></g><g class="mark-text role-legend-title" pointer-events="none"><text text-anchor="start" transform="translate(0,9)" font-family="sans-serif" font-size="11px" font-weight="bold" fill="#000" opacity="1">Library</text></g></g><path class="foreground" aria-hidden="true" d="" pointer-events="none" display="none"></path></g></g></g><path class="foreground" aria-hidden="true" d="" display="none"></path></g></g></g></svg>
