<?xml version="1.0" encoding="utf-8"?>
<!DOCTYPE svg PUBLIC "-//W3C//DTD SVG 1.1//EN" "http://www.w3.org/Graphics/SVG/1.1/DTD/svg11.dtd">
<svg class="marks" width="1357" height="647" viewBox="0 0 1357 647" version="1.1" xmlns="http://www.w3.org/2000/svg" xmlns:xlink="http://www.w3.org/1999/xlink"><rect width="1357" height="647" fill="white"></rect><g fill="none" stroke-miterlimit="10" transform="translate(39,10)"><g class="mark-group role-frame root" role="graphics-object" aria-roledescription="group mark container"><g transform="translate(0,0)"><path class="background" aria-hidden="true" d="M0.5,0.5h1200v600h-1200Z" stroke="#ddd"></path><g><g class="mark-group role-axis" aria-hidden="true"><g transform="translate(0.5,600.5)"><path class="background" aria-hidden="true" d="M0,0h0v0h0Z" pointer-events="none"></path><g><g class="mark-rule role-axis-grid" pointer-events="none"><line transform="translate(0,-600)" x2="0" y2="600" stroke="#ddd" stroke-width="1" opacity="1"></line><line transform="translate(46,-600)" x2="0" y2="600" stroke="#ddd" stroke-width="1" opacity="1"></line><line transform="translate(92,-600)" x2="0" y2="600" stroke="#ddd" stroke-width="1" opacity="1"></line><line transform="translate(138,-600)" x2="0" y2="600" stroke="#ddd" stroke-width="1" opacity="1"></line><line transform="translate(185,-600)" x2="0" y2="600" stroke="#ddd" stroke-width="1" opacity="1"></line><line transform="translate(231,-600)" x2="0" y2="600" stroke="#ddd" stroke-width="1" opacity="1"></line><line transform="translate(277,-600)" x2="0" y2="600" stroke="#ddd" stroke-width="1" opacity="1"></line><line transform="translate(323,-600)" x2="0" y2="600" stroke="#ddd" stroke-width="1" opacity="1"></line><line transform="translate(369,-600)" x2="0" y2="600" stroke="#ddd" stroke-width="1" opacity="1"></line><line transform="translate(415,-600)" x2="0" y2="600" stroke="#ddd" stroke-width="1" opacity="1"></line><line transform="translate(462,-600)" x2="0" y2="600" stroke="#ddd" stroke-width="1" opacity="1"></line><line transform="translate(508,-600)" x2="0" y2="600" stroke="#ddd" stroke-width="1" opacity="1"></line><line transform="translate(554,-600)" x2="0" y2="600" stroke="#ddd" stroke-width="1" opacity="1"></line><line transform="translate(600,-600)" x2="0" y2="600" stroke="#ddd" stroke-width="1" opacity="1"></line><line transform="translate(646,-600)" x2="0" y2="600" stroke="#ddd" stroke-width="1" opacity="1"></line><line transform="translate(692,-600)" x2="0" y2="600" stroke="#ddd" stroke-width="1" opacity="1"></line><line transform="translate(738,-600)" x2="0" y2="600" stroke="#ddd" stroke-width="1" opacity="1"></line><line transform="translate(785,-600)" x2="0" y2="600" stroke="#ddd" stroke-width="1" opacity="1"></line><line transform="translate(831,-600)" x2="0" y2="600" stroke="#ddd" stroke-width="1" opacity="1"></line><line transform="translate(877,-600)" x2="0" y2="600" stroke="#ddd" stroke-width="1" opacity="1"></line><line transform="translate(923,-600)" x2="0" y2="600" stroke="#ddd" stroke-width="1" opacity="1"></line><line transform="translate(969,-600)" x2="0" y2="600" stroke="#ddd" stroke-width="1" opacity="1"></line><line transform="translate(1015,-600)" x2="0" y2="600" stroke="#ddd" stroke-width="1" opacity="1"></line><line transform="translate(1062,-600)" x2="0" y2="600" stroke="#ddd" stroke-width="1" opacity="1"></line><line transform="translate(1108,-600)" x2="0" y2="600" stroke="#ddd" stroke-width="1" opacity="1"></line><line transform="translate(1154,-600)" x2="0" y2="600" stroke="#ddd" stroke-width="1" opacity="1"></line><line transform="translate(1200,-600)" x2="0" y2="600" stroke="#ddd" stroke-width="1" opacity="1"></line></g></g><path class="foreground" aria-hidden="true" d="" pointer-events="none" display="none"></path></g></g><g class="mark-group role-axis" aria-hidden="true"><g transform="translate(0.5,0.5)"><path class="background" aria-hidden="true" d="M0,0h0v0h0Z" pointer-events="none"></path><g><g class="mark-rule role-axis-grid" pointer-events="none"><line transform="translate(0,600)" x2="1200" y2="0" stroke="#ddd" stroke-width="1" opacity="1"></line><line transform="translate(0,550)" x2="1200" y2="0" stroke="#ddd" stroke-width="1" opacity="1"></line><line transform="translate(0,500)" x2="1200" y2="0" stroke="#ddd" stroke-width="1" opacity="1"></line><line transform="translate(0,450)" x2="1200" y2="0" stroke="#ddd" stroke-width="1" opacity="1"></line><line transform="translate(0,400)" x2="1200" y2="0" stroke="#ddd" stroke-width="1" opacity="1"></line><line transform="translate(0,350)" x2="1200" y2="0" stroke="#ddd" stroke-width="1" opacity="1"></line><line transform="translate(0,300)" x2="1200" y2="0" stroke="#ddd" stroke-width="1" opacity="1"></line><line transform="translate(0,250)" x2="1200" y2="0" stroke="#ddd" stroke-width="1" opacity="1"></line><line transform="translate(0,200)" x2="1200" y2="0" stroke="#ddd" stroke-width="1" opacity="1"></line><line transform="translate(0,150)" x2="1200" y2="0" stroke="#ddd" stroke-width="1" opacity="1"></line><line transform="translate(0,100)" x2="1200" y2="0" stroke="#ddd" stroke-width="1" opacity="1"></line><line transform="translate(0,50)" x2="1200" y2="0" stroke="#ddd" stroke-width="1" opacity="1"></line><line transform="translate(0,0)" x2="1200" y2="0" stroke="#ddd" stroke-width="1" opacity="1"></line></g></g><path class="foreground" aria-hidden="true" d="" pointer-events="none" display="none"></path></g></g><g class="mark-group role-axis" role="graphics-symbol" aria-roledescription="axis" aria-label="X-axis titled 'Size' for a linear scale with values from 0 to 260"><g transform="translate(0.5,600.5)"><path class="background" aria-hidden="true" d="M0,0h0v0h0Z" pointer-events="none"></path><g><g class="mark-rule role-axis-tick" pointer-events="none"><line transform="translate(0,0)" x2="0" y2="5" stroke="#888" stroke-width="1" opacity="1"></line><line transform="translate(46,0)" x2="0" y2="5" stroke="#888" stroke-width="1" opacity="1"></line><line transform="translate(92,0)" x2="0" y2="5" stroke="#888" stroke-width="1" opacity="1"></line><line transform="translate(138,0)" x2="0" y2="5" stroke="#888" stroke-width="1" opacity="1"></line><line transform="translate(185,0)" x2="0" y2="5" stroke="#888" stroke-width="1" opacity="1"></line><line transform="translate(231,0)" x2="0" y2="5" stroke="#888" stroke-width="1" opacity="1"></line><line transform="translate(277,0)" x2="0" y2="5" stroke="#888" stroke-width="1" opacity="1"></line><line transform="translate(323,0)" x2="0" y2="5" stroke="#888" stroke-width="1" opacity="1"></line><line transform="translate(369,0)" x2="0" y2="5" stroke="#888" stroke-width="1" opacity="1"></line><line transform="translate(415,0)" x2="0" y2="5" stroke="#888" stroke-width="1" opacity="1"></line><line transform="translate(462,0)" x2="0" y2="5" stroke="#888" stroke-width="1" opacity="1"></line><line transform="translate(508,0)" x2="0" y2="5" stroke="#888" stroke-width="1" opacity="1"></line><line transform="translate(554,0)" x2="0" y2="5" stroke="#888" stroke-width="1" opacity="1"></line><line transform="translate(600,0)" x2="0" y2="5" stroke="#888" stroke-width="1" opacity="1"></line><line transform="translate(646,0)" x2="0" y2="5" stroke="#888" stroke-width="1" opacity="1"></line><line transform="translate(692,0)" x2="0" y2="5" stroke="#888" stroke-width="1" opacity="1"></line><line transform="translate(738,0)" x2="0" y2="5" stroke="#888" stroke-width="1" opacity="1"></line><line transform="translate(785,0)" x2="0" y2="5" stroke="#888" stroke-width="1" opacity="1"></line><line transform="translate(831,0)" x2="0" y2="5" stroke="#888" stroke-width="1" opacity="1"></line><line transform="translate(877,0)" x2="0" y2="5" stroke="#888" stroke-width="1" opacity="1"></line><line transform="translate(923,0)" x2="0" y2="5" stroke="#888" stroke-width="1" opacity="1"></line><line transform="translate(969,0)" x2="0" y2="5" stroke="#888" stroke-width="1" opacity="1"></line><line transform="translate(1015,0)" x2="0" y2="5" stroke="#888" stroke-width="1" opacity="1"></line><line transform="translate(1062,0)" x2="0" y2="5" stroke="#888" stroke-width="1" opacity="1"></line><line transform="translate(1108,0)" x2="0" y2="5" stroke="#888" stroke-width="1" opacity="1"></line><line transform="translate(1154,0)" x2="0" y2="5" stroke="#888" stroke-width="1" opacity="1"></line><line transform="translate(1200,0)" x2="0" y2="5" stroke="#888" stroke-width="1" opacity="1"></line></g><g class="mark-text role-axis-label" pointer-events="none"><text text-anchor="start" transform="translate(0,15)" font-family="sans-serif" font-size="10px" fill="#000" opacity="1">0</text><text text-anchor="middle" transform="translate(46.15384615384615,15)" font-family="sans-serif" font-size="10px" fill="#000" opacity="1">10</text><text text-anchor="middle" transform="translate(92.3076923076923,15)" font-family="sans-serif" font-size="10px" fill="#000" opacity="1">20</text><text text-anchor="middle" transform="translate(138.46153846153848,15)" font-family="sans-serif" font-size="10px" fill="#000" opacity="1">30</text><text text-anchor="middle" transform="translate(184.6153846153846,15)" font-family="sans-serif" font-size="10px" fill="#000" opacity="1">40</text><text text-anchor="middle" transform="translate(230.76923076923077,15)" font-family="sans-serif" font-size="10px" fill="#000" opacity="1">50</text><text text-anchor="middle" transform="translate(276.92307692307696,15)" font-family="sans-serif" font-size="10px" fill="#000" opacity="1">60</text><text text-anchor="middle" transform="translate(323.07692307692304,15)" font-family="sans-serif" font-size="10px" fill="#000" opacity="1">70</text><text text-anchor="middle" transform="translate(369.2307692307692,15)" font-family="sans-serif" font-size="10px" fill="#000" opacity="1">80</text><text text-anchor="middle" transform="translate(415.38461538461536,15)" font-family="sans-serif" font-size="10px" fill="#000" opacity="1">90</text><text text-anchor="middle" transform="translate(461.53846153846155,15)" font-family="sans-serif" font-size="10px" fill="#000" opacity="1">100</text><text text-anchor="middle" transform="translate(507.6923076923077,15)" font-family="sans-serif" font-size="10px" fill="#000" opacity="1">110</text><text text-anchor="middle" transform="translate(553.8461538461539,15)" font-family="sans-serif" font-size="10px" fill="#000" opacity="1">120</text><text text-anchor="middle" transform="translate(600,15)" font-family="sans-serif" font-size="10px" fill="#000" opacity="1">130</text><text text-anchor="middle" transform="translate(646.1538461538461,15)" font-family="sans-serif" font-size="10px" fill="#000" opacity="1">140</text><text text-anchor="middle" transform="translate(692.3076923076923,15)" font-family="sans-serif" font-size="10px" fill="#000" opacity="1">150</text><text text-anchor="middle" transform="translate(738.4615384615385,15)" font-family="sans-serif" font-size="10px" fill="#000" opacity="1">160</text><text text-anchor="middle" transform="translate(784.6153846153846,15)" font-family="sans-serif" font-size="10px" fill="#000" opacity="1">170</text><text text-anchor="middle" transform="translate(830.7692307692307,15)" font-family="sans-serif" font-size="10px" fill="#000" opacity="1">180</text><text text-anchor="middle" transform="translate(876.9230769230769,15)" font-family="sans-serif" font-size="10px" fill="#000" opacity="1">190</text><text text-anchor="middle" transform="translate(923.0769230769231,15)" font-family="sans-serif" font-size="10px" fill="#000" opacity="1">200</text><text text-anchor="middle" transform="translate(969.2307692307693,15)" font-family="sans-serif" font-size="10px" fill="#000" opacity="1">210</text><text text-anchor="middle" transform="translate(1015.3846153846154,15)" font-family="sans-serif" font-size="10px" fill="#000" opacity="1">220</text><text text-anchor="middle" transform="translate(1061.5384615384614,15)" font-family="sans-serif" font-size="10px" fill="#000" opacity="1">230</text><text text-anchor="middle" transform="translate(1107.6923076923078,15)" font-family="sans-serif" font-size="10px" fill="#000" opacity="1">240</text><text text-anchor="middle" transform="translate(1153.8461538461538,15)" font-family="sans-serif" font-size="10px" fill="#000" opacity="1">250</text><text text-anchor="end" transform="translate(1200,15)" font-family="sans-serif" font-size="10px" fill="#000" opacity="1">260</text></g><g class="mark-rule role-axis-domain" pointer-events="none"><line transform="translate(0,0)" x2="1200" y2="0" stroke="#888" stroke-width="1" opacity="1"></line></g><g class="mark-text role-axis-title" pointer-events="none"><text text-anchor="middle" transform="translate(600,30)" font-family="sans-serif" font-size="11px" font-weight="bold" fill="#000" opacity="1">Size</text></g></g><path class="foreground" aria-hidden="true" d="" pointer-events="none" display="none"></path></g></g><g class="mark-group role-axis" role="graphics-symbol" aria-roledescription="axis" aria-label="Y-axis titled 'GFLOPS' for a linear scale with values from 0 to 24"><g transform="translate(0.5,0.5)"><path class="background" aria-hidden="true" d="M0,0h0v0h0Z" pointer-events="none"></path><g><g class="mark-rule role-axis-tick" pointer-events="none"><line transform="translate(0,600)" x2="-5" y2="0" stroke="#888" stroke-width="1" opacity="1"></line><line transform="translate(0,550)" x2="-5" y2="0" stroke="#888" stroke-width="1" opacity="1"></line><line transform="translate(0,500)" x2="-5" y2="0" stroke="#888" stroke-width="1" opacity="1"></line><line transform="translate(0,450)" x2="-5" y2="0" stroke="#888" stroke-width="1" opacity="1"></line><line transform="translate(0,400)" x2="-5" y2="0" stroke="#888" stroke-width="1" opacity="1"></line><line transform="translate(0,350)" x2="-5" y2="0" stroke="#888" stroke-width="1" opacity="1"></line><line transform="translate(0,300)" x2="-5" y2="0" stroke="#888" stroke-width="1" opacity="1"></line><line transform="translate(0,250)" x2="-5" y2="0" stroke="#888" stroke-width="1" opacity="1"></line><line transform="translate(0,200)" x2="-5" y2="0" stroke="#888" stroke-width="1" opacity="1"></line><line transform="translate(0,150)" x2="-5" y2="0" stroke="#888" stroke-width="1" opacity="1"></line><line transform="translate(0,100)" x2="-5" y2="0" stroke="#888" stroke-width="1" opacity="1"></line><line transform="translate(0,50)" x2="-5" y2="0" stroke="#888" stroke-width="1" opacity="1"></line><line transform="translate(0,0)" x2="-5" y2="0" stroke="#888" stroke-width="1" opacity="1"></line></g><g class="mark-text role-axis-label" pointer-events="none"><text text-anchor="end" transform="translate(-7,603)" font-family="sans-serif" font-size="10px" fill="#000" opacity="1">0</text><text text-anchor="end" transform="translate(-7,553)" font-family="sans-serif" font-size="10px" fill="#000" opacity="1">2</text><text text-anchor="end" transform="translate(-7,503)" font-family="sans-serif" font-size="10px" fill="#000" opacity="1">4</text><text text-anchor="end" transform="translate(-7,453)" font-family="sans-serif" font-size="10px" fill="#000" opacity="1">6</text><text text-anchor="end" transform="translate(-7,403.00000000000006)" font-family="sans-serif" font-size="10px" fill="#000" opacity="1">8</text><text text-anchor="end" transform="translate(-7,352.99999999999994)" font-family="sans-serif" font-size="10px" fill="#000" opacity="1">10</text><text text-anchor="end" transform="translate(-7,303)" font-family="sans-serif" font-size="10px" fill="#000" opacity="1">12</text><text text-anchor="end" transform="translate(-7,252.99999999999997)" font-family="sans-serif" font-size="10px" fill="#000" opacity="1">14</text><text text-anchor="end" transform="translate(-7,203.00000000000003)" font-family="sans-serif" font-size="10px" fill="#000" opacity="1">16</text><text text-anchor="end" transform="translate(-7,153)" font-family="sans-serif" font-size="10px" fill="#000" opacity="1">18</text><text text-anchor="end" transform="translate(-7,102.99999999999997)" font-family="sans-serif" font-size="10px" fill="#000" opacity="1">20</text><text text-anchor="end" transform="translate(-7,53.00000000000002)" font-family="sans-serif" font-size="10px" fill="#000" opacity="1">22</text><text text-anchor="end" transform="translate(-7,3)" font-family="sans-serif" font-size="10px" fill="#000" opacity="1">24</text></g><g class="mark-rule role-axis-domain" pointer-events="none"><line transform="translate(0,600)" x2="0" y2="-600" stroke="#888" stroke-width="1" opacity="1"></line></g><g class="mark-text role-axis-title" pointer-events="none"><text text-anchor="middle" transform="translate(-23,300) rotate(-90) translate(0,-2)" font-family="sans-serif" font-size="11px" font-weight="bold" fill="#000" opacity="1">GFLOPS</text></g></g><path class="foreground" aria-hidden="true" d="" pointer-events="none" display="none"></path></g></g><g class="mark-group role-scope pathgroup" role="graphics-object" aria-roledescription="group mark container"><g transform="translate(0,0)"><path class="background" aria-hidden="true" d="M0,0h1200v600h-1200Z"></path><g><g class="mark-line role-mark marks" role="graphics-object" aria-roledescription="line mark container"><path aria-label="Library: OpenBLAS; Size: 2; GFLOPS: 0.0573798487436" role="graphics-symbol" aria-roledescription="line mark" d="M9.230769230769232,598.5655037814101L13.846153846153847,595.6805540555135L18.461538461538463,590.0456596619583L23.076923076923077,583.8163450132021L27.692307692307693,574.4732403734233L32.30769230769231,567.2379304481761L36.92307692307693,543.7318695050653L41.53846153846154,540.7300551931761L46.15384615384615,527.1908279859041L50.769230769230774,523.618626004263L55.38461538461539,492.3784494086728L60,491.64529492996644L64.61538461538461,481.94802959903626L69.23076923076924,482.9831495735386L73.84615384615385,417.09386442797177L78.46153846153847,432.4580548356296L83.07692307692308,425.9831712120308L87.6923076923077,435.04088504088503L92.3076923076923,387.40366728673933L96.92307692307693,409.2263675898375L101.53846153846155,398.0188003203642L106.15384615384616,419.50079738901456L110.76923076923077,351.8330873259664L115.38461538461539,375.2041146638852L120,376.90476946022267L124.61538461538463,393.73484236054975L129.23076923076923,350.06668618457434L133.84615384615384,368.6638421651701L138.46153846153848,370.50573735656604L143.0769230769231,388.5138252937209L147.6923076923077,326.6143834473553L152.3076923076923,342.70433587261584L156.92307692307693,347.45229068945577L161.53846153846152,365.09423624808244L166.15384615384616,323.30684379077206L170.76923076923077,344.07336297493936L175.3846153846154,342.2881833552508L180,362.9894518139683L184.6153846153846,292.89827255278306L189.23076923076923,318.2528002616302L193.84615384615387,320.5491852745927L198.46153846153845,333.162169418714L203.0769230769231,287.2145112726739L207.69230769230768,313.1005604181097L212.30769230769232,315.6744756674651L216.9230769230769,332.64922490601015L221.53846153846155,245.87896253602304L226.15384615384616,274.33704257321597L230.76923076923077,277.1694214876033L235.3846153846154,297.1714911880194L240,251.0967741935483L244.6153846153846,276.41062423926275L249.23076923076925,282.5066537624001L253.84615384615384,299.9549143372408L258.46153846153845,223.545551982851L263.0769230769231,252.66326568888553L267.6923076923077,258.3096914293719L272.3076923076923,280.1249104445067L276.92307692307696,233.97275130481933L281.53846153846155,260.3402867147517L286.1538461538462,265.48578165791764L290.7692307692308,284.80940856148845L295.3846153846154,219.29768509105696L300,236.23900604005507L304.6153846153846,239.15957526922202L309.23076923076917,259.87809291174744L313.84615384615387,216.30302142822276L318.46153846153845,245.62900476796614L323.07692307692304,244.2130157873991L327.6923076923077,266.7371224254162L332.3076923076923,176.6915417243178L336.9230769230769,207.12496717768488L341.53846153846155,213.4096546460599L346.15384615384613,235.73056797969156L350.7692307692308,193.14895825609844L355.3846153846154,217.2914745578003L360,222.91054145542958L364.6153846153846,244.38489945471852L369.2307692307692,175.470133660575L373.84615384615387,201.29565165201205L378.46153846153845,207.34927575451135L383.07692307692304,228.8013347355847L387.69230769230774,186.9428260808965L392.3076923076923,214.33514613346054L396.9230769230769,213.05284162114145L401.5384615384615,233.3583884546001L406.1538461538462,162.18792963881424L410.7692307692308,189.9674286046646L415.38461538461536,194.3238731218698L420,215.48576385345444L424.61538461538464,175.73472523401142L429.2307692307692,200.34730503219646L433.8461538461538,205.50199010173736L438.46153846153845,226.18808859434944L443.0769230769231,147.39405348994254L447.6923076923077,171.43051681552228L452.3076923076923,178.85486209303573L456.9230769230769,199.0334311335179L461.53846153846155,161.38042353106303L466.1538461538462,185.19164183911744L470.7692307692308,192.65150700916644L475.38461538461536,212.00734281128823L480,146.98111991752046L484.61538461538464,173.24468594937736L489.2307692307692,177.91134485349363L493.8461538461538,193.13873316151654L498.4615384615385,156.28007242037626L503.0769230769231,177.32936891302643L507.6923076923077,182.1350981401714L512.3076923076923,202.6707843558799L516.9230769230769,140.39858154172282L521.5384615384615,165.3427199498737L526.1538461538462,172.3124177270733L530.7692307692307,190.26606606930224L535.3846153846154,154.60999383660143L540,176.80114360001485L544.6153846153846,181.7894886884278L549.2307692307692,199.55920023952896L553.8461538461539,127.98234304320262L558.4615384615385,150.57055152468413L563.0769230769231,156.03823867387098L567.6923076923076,176.64655537203612L572.3076923076924,141.18722867676067L576.9230769230769,164.21747123974757L581.5384615384615,170.62788161860024L586.1538461538462,192.98527629304348L590.7692307692308,144.38066767183884L595.3846153846154,156.6377658080399L600,151.54296165355515L604.6153846153846,169.40051792431862L609.2307692307692,134.81869812145038L613.8461538461538,155.46038584358402L618.4615384615383,159.582958098125L623.0769230769231,176.50712943136668L627.6923076923077,122.57515942909191L632.3076923076924,143.69800539466206L636.9230769230769,148.09026941886137L641.5384615384615,166.06015265991482L646.1538461538461,133.99271778707674L650.7692307692307,153.1163017590174L655.3846153846154,157.4762455257512L660,174.5085514234911L664.6153846153846,109.40224302627806L669.2307692307693,129.46056490199106L673.8461538461538,135.31066528898472L678.4615384615385,152.38678349289367L683.0769230769231,121.04154293025549L687.6923076923076,139.52529169879924L692.3076923076923,140.6425831811215L696.923076923077,157.43855725230088L701.5384615384615,104.5613322272821L706.1538461538462,125.1711547843794L710.7692307692308,129.0439716312057L715.3846153846154,147.3141847127099L720,115.85219041400553L724.6153846153845,135.08767503772268L729.2307692307692,139.67513718789903L733.8461538461539,156.38655721856435L738.4615384615385,105.61374625528954L743.0769230769231,125.07596224534151L747.6923076923077,129.05536983005558L752.3076923076923,147.4152777951953L756.9230769230769,115.804448815786L761.5384615384615,134.99500019667963L766.1538461538461,139.09610645042318L770.7692307692308,155.88392911631865L775.3846153846155,93.7247750306437L780,114.53642277534829L784.6153846153846,118.6240466541774L789.2307692307692,136.40452375919273L793.8461538461538,100.37919922392769L798.4615384615385,121.70309976979897L803.076923076923,123.38600672033519L807.6923076923077,140.73732252911856L812.3076923076924,90.16898431728279L816.9230769230769,110.88678805925906L821.5384615384615,112.73830650108255L826.1538461538462,130.2498742765783L830.7692307692307,100.30331383213891L835.3846153846154,119.85747322258521L840,122.91969693852194L844.6153846153846,139.47327684413972L849.2307692307693,90.37659505192354L853.8461538461539,110.64971821276093L858.4615384615385,113.26387512650886L863.0769230769231,130.2910826314376L867.6923076923076,100.8374625515713L872.3076923076923,119.97052106471135L876.9230769230769,122.35176470096667L881.5384615384617,139.6399902217935L886.1538461538462,83.52417507041639L890.7692307692308,98.54796993404233L895.3846153846154,97.81114675441145L900,117.67586751506845L904.6153846153846,85.19794777548049L909.2307692307692,106.82585512676113L913.8461538461538,107.40367505768447L918.4615384615383,125.37434156718155L923.0769230769231,76.60694751937855L927.6923076923077,97.19322078394903L932.3076923076924,98.17483984642801L936.9230769230769,118.06059970595422L941.5384615384615,87.15765361414125L946.1538461538461,107.529290578083L950.7692307692307,109.04120052118431L955.3846153846154,125.62942830004611L960,78.55549361848585L964.6153846153846,98.24736409363506L969.2307692307693,99.35452900078492L973.8461538461538,117.63955898150024L978.4615384615385,87.99325931331401L983.0769230769231,106.88084021538116L987.6923076923076,106.70932306787842L992.3076923076923,122.71347656831544L996.923076923077,64.64545370514976L1001.5384615384615,85.34331052420036L1006.1538461538462,85.3807699643947L1010.7692307692308,106.49803228037456L1015.3846153846154,74.63775266529558L1020,94.61264374274263L1024.6153846153845,95.55503917142481L1029.2307692307693,113.05934497118642L1033.8461538461538,67.32537187239036L1038.4615384615386,87.65422380950237L1043.076923076923,87.68537446818702L1047.6923076923076,107.03002977943991L1052.3076923076924,77.84511333578861L1056.923076923077,97.08321398000217L1061.5384615384614,96.85675035708402L1066.1538461538462,115.29181055534015L1070.7692307692307,69.60031329986818L1075.3846153846155,88.98257359440625L1080,88.48681505304394L1084.6153846153845,105.33981248623067L1089.2307692307693,75.25615895308778L1093.8461538461538,96.659293541142L1098.4615384615383,97.56213913979428L1103.076923076923,113.56035172660019L1107.6923076923078,56.22672324677958L1112.3076923076924,79.04841762706208L1116.923076923077,79.10202221421795L1121.5384615384617,96.5299322596966L1126.1538461538462,67.90753826566115L1130.7692307692307,87.49932043531163L1135.3846153846152,85.79564373398176L1140,105.83184561482663L1144.6153846153848,60.37479790135809L1149.2307692307693,81.29671042994089L1153.8461538461538,79.2215219996827L1158.4615384615386,97.37452044257546L1163.076923076923,70.35512632965515L1167.6923076923076,90.63484295000224L1172.3076923076924,92.01007854019888L1176.923076923077,114.09263591970114L1181.5384615384617,74.09253369594995" stroke="#f58518" stroke-width="2"></path></g></g><path class="foreground" aria-hidden="true" d="" display="none"></path></g><g transform="translate(0,0)"><path class="background" aria-hidden="true" d="M0,0h1200v600h-1200Z"></path><g><g class="mark-line role-mark marks" role="graphics-object" aria-roledescription="line mark container"><path aria-label="Library: MKL; Size: 2; GFLOPS: 0.0381431566337" role="graphics-symbol" aria-roledescription="line mark" d="M9.230769230769232,599.0464210841569L13.846153846153847,596.8064619664063L18.461538461538463,592.4284219537716L23.076923076923077,585.8273397773604L27.692307692307693,569.3737352220684L32.30769230769231,563.923799302388L36.92307692307693,546.873836002767L41.53846153846154,535.6080861710052L46.15384615384615,517.7447094892694L50.769230769230774,496.1417330237193L55.38461538461539,464.51576555428267L60,460.044467205436L64.61538461538461,435.8223243346735L69.23076923076924,402.7036901717209L73.84615384615385,367.1251448689072L78.46153846153847,388.0317542497196L83.07692307692308,352.01972956884094L87.6923076923077,354.8956546598056L92.3076923076923,323.45132743362825L96.92307692307693,321.18858381502895L101.53846153846155,300.29272686331905L106.15384615384616,275.9269124227573L110.76923076923077,175.40389458811967L115.38461538461539,276.4265991716521L120,258.61533149171265L124.61538461538463,228.84051290647L129.23076923076923,187.88485607008752L133.84615384615384,215.80025204788905L138.46153846153848,185.15787047706834L143.0769230769231,182.65681364480085L147.6923076923077,122.73240359756758L152.3076923076923,189.5460775355697L156.92307692307693,170.27364738223162L161.53846153846152,155.3835441912832L166.15384615384616,97.31876250577184L170.76923076923077,170.30030539531725L175.3846153846154,157.56950267690127L180,126.10008628127696L184.6153846153846,64.64421146553639L189.23076923076923,139.63663081958455L193.84615384615387,114.60674157303379L198.46153846153845,136.18597596546488L203.0769230769231,88.77330559334247L207.69230769230768,122.15521761929722L212.30769230769232,111.31639722863741L216.9230769230769,103.66669853714494L221.53846153846155,33.15222962583297L226.15384615384616,134.28469638191743L230.76923076923077,119.1937841372413L235.3846153846154,102.06081081081078L240,58.49187398906255L244.6153846153846,100.11080518433957L249.23076923076925,81.8558736426455L253.84615384615384,88.8004670312788L258.46153846153845,37.92088080911533L263.0769230769231,106.62563938618928L267.6923076923077,94.42371475953557L272.3076923076923,89.76696810096394L276.92307692307696,40.530460008288394L281.53846153846155,86.18933357479168L286.1538461538462,77.62581097667889L290.7692307692308,64.24622900239967L295.3846153846154,32.63786685135488L300,86.73980488169546L304.6153846153846,72.77461947551795L309.23076923076917,76.13216749111686L313.84615384615387,47.065030070692515L318.46153846153845,72.44419463626149L323.07692307692304,57.312828302006146L327.6923076923077,51.359678705009394L332.3076923076923,105.78888830040782L336.9230769230769,143.11770370892347L341.53846153846155,150.0910423235777L346.15384615384613,168.4761261814164L350.7692307692308,123.08026595975832L355.3846153846154,142.62543079265845L360,153.6148998212774L364.6153846153846,175.47873256414672L369.2307692307692,108.80693810199926L373.84615384615387,137.60397452406642L378.46153846153845,147.53237374649177L383.07692307692304,166.683591500197L387.69230769230774,107.13964975303097L392.3076923076923,139.18044841972562L396.9230769230769,143.2338494240657L401.5384615384615,160.15937053314983L406.1538461538462,114.57959369746702L410.7692307692308,137.30654625168998L415.38461538461536,147.21059365722164L420,163.37505069818633L424.61538461538464,105.3625195329869L429.2307692307692,132.62231260894833L433.8461538461538,141.46341463414632L438.46153846153845,157.0128756251808L443.0769230769231,112.68713440629232L447.6923076923077,130.81727704550596L452.3076923076923,134.40910215186733L456.9230769230769,151.51835897056642L461.53846153846155,105.98743232027827L466.1538461538462,129.4913597837207L470.7692307692308,138.04283475535425L475.38461538461536,157.86890552296174L480,108.10564981633719L484.61538461538464,127.48842828803977L489.2307692307692,131.50184879238455L493.8461538461538,148.79375626141777L498.4615384615385,160.9474550042521L503.0769230769231,172.41423713144252L507.6923076923077,110.00964518955365L512.3076923076923,127.47761132148483L516.9230769230769,83.8808273024503L521.5384615384615,107.70162473472669L526.1538461538462,118.50710761850908L530.7692307692307,135.02005601007696L535.3846153846154,79.88164103110913L540,107.51725028596735L544.6153846153846,112.69634128980218L549.2307692307692,128.89041095890417L553.8461538461539,74.20628883357772L558.4615384615385,99.53641972518534L563.0769230769231,105.80563690003156L567.6923076923076,124.17229211414539L572.3076923076924,81.6505630379582L576.9230769230769,104.35092652276087L581.5384615384615,111.52916355325031L586.1538461538462,128.3983276005765L590.7692307692308,79.37718462027323L595.3846153846154,102.86720671400182L600,108.74729442069295L604.6153846153846,127.97971738719627L609.2307692307692,77.93258426966281L613.8461538461538,97.81270411844305L618.4615384615383,106.10587679865343L623.0769230769231,120.21703944930869L627.6923076923077,79.16283615341932L632.3076923076924,106.68540403652817L636.9230769230769,109.23758375225015L641.5384615384615,125.27752048702192L646.1538461538461,74.53686859208808L650.7692307692307,95.12618148809864L655.3846153846154,102.3224931778283L660,115.89823987497682L664.6153846153846,60.90667822130751L669.2307692307693,89.0481282346947L673.8461538461538,91.27323252962805L678.4615384615385,111.70080303999212L683.0769230769231,88.0869139545533L687.6923076923076,107.19714801594627L692.3076923076923,111.74276728285928L696.923076923077,126.50391812238186L701.5384615384615,127.39203574360418L706.1538461538462,77.68799328001673L710.7692307692308,84.24111820644116L715.3846153846154,102.46438038436054L720,47.94981488859864L724.6153846153845,78.70399806024027L729.2307692307692,77.5745695364239L733.8461538461539,99.63166464179729L738.4615384615385,59.68478094544602L743.0769230769231,76.88692844375244L747.6923076923077,87.70475407821203L752.3076923076923,98.84662028615206L756.9230769230769,51.119799508726715L761.5384615384615,79.68668558522032L766.1538461538461,78.98820452774828L770.7692307692308,99.33534424932479L775.3846153846155,49.976452246780426L780,67.74016046719859L784.6153846153846,76.48609539397259L789.2307692307692,89.56083667656875L793.8461538461538,50.48208176383176L798.4615384615385,81.67057754143461L803.076923076923,77.28211753359248L807.6923076923077,93.67540052490062L812.3076923076924,46.75722685306389L816.9230769230769,71.38013082911188L821.5384615384615,77.42719796002329L826.1538461538462,93.3499821556661L830.7692307692307,41.230519237881346L835.3846153846154,66.25552445160527L840,67.37229359970446L844.6153846153846,83.90123826911807L849.2307692307693,46.954545454545446L853.8461538461539,70.3395147447073L858.4615384615385,72.11750016817138L863.0769230769231,89.0648904168456L867.6923076923076,43.18888769709312L872.3076923076923,65.24432552657593L876.9230769230769,68.90224828026223L881.5384615384617,85.49410611068285L886.1538461538462,66.83781157487958L890.7692307692308,45.78059592182857L895.3846153846154,50.07441417665382L900,65.81943167704544L904.6153846153846,22.29185496406929L909.2307692307692,50.272944681964724L913.8461538461538,53.27028157764613L918.4615384615383,71.09860845077225L923.0769230769231,20.320939311949914L927.6923076923077,48.05801486870595L932.3076923076924,48.380559756930076L936.9230769230769,64.32675104663863L941.5384615384615,15.453299824422473L946.1538461538461,40.8798210841387L950.7692307692307,44.36644873915172L955.3846153846154,60.16400047716311L960,20.84564185140696L964.6153846153846,46.86221191399733L969.2307692307693,47.991645665592905L973.8461538461538,65.22325982803213L978.4615384615385,16.23372883661256L983.0769230769231,40.87213466841473L987.6923076923076,45.246381208776995L992.3076923076923,61.55006831955563L996.923076923077,15.25692800445617L1001.5384615384615,37.23389490728239L1006.1538461538462,38.80804631571644L1010.7692307692308,55.44130501731124L1015.3846153846154,18.921927729779053L1020,40.624773272361296L1024.6153846153845,42.755032295721016L1029.2307692307693,59.16159458457706L1033.8461538461538,12.5916696630904L1038.4615384615386,41.23777437448057L1043.076923076923,40.04036033239065L1047.6923076923076,56.11507011355614L1052.3076923076924,11.793945409429263L1056.923076923077,35.75637094553758L1061.5384615384614,35.30960275350967L1066.1538461538462,51.37086171120926L1070.7692307692307,11.822736205080542L1075.3846153846155,38.95377357737389L1080,38.68588516390075L1084.6153846153845,53.89427042130244L1089.2307692307693,9.424226793933354L1093.8461538461538,32.186236372012125L1098.4615384615383,39.60193876108838L1103.076923076923,53.93066654293497L1107.6923076923078,7.760801168027331L1112.3076923076924,30.281311789811504L1116.923076923077,33.93915574684547L1121.5384615384617,47.18683349154868L1126.1538461538462,13.55587349057108L1130.7692307692307,31.297439816110995L1135.3846153846152,33.027661300458064L1140,52.661574861378504L1144.6153846153848,9.581407591487178L1149.2307692307693,33.83854793921726L1153.8461538461538,33.976070862935615L1158.4615384615386,49.21216262908279L1163.076923076923,9.473947566715001L1167.6923076923076,27.48043376966256L1172.3076923076924,32.17782705868084L1176.923076923077,50.4947788076924L1181.5384615384617,17.55930042749494" stroke="#4c78a8" stroke-width="2"></path></g></g><path class="foreground" aria-hidden="true" d="" display="none"></path></g><g transform="translate(0,0)"><path class="background" aria-hidden="true" d="M0,0h1200v600h-1200Z"></path><g><g class="mark-line role-mark marks" role="graphics-object" aria-roledescription="line mark container"><path aria-label="Library: PaddedMatrices; Size: 2; GFLOPS: 0.15635233333" role="graphics-symbol" aria-roledescription="line mark" d="M9.230769230769232,596.0911916667533L13.846153846153847,587.1770777248393L18.461538461538463,571.2744070494158L23.076923076923077,549.454240890506L27.692307692307693,522.375312087561L32.30769230769231,501.70627107430107L36.92307692307693,435.9890309898804L41.53846153846154,440.07363461208297L46.15384615384615,397.487362788435L50.769230769230774,356.3516389953172L55.38461538461539,310.6602556584965L60,338.2958218604093L64.61538461538461,275.2836516733665L69.23076923076924,244.54976303317528L73.84615384615385,164.95897863854594L78.46153846153847,253.95654598280228L83.07692307692308,218.44289108501772L87.6923076923077,255.87423697633585L92.3076923076923,182.39463706797076L96.92307692307693,187.52004275788343L101.53846153846155,150.8310132455918L106.15384615384616,148.8021953571163L110.76923076923077,65.8423493044823L115.38461538461539,203.84868921454282L120,189.814334612592L124.61538461538463,169.0483141147277L129.23076923076923,97.76806141644201L133.84615384615384,145.52776512484974L138.46153846153848,99.7735600477582L143.0769230769231,121.16049184280307L147.6923076923077,71.99484369964544L152.3076923076923,159.67267635217922L156.92307692307693,129.7761066484362L161.53846153846152,123.23272438443207L166.15384615384616,66.64924715027603L170.76923076923077,188.98896462187594L175.3846153846154,133.22936456177155L180,120.21255944870425L184.6153846153846,65.34488039876358L189.23076923076923,129.5494880546075L193.84615384615387,119.90668740279943L198.46153846153845,147.243840400896L203.0769230769231,96.84583579444768L207.69230769230768,128.92369727047137L212.30769230769232,94.83080755657049L216.9230769230769,100.9949053157743L221.53846153846155,45.82080577269991L226.15384615384616,172.09209282025174L230.76923076923077,119.63723003612327L235.3846153846154,108.77277440379206L240,66.9901440485216L244.6153846153846,148.2004127215343L249.23076923076925,134.59833303777265L253.84615384615384,144.55242266630165L258.46153846153845,51.337165708572854L263.0769230769231,129.8954155455146L267.6923076923077,120.32648244665154L272.3076923076923,108.33333333333329L276.92307692307696,48.52941176470591L281.53846153846155,145.3651404078036L286.1538461538462,129.14493440809224L290.7692307692308,125.65352657737974L295.3846153846154,31.431917754739015L300,115.92575618698436L304.6153846153846,98.12163955031063L309.23076923076917,110.66803332031763L313.84615384615387,58.995182381280145L318.46153846153845,137.3503647579078L323.07692307692304,110.83856246434681L327.6923076923077,105.18304484875287L332.3076923076923,18.870274646571538L336.9230769230769,118.50756244275561L341.53846153846155,106.67867838620924L346.15384615384613,99.27004700185161L350.7692307692308,39.35221844746985L355.3846153846154,104.9415515409139L360,93.53027812760138L364.6153846153846,108.15127391712053L369.2307692307692,30.984663258501865L373.84615384615387,104.56706566730058L378.46153846153845,97.28477908058136L383.07692307692304,94.89673327326375L387.69230769230774,30.989593333589305L392.3076923076923,107.45484585030944L396.9230769230769,95.9856733070254L401.5384615384615,85.46413502109704L406.1538461538462,15.276371561443568L410.7692307692308,97.39131054740406L415.38461538461536,83.0887045309508L420,98.71547549358732L424.61538461538464,40.20359160903509L429.2307692307692,101.22344449542986L433.8461538461538,87.82497163435438L438.46153846153845,84.7567937885362L443.0769230769231,8.55148808727979L447.6923076923077,105.68530173207537L452.3076923076923,93.5471373224279L456.9230769230769,86.9725905716642L461.53846153846155,28.832533698880525L466.1538461538462,91.3751567390381L470.7692307692308,78.34755594006833L475.38461538461536,93.94387069883756L480,21.85993441814078L484.61538461538464,96.97347609198196L489.2307692307692,84.67189920300446L493.8461538461538,82.23472329058924L498.4615384615385,22.94985845296884L503.0769230769231,103.45883976841372L507.6923076923077,88.52937785804862L512.3076923076923,85.16397885892395L516.9230769230769,11.893340030976617L521.5384615384615,86.37826331489428L526.1538461538462,94.36393793983741L530.7692307692307,100.30391641477196L535.3846153846154,31.292992887956018L540,102.61083713245797L544.6153846153846,90.0520180262946L549.2307692307692,89.28075694482318L553.8461538461539,5.2167448008095585L558.4615384615385,104.37250656057833L563.0769230769231,96.8221771467207L567.6923076923076,89.4908809586515L572.3076923076924,19.911280949744082L576.9230769230769,101.29073936001805L581.5384615384615,93.46797800038482L586.1538461538462,104.06911712723776L590.7692307692308,18.45932005989681L595.3846153846154,93.70542452830189L600,73.31325994399907L604.6153846153846,76.50394236187752L609.2307692307692,54.84436775288452L613.8461538461538,97.59393004950087L618.4615384615383,89.37322529848943L623.0769230769231,85.01000519097775L627.6923076923077,62.74588535815431L632.3076923076924,77.26315404287843L636.9230769230769,68.18463281866565L641.5384615384615,75.59614002749318L646.1538461538461,60.02747090563465L650.7692307692307,81.33642940403728L655.3846153846154,67.1386193522933L660,68.45163870357915L664.6153846153846,45.53267029628687L669.2307692307693,89.662255136648L673.8461538461538,75.61055338192821L678.4615384615385,78.37089999047564L683.0769230769231,61.66625151530243L687.6923076923076,80.86173885750154L692.3076923076923,70.03957037874497L696.923076923077,78.61724842886346L701.5384615384615,56.325974548719685L706.1538461538462,80.71713574862696L710.7692307692308,71.12021153662357L715.3846153846154,71.14264857925167L720,56.03072029344751L724.6153846153845,82.7618607187537L729.2307692307692,73.64257499733104L733.8461538461539,71.49263975008292L738.4615384615385,47.319987694234044L743.0769230769231,74.20316842760417L747.6923076923077,66.98393753541714L752.3076923076923,75.37129552458663L756.9230769230769,62.283283149053425L761.5384615384615,74.92092473062975L766.1538461538461,65.77939307870547L770.7692307692308,64.84765128586953L775.3846153846155,44.664524168688956L780,78.9995142749204L784.6153846153846,67.65283987110102L789.2307692307692,85.07808976151875L793.8461538461538,68.93324260350084L798.4615384615385,83.19369417927305L803.076923076923,75.40196096004583L807.6923076923077,83.3291557809291L812.3076923076924,63.94182172875054L816.9230769230769,83.14797657905864L821.5384615384615,77.10257584663968L826.1538461538462,74.63185182471055L830.7692307692307,62.68755723685786L835.3846153846154,87.34995902078701L840,82.00969550745026L844.6153846153846,76.6450042698548L849.2307692307693,59.809955896864864L853.8461538461539,78.62027111375338L858.4615384615385,71.08830844748823L863.0769230769231,81.05352625046416L867.6923076923076,68.69826648755823L872.3076923076923,88.80666743394343L876.9230769230769,78.7629530331907L881.5384615384617,77.46323501841061L886.1538461538462,67.17174986938798L890.7692307692308,84.00292556322108L895.3846153846154,76.99920347034788L900,72.26140689011177L904.6153846153846,62.72785524582609L909.2307692307692,79.18596207269101L913.8461538461538,72.78034891729138L918.4615384615383,83.16349417881712L923.0769230769231,61.844796039177716L927.6923076923077,80.61394307643116L932.3076923076924,72.68027914189712L936.9230769230769,71.52395488377918L941.5384615384615,62.172301727578485L946.1538461538461,89.56360839817125L950.7692307692307,82.75359334653987L955.3846153846154,80.58168338574505L960,66.39026293537435L964.6153846153846,84.59608106155032L969.2307692307693,75.9459116877473L973.8461538461538,80.7073686584639L978.4615384615385,73.60677274680974L983.0769230769231,97.48226242254422L987.6923076923076,90.74836577533434L992.3076923076923,87.81928917895436L996.923076923077,74.09887531623897L1001.5384615384615,91.10263694188848L1006.1538461538462,83.23380652627168L1010.7692307692308,82.33168752593645L1015.3846153846154,72.42467633491705L1020,91.30623909574432L1024.6153846153845,86.5715178664444L1029.2307692307693,94.45902724466224L1033.8461538461538,80.06646608416315L1038.4615384615386,90.92952330556751L1043.076923076923,85.54502961090454L1047.6923076923076,84.04767176895804L1052.3076923076924,65.47799333806556L1056.923076923077,90.29617940368533L1061.5384615384614,83.85777602812716L1066.1538461538462,84.04115317288291L1070.7692307692307,69.10105098466029L1075.3846153846155,78.26683945944791L1080,72.5298502670098L1084.6153846153845,81.98402269744498L1089.2307692307693,72.03299488511803L1093.8461538461538,89.70274690016345L1098.4615384615383,86.54822335025374L1103.076923076923,82.03191752527246L1107.6923076923078,70.62026730919307L1112.3076923076924,102.3266438928931L1116.923076923077,96.01405365423457L1121.5384615384617,92.69506565061236L1126.1538461538462,80.16480956508103L1130.7692307692307,91.48136519460542L1135.3846153846152,85.1280320233964L1140,95.23909214723021L1144.6153846153848,77.29105510293451L1149.2307692307693,95.45567742104157L1153.8461538461538,87.98526708326911L1158.4615384615386,88.06139798814847L1163.076923076923,77.515242260027L1167.6923076923076,101.95790487601745L1172.3076923076924,96.41483921722885L1176.923076923077,98.44357988423414L1181.5384615384617,85.70286472415238" stroke="#e45756" stroke-width="2"></path></g></g><path class="foreground" aria-hidden="true" d="" display="none"></path></g></g><g class="mark-group role-legend" role="graphics-symbol" aria-roledescription="legend" aria-label="Symbol legend titled 'Library' for stroke color with 3 values: MKL, OpenBLAS, PaddedMatrices"><g transform="translate(1218,0)"><path class="background" aria-hidden="true" d="M0,0h95v53h-95Z" pointer-events="none"></path><g><g class="mark-group role-legend-entry"><g transform="translate(0,16)"><path class="background" aria-hidden="true" d="M0,0h0v0h0Z" pointer-events="none"></path><g><g class="mark-group role-scope" role="graphics-object" aria-roledescription="group mark container"><g transform="translate(0,0)"><path class="background" aria-hidden="true" d="M0,0h95v11h-95Z" pointer-events="none" opacity="1"></path><g><g class="mark-symbol role-legend-symbol" pointer-events="none"><path transform="translate(6,6)" d="M-5,0L5,0" stroke="#4c78a8" stroke-width="1.5" opacity="1"></path></g><g class="mark-text role-legend-label" pointer-events="none"><text text-anchor="start" transform="translate(16,9)" font-family="sans-serif" font-size="10px" fill="#000" opacity="1">MKL</text></g></g><path class="foreground" aria-hidden="true" d="" pointer-events="none" display="none"></path></g><g transform="translate(0,13)"><path class="background" aria-hidden="true" d="M0,0h95v11h-95Z" pointer-events="none" opacity="1"></path><g><g class="mark-symbol role-legend-symbol" pointer-events="none"><path transform="translate(6,6)" d="M-5,0L5,0" stroke="#f58518" stroke-width="1.5" opacity="1"></path></g><g class="mark-text role-legend-label" pointer-events="none"><text text-anchor="start" transform="translate(16,9)" font-family="sans-serif" font-size="10px" fill="#000" opacity="1">OpenBLAS</text></g></g><path class="foreground" aria-hidden="true" d="" pointer-events="none" display="none"></path></g><g transform="translate(0,26)"><path class="background" aria-hidden="true" d="M0,0h95v11h-95Z" pointer-events="none" opacity="1"></path><g><g class="mark-symbol role-legend-symbol" pointer-events="none"><path transform="translate(6,6)" d="M-5,0L5,0" stroke="#e45756" stroke-width="1.5" opacity="1"></path></g><g class="mark-text role-legend-label" pointer-events="none"><text text-anchor="start" transform="translate(16,9)" font-family="sans-serif" font-size="10px" fill="#000" opacity="1">PaddedMatrices</text></g></g><path class="foreground" aria-hidden="true" d="" pointer-events="none" display="none"></path></g></g></g><path class="foreground" aria-hidden="true" d="" pointer-events="none" display="none"></path></g></g><g class="mark-text role-legend-title" pointer-events="none"><text text-anchor="start" transform="translate(0,9)" font-family="sans-serif" font-size="11px" font-weight="bold" fill="#000" opacity="1">Library</text></g></g><path class="foreground" aria-hidden="true" d="" pointer-events="none" display="none"></path></g></g></g><path class="foreground" aria-hidden="true" d="" display="none"></path></g></g></g></svg>
