<?xml version="1.0" encoding="utf-8"?>
<!DOCTYPE svg PUBLIC "-//W3C//DTD SVG 1.1//EN" "http://www.w3.org/Graphics/SVG/1.1/DTD/svg11.dtd">
<svg class="marks" width="1357" height="647" viewBox="0 0 1357 647" version="1.1" xmlns="http://www.w3.org/2000/svg" xmlns:xlink="http://www.w3.org/1999/xlink"><rect width="1357" height="647" fill="white"></rect><g fill="none" stroke-miterlimit="10" transform="translate(45,10)"><g class="mark-group role-frame root" role="graphics-object" aria-roledescription="group mark container"><g transform="translate(0,0)"><path class="background" aria-hidden="true" d="M0.5,0.5h1200v600h-1200Z" stroke="#ddd"></path><g><g class="mark-group role-axis" aria-hidden="true"><g transform="translate(0.5,600.5)"><path class="background" aria-hidden="true" d="M0,0h0v0h0Z" pointer-events="none"></path><g><g class="mark-rule role-axis-grid" pointer-events="none"><line transform="translate(0,-600)" x2="0" y2="600" stroke="#ddd" stroke-width="1" opacity="1"></line><line transform="translate(46,-600)" x2="0" y2="600" stroke="#ddd" stroke-width="1" opacity="1"></line><line transform="translate(92,-600)" x2="0" y2="600" stroke="#ddd" stroke-width="1" opacity="1"></line><line transform="translate(138,-600)" x2="0" y2="600" stroke="#ddd" stroke-width="1" opacity="1"></line><line transform="translate(185,-600)" x2="0" y2="600" stroke="#ddd" stroke-width="1" opacity="1"></line><line transform="translate(231,-600)" x2="0" y2="600" stroke="#ddd" stroke-width="1" opacity="1"></line><line transform="translate(277,-600)" x2="0" y2="600" stroke="#ddd" stroke-width="1" opacity="1"></line><line transform="translate(323,-600)" x2="0" y2="600" stroke="#ddd" stroke-width="1" opacity="1"></line><line transform="translate(369,-600)" x2="0" y2="600" stroke="#ddd" stroke-width="1" opacity="1"></line><line transform="translate(415,-600)" x2="0" y2="600" stroke="#ddd" stroke-width="1" opacity="1"></line><line transform="translate(462,-600)" x2="0" y2="600" stroke="#ddd" stroke-width="1" opacity="1"></line><line transform="translate(508,-600)" x2="0" y2="600" stroke="#ddd" stroke-width="1" opacity="1"></line><line transform="translate(554,-600)" x2="0" y2="600" stroke="#ddd" stroke-width="1" opacity="1"></line><line transform="translate(600,-600)" x2="0" y2="600" stroke="#ddd" stroke-width="1" opacity="1"></line><line transform="translate(646,-600)" x2="0" y2="600" stroke="#ddd" stroke-width="1" opacity="1"></line><line transform="translate(692,-600)" x2="0" y2="600" stroke="#ddd" stroke-width="1" opacity="1"></line><line transform="translate(738,-600)" x2="0" y2="600" stroke="#ddd" stroke-width="1" opacity="1"></line><line transform="translate(785,-600)" x2="0" y2="600" stroke="#ddd" stroke-width="1" opacity="1"></line><line transform="translate(831,-600)" x2="0" y2="600" stroke="#ddd" stroke-width="1" opacity="1"></line><line transform="translate(877,-600)" x2="0" y2="600" stroke="#ddd" stroke-width="1" opacity="1"></line><line transform="translate(923,-600)" x2="0" y2="600" stroke="#ddd" stroke-width="1" opacity="1"></line><line transform="translate(969,-600)" x2="0" y2="600" stroke="#ddd" stroke-width="1" opacity="1"></line><line transform="translate(1015,-600)" x2="0" y2="600" stroke="#ddd" stroke-width="1" opacity="1"></line><line transform="translate(1062,-600)" x2="0" y2="600" stroke="#ddd" stroke-width="1" opacity="1"></line><line transform="translate(1108,-600)" x2="0" y2="600" stroke="#ddd" stroke-width="1" opacity="1"></line><line transform="translate(1154,-600)" x2="0" y2="600" stroke="#ddd" stroke-width="1" opacity="1"></line><line transform="translate(1200,-600)" x2="0" y2="600" stroke="#ddd" stroke-width="1" opacity="1"></line></g></g><path class="foreground" aria-hidden="true" d="" pointer-events="none" display="none"></path></g></g><g class="mark-group role-axis" aria-hidden="true"><g transform="translate(0.5,0.5)"><path class="background" aria-hidden="true" d="M0,0h0v0h0Z" pointer-events="none"></path><g><g class="mark-rule role-axis-grid" pointer-events="none"><line transform="translate(0,600)" x2="1200" y2="0" stroke="#ddd" stroke-width="1" opacity="1"></line><line transform="translate(0,554)" x2="1200" y2="0" stroke="#ddd" stroke-width="1" opacity="1"></line><line transform="translate(0,508)" x2="1200" y2="0" stroke="#ddd" stroke-width="1" opacity="1"></line><line transform="translate(0,462)" x2="1200" y2="0" stroke="#ddd" stroke-width="1" opacity="1"></line><line transform="translate(0,415)" x2="1200" y2="0" stroke="#ddd" stroke-width="1" opacity="1"></line><line transform="translate(0,369)" x2="1200" y2="0" stroke="#ddd" stroke-width="1" opacity="1"></line><line transform="translate(0,323)" x2="1200" y2="0" stroke="#ddd" stroke-width="1" opacity="1"></line><line transform="translate(0,277)" x2="1200" y2="0" stroke="#ddd" stroke-width="1" opacity="1"></line><line transform="translate(0,231)" x2="1200" y2="0" stroke="#ddd" stroke-width="1" opacity="1"></line><line transform="translate(0,185)" x2="1200" y2="0" stroke="#ddd" stroke-width="1" opacity="1"></line><line transform="translate(0,138)" x2="1200" y2="0" stroke="#ddd" stroke-width="1" opacity="1"></line><line transform="translate(0,92)" x2="1200" y2="0" stroke="#ddd" stroke-width="1" opacity="1"></line><line transform="translate(0,46)" x2="1200" y2="0" stroke="#ddd" stroke-width="1" opacity="1"></line><line transform="translate(0,0)" x2="1200" y2="0" stroke="#ddd" stroke-width="1" opacity="1"></line></g></g><path class="foreground" aria-hidden="true" d="" pointer-events="none" display="none"></path></g></g><g class="mark-group role-axis" role="graphics-symbol" aria-roledescription="axis" aria-label="X-axis titled 'Size' for a linear scale with values from 0 to 260"><g transform="translate(0.5,600.5)"><path class="background" aria-hidden="true" d="M0,0h0v0h0Z" pointer-events="none"></path><g><g class="mark-rule role-axis-tick" pointer-events="none"><line transform="translate(0,0)" x2="0" y2="5" stroke="#888" stroke-width="1" opacity="1"></line><line transform="translate(46,0)" x2="0" y2="5" stroke="#888" stroke-width="1" opacity="1"></line><line transform="translate(92,0)" x2="0" y2="5" stroke="#888" stroke-width="1" opacity="1"></line><line transform="translate(138,0)" x2="0" y2="5" stroke="#888" stroke-width="1" opacity="1"></line><line transform="translate(185,0)" x2="0" y2="5" stroke="#888" stroke-width="1" opacity="1"></line><line transform="translate(231,0)" x2="0" y2="5" stroke="#888" stroke-width="1" opacity="1"></line><line transform="translate(277,0)" x2="0" y2="5" stroke="#888" stroke-width="1" opacity="1"></line><line transform="translate(323,0)" x2="0" y2="5" stroke="#888" stroke-width="1" opacity="1"></line><line transform="translate(369,0)" x2="0" y2="5" stroke="#888" stroke-width="1" opacity="1"></line><line transform="translate(415,0)" x2="0" y2="5" stroke="#888" stroke-width="1" opacity="1"></line><line transform="translate(462,0)" x2="0" y2="5" stroke="#888" stroke-width="1" opacity="1"></line><line transform="translate(508,0)" x2="0" y2="5" stroke="#888" stroke-width="1" opacity="1"></line><line transform="translate(554,0)" x2="0" y2="5" stroke="#888" stroke-width="1" opacity="1"></line><line transform="translate(600,0)" x2="0" y2="5" stroke="#888" stroke-width="1" opacity="1"></line><line transform="translate(646,0)" x2="0" y2="5" stroke="#888" stroke-width="1" opacity="1"></line><line transform="translate(692,0)" x2="0" y2="5" stroke="#888" stroke-width="1" opacity="1"></line><line transform="translate(738,0)" x2="0" y2="5" stroke="#888" stroke-width="1" opacity="1"></line><line transform="translate(785,0)" x2="0" y2="5" stroke="#888" stroke-width="1" opacity="1"></line><line transform="translate(831,0)" x2="0" y2="5" stroke="#888" stroke-width="1" opacity="1"></line><line transform="translate(877,0)" x2="0" y2="5" stroke="#888" stroke-width="1" opacity="1"></line><line transform="translate(923,0)" x2="0" y2="5" stroke="#888" stroke-width="1" opacity="1"></line><line transform="translate(969,0)" x2="0" y2="5" stroke="#888" stroke-width="1" opacity="1"></line><line transform="translate(1015,0)" x2="0" y2="5" stroke="#888" stroke-width="1" opacity="1"></line><line transform="translate(1062,0)" x2="0" y2="5" stroke="#888" stroke-width="1" opacity="1"></line><line transform="translate(1108,0)" x2="0" y2="5" stroke="#888" stroke-width="1" opacity="1"></line><line transform="translate(1154,0)" x2="0" y2="5" stroke="#888" stroke-width="1" opacity="1"></line><line transform="translate(1200,0)" x2="0" y2="5" stroke="#888" stroke-width="1" opacity="1"></line></g><g class="mark-text role-axis-label" pointer-events="none"><text text-anchor="start" transform="translate(0,15)" font-family="sans-serif" font-size="10px" fill="#000" opacity="1">0</text><text text-anchor="middle" transform="translate(46.15384615384615,15)" font-family="sans-serif" font-size="10px" fill="#000" opacity="1">10</text><text text-anchor="middle" transform="translate(92.3076923076923,15)" font-family="sans-serif" font-size="10px" fill="#000" opacity="1">20</text><text text-anchor="middle" transform="translate(138.46153846153848,15)" font-family="sans-serif" font-size="10px" fill="#000" opacity="1">30</text><text text-anchor="middle" transform="translate(184.6153846153846,15)" font-family="sans-serif" font-size="10px" fill="#000" opacity="1">40</text><text text-anchor="middle" transform="translate(230.76923076923077,15)" font-family="sans-serif" font-size="10px" fill="#000" opacity="1">50</text><text text-anchor="middle" transform="translate(276.92307692307696,15)" font-family="sans-serif" font-size="10px" fill="#000" opacity="1">60</text><text text-anchor="middle" transform="translate(323.07692307692304,15)" font-family="sans-serif" font-size="10px" fill="#000" opacity="1">70</text><text text-anchor="middle" transform="translate(369.2307692307692,15)" font-family="sans-serif" font-size="10px" fill="#000" opacity="1">80</text><text text-anchor="middle" transform="translate(415.38461538461536,15)" font-family="sans-serif" font-size="10px" fill="#000" opacity="1">90</text><text text-anchor="middle" transform="translate(461.53846153846155,15)" font-family="sans-serif" font-size="10px" fill="#000" opacity="1">100</text><text text-anchor="middle" transform="translate(507.6923076923077,15)" font-family="sans-serif" font-size="10px" fill="#000" opacity="1">110</text><text text-anchor="middle" transform="translate(553.8461538461539,15)" font-family="sans-serif" font-size="10px" fill="#000" opacity="1">120</text><text text-anchor="middle" transform="translate(600,15)" font-family="sans-serif" font-size="10px" fill="#000" opacity="1">130</text><text text-anchor="middle" transform="translate(646.1538461538461,15)" font-family="sans-serif" font-size="10px" fill="#000" opacity="1">140</text><text text-anchor="middle" transform="translate(692.3076923076923,15)" font-family="sans-serif" font-size="10px" fill="#000" opacity="1">150</text><text text-anchor="middle" transform="translate(738.4615384615385,15)" font-family="sans-serif" font-size="10px" fill="#000" opacity="1">160</text><text text-anchor="middle" transform="translate(784.6153846153846,15)" font-family="sans-serif" font-size="10px" fill="#000" opacity="1">170</text><text text-anchor="middle" transform="translate(830.7692307692307,15)" font-family="sans-serif" font-size="10px" fill="#000" opacity="1">180</text><text text-anchor="middle" transform="translate(876.9230769230769,15)" font-family="sans-serif" font-size="10px" fill="#000" opacity="1">190</text><text text-anchor="middle" transform="translate(923.0769230769231,15)" font-family="sans-serif" font-size="10px" fill="#000" opacity="1">200</text><text text-anchor="middle" transform="translate(969.2307692307693,15)" font-family="sans-serif" font-size="10px" fill="#000" opacity="1">210</text><text text-anchor="middle" transform="translate(1015.3846153846154,15)" font-family="sans-serif" font-size="10px" fill="#000" opacity="1">220</text><text text-anchor="middle" transform="translate(1061.5384615384614,15)" font-family="sans-serif" font-size="10px" fill="#000" opacity="1">230</text><text text-anchor="middle" transform="translate(1107.6923076923078,15)" font-family="sans-serif" font-size="10px" fill="#000" opacity="1">240</text><text text-anchor="middle" transform="translate(1153.8461538461538,15)" font-family="sans-serif" font-size="10px" fill="#000" opacity="1">250</text><text text-anchor="end" transform="translate(1200,15)" font-family="sans-serif" font-size="10px" fill="#000" opacity="1">260</text></g><g class="mark-rule role-axis-domain" pointer-events="none"><line transform="translate(0,0)" x2="1200" y2="0" stroke="#888" stroke-width="1" opacity="1"></line></g><g class="mark-text role-axis-title" pointer-events="none"><text text-anchor="middle" transform="translate(600,30)" font-family="sans-serif" font-size="11px" font-weight="bold" fill="#000" opacity="1">Size</text></g></g><path class="foreground" aria-hidden="true" d="" pointer-events="none" display="none"></path></g></g><g class="mark-group role-axis" role="graphics-symbol" aria-roledescription="axis" aria-label="Y-axis titled 'GFLOPS' for a linear scale with values from 0 to 130"><g transform="translate(0.5,0.5)"><path class="background" aria-hidden="true" d="M0,0h0v0h0Z" pointer-events="none"></path><g><g class="mark-rule role-axis-tick" pointer-events="none"><line transform="translate(0,600)" x2="-5" y2="0" stroke="#888" stroke-width="1" opacity="1"></line><line transform="translate(0,554)" x2="-5" y2="0" stroke="#888" stroke-width="1" opacity="1"></line><line transform="translate(0,508)" x2="-5" y2="0" stroke="#888" stroke-width="1" opacity="1"></line><line transform="translate(0,462)" x2="-5" y2="0" stroke="#888" stroke-width="1" opacity="1"></line><line transform="translate(0,415)" x2="-5" y2="0" stroke="#888" stroke-width="1" opacity="1"></line><line transform="translate(0,369)" x2="-5" y2="0" stroke="#888" stroke-width="1" opacity="1"></line><line transform="translate(0,323)" x2="-5" y2="0" stroke="#888" stroke-width="1" opacity="1"></line><line transform="translate(0,277)" x2="-5" y2="0" stroke="#888" stroke-width="1" opacity="1"></line><line transform="translate(0,231)" x2="-5" y2="0" stroke="#888" stroke-width="1" opacity="1"></line><line transform="translate(0,185)" x2="-5" y2="0" stroke="#888" stroke-width="1" opacity="1"></line><line transform="translate(0,138)" x2="-5" y2="0" stroke="#888" stroke-width="1" opacity="1"></line><line transform="translate(0,92)" x2="-5" y2="0" stroke="#888" stroke-width="1" opacity="1"></line><line transform="translate(0,46)" x2="-5" y2="0" stroke="#888" stroke-width="1" opacity="1"></line><line transform="translate(0,0)" x2="-5" y2="0" stroke="#888" stroke-width="1" opacity="1"></line></g><g class="mark-text role-axis-label" pointer-events="none"><text text-anchor="end" transform="translate(-7,603)" font-family="sans-serif" font-size="10px" fill="#000" opacity="1">0</text><text text-anchor="end" transform="translate(-7,556.8461538461539)" font-family="sans-serif" font-size="10px" fill="#000" opacity="1">10</text><text text-anchor="end" transform="translate(-7,510.6923076923077)" font-family="sans-serif" font-size="10px" fill="#000" opacity="1">20</text><text text-anchor="end" transform="translate(-7,464.5384615384615)" font-family="sans-serif" font-size="10px" fill="#000" opacity="1">30</text><text text-anchor="end" transform="translate(-7,418.38461538461536)" font-family="sans-serif" font-size="10px" fill="#000" opacity="1">40</text><text text-anchor="end" transform="translate(-7,372.2307692307692)" font-family="sans-serif" font-size="10px" fill="#000" opacity="1">50</text><text text-anchor="end" transform="translate(-7,326.07692307692304)" font-family="sans-serif" font-size="10px" fill="#000" opacity="1">60</text><text text-anchor="end" transform="translate(-7,279.92307692307696)" font-family="sans-serif" font-size="10px" fill="#000" opacity="1">70</text><text text-anchor="end" transform="translate(-7,233.76923076923075)" font-family="sans-serif" font-size="10px" fill="#000" opacity="1">80</text><text text-anchor="end" transform="translate(-7,187.6153846153846)" font-family="sans-serif" font-size="10px" fill="#000" opacity="1">90</text><text text-anchor="end" transform="translate(-7,141.46153846153842)" font-family="sans-serif" font-size="10px" fill="#000" opacity="1">100</text><text text-anchor="end" transform="translate(-7,95.3076923076923)" font-family="sans-serif" font-size="10px" fill="#000" opacity="1">110</text><text text-anchor="end" transform="translate(-7,49.153846153846125)" font-family="sans-serif" font-size="10px" fill="#000" opacity="1">120</text><text text-anchor="end" transform="translate(-7,3)" font-family="sans-serif" font-size="10px" fill="#000" opacity="1">130</text></g><g class="mark-rule role-axis-domain" pointer-events="none"><line transform="translate(0,600)" x2="0" y2="-600" stroke="#888" stroke-width="1" opacity="1"></line></g><g class="mark-text role-axis-title" pointer-events="none"><text text-anchor="middle" transform="translate(-29,300) rotate(-90) translate(0,-2)" font-family="sans-serif" font-size="11px" font-weight="bold" fill="#000" opacity="1">GFLOPS</text></g></g><path class="foreground" aria-hidden="true" d="" pointer-events="none" display="none"></path></g></g><g class="mark-group role-scope pathgroup" role="graphics-object" aria-roledescription="group mark container"><g transform="translate(0,0)"><path class="background" aria-hidden="true" d="M0,0h1200v600h-1200Z"></path><g><g class="mark-line role-mark marks" role="graphics-object" aria-roledescription="line mark container"><path aria-label="Library: PaddedMatrices; Size: 2; GFLOPS: 1.00992979571" role="graphics-symbol" aria-roledescription="line mark" d="M9.230769230769232,595.338785558253L13.846153846153847,585.7169007919138L18.461538461538463,569.8491465023332L23.076923076923077,546.0758835758836L27.692307692307693,516.8569910307402L32.30769230769231,489.01842186560003L36.92307692307693,453.1020349256747L41.53846153846154,471.2931702028806L46.15384615384615,439.9194440335523L50.769230769230774,402.39236563931706L55.38461538461539,366.18028012149455L60,344.81456472054856L64.61538461538461,288.23280483374924L69.23076923076924,252.3178362858702L73.84615384615385,212.21091779164817L78.46153846153847,328.99582580756L83.07692307692308,268.4338673020276L87.6923076923077,284.03645015698584L92.3076923076923,225.2398858199176L96.92307692307693,197.67859825390747L101.53846153846155,170.2036462187539L106.15384615384616,144.35268680752156L110.76923076923077,113.21506042355792L115.38461538461539,232.95412157825587L120,233.7697516930022L124.61538461538463,227.9518628974671L129.23076923076923,206.8280073205L133.84615384615384,200.08730431314322L138.46153846153848,188.91206640717402L143.0769230769231,175.63868750984707L147.6923076923077,110.48228308918506L152.3076923076923,186.2314451766892L156.92307692307693,163.35761963394646L161.53846153846152,154.01715530794044L166.15384615384616,134.73448872089747L170.76923076923077,148.98605783143253L175.3846153846154,151.36335763439382L180,127.47670003451842L184.6153846153846,81.6904450173443L189.23076923076923,153.98636697010224L193.84615384615387,139.22029998030538L198.46153846153845,148.41818285086808L203.0769230769231,129.857192135219L207.69230769230768,97.5786368690442L212.30769230769232,106.05489068380764L216.9230769230769,98.71003564904596L221.53846153846155,56.59042331032109L226.15384615384616,179.05521671575332L230.76923076923077,157.64971099781118L235.3846153846154,193.16904448180287L240,108.90103422181099L244.6153846153846,174.8648938068891L249.23076923076925,161.86470349544948L253.84615384615384,175.32909867775584L258.46153846153845,82.74704236414505L263.0769230769231,163.3527851458886L267.6923076923077,168.39312142838335L272.3076923076923,175.8145092880589L276.92307692307696,113.71300383529916L281.53846153846155,147.2754471112293L286.1538461538462,145.04843910852946L290.7692307692308,149.31147737968865L295.3846153846154,62.57581748158563L300,184.0170659665244L304.6153846153846,176.9248755283402L309.23076923076917,171.98540852339565L313.84615384615387,133.47329688346173L318.46153846153845,161.8565569670901L323.07692307692304,140.05725817806348L327.6923076923077,133.7575718100696L332.3076923076923,37.54633768999707L336.9230769230769,224.41939610436629L341.53846153846155,165.40847789366438L346.15384615384613,194.7730729208356L350.7692307692308,194.18265860328952L355.3846153846154,225.40882051282057L360,134.4372409395259L364.6153846153846,129.06361436576665L369.2307692307692,53.83430129192837L373.84615384615387,176.00611661458677L378.46153846153845,138.6138365306165L383.07692307692304,172.1784999470012L387.69230769230774,144.6051401569963L392.3076923076923,157.63978510759623L396.9230769230769,110.4813945434255L401.5384615384615,105.00902029566517L406.1538461538462,28.291305168520474L410.7692307692308,126.97491067484523L415.38461538461536,114.80057904457644L420,202.69362577107603L424.61538461538464,159.56561085972845L429.2307692307692,107.24490004288256L433.8461538461538,91.44804783966353L438.46153846153845,184.92522320077776L443.0769230769231,25.31884834608078L447.6923076923077,222.09330973158185L452.3076923076923,207.4673043037024L456.9230769230769,129.318085351508L461.53846153846155,181.8261651368474L466.1538461538462,134.803816805382L470.7692307692308,118.54093414695006L475.38461538461536,206.4183405169825L480,42.41434861991182L484.61538461538464,208.50817985824398L489.2307692307692,191.8324170724393L493.8461538461538,204.59843942902788L498.4615384615385,164.58807873770806L503.0769230769231,206.3452482578507L507.6923076923077,186.6727049233357L512.3076923076923,195.97112738122792L516.9230769230769,33.68706751763515L521.5384615384615,201.76261830559937L526.1538461538462,136.146566861216L530.7692307692307,193.01794016970126L535.3846153846154,82.83306643105635L540,189.0788815387181L544.6153846153846,172.8603027355386L549.2307692307692,133.16785672237188L553.8461538461539,24.96956520533431L558.4615384615385,161.9258279292033L563.0769230769231,194.35459339914695L567.6923076923076,151.76572605412426L572.3076923076924,133.22885150918566L576.9230769230769,140.05698877886232L581.5384615384615,177.4500736682937L586.1538461538462,200.39413383708248L590.7692307692308,49.969423104243326L595.3846153846154,209.03656441419838L600,187.71269999390103L604.6153846153846,144.76111726111728L609.2307692307692,125.95735617930049L613.8461538461538,191.71556249728832L618.4615384615383,171.39732209126268L623.0769230769231,183.09799092896228L627.6923076923077,37.10075524475525L632.3076923076924,200.36424908918295L636.9230769230769,180.24836222019323L641.5384615384615,191.9623202901945L646.1538461538461,150.23828028426988L650.7692307692307,184.70338559317318L655.3846153846154,118.24816781381313L660,90.7425854652479L664.6153846153846,16.916730537343593L669.2307692307693,211.09516519964288L673.8461538461538,186.3405297454284L678.4615384615385,203.4546776675173L683.0769230769231,162.3000300414843L687.6923076923076,137.5599902142383L692.3076923076923,130.62470953782173L696.923076923077,106.15212490527158L701.5384615384615,30.98667314781045L706.1538461538462,137.34713934940632L710.7692307692308,116.82972190833169L715.3846153846154,141.114022945069L720,95.22736766294557L724.6153846153845,100.411322171528L729.2307692307692,155.61345710227084L733.8461538461539,165.82343516534957L738.4615384615385,27.046055929219914L743.0769230769231,112.75462490002973L747.6923076923077,95.18434486109201L752.3076923076923,105.38675681617656L756.9230769230769,81.38573234178894L761.5384615384615,92.89132518718294L766.1538461538461,80.98101176056774L770.7692307692308,158.01412404805018L775.3846153846155,18.901624125665272L780,109.02863943404328L784.6153846153846,164.34961689575076L789.2307692307692,184.00214645834373L793.8461538461538,154.81352677292278L798.4615384615385,110.36941012743418L803.076923076923,181.893178744217L807.6923076923077,103.04221233823031L812.3076923076924,33.867476416665895L816.9230769230769,182.32273784917174L821.5384615384615,113.33760955418961L826.1538461538462,103.2876344551642L830.7692307692307,87.22344950377521L835.3846153846154,118.29136251105994L840,157.80972132827958L844.6153846153846,169.2054400361778L849.2307692307693,28.540483516483505L853.8461538461539,117.64682729128788L858.4615384615385,161.72075845233223L863.0769230769231,118.13042768066467L867.6923076923076,102.68432742125901L872.3076923076923,185.41345187938717L876.9230769230769,180.66968133993328L881.5384615384617,112.62552678056198L886.1538461538462,32.999351119252566L890.7692307692308,144.1551470778615L895.3846153846154,136.3638874763133L900,129.11836538130783L904.6153846153846,117.81961628115471L909.2307692307692,193.22231661313575L913.8461538461538,119.101939416843L918.4615384615383,185.41928390307547L923.0769230769231,49.73469760915459L927.6923076923077,135.20183883133663L932.3076923076924,126.8245944883133L936.9230769230769,128.33654321880957L941.5384615384615,106.40483963336453L946.1538461538461,122.37412375311096L950.7692307692307,116.91709029719908L955.3846153846154,122.79493172371335L960,34.38049843388258L964.6153846153846,170.30161113438353L969.2307692307693,116.68059089768452L973.8461538461538,184.34853211212138L978.4615384615385,134.91152796692484L983.0769230769231,126.79762213723633L987.6923076923076,117.45461319354229L992.3076923076923,173.8131697110582L996.923076923077,36.56111886078819L1001.5384615384615,150.50519328461775L1006.1538461538462,142.78066393880925L1010.7692307692308,156.50138530082174L1015.3846153846154,115.58035313167116L1020,136.97898562174117L1024.6153846153845,132.13059746701924L1029.2307692307693,185.6732108030557L1033.8461538461538,50.92653567694836L1038.4615384615386,188.62471920392352L1043.076923076923,194.55720459597856L1047.6923076923076,141.19805280872174L1052.3076923076924,129.33798739590904L1056.923076923077,184.06922603578712L1061.5384615384614,128.56951891514547L1066.1538461538462,126.19232306769783L1070.7692307692307,47.14610968307726L1075.3846153846155,122.09138482066308L1080,182.4623759545017L1084.6153846153845,188.469281029862L1089.2307692307693,125.81692683476764L1093.8461538461538,112.90283373527178L1098.4615384615383,123.61397290721766L1103.076923076923,117.08469815845883L1107.6923076923078,103.61513416078103L1112.3076923076924,162.34542064490444L1116.923076923077,180.01853580019662L1121.5384615384617,135.93056647465514L1126.1538461538462,118.29598858642625L1130.7692307692307,143.8163617446151L1135.3846153846152,129.95587232733666L1140,135.7528385387116L1144.6153846153848,52.04573173469833L1149.2307692307693,139.86537648114555L1153.8461538461538,129.9785920916078L1158.4615384615386,139.59989916564174L1163.076923076923,159.08140858031612L1167.6923076923076,188.282314416864L1172.3076923076924,174.74773857740735L1176.923076923077,171.69563982021998L1181.5384615384617,109.11733252578806" stroke="#e45756" stroke-width="2"></path></g></g><path class="foreground" aria-hidden="true" d="" display="none"></path></g><g transform="translate(0,0)"><path class="background" aria-hidden="true" d="M0,0h1200v600h-1200Z"></path><g><g class="mark-line role-mark marks" role="graphics-object" aria-roledescription="line mark container"><path aria-label="Library: OpenBLAS; Size: 2; GFLOPS: 0.165894589634" role="graphics-symbol" aria-roledescription="line mark" d="M9.230769230769232,599.2343326632288L13.846153846153847,597.6357175691612L18.461538461538463,594.1970335856552L23.076923076923077,590.7449298605881L27.692307692307693,584.8800636360958L32.30769230769231,579.5858775041057L36.92307692307693,564.0974251221544L41.53846153846154,559.4716963353252L46.15384615384615,547.5621498807044L50.769230769230774,544.003918913078L55.38461538461539,520.558200195631L60,525.3828273743474L64.61538461538461,518.440051454654L69.23076923076924,519.3327622899428L73.84615384615385,478.9596642828163L78.46153846153847,487.92455305077476L83.07692307692308,475.59589167132657L87.6923076923077,478.67746884521233L92.3076923076923,445.3814105988019L96.92307692307693,459.4330404135036L101.53846153846155,441.97872866683156L106.15384615384616,454.08552050498747L110.76923076923077,375.28322431265445L115.38461538461539,414.5273194389108L120,411.17109128193755L124.61538461538463,427.94580419580416L129.23076923076923,375.81651649415437L133.84615384615384,408.88859866788556L138.46153846153848,398.38960586412463L143.0769230769231,415.27920591533143L147.6923076923077,290.97030970197426L152.3076923076923,347.15994371482174L156.92307692307693,341.4989997533638L161.53846153846152,367.2082637672897L166.15384615384616,315.29664227489314L170.76923076923077,351.5588980626175L175.3846153846154,353.37605912806083L180,374.2124072207459L184.6153846153846,297.9398554201703L189.23076923076923,338.51465427297734L193.84615384615387,321.68197707786226L198.46153846153845,352.18740440170615L203.0769230769231,306.61147483998946L207.69230769230768,341.49165344278856L212.30769230769232,330.62924483700976L216.9230769230769,355.8924722755594L221.53846153846155,255.6097504714343L226.15384615384616,304.693196674162L230.76923076923077,301.3759104924062L235.3846153846154,325.9465601542594L240,274.15552626623986L244.6153846153846,309.6276792120313L249.23076923076925,295.1340287925653L253.84615384615384,322.65183648520986L258.46153846153845,247.23177838731044L263.0769230769231,283.85035055564913L267.6923076923077,275.3724141755864L272.3076923076923,301.39141982009926L276.92307692307696,248.84710217573902L281.53846153846155,289.5710387931918L286.1538461538462,287.24043656088014L290.7692307692308,306.3639521854647L295.3846153846154,216.57569810952793L300,254.4673890819873L304.6153846153846,240.94043691391815L309.23076923076917,269.8972875248092L313.84615384615387,215.69689099381253L318.46153846153845,257.6921919140462L323.07692307692304,244.11908810559976L327.6923076923077,273.0211949570619L332.3076923076923,196.52984379973216L336.9230769230769,243.19096245566837L341.53846153846155,241.60877352024235L346.15384615384613,272.0095368288748L350.7692307692308,234.84850375361327L355.3846153846154,269.47837104072397L360,236.68574272207013L364.6153846153846,271.7541124580432L369.2307692307692,180.97758257346862L373.84615384615387,223.4853610584672L378.46153846153845,210.89061397318278L383.07692307692304,245.57924750511373L387.69230769230774,187.708074894209L392.3076923076923,227.07412973842807L396.9230769230769,226.8408444231502L401.5384615384615,252.2404467778917L406.1538461538462,173.6981045519945L410.7692307692308,213.1379731379731L415.38461538461536,204.72093695777906L420,232.07235798159314L424.61538461538464,194.01924706189035L429.2307692307692,219.82417582417582L433.8461538461538,211.54535994481273L438.46153846153845,245.61030050014463L443.0769230769231,147.72144618963023L447.6923076923077,194.4606793995453L452.3076923076923,182.21081251040374L456.9230769230769,210.8192337774331L461.53846153846155,179.96135644479293L466.1538461538462,199.17095421963296L470.7692307692308,188.15361976682127L475.38461538461536,236.42321417183535L480,142.70413106667834L484.61538461538464,206.70705812406217L489.2307692307692,196.7874332078835L493.8461538461538,222.04320897191644L498.4615384615385,163.47658348108834L503.0769230769231,213.29816432718127L507.6923076923077,214.86618456619388L512.3076923076923,219.21134878152344L516.9230769230769,140.31737722082255L521.5384615384615,176.09645987367185L526.1538461538462,194.1781426976833L530.7692307692307,217.07364154039192L535.3846153846154,176.72530055138748L540,206.34465864309294L544.6153846153846,196.65844288151604L549.2307692307692,201.1355715235301L553.8461538461539,137.4979926128151L558.4615384615385,164.6200540673384L563.0769230769231,202.916851934193L567.6923076923076,224.34427139583937L572.3076923076924,187.05757499187808L576.9230769230769,188.19446884773512L581.5384615384615,207.094024368686L586.1538461538462,231.67135932150055L590.7692307692308,129.9323453487894L595.3846153846154,179.67056043886112L600,146.51162790697668L604.6153846153846,176.18639754167893L609.2307692307692,132.80062835804216L613.8461538461538,184.13953714464998L618.4615384615383,187.8912166617663L623.0769230769231,205.68175140367654L627.6923076923077,151.49419856379347L632.3076923076924,154.70487301191014L636.9230769230769,160.91284631674503L641.5384615384615,200.38801291557758L646.1538461538461,170.3487393477724L650.7692307692307,191.72776228962027L655.3846153846154,162.65759722621746L660,176.90397818113414L664.6153846153846,104.82494240753762L669.2307692307693,175.93836973291775L673.8461538461538,149.31034607600705L678.4615384615385,197.3614362129138L683.0769230769231,136.79090668781387L687.6923076923076,190.0253242997604L692.3076923076923,163.40257085814562L696.923076923077,213.0251177585185L701.5384615384615,131.48980025192236L706.1538461538462,162.12139056937863L710.7692307692308,171.0515153146364L715.3846153846154,170.18242467263397L720,142.88457274043535L724.6153846153845,191.93875748770026L729.2307692307692,192.9586592639987L733.8461538461539,179.05373776723584L738.4615384615385,109.25145671005167L743.0769230769231,181.24429199880592L747.6923076923077,169.9474681538326L752.3076923076923,155.5689762660379L756.9230769230769,120.10836049447641L761.5384615384615,147.41574731751547L766.1538461538461,172.28684100413517L770.7692307692308,195.92877474133522L775.3846153846155,121.5362079491159L780,178.11608749171475L784.6153846153846,180.84228263072012L789.2307692307692,192.94293232893972L793.8461538461538,181.83956313970728L798.4615384615385,180.92076206766768L803.076923076923,161.64214251835497L807.6923076923077,212.33149040721997L812.3076923076924,120.98302679644229L816.9230769230769,157.6097303154907L821.5384615384615,157.45478228799658L826.1538461538462,165.4184731064112L830.7692307692307,136.3787406227724L835.3846153846154,180.66290684723228L840,165.76993304930002L844.6153846153846,196.9890344748221L849.2307692307693,146.95559738624198L853.8461538461539,171.78194664090654L858.4615384615385,148.0069187746393L863.0769230769231,190.56432101206795L867.6923076923076,156.62627877984465L872.3076923076923,180.27569149534162L876.9230769230769,162.05101955574042L881.5384615384617,193.02711158572257L886.1538461538462,156.16456910660878L890.7692307692308,183.49740062107L895.3846153846154,190.23461636674344L900,202.00379127077352L904.6153846153846,183.74212903499253L909.2307692307692,201.23701769049512L913.8461538461538,193.59505623213084L918.4615384615383,208.094179546856L923.0769230769231,167.7138049245503L927.6923076923077,198.23452313464372L932.3076923076924,190.92989938359634L936.9230769230769,209.9068650633432L941.5384615384615,185.40168751610048L946.1538461538461,206.39752739910122L950.7692307692307,211.21032346822625L955.3846153846154,217.34605767657894L960,156.48700164982134L964.6153846153846,195.14228158305238L969.2307692307693,194.6660130668893L973.8461538461538,183.76993601128382L978.4615384615385,174.263990312938L983.0769230769231,194.56019232342555L987.6923076923076,194.7484272070015L992.3076923076923,211.26125083648884L996.923076923077,172.7256660993576L1001.5384615384615,196.95723471749304L1006.1538461538462,190.9312489018369L1010.7692307692308,207.14196393005435L1015.3846153846154,189.44027113598924L1020,205.42840849688733L1024.6153846153845,191.71626625336359L1029.2307692307693,212.98003052539985L1033.8461538461538,166.2632506646436L1038.4615384615386,184.38058530159947L1043.076923076923,187.8799837315696L1047.6923076923076,199.08853869888927L1052.3076923076924,176.1547520848333L1056.923076923077,190.49643273951455L1061.5384615384614,193.8891447873484L1066.1538461538462,200.59649407037782L1070.7692307692307,162.25323031233768L1075.3846153846155,191.6502793629733L1080,184.11848476217597L1084.6153846153845,201.3757042530214L1089.2307692307693,180.97509697174013L1093.8461538461538,206.7497160379127L1098.4615384615383,193.9183259446796L1103.076923076923,206.52786594429762L1107.6923076923078,162.33312578490242L1112.3076923076924,179.92240693070724L1116.923076923077,170.58651210764253L1121.5384615384617,195.291285548683L1126.1538461538462,157.4796854049185L1130.7692307692307,167.37985756447557L1135.3846153846152,185.58521458637566L1140,184.55878575737833L1144.6153846153848,166.9081866926817L1149.2307692307693,190.13108310543657L1153.8461538461538,186.78933550656427L1158.4615384615386,198.41512824815945L1163.076923076923,179.33444817958338L1167.6923076923076,189.0677846394064L1172.3076923076924,184.17578550892824L1176.923076923077,224.2267173875724L1181.5384615384617,151.30506178268152" stroke="#f58518" stroke-width="2"></path></g></g><path class="foreground" aria-hidden="true" d="" display="none"></path></g><g transform="translate(0,0)"><path class="background" aria-hidden="true" d="M0,0h1200v600h-1200Z"></path><g><g class="mark-line role-mark marks" role="graphics-object" aria-roledescription="line mark container"><path aria-label="Library: MKL; Size: 2; GFLOPS: 0.16846771959" role="graphics-symbol" aria-roledescription="line mark" d="M9.230769230769232,599.2224566788158L13.846153846153847,598.280838164681L18.461538461538463,595.941138581975L23.076923076923077,592.1950907214787L27.692307692307693,587.2932922383987L32.30769230769231,580.4901170782575L36.92307692307693,571.2644571102427L41.53846153846154,564.3114874192928L46.15384615384615,553.0195751770096L50.769230769230774,539.4410705297082L55.38461538461539,524.6169610750368L60,507.76239294294567L64.61538461538461,488.87509629140527L69.23076923076924,466.80094937572176L73.84615384615385,443.5400177629666L78.46153846153847,458.8973157116037L83.07692307692308,437.3621749482562L87.6923076923077,420.53754516311176L92.3076923076923,395.475257032067L96.92307692307693,373.5024951670188L101.53846153846155,348.8509796903832L106.15384615384616,328.944962986804L110.76923076923077,285.1368728735948L115.38461538461539,371.0921936513363L120,355.7255167287662L124.61538461538463,338.420464202412L129.23076923076923,321.3207579167706L133.84615384615384,308.4133006766574L138.46153846153848,290.8379992432178L143.0769230769231,275.8074834568118L147.6923076923077,228.29775861787266L152.3076923076923,283.618355893034L156.92307692307693,280.20612265654137L161.53846153846152,256.80781237492994L166.15384615384616,239.45519528608688L170.76923076923077,231.2569764620238L175.3846153846154,211.24355727164843L180,203.44727694090383L184.6153846153846,148.27249520627706L189.23076923076923,240.8727935908291L193.84615384615387,222.01446373225514L198.46153846153845,216.0751364141194L203.0769230769231,200.69376084001317L207.69230769230768,181.88530788773804L212.30769230769232,164.4759312427756L216.9230769230769,157.13209156832067L221.53846153846155,90.45293788902009L226.15384615384616,213.64863139074532L230.76923076923077,195.50440600571085L235.3846153846154,190.66624236989026L240,169.316023061927L244.6153846153846,173.49599076099443L249.23076923076925,153.79467501033116L253.84615384615384,159.93574819463998L258.46153846153845,101.30489698726566L263.0769230769231,165.04704633195186L267.6923076923077,151.91793705299537L272.3076923076923,154.76605123387645L276.92307692307696,125.83920241470778L281.53846153846155,132.4386439879936L286.1538461538462,111.44775278019775L290.7692307692308,103.26252607381541L295.3846153846154,70.04144344485992L300,148.49051562917447L304.6153846153846,145.5157589663084L309.23076923076917,126.42170134408714L313.84615384615387,110.61696263550975L318.46153846153845,117.6728536295898L323.07692307692304,113.24388184456437L327.6923076923077,104.66373112329505L332.3076923076923,55.89745209466632L336.9230769230769,186.52113066943798L341.53846153846155,150.6152059465903L346.15384615384613,168.77704460016574L350.7692307692308,143.08368872247843L355.3846153846154,135.42599832093822L360,120.21029572836794L364.6153846153846,132.45025367071796L369.2307692307692,79.67039016251817L373.84615384615387,141.1458955411813L378.46153846153845,123.80700138185163L383.07692307692304,128.49438572861837L387.69230769230774,105.86038239217426L392.3076923076923,132.38916490586863L396.9230769230769,103.35931704904795L401.5384615384615,94.00738943068079L406.1538461538462,50.993998147078855L410.7692307692308,125.90658940360235L415.38461538461536,111.34770392631114L420,147.1917719046998L424.61538461538464,116.97538937106174L429.2307692307692,108.28914926133469L433.8461538461538,81.82419364901111L438.46153846153845,81.34014226156569L443.0769230769231,33.726678258643304L447.6923076923077,168.1426160470655L452.3076923076923,136.37194333496166L456.9230769230769,168.5434677081673L461.53846153846155,136.35193978757187L466.1538461538462,127.89919239360795L470.7692307692308,159.4636556104445L475.38461538461536,123.177140529887L480,66.6721454620165L484.61538461538464,160.2383130676476L489.2307692307692,140.96059097478724L493.8461538461538,109.00572138555724L498.4615384615385,112.0594700503223L503.0769230769231,146.35065666753263L507.6923076923077,128.3082947689236L512.3076923076923,103.27420209143597L516.9230769230769,43.91037460459864L521.5384615384615,122.18657468092448L526.1538461538462,153.9969745546499L530.7692307692307,165.2800472581236L535.3846153846154,123.07865448906783L540,159.8523326088898L544.6153846153846,95.32645977741147L549.2307692307692,114.79104631604702L553.8461538461539,32.579088941367004L558.4615384615385,173.2215264965741L563.0769230769231,156.22901574875314L567.6923076923076,132.68128938286998L572.3076923076924,92.90903408977569L576.9230769230769,154.35915182306323L581.5384615384615,139.59484289709184L586.1538461538462,143.90933330364547L590.7692307692308,62.940042895099005L595.3846153846154,161.9605462512816L600,98.45430938543345L604.6153846153846,120.61519980666162L609.2307692307692,84.02095352758843L613.8461538461538,147.10747991138388L618.4615384615383,136.02141742608433L623.0769230769231,140.76204460399865L627.6923076923077,37.44169966919812L632.3076923076924,164.29315379531985L636.9230769230769,150.4572278955201L641.5384615384615,112.70164466869987L646.1538461538461,111.9984824053874L650.7692307692307,99.03418737229619L655.3846153846154,75.28635982547955L660,83.0573004443082L664.6153846153846,31.434274706686892L669.2307692307693,123.04745862591359L673.8461538461538,144.42156729991547L678.4615384615385,113.469215835685L683.0769230769231,121.27353544900099L687.6923076923076,154.2153109456787L692.3076923076923,92.4843829299314L696.923076923077,99.2028780850261L701.5384615384615,43.4520957530262L706.1538461538462,115.89189408377598L710.7692307692308,95.37927294457108L715.3846153846154,111.30623453232533L720,68.96031276992309L724.6153846153845,119.23112122460722L729.2307692307692,96.89042330651876L733.8461538461539,97.294008525007L738.4615384615385,49.05384592966553L743.0769230769231,106.58869987250752L747.6923076923077,113.16941627090114L752.3076923076923,109.02549490498687L756.9230769230769,74.31499788460046L761.5384615384615,115.64904941223402L766.1538461538461,103.09772557539551L770.7692307692308,103.07496701366034L775.3846153846155,44.521723850107556L780,140.54056283707826L784.6153846153846,116.48023593691177L789.2307692307692,130.35954938334896L793.8461538461538,101.58861172783071L798.4615384615385,131.3823828882168L803.076923076923,122.21586348568599L807.6923076923077,102.45744439708089L812.3076923076924,50.66438719071093L816.9230769230769,131.69843321915994L821.5384615384615,121.99752795180207L826.1538461538462,128.53639823646589L830.7692307692307,113.35316524880983L835.3846153846154,125.67574161397275L840,132.7832351015062L844.6153846153846,142.55663005677155L849.2307692307693,45.98273634875332L853.8461538461539,133.26649872012933L858.4615384615385,114.87527957178396L863.0769230769231,128.4265447445422L867.6923076923076,82.10421299856576L872.3076923076923,129.50151634645871L876.9230769230769,122.20292385711362L881.5384615384617,154.65598593893554L886.1538461538462,142.85748732337362L890.7692307692308,220.63007063767398L895.3846153846154,206.10507717932984L900,222.89671739154383L904.6153846153846,188.34261700109434L909.2307692307692,208.62753730206768L913.8461538461538,222.44654798258395L918.4615384615383,253.92469555116978L923.0769230769231,179.02030130744893L927.6923076923077,220.74872453894062L932.3076923076924,201.88495550287195L936.9230769230769,223.31852275452L941.5384615384615,207.68877259257968L946.1538461538461,243.15066672695758L950.7692307692307,232.9302096426082L955.3846153846154,260.468811606408L960,170.50737563790338L964.6153846153846,210.36822482225034L969.2307692307693,212.1986506584443L973.8461538461538,231.00605010757812L978.4615384615385,198.00744655043297L983.0769230769231,231.30044124464172L987.6923076923076,220.35396875971472L992.3076923076923,227.01721355567503L996.923076923077,152.74131731078975L1001.5384615384615,189.32911341532025L1006.1538461538462,209.5340896242415L1010.7692307692308,235.3745307354706L1015.3846153846154,190.30961160917678L1020,226.16494636485405L1024.6153846153845,221.42379230821132L1029.2307692307693,243.34535182428152L1033.8461538461538,180.07087601181385L1038.4615384615386,205.03720415895998L1043.076923076923,204.62786931990894L1047.6923076923076,230.99753306077125L1052.3076923076924,198.01618808430828L1056.923076923077,233.70868390912395L1061.5384615384614,215.85426015162815L1066.1538461538462,226.7016923470621L1070.7692307692307,176.53092028198097L1075.3846153846155,188.70587840012826L1080,195.9739833843463L1084.6153846153845,223.24227751240159L1089.2307692307693,202.89066840954175L1093.8461538461538,223.66511832153955L1098.4615384615383,200.2925772025196L1103.076923076923,234.08640779648235L1107.6923076923078,168.94764166901822L1112.3076923076924,189.45130225646238L1116.923076923077,198.42539742507515L1121.5384615384617,219.27751410405654L1126.1538461538462,190.09518828968413L1130.7692307692307,215.40640866186877L1135.3846153846152,210.20961763747746L1140,226.81422339552176L1144.6153846153848,171.42729098007985L1149.2307692307693,176.9751663931125L1153.8461538461538,201.03242170128289L1158.4615384615386,224.0435617223792L1163.076923076923,194.94566964410006L1167.6923076923076,216.53340110830226L1172.3076923076924,192.08575948329906L1176.923076923077,230.05494797660774L1181.5384615384617,166.39794930950512" stroke="#4c78a8" stroke-width="2"></path></g></g><path class="foreground" aria-hidden="true" d="" display="none"></path></g></g><g class="mark-group role-legend" role="graphics-symbol" aria-roledescription="legend" aria-label="Symbol legend titled 'Library' for stroke color with 3 values: MKL, OpenBLAS, PaddedMatrices"><g transform="translate(1218,0)"><path class="background" aria-hidden="true" d="M0,0h89v53h-89Z" pointer-events="none"></path><g><g class="mark-group role-legend-entry"><g transform="translate(0,16)"><path class="background" aria-hidden="true" d="M0,0h0v0h0Z" pointer-events="none"></path><g><g class="mark-group role-scope" role="graphics-object" aria-roledescription="group mark container"><g transform="translate(0,0)"><path class="background" aria-hidden="true" d="M0,0h89v11h-89Z" pointer-events="none" opacity="1"></path><g><g class="mark-symbol role-legend-symbol" pointer-events="none"><path transform="translate(6,6)" d="M-5,0L5,0" stroke="#4c78a8" stroke-width="1.5" opacity="1"></path></g><g class="mark-text role-legend-label" pointer-events="none"><text text-anchor="start" transform="translate(16,9)" font-family="sans-serif" font-size="10px" fill="#000" opacity="1">MKL</text></g></g><path class="foreground" aria-hidden="true" d="" pointer-events="none" display="none"></path></g><g transform="translate(0,13)"><path class="background" aria-hidden="true" d="M0,0h89v11h-89Z" pointer-events="none" opacity="1"></path><g><g class="mark-symbol role-legend-symbol" pointer-events="none"><path transform="translate(6,6)" d="M-5,0L5,0" stroke="#f58518" stroke-width="1.5" opacity="1"></path></g><g class="mark-text role-legend-label" pointer-events="none"><text text-anchor="start" transform="translate(16,9)" font-family="sans-serif" font-size="10px" fill="#000" opacity="1">OpenBLAS</text></g></g><path class="foreground" aria-hidden="true" d="" pointer-events="none" display="none"></path></g><g transform="translate(0,26)"><path class="background" aria-hidden="true" d="M0,0h89v11h-89Z" pointer-events="none" opacity="1"></path><g><g class="mark-symbol role-legend-symbol" pointer-events="none"><path transform="translate(6,6)" d="M-5,0L5,0" stroke="#e45756" stroke-width="1.5" opacity="1"></path></g><g class="mark-text role-legend-label" pointer-events="none"><text text-anchor="start" transform="translate(16,9)" font-family="sans-serif" font-size="10px" fill="#000" opacity="1">PaddedMatrices</text></g></g><path class="foreground" aria-hidden="true" d="" pointer-events="none" display="none"></path></g></g></g><path class="foreground" aria-hidden="true" d="" pointer-events="none" display="none"></path></g></g><g class="mark-text role-legend-title" pointer-events="none"><text text-anchor="start" transform="translate(0,9)" font-family="sans-serif" font-size="11px" font-weight="bold" fill="#000" opacity="1">Library</text></g></g><path class="foreground" aria-hidden="true" d="" pointer-events="none" display="none"></path></g></g></g><path class="foreground" aria-hidden="true" d="" display="none"></path></g></g></g></svg>
