<?xml version="1.0" encoding="utf-8"?>
<!DOCTYPE svg PUBLIC "-//W3C//DTD SVG 1.1//EN" "http://www.w3.org/Graphics/SVG/1.1/DTD/svg11.dtd">
<svg class="marks" width="1053" height="642" viewBox="0 0 1053 642" version="1.1" xmlns="http://www.w3.org/2000/svg" xmlns:xlink="http://www.w3.org/1999/xlink"><rect width="1053" height="642" style="fill: white;"></rect><g transform="translate(39,5)"><g class="mark-group role-frame root"><g transform="translate(0,0)"><path class="background" d="M0.5,0.5h900v600h-900Z" style="fill: none; stroke: #ddd;"></path><g><g class="mark-group role-axis"><g transform="translate(0.5,600.5)"><path class="background" d="M0,0h0v0h0Z" style="pointer-events: none; fill: none;"></path><g><g class="mark-rule role-axis-grid" style="pointer-events: none;"><line transform="translate(0,-600)" x2="0" y2="600" style="fill: none; stroke: #ddd; stroke-width: 1; opacity: 1;"></line><line transform="translate(68,-600)" x2="0" y2="600" style="fill: none; stroke: #ddd; stroke-width: 1; opacity: 1;"></line><line transform="translate(107,-600)" x2="0" y2="600" style="fill: none; stroke: #ddd; stroke-width: 1; opacity: 1;"></line><line transform="translate(135,-600)" x2="0" y2="600" style="fill: none; stroke: #ddd; stroke-width: 1; opacity: 1;"></line><line transform="translate(157,-600)" x2="0" y2="600" style="fill: none; stroke: #ddd; stroke-width: 1; opacity: 1;"></line><line transform="translate(175,-600)" x2="0" y2="600" style="fill: none; stroke: #ddd; stroke-width: 1; opacity: 1;"></line><line transform="translate(190,-600)" x2="0" y2="600" style="fill: none; stroke: #ddd; stroke-width: 1; opacity: 1;"></line><line transform="translate(203,-600)" x2="0" y2="600" style="fill: none; stroke: #ddd; stroke-width: 1; opacity: 1;"></line><line transform="translate(215,-600)" x2="0" y2="600" style="fill: none; stroke: #ddd; stroke-width: 1; opacity: 1;"></line><line transform="translate(225,-600)" x2="0" y2="600" style="fill: none; stroke: #ddd; stroke-width: 1; opacity: 1;"></line><line transform="translate(293,-600)" x2="0" y2="600" style="fill: none; stroke: #ddd; stroke-width: 1; opacity: 1;"></line><line transform="translate(332,-600)" x2="0" y2="600" style="fill: none; stroke: #ddd; stroke-width: 1; opacity: 1;"></line><line transform="translate(360,-600)" x2="0" y2="600" style="fill: none; stroke: #ddd; stroke-width: 1; opacity: 1;"></line><line transform="translate(382,-600)" x2="0" y2="600" style="fill: none; stroke: #ddd; stroke-width: 1; opacity: 1;"></line><line transform="translate(400,-600)" x2="0" y2="600" style="fill: none; stroke: #ddd; stroke-width: 1; opacity: 1;"></line><line transform="translate(415,-600)" x2="0" y2="600" style="fill: none; stroke: #ddd; stroke-width: 1; opacity: 1;"></line><line transform="translate(428,-600)" x2="0" y2="600" style="fill: none; stroke: #ddd; stroke-width: 1; opacity: 1;"></line><line transform="translate(440,-600)" x2="0" y2="600" style="fill: none; stroke: #ddd; stroke-width: 1; opacity: 1;"></line><line transform="translate(450,-600)" x2="0" y2="600" style="fill: none; stroke: #ddd; stroke-width: 1; opacity: 1;"></line><line transform="translate(518,-600)" x2="0" y2="600" style="fill: none; stroke: #ddd; stroke-width: 1; opacity: 1;"></line><line transform="translate(557,-600)" x2="0" y2="600" style="fill: none; stroke: #ddd; stroke-width: 1; opacity: 1;"></line><line transform="translate(585,-600)" x2="0" y2="600" style="fill: none; stroke: #ddd; stroke-width: 1; opacity: 1;"></line><line transform="translate(607,-600)" x2="0" y2="600" style="fill: none; stroke: #ddd; stroke-width: 1; opacity: 1;"></line><line transform="translate(625,-600)" x2="0" y2="600" style="fill: none; stroke: #ddd; stroke-width: 1; opacity: 1;"></line><line transform="translate(640,-600)" x2="0" y2="600" style="fill: none; stroke: #ddd; stroke-width: 1; opacity: 1;"></line><line transform="translate(653,-600)" x2="0" y2="600" style="fill: none; stroke: #ddd; stroke-width: 1; opacity: 1;"></line><line transform="translate(665,-600)" x2="0" y2="600" style="fill: none; stroke: #ddd; stroke-width: 1; opacity: 1;"></line><line transform="translate(675,-600)" x2="0" y2="600" style="fill: none; stroke: #ddd; stroke-width: 1; opacity: 1;"></line><line transform="translate(743,-600)" x2="0" y2="600" style="fill: none; stroke: #ddd; stroke-width: 1; opacity: 1;"></line><line transform="translate(782,-600)" x2="0" y2="600" style="fill: none; stroke: #ddd; stroke-width: 1; opacity: 1;"></line><line transform="translate(810,-600)" x2="0" y2="600" style="fill: none; stroke: #ddd; stroke-width: 1; opacity: 1;"></line><line transform="translate(832,-600)" x2="0" y2="600" style="fill: none; stroke: #ddd; stroke-width: 1; opacity: 1;"></line><line transform="translate(850,-600)" x2="0" y2="600" style="fill: none; stroke: #ddd; stroke-width: 1; opacity: 1;"></line><line transform="translate(865,-600)" x2="0" y2="600" style="fill: none; stroke: #ddd; stroke-width: 1; opacity: 1;"></line><line transform="translate(878,-600)" x2="0" y2="600" style="fill: none; stroke: #ddd; stroke-width: 1; opacity: 1;"></line><line transform="translate(890,-600)" x2="0" y2="600" style="fill: none; stroke: #ddd; stroke-width: 1; opacity: 1;"></line><line transform="translate(900,-600)" x2="0" y2="600" style="fill: none; stroke: #ddd; stroke-width: 1; opacity: 1;"></line></g></g><path class="foreground" d="" style="pointer-events: none; display: none; fill: none;"></path></g></g><g class="mark-group role-axis"><g transform="translate(0.5,0.5)"><path class="background" d="M0,0h0v0h0Z" style="pointer-events: none; fill: none;"></path><g><g class="mark-rule role-axis-grid" style="pointer-events: none;"><line transform="translate(0,600)" x2="900" y2="0" style="fill: none; stroke: #ddd; stroke-width: 1; opacity: 1;"></line><line transform="translate(0,566)" x2="900" y2="0" style="fill: none; stroke: #ddd; stroke-width: 1; opacity: 1;"></line><line transform="translate(0,531)" x2="900" y2="0" style="fill: none; stroke: #ddd; stroke-width: 1; opacity: 1;"></line><line transform="translate(0,497)" x2="900" y2="0" style="fill: none; stroke: #ddd; stroke-width: 1; opacity: 1;"></line><line transform="translate(0,463)" x2="900" y2="0" style="fill: none; stroke: #ddd; stroke-width: 1; opacity: 1;"></line><line transform="translate(0,429)" x2="900" y2="0" style="fill: none; stroke: #ddd; stroke-width: 1; opacity: 1;"></line><line transform="translate(0,394)" x2="900" y2="0" style="fill: none; stroke: #ddd; stroke-width: 1; opacity: 1;"></line><line transform="translate(0,360)" x2="900" y2="0" style="fill: none; stroke: #ddd; stroke-width: 1; opacity: 1;"></line><line transform="translate(0,326)" x2="900" y2="0" style="fill: none; stroke: #ddd; stroke-width: 1; opacity: 1;"></line><line transform="translate(0,291)" x2="900" y2="0" style="fill: none; stroke: #ddd; stroke-width: 1; opacity: 1;"></line><line transform="translate(0,257)" x2="900" y2="0" style="fill: none; stroke: #ddd; stroke-width: 1; opacity: 1;"></line><line transform="translate(0,223)" x2="900" y2="0" style="fill: none; stroke: #ddd; stroke-width: 1; opacity: 1;"></line><line transform="translate(0,189)" x2="900" y2="0" style="fill: none; stroke: #ddd; stroke-width: 1; opacity: 1;"></line><line transform="translate(0,154)" x2="900" y2="0" style="fill: none; stroke: #ddd; stroke-width: 1; opacity: 1;"></line><line transform="translate(0,120)" x2="900" y2="0" style="fill: none; stroke: #ddd; stroke-width: 1; opacity: 1;"></line><line transform="translate(0,86)" x2="900" y2="0" style="fill: none; stroke: #ddd; stroke-width: 1; opacity: 1;"></line><line transform="translate(0,51)" x2="900" y2="0" style="fill: none; stroke: #ddd; stroke-width: 1; opacity: 1;"></line><line transform="translate(0,17)" x2="900" y2="0" style="fill: none; stroke: #ddd; stroke-width: 1; opacity: 1;"></line></g></g><path class="foreground" d="" style="pointer-events: none; display: none; fill: none;"></path></g></g><g class="mark-group role-axis"><g transform="translate(0.5,600.5)"><path class="background" d="M0,0h0v0h0Z" style="pointer-events: none; fill: none;"></path><g><g class="mark-rule role-axis-tick" style="pointer-events: none;"><line transform="translate(0,0)" x2="0" y2="5" style="fill: none; stroke: #888; stroke-width: 1; opacity: 1;"></line><line transform="translate(68,0)" x2="0" y2="5" style="fill: none; stroke: #888; stroke-width: 1; opacity: 1;"></line><line transform="translate(107,0)" x2="0" y2="5" style="fill: none; stroke: #888; stroke-width: 1; opacity: 1;"></line><line transform="translate(135,0)" x2="0" y2="5" style="fill: none; stroke: #888; stroke-width: 1; opacity: 1;"></line><line transform="translate(157,0)" x2="0" y2="5" style="fill: none; stroke: #888; stroke-width: 1; opacity: 1;"></line><line transform="translate(175,0)" x2="0" y2="5" style="fill: none; stroke: #888; stroke-width: 1; opacity: 1;"></line><line transform="translate(190,0)" x2="0" y2="5" style="fill: none; stroke: #888; stroke-width: 1; opacity: 1;"></line><line transform="translate(203,0)" x2="0" y2="5" style="fill: none; stroke: #888; stroke-width: 1; opacity: 1;"></line><line transform="translate(215,0)" x2="0" y2="5" style="fill: none; stroke: #888; stroke-width: 1; opacity: 1;"></line><line transform="translate(225,0)" x2="0" y2="5" style="fill: none; stroke: #888; stroke-width: 1; opacity: 1;"></line><line transform="translate(293,0)" x2="0" y2="5" style="fill: none; stroke: #888; stroke-width: 1; opacity: 1;"></line><line transform="translate(332,0)" x2="0" y2="5" style="fill: none; stroke: #888; stroke-width: 1; opacity: 1;"></line><line transform="translate(360,0)" x2="0" y2="5" style="fill: none; stroke: #888; stroke-width: 1; opacity: 1;"></line><line transform="translate(382,0)" x2="0" y2="5" style="fill: none; stroke: #888; stroke-width: 1; opacity: 1;"></line><line transform="translate(400,0)" x2="0" y2="5" style="fill: none; stroke: #888; stroke-width: 1; opacity: 1;"></line><line transform="translate(415,0)" x2="0" y2="5" style="fill: none; stroke: #888; stroke-width: 1; opacity: 1;"></line><line transform="translate(428,0)" x2="0" y2="5" style="fill: none; stroke: #888; stroke-width: 1; opacity: 1;"></line><line transform="translate(440,0)" x2="0" y2="5" style="fill: none; stroke: #888; stroke-width: 1; opacity: 1;"></line><line transform="translate(450,0)" x2="0" y2="5" style="fill: none; stroke: #888; stroke-width: 1; opacity: 1;"></line><line transform="translate(518,0)" x2="0" y2="5" style="fill: none; stroke: #888; stroke-width: 1; opacity: 1;"></line><line transform="translate(557,0)" x2="0" y2="5" style="fill: none; stroke: #888; stroke-width: 1; opacity: 1;"></line><line transform="translate(585,0)" x2="0" y2="5" style="fill: none; stroke: #888; stroke-width: 1; opacity: 1;"></line><line transform="translate(607,0)" x2="0" y2="5" style="fill: none; stroke: #888; stroke-width: 1; opacity: 1;"></line><line transform="translate(625,0)" x2="0" y2="5" style="fill: none; stroke: #888; stroke-width: 1; opacity: 1;"></line><line transform="translate(640,0)" x2="0" y2="5" style="fill: none; stroke: #888; stroke-width: 1; opacity: 1;"></line><line transform="translate(653,0)" x2="0" y2="5" style="fill: none; stroke: #888; stroke-width: 1; opacity: 1;"></line><line transform="translate(665,0)" x2="0" y2="5" style="fill: none; stroke: #888; stroke-width: 1; opacity: 1;"></line><line transform="translate(675,0)" x2="0" y2="5" style="fill: none; stroke: #888; stroke-width: 1; opacity: 1;"></line><line transform="translate(743,0)" x2="0" y2="5" style="fill: none; stroke: #888; stroke-width: 1; opacity: 1;"></line><line transform="translate(782,0)" x2="0" y2="5" style="fill: none; stroke: #888; stroke-width: 1; opacity: 1;"></line><line transform="translate(810,0)" x2="0" y2="5" style="fill: none; stroke: #888; stroke-width: 1; opacity: 1;"></line><line transform="translate(832,0)" x2="0" y2="5" style="fill: none; stroke: #888; stroke-width: 1; opacity: 1;"></line><line transform="translate(850,0)" x2="0" y2="5" style="fill: none; stroke: #888; stroke-width: 1; opacity: 1;"></line><line transform="translate(865,0)" x2="0" y2="5" style="fill: none; stroke: #888; stroke-width: 1; opacity: 1;"></line><line transform="translate(878,0)" x2="0" y2="5" style="fill: none; stroke: #888; stroke-width: 1; opacity: 1;"></line><line transform="translate(890,0)" x2="0" y2="5" style="fill: none; stroke: #888; stroke-width: 1; opacity: 1;"></line><line transform="translate(900,0)" x2="0" y2="5" style="fill: none; stroke: #888; stroke-width: 1; opacity: 1;"></line></g><g class="mark-text role-axis-label" style="pointer-events: none;"><text text-anchor="start" transform="translate(0,15)" style="font-family: sans-serif; font-size: 10px; fill: #000; opacity: 1;">1</text><text text-anchor="middle" transform="translate(67.73174902439575,15)" style="font-family: sans-serif; font-size: 10px; fill: #000; opacity: 1;">2</text><text text-anchor="middle" transform="translate(107.35228231192403,15)" style="font-family: sans-serif; font-size: 10px; fill: #000; opacity: 1;"></text><text text-anchor="middle" transform="translate(135.4634980487915,15)" style="font-family: sans-serif; font-size: 10px; fill: #000; opacity: 1;"></text><text text-anchor="middle" transform="translate(157.26825097560422,15)" style="font-family: sans-serif; font-size: 10px; fill: #000; opacity: 1;"></text><text text-anchor="middle" transform="translate(175.08403133631978,15)" style="font-family: sans-serif; font-size: 10px; fill: #000; opacity: 1;"></text><text text-anchor="middle" transform="translate(190.14705900320774,15)" style="font-family: sans-serif; font-size: 10px; fill: #000; opacity: 1;"></text><text text-anchor="middle" transform="translate(203.19524707318726,15)" style="font-family: sans-serif; font-size: 10px; fill: #000; opacity: 1;"></text><text text-anchor="middle" transform="translate(214.70456462384809,15)" style="font-family: sans-serif; font-size: 10px; fill: #000; opacity: 1;"></text><text text-anchor="middle" transform="translate(225,15)" style="font-family: sans-serif; font-size: 10px; fill: #000; opacity: 1;">10</text><text text-anchor="middle" transform="translate(292.73174902439575,15)" style="font-family: sans-serif; font-size: 10px; fill: #000; opacity: 1;">20</text><text text-anchor="middle" transform="translate(332.35228231192406,15)" style="font-family: sans-serif; font-size: 10px; fill: #000; opacity: 1;"></text><text text-anchor="middle" transform="translate(360.4634980487915,15)" style="font-family: sans-serif; font-size: 10px; fill: #000; opacity: 1;"></text><text text-anchor="middle" transform="translate(382.2682509756042,15)" style="font-family: sans-serif; font-size: 10px; fill: #000; opacity: 1;"></text><text text-anchor="middle" transform="translate(400.08403133631975,15)" style="font-family: sans-serif; font-size: 10px; fill: #000; opacity: 1;"></text><text text-anchor="middle" transform="translate(415.1470590032078,15)" style="font-family: sans-serif; font-size: 10px; fill: #000; opacity: 1;"></text><text text-anchor="middle" transform="translate(428.19524707318726,15)" style="font-family: sans-serif; font-size: 10px; fill: #000; opacity: 1;"></text><text text-anchor="middle" transform="translate(439.70456462384806,15)" style="font-family: sans-serif; font-size: 10px; fill: #000; opacity: 1;"></text><text text-anchor="middle" transform="translate(450,15)" style="font-family: sans-serif; font-size: 10px; fill: #000; opacity: 1;">100</text><text text-anchor="middle" transform="translate(517.7317490243956,15)" style="font-family: sans-serif; font-size: 10px; fill: #000; opacity: 1;">200</text><text text-anchor="middle" transform="translate(557.352282311924,15)" style="font-family: sans-serif; font-size: 10px; fill: #000; opacity: 1;"></text><text text-anchor="middle" transform="translate(585.4634980487915,15)" style="font-family: sans-serif; font-size: 10px; fill: #000; opacity: 1;"></text><text text-anchor="middle" transform="translate(607.2682509756041,15)" style="font-family: sans-serif; font-size: 10px; fill: #000; opacity: 1;"></text><text text-anchor="middle" transform="translate(625.0840313363198,15)" style="font-family: sans-serif; font-size: 10px; fill: #000; opacity: 1;"></text><text text-anchor="middle" transform="translate(640.1470590032077,15)" style="font-family: sans-serif; font-size: 10px; fill: #000; opacity: 1;"></text><text text-anchor="middle" transform="translate(653.1952470731873,15)" style="font-family: sans-serif; font-size: 10px; fill: #000; opacity: 1;"></text><text text-anchor="middle" transform="translate(664.7045646238481,15)" style="font-family: sans-serif; font-size: 10px; fill: #000; opacity: 1;"></text><text text-anchor="middle" transform="translate(674.9999999999999,15)" style="font-family: sans-serif; font-size: 10px; fill: #000; opacity: 1;">1,000</text><text text-anchor="middle" transform="translate(742.7317490243956,15)" style="font-family: sans-serif; font-size: 10px; fill: #000; opacity: 1;">2,000</text><text text-anchor="middle" transform="translate(782.3522823119239,15)" style="font-family: sans-serif; font-size: 10px; fill: #000; opacity: 1;"></text><text text-anchor="middle" transform="translate(810.4634980487915,15)" style="font-family: sans-serif; font-size: 10px; fill: #000; opacity: 1;"></text><text text-anchor="middle" transform="translate(832.2682509756042,15)" style="font-family: sans-serif; font-size: 10px; fill: #000; opacity: 1;"></text><text text-anchor="middle" transform="translate(850.0840313363196,15)" style="font-family: sans-serif; font-size: 10px; fill: #000; opacity: 1;"></text><text text-anchor="middle" transform="translate(865.1470590032077,15)" style="font-family: sans-serif; font-size: 10px; fill: #000; opacity: 1;"></text><text text-anchor="middle" transform="translate(878.1952470731873,15)" style="font-family: sans-serif; font-size: 10px; fill: #000; opacity: 1;"></text><text text-anchor="middle" transform="translate(889.7045646238481,15)" style="font-family: sans-serif; font-size: 10px; fill: #000; opacity: 1;"></text><text text-anchor="end" transform="translate(900,15)" style="font-family: sans-serif; font-size: 10px; fill: #000; opacity: 1;">10,000</text></g><g class="mark-rule role-axis-domain" style="pointer-events: none;"><line transform="translate(0,0)" x2="900" y2="0" style="fill: none; stroke: #888; stroke-width: 1; opacity: 1;"></line></g><g class="mark-text role-axis-title" style="pointer-events: none;"><text text-anchor="middle" transform="translate(450,30)" style="font-family: sans-serif; font-size: 11px; font-weight: bold; fill: #000; opacity: 1;">Size</text></g></g><path class="foreground" d="" style="pointer-events: none; display: none; fill: none;"></path></g></g><g class="mark-group role-axis"><g transform="translate(0.5,0.5)"><path class="background" d="M0,0h0v0h0Z" style="pointer-events: none; fill: none;"></path><g><g class="mark-rule role-axis-tick" style="pointer-events: none;"><line transform="translate(0,600)" x2="-5" y2="0" style="fill: none; stroke: #888; stroke-width: 1; opacity: 1;"></line><line transform="translate(0,566)" x2="-5" y2="0" style="fill: none; stroke: #888; stroke-width: 1; opacity: 1;"></line><line transform="translate(0,531)" x2="-5" y2="0" style="fill: none; stroke: #888; stroke-width: 1; opacity: 1;"></line><line transform="translate(0,497)" x2="-5" y2="0" style="fill: none; stroke: #888; stroke-width: 1; opacity: 1;"></line><line transform="translate(0,463)" x2="-5" y2="0" style="fill: none; stroke: #888; stroke-width: 1; opacity: 1;"></line><line transform="translate(0,429)" x2="-5" y2="0" style="fill: none; stroke: #888; stroke-width: 1; opacity: 1;"></line><line transform="translate(0,394)" x2="-5" y2="0" style="fill: none; stroke: #888; stroke-width: 1; opacity: 1;"></line><line transform="translate(0,360)" x2="-5" y2="0" style="fill: none; stroke: #888; stroke-width: 1; opacity: 1;"></line><line transform="translate(0,326)" x2="-5" y2="0" style="fill: none; stroke: #888; stroke-width: 1; opacity: 1;"></line><line transform="translate(0,291)" x2="-5" y2="0" style="fill: none; stroke: #888; stroke-width: 1; opacity: 1;"></line><line transform="translate(0,257)" x2="-5" y2="0" style="fill: none; stroke: #888; stroke-width: 1; opacity: 1;"></line><line transform="translate(0,223)" x2="-5" y2="0" style="fill: none; stroke: #888; stroke-width: 1; opacity: 1;"></line><line transform="translate(0,189)" x2="-5" y2="0" style="fill: none; stroke: #888; stroke-width: 1; opacity: 1;"></line><line transform="translate(0,154)" x2="-5" y2="0" style="fill: none; stroke: #888; stroke-width: 1; opacity: 1;"></line><line transform="translate(0,120)" x2="-5" y2="0" style="fill: none; stroke: #888; stroke-width: 1; opacity: 1;"></line><line transform="translate(0,86)" x2="-5" y2="0" style="fill: none; stroke: #888; stroke-width: 1; opacity: 1;"></line><line transform="translate(0,51)" x2="-5" y2="0" style="fill: none; stroke: #888; stroke-width: 1; opacity: 1;"></line><line transform="translate(0,17)" x2="-5" y2="0" style="fill: none; stroke: #888; stroke-width: 1; opacity: 1;"></line></g><g class="mark-text role-axis-label" style="pointer-events: none;"><text text-anchor="end" transform="translate(-7,603)" style="font-family: sans-serif; font-size: 10px; fill: #000; opacity: 1;">0</text><text text-anchor="end" transform="translate(-7,568.7142857142857)" style="font-family: sans-serif; font-size: 10px; fill: #000; opacity: 1;">2</text><text text-anchor="end" transform="translate(-7,534.4285714285714)" style="font-family: sans-serif; font-size: 10px; fill: #000; opacity: 1;">4</text><text text-anchor="end" transform="translate(-7,500.1428571428571)" style="font-family: sans-serif; font-size: 10px; fill: #000; opacity: 1;">6</text><text text-anchor="end" transform="translate(-7,465.8571428571429)" style="font-family: sans-serif; font-size: 10px; fill: #000; opacity: 1;">8</text><text text-anchor="end" transform="translate(-7,431.57142857142856)" style="font-family: sans-serif; font-size: 10px; fill: #000; opacity: 1;">10</text><text text-anchor="end" transform="translate(-7,397.2857142857143)" style="font-family: sans-serif; font-size: 10px; fill: #000; opacity: 1;">12</text><text text-anchor="end" transform="translate(-7,363)" style="font-family: sans-serif; font-size: 10px; fill: #000; opacity: 1;">14</text><text text-anchor="end" transform="translate(-7,328.7142857142858)" style="font-family: sans-serif; font-size: 10px; fill: #000; opacity: 1;">16</text><text text-anchor="end" transform="translate(-7,294.42857142857144)" style="font-family: sans-serif; font-size: 10px; fill: #000; opacity: 1;">18</text><text text-anchor="end" transform="translate(-7,260.14285714285717)" style="font-family: sans-serif; font-size: 10px; fill: #000; opacity: 1;">20</text><text text-anchor="end" transform="translate(-7,225.85714285714286)" style="font-family: sans-serif; font-size: 10px; fill: #000; opacity: 1;">22</text><text text-anchor="end" transform="translate(-7,191.57142857142856)" style="font-family: sans-serif; font-size: 10px; fill: #000; opacity: 1;">24</text><text text-anchor="end" transform="translate(-7,157.28571428571428)" style="font-family: sans-serif; font-size: 10px; fill: #000; opacity: 1;">26</text><text text-anchor="end" transform="translate(-7,122.99999999999997)" style="font-family: sans-serif; font-size: 10px; fill: #000; opacity: 1;">28</text><text text-anchor="end" transform="translate(-7,88.71428571428574)" style="font-family: sans-serif; font-size: 10px; fill: #000; opacity: 1;">30</text><text text-anchor="end" transform="translate(-7,54.428571428571445)" style="font-family: sans-serif; font-size: 10px; fill: #000; opacity: 1;">32</text><text text-anchor="end" transform="translate(-7,20.14285714285715)" style="font-family: sans-serif; font-size: 10px; fill: #000; opacity: 1;">34</text></g><g class="mark-rule role-axis-domain" style="pointer-events: none;"><line transform="translate(0,600)" x2="0" y2="-600" style="fill: none; stroke: #888; stroke-width: 1; opacity: 1;"></line></g><g class="mark-text role-axis-title" style="pointer-events: none;"><text text-anchor="middle" transform="translate(-23,300) rotate(-90) translate(0,-2)" style="font-family: sans-serif; font-size: 11px; font-weight: bold; fill: #000; opacity: 1;">GFLOPS</text></g></g><path class="foreground" d="" style="pointer-events: none; display: none; fill: none;"></path></g></g><g class="mark-group role-scope pathgroup"><g transform="translate(0,0)"><path class="background" d="M0,0h900v600h-900Z" style="fill: none;"></path><g><g class="mark-line role-mark marks"><path d="M67.73174902439575,588.7876638034652L135.4634980487915,531.7610987704534L203.19524707318726,342.6080990686586L270.926996097583,148.92829784415477L310.5475293851113,105.81996921701997L338.6587451219788,106.98383288173135L360.4634980487915,148.06249448318476L378.27927840950707,129.25107006881552L393.3423060763951,118.42597776533627L406.3904941463745,114.17328185328182L417.8998116970354,129.74408239759353L428.19524707318726,122.28036482104943L437.50860123378794,119.11510721562789L446.0110274339028,113.624100657628L453.83250134222556,126.53834889222881L461.07405510079076,123.7821431749201L467.81578036071556,118.54672437171452L474.1222431707703,120.07506150237425L480.0462543832989,122.95128679448342L485.6315607214311,95.68677015145524L490.91480728757375,93.12826742602145L495.926996097583,92.37561643128234L500.69458838831906,89.64428664261972L505.24035025818364,87.12578258394994L509.5840101771457,95.00642100875703L513.7427764582985,95.85552805689461L517.7317490243956,104.80021396757418L521.5642503666213,112.32700079617726L525.2520940089594,112.65537208117249L528.8058041251866,112.31060117090502L532.2347966004523,116.93974400510629L535.5475293851114,117.24181081465296L538.7516281858985,129.43911146737605L541.853992195166,136.37295101550959L541.853992195166,145.06613464738302L553.7020146202233,192.50221984713215L564.8726272964876,181.0554562773188L575.439120428773,206.76211611849132L585.4634980487915,175.19818968053517L594.9986826302636,223.3246902171727L604.0902063699928,213.07826269160384L612.7775262079168,241.2816347323848L621.0950587702226,203.79513635350293L629.0730039024169,216.59093497199694L636.7380065868681,220.81885677455836L644.1136938715442,239.27911499753696L651.2211141039985,188.37106144210844L658.0790990545303,226.69992255592712L664.7045646238481,216.6903905577891L671.1127622254227,237.62490466512205L677.3174902439576,210.62064563532226L683.3312729450492,231.17732870535156L689.1655126690148,208.15728955518452L694.830619957624,235.08038172967403L700.3361253452791,204.85029934902153L705.6907758301477,261.95701181901774L710.9026184775645,225.4450521540506L715.9790731619246,235.43914839325066L720.926996097583,216.69828020748645L725.7527355238809,248.24854652130136L730.4621806790551,239.82563028753077L735.0608050108139,256.63548255983136L739.5537044187843,227.89283302517254L743.9456311989046,266.62805314889914L748.2410242567082,262.4894254531536L752.4440360710728,267.3357236932941L756.5585568190141,248.44580250425398L760.588236012831,278.50538906392524L764.5365019512084,274.0580167755001L768.4065792440713,289.0740394343246L772.2015046356596,263.11942341699L775.924141320355,288.5401227124615L779.5771919203357,286.24153216162114L783.1632102724097,300.69285494598404L786.6846121527902,277.9856027594418L790.1436850526211,307.86578608071204L793.5425971033217,297.8435460352991L796.8834052389649,304.8527187011427L800.1680626726395,267.0165976644231L803.3984257548451,290.52066095163633L806.5762602742142,306.9067177289922L809.7032472541116,311.05373697793317L812.780988292749,459.4798252259084L815.8110104892849,286.25333092948904L818.7947709938408,312.5329718801179L821.7336612153719,320.6520546842517L824.6290107178063,282.0725288918663L827.4820908317648,308.5764496710665L830.2941180064156,315.6764740318713L833.0662569235838,325.0117945082396L835.7996233940707,305.027518294324L838.495287054205,326.9166362821219L841.1542738789391,325.311326465284L843.7775685262649,327.09347885680813L846.366116526356,310.0704113873281L848.9208263276169,329.98963494487384L851.4425712107161,325.4669976210308L853.9321910806985,332.1194916110513L856.3904941463745,312.8862575656051L858.8182584953923,335.38378075999265L861.2162335726725,326.510892651685L863.5851415692333,334.235565636338L865.9256787278466,315.8855864482204L868.2385165714317,332.60550501031986L870.5243030596054,326.6072540168585L872.7836636783782,326.31786384753417L875.0172024675759,248.2873192753932L877.2255029902107,314.8624031598179L879.4091292476961,310.2250725129791L881.568626544492,282.59424721423545L883.7045223054998,306.9811082208784L885.8173268492708,314.69217062254194L887.9075341198643,295.33292030577684L889.9756223799815,325.3791895833334L892.0220548678057,314.67787714010177L894.0472804198101,325.9395829294846L896.0517340616227,319.849082545773L898.0358375688974,326.14817283138797L900,308.28588894732366" style="fill: none; stroke: #4c78a8; stroke-width: 2;"></path></g></g><path class="foreground" d="" style="display: none; fill: none;"></path></g><g transform="translate(0,0)"><path class="background" d="M0,0h900v600h-900Z" style="fill: none;"></path><g><g class="mark-line role-mark marks"><path d="M67.73174902439575,587.7543336129557L135.4634980487915,534.1945994871021L203.19524707318726,338.95980676664294L270.926996097583,146.29097580393912L310.5475293851113,104.04703771986641L338.6587451219788,109.87549338688454L360.4634980487915,87.07673812863152L378.27927840950707,95.68055938209564L393.3423060763951,91.6312056737588L406.3904941463745,86.14748809591863L417.8998116970354,85.33785297750707L428.19524707318726,82.60181224104812L437.50860123378794,83.08065739570158L446.0110274339028,86.73763596809287L453.83250134222556,84.42909852032345L461.07405510079076,83.21556931197622L467.81578036071556,80.31898630123248L474.1222431707703,89.88418631945198L480.0462543832989,82.23757007951131L485.6315607214311,78.75016911034132L490.91480728757375,77.31878054225683L495.926996097583,78.38157355740954L500.69458838831906,78.98662615735176L505.24035025818364,79.77892240376757L509.5840101771457,77.16453178335287L513.7427764582985,75.81602786854336L517.7317490243956,113.38877828902932L521.5642503666213,114.54301961078713L525.2520940089594,116.63958933749974L528.8058041251866,116.63917996472799L532.2347966004523,118.31855435791859L535.5475293851114,115.00253333758236L538.7516281858985,116.23402596970101L541.853992195166,115.60927126027202L541.853992195166,115.86204010864604L553.7020146202233,126.27613876168786L564.8726272964876,124.7269043959712L575.439120428773,127.7109716214856L585.4634980487915,112.79226397854028L594.9986826302636,120.13790015261311L604.0902063699928,112.47130880688128L612.7775262079168,113.3761735155993L621.0950587702226,104.98568550854452L629.0730039024169,121.28004415804784L636.7380065868681,118.9390789155659L644.1136938715442,117.91164370950477L651.2211141039985,114.1488511919765L658.0790990545303,118.85035547264056L664.7045646238481,113.07836961617032L671.1127622254227,118.6545155985119L677.3174902439576,110.49530418767637L683.3312729450492,116.01133569039483L689.1655126690148,111.356233426439L694.830619957624,120.00669882957835L700.3361253452791,112.26119021054694L705.6907758301477,115.66391602094784L710.9026184775645,110.56540313606338L715.9790731619246,115.17562398608128L720.926996097583,107.98295552536487L725.7527355238809,112.40421237947405L730.4621806790551,109.48840189006535L735.0608050108139,115.35828011004669L739.5537044187843,110.82044132574008L743.9456311989046,112.6893332712633L748.2410242567082,111.52842893640383L752.4440360710728,112.41890131059881L756.5585568190141,107.11796842151796L760.588236012831,115.57170393607056L764.5365019512084,111.99039711412877L768.4065792440713,111.60027246130562L772.2015046356596,110.20837297959258L775.924141320355,111.55534319139558L779.5771919203357,107.60267405415271L783.1632102724097,115.01830541342699L786.6846121527902,109.0299598133639L790.1436850526211,111.04531532550543L793.5425971033217,109.92283968463612L796.8834052389649,111.29181849456467L800.1680626726395,104.99799115703125L803.3984257548451,112.73530681523643L806.5762602742142,110.85347595672836L809.7032472541116,109.23611916855069L812.780988292749,110.35569535629828L815.8110104892849,111.89815613549645L818.7947709938408,108.53464088390707L821.7336612153719,109.99923131989084L824.6290107178063,108.69603717913643L827.4820908317648,109.53854105650018L830.2941180064156,108.30181591304067L833.0662569235838,110.82870058360864L835.7996233940707,107.56805493816508L838.495287054205,108.06708997855002L841.1542738789391,109.06522818169861L843.7775685262649,109.9383153862396L846.366116526356,106.8294539497678L848.9208263276169,107.69230067448446L851.4425712107161,108.21552887105092L853.9321910806985,108.62884635833284L856.3904941463745,106.83403641949307L858.8182584953923,109.54152163613861L861.2162335726725,109.57044112730433L863.5851415692333,109.8440447668171L865.9256787278466,107.26450224006747L868.2385165714317,107.03624770122424L870.5243030596054,106.45551633435197L872.7836636783782,106.82948581537808L875.0172024675759,102.47878557881155L877.2255029902107,105.5443534616965L879.4091292476961,103.90566124700074L881.568626544492,105.03364774670665L883.7045223054998,103.00152612645293L885.8173268492708,104.27754043224944L887.9075341198643,101.99284746092307L889.9756223799815,103.45370992470437L892.0220548678057,103.64531471783674L894.0472804198101,103.46140989160273L896.0517340616227,102.88375583870571L898.0358375688974,103.63492675471645L900,101.01108023133759" style="fill: none; stroke: #e45756; stroke-width: 2;"></path></g></g><path class="foreground" d="" style="display: none; fill: none;"></path></g><g transform="translate(0,0)"><path class="background" d="M0,0h900v600h-900Z" style="fill: none;"></path><g><g class="mark-line role-mark marks"><path d="M67.73174902439575,571.4184386594943L135.4634980487915,585.794170384406L203.19524707318726,557.3238020775159L270.926996097583,535.0342548738848L310.5475293851113,528.341188006756L338.6587451219788,439.3774700530008L360.4634980487915,502.94636143634335L378.27927840950707,507.60677125939435L393.3423060763951,509.78649446383895L406.3904941463745,512.1221568528855L417.8998116970354,458.65365225582593L428.19524707318726,486.8662465888626L437.50860123378794,491.96638375703725L446.0110274339028,496.8788581802041L453.83250134222556,451.77004668160856L461.07405510079076,476.0751746227762L467.81578036071556,481.20612221573265L474.1222431707703,485.5732223280642L480.0462543832989,489.25771914090865L485.6315607214311,457.36912047999255L490.91480728757375,472.2641376751675L495.926996097583,478.25650595280405L500.69458838831906,482.3525120816996L505.24035025818364,452.87269301553994L509.5840101771457,467.3492301570296L513.7427764582985,473.1069902069305L517.7317490243956,475.66563406544043L521.5642503666213,479.2645044759991L525.2520940089594,458.15916746574953L528.8058041251866,469.5222948806981L532.2347966004523,471.5350702722277L535.5475293851114,475.3165087134247L538.7516281858985,457.0142702232975L541.853992195166,465.6398367909821L541.853992195166,467.829530887008L553.7020146202233,466.24293930173656L564.8726272964876,461.28670598420933L575.439120428773,467.7537981361163L585.4634980487915,468.68309923274506L594.9986826302636,470.0957395568102L604.0902063699928,469.96932450518824L612.7775262079168,474.48323712261066L621.0950587702226,466.08873914403273L629.0730039024169,470.7487281024108L636.7380065868681,472.56284506472275L644.1136938715442,471.6638184380667L651.2211141039985,475.32312617588104L658.0790990545303,476.2360278323122L664.7045646238481,475.64728587066764L671.1127622254227,482.9018774199804L677.3174902439576,485.08779971197316L683.3312729450492,484.5291620194829L689.1655126690148,482.652881022582L694.830619957624,486.85526437813485L700.3361253452791,483.0363337395813L705.6907758301477,487.9384128982846L710.9026184775645,487.2013170571568L715.9790731619246,487.41016806649185L720.926996097583,487.9984758605092L725.7527355238809,488.13787152688224L730.4621806790551,486.6967005415094L735.0608050108139,489.8213601538302L739.5537044187843,487.2922857178587L743.9456311989046,489.70736662529157L748.2410242567082,489.54852099123787L752.4440360710728,487.2030052901571L756.5585568190141,486.88780558674614L760.588236012831,489.0098702881189L764.5365019512084,488.05707178273286L768.4065792440713,489.0773219139336L772.2015046356596,487.92180728433357L775.924141320355,487.45930785662756L779.5771919203357,487.8429598467991L783.1632102724097,488.169604794455L786.6846121527902,488.8655179283668L790.1436850526211,489.4970798513169L793.5425971033217,487.7204111507127L796.8834052389649,488.46588589177355L800.1680626726395,488.60118305492057L803.3984257548451,490.8026323870085L806.5762602742142,488.8711006844985L809.7032472541116,489.73586194587546L812.780988292749,494.8403272507962L815.8110104892849,489.47375721479744L818.7947709938408,488.47222945221836L821.7336612153719,491.99463261440684L824.6290107178063,491.8343005988898L827.4820908317648,489.2338539720915L830.2941180064156,488.914906447693L833.0662569235838,490.53329151129407L835.7996233940707,490.7542926201567L838.495287054205,490.558304104459L841.1542738789391,490.53173961845584L843.7775685262649,492.3140496786291L846.366116526356,492.2927624587761L848.9208263276169,491.2910727870519L851.4425712107161,491.109022497871L853.9321910806985,490.7974517461892L856.3904941463745,493.8348289560944L858.8182584953923,492.65405018597994L861.2162335726725,492.6068110411018L863.5851415692333,494.45560249300087L865.9256787278466,494.134848263592L868.2385165714317,493.6478896856969L870.5243030596054,488.6863491958419L872.7836636783782,491.24892393015097L875.0172024675759,488.4835155574913L877.2255029902107,485.95480912911574L879.4091292476961,485.7975740518281L881.568626544492,488.3609609813905L883.7045223054998,486.58796577661775L885.8173268492708,486.5342965166355L887.9075341198643,485.50588389638165L889.9756223799815,486.57894892725955L892.0220548678057,491.50197513777835L894.0472804198101,486.912875271238L896.0517340616227,485.90514598532775L898.0358375688974,487.25464822363944L900,486.89395257439674" style="fill: none; stroke: #f58518; stroke-width: 2;"></path></g></g><path class="foreground" d="" style="display: none; fill: none;"></path></g></g><g class="mark-group role-legend"><g transform="translate(920,0)"><path class="background" d="M0,0h89v53h-89Z" style="pointer-events: none; fill: none;"></path><g><g class="mark-group role-legend-entry"><g transform="translate(0,16)"><path class="background" d="M0,0h0v0h0Z" style="pointer-events: none; fill: none;"></path><g><g class="mark-group role-scope"><g transform="translate(0,0)"><path class="background" d="M0,0h89v11h-89Z" style="pointer-events: none; fill: none; opacity: 1;"></path><g><g class="mark-symbol role-legend-symbol" style="pointer-events: none;"><path transform="translate(6,6)" d="M-5,0L5,0" style="fill: none; stroke: #4c78a8; stroke-width: 1.5; opacity: 1;"></path></g><g class="mark-text role-legend-label" style="pointer-events: none;"><text text-anchor="start" transform="translate(16,9)" style="font-family: sans-serif; font-size: 10px; fill: #000; opacity: 1;">Gaius</text></g></g><path class="foreground" d="" style="pointer-events: none; display: none; fill: none;"></path></g><g transform="translate(0,13)"><path class="background" d="M0,0h89v11h-89Z" style="pointer-events: none; fill: none; opacity: 1;"></path><g><g class="mark-symbol role-legend-symbol" style="pointer-events: none;"><path transform="translate(6,6)" d="M-5,0L5,0" style="fill: none; stroke: #f58518; stroke-width: 1.5; opacity: 1;"></path></g><g class="mark-text role-legend-label" style="pointer-events: none;"><text text-anchor="start" transform="translate(16,9)" style="font-family: sans-serif; font-size: 10px; fill: #000; opacity: 1;">GenericMatMul</text></g></g><path class="foreground" d="" style="pointer-events: none; display: none; fill: none;"></path></g><g transform="translate(0,26)"><path class="background" d="M0,0h89v11h-89Z" style="pointer-events: none; fill: none; opacity: 1;"></path><g><g class="mark-symbol role-legend-symbol" style="pointer-events: none;"><path transform="translate(6,6)" d="M-5,0L5,0" style="fill: none; stroke: #e45756; stroke-width: 1.5; opacity: 1;"></path></g><g class="mark-text role-legend-label" style="pointer-events: none;"><text text-anchor="start" transform="translate(16,9)" style="font-family: sans-serif; font-size: 10px; fill: #000; opacity: 1;">PaddedMatrices</text></g></g><path class="foreground" d="" style="pointer-events: none; display: none; fill: none;"></path></g></g></g><path class="foreground" d="" style="pointer-events: none; display: none; fill: none;"></path></g></g><g class="mark-text role-legend-title" style="pointer-events: none;"><text text-anchor="start" transform="translate(0,9)" style="font-family: sans-serif; font-size: 11px; font-weight: bold; fill: #000; opacity: 1;">Library</text></g></g><path class="foreground" d="" style="pointer-events: none; display: none; fill: none;"></path></g></g></g><path class="foreground" d="" style="display: none; fill: none;"></path></g></g></g></svg>
