<?xml version="1.0" encoding="utf-8"?>
<!DOCTYPE svg PUBLIC "-//W3C//DTD SVG 1.1//EN" "http://www.w3.org/Graphics/SVG/1.1/DTD/svg11.dtd">
<svg class="marks" width="1357" height="647" viewBox="0 0 1357 647" version="1.1" xmlns="http://www.w3.org/2000/svg" xmlns:xlink="http://www.w3.org/1999/xlink"><rect width="1357" height="647" fill="white"></rect><g fill="none" stroke-miterlimit="10" transform="translate(45,10)"><g class="mark-group role-frame root" role="graphics-object" aria-roledescription="group mark container"><g transform="translate(0,0)"><path class="background" aria-hidden="true" d="M0.5,0.5h1200v600h-1200Z" stroke="#ddd"></path><g><g class="mark-group role-axis" aria-hidden="true"><g transform="translate(0.5,600.5)"><path class="background" aria-hidden="true" d="M0,0h0v0h0Z" pointer-events="none"></path><g><g class="mark-rule role-axis-grid" pointer-events="none"><line transform="translate(0,-600)" x2="0" y2="600" stroke="#ddd" stroke-width="1" opacity="1"></line><line transform="translate(46,-600)" x2="0" y2="600" stroke="#ddd" stroke-width="1" opacity="1"></line><line transform="translate(92,-600)" x2="0" y2="600" stroke="#ddd" stroke-width="1" opacity="1"></line><line transform="translate(138,-600)" x2="0" y2="600" stroke="#ddd" stroke-width="1" opacity="1"></line><line transform="translate(185,-600)" x2="0" y2="600" stroke="#ddd" stroke-width="1" opacity="1"></line><line transform="translate(231,-600)" x2="0" y2="600" stroke="#ddd" stroke-width="1" opacity="1"></line><line transform="translate(277,-600)" x2="0" y2="600" stroke="#ddd" stroke-width="1" opacity="1"></line><line transform="translate(323,-600)" x2="0" y2="600" stroke="#ddd" stroke-width="1" opacity="1"></line><line transform="translate(369,-600)" x2="0" y2="600" stroke="#ddd" stroke-width="1" opacity="1"></line><line transform="translate(415,-600)" x2="0" y2="600" stroke="#ddd" stroke-width="1" opacity="1"></line><line transform="translate(462,-600)" x2="0" y2="600" stroke="#ddd" stroke-width="1" opacity="1"></line><line transform="translate(508,-600)" x2="0" y2="600" stroke="#ddd" stroke-width="1" opacity="1"></line><line transform="translate(554,-600)" x2="0" y2="600" stroke="#ddd" stroke-width="1" opacity="1"></line><line transform="translate(600,-600)" x2="0" y2="600" stroke="#ddd" stroke-width="1" opacity="1"></line><line transform="translate(646,-600)" x2="0" y2="600" stroke="#ddd" stroke-width="1" opacity="1"></line><line transform="translate(692,-600)" x2="0" y2="600" stroke="#ddd" stroke-width="1" opacity="1"></line><line transform="translate(738,-600)" x2="0" y2="600" stroke="#ddd" stroke-width="1" opacity="1"></line><line transform="translate(785,-600)" x2="0" y2="600" stroke="#ddd" stroke-width="1" opacity="1"></line><line transform="translate(831,-600)" x2="0" y2="600" stroke="#ddd" stroke-width="1" opacity="1"></line><line transform="translate(877,-600)" x2="0" y2="600" stroke="#ddd" stroke-width="1" opacity="1"></line><line transform="translate(923,-600)" x2="0" y2="600" stroke="#ddd" stroke-width="1" opacity="1"></line><line transform="translate(969,-600)" x2="0" y2="600" stroke="#ddd" stroke-width="1" opacity="1"></line><line transform="translate(1015,-600)" x2="0" y2="600" stroke="#ddd" stroke-width="1" opacity="1"></line><line transform="translate(1062,-600)" x2="0" y2="600" stroke="#ddd" stroke-width="1" opacity="1"></line><line transform="translate(1108,-600)" x2="0" y2="600" stroke="#ddd" stroke-width="1" opacity="1"></line><line transform="translate(1154,-600)" x2="0" y2="600" stroke="#ddd" stroke-width="1" opacity="1"></line><line transform="translate(1200,-600)" x2="0" y2="600" stroke="#ddd" stroke-width="1" opacity="1"></line></g></g><path class="foreground" aria-hidden="true" d="" pointer-events="none" display="none"></path></g></g><g class="mark-group role-axis" aria-hidden="true"><g transform="translate(0.5,0.5)"><path class="background" aria-hidden="true" d="M0,0h0v0h0Z" pointer-events="none"></path><g><g class="mark-rule role-axis-grid" pointer-events="none"><line transform="translate(0,600)" x2="1200" y2="0" stroke="#ddd" stroke-width="1" opacity="1"></line><line transform="translate(0,554)" x2="1200" y2="0" stroke="#ddd" stroke-width="1" opacity="1"></line><line transform="translate(0,508)" x2="1200" y2="0" stroke="#ddd" stroke-width="1" opacity="1"></line><line transform="translate(0,462)" x2="1200" y2="0" stroke="#ddd" stroke-width="1" opacity="1"></line><line transform="translate(0,415)" x2="1200" y2="0" stroke="#ddd" stroke-width="1" opacity="1"></line><line transform="translate(0,369)" x2="1200" y2="0" stroke="#ddd" stroke-width="1" opacity="1"></line><line transform="translate(0,323)" x2="1200" y2="0" stroke="#ddd" stroke-width="1" opacity="1"></line><line transform="translate(0,277)" x2="1200" y2="0" stroke="#ddd" stroke-width="1" opacity="1"></line><line transform="translate(0,231)" x2="1200" y2="0" stroke="#ddd" stroke-width="1" opacity="1"></line><line transform="translate(0,185)" x2="1200" y2="0" stroke="#ddd" stroke-width="1" opacity="1"></line><line transform="translate(0,138)" x2="1200" y2="0" stroke="#ddd" stroke-width="1" opacity="1"></line><line transform="translate(0,92)" x2="1200" y2="0" stroke="#ddd" stroke-width="1" opacity="1"></line><line transform="translate(0,46)" x2="1200" y2="0" stroke="#ddd" stroke-width="1" opacity="1"></line><line transform="translate(0,0)" x2="1200" y2="0" stroke="#ddd" stroke-width="1" opacity="1"></line></g></g><path class="foreground" aria-hidden="true" d="" pointer-events="none" display="none"></path></g></g><g class="mark-group role-axis" role="graphics-symbol" aria-roledescription="axis" aria-label="X-axis titled 'Size' for a linear scale with values from 0 to 260"><g transform="translate(0.5,600.5)"><path class="background" aria-hidden="true" d="M0,0h0v0h0Z" pointer-events="none"></path><g><g class="mark-rule role-axis-tick" pointer-events="none"><line transform="translate(0,0)" x2="0" y2="5" stroke="#888" stroke-width="1" opacity="1"></line><line transform="translate(46,0)" x2="0" y2="5" stroke="#888" stroke-width="1" opacity="1"></line><line transform="translate(92,0)" x2="0" y2="5" stroke="#888" stroke-width="1" opacity="1"></line><line transform="translate(138,0)" x2="0" y2="5" stroke="#888" stroke-width="1" opacity="1"></line><line transform="translate(185,0)" x2="0" y2="5" stroke="#888" stroke-width="1" opacity="1"></line><line transform="translate(231,0)" x2="0" y2="5" stroke="#888" stroke-width="1" opacity="1"></line><line transform="translate(277,0)" x2="0" y2="5" stroke="#888" stroke-width="1" opacity="1"></line><line transform="translate(323,0)" x2="0" y2="5" stroke="#888" stroke-width="1" opacity="1"></line><line transform="translate(369,0)" x2="0" y2="5" stroke="#888" stroke-width="1" opacity="1"></line><line transform="translate(415,0)" x2="0" y2="5" stroke="#888" stroke-width="1" opacity="1"></line><line transform="translate(462,0)" x2="0" y2="5" stroke="#888" stroke-width="1" opacity="1"></line><line transform="translate(508,0)" x2="0" y2="5" stroke="#888" stroke-width="1" opacity="1"></line><line transform="translate(554,0)" x2="0" y2="5" stroke="#888" stroke-width="1" opacity="1"></line><line transform="translate(600,0)" x2="0" y2="5" stroke="#888" stroke-width="1" opacity="1"></line><line transform="translate(646,0)" x2="0" y2="5" stroke="#888" stroke-width="1" opacity="1"></line><line transform="translate(692,0)" x2="0" y2="5" stroke="#888" stroke-width="1" opacity="1"></line><line transform="translate(738,0)" x2="0" y2="5" stroke="#888" stroke-width="1" opacity="1"></line><line transform="translate(785,0)" x2="0" y2="5" stroke="#888" stroke-width="1" opacity="1"></line><line transform="translate(831,0)" x2="0" y2="5" stroke="#888" stroke-width="1" opacity="1"></line><line transform="translate(877,0)" x2="0" y2="5" stroke="#888" stroke-width="1" opacity="1"></line><line transform="translate(923,0)" x2="0" y2="5" stroke="#888" stroke-width="1" opacity="1"></line><line transform="translate(969,0)" x2="0" y2="5" stroke="#888" stroke-width="1" opacity="1"></line><line transform="translate(1015,0)" x2="0" y2="5" stroke="#888" stroke-width="1" opacity="1"></line><line transform="translate(1062,0)" x2="0" y2="5" stroke="#888" stroke-width="1" opacity="1"></line><line transform="translate(1108,0)" x2="0" y2="5" stroke="#888" stroke-width="1" opacity="1"></line><line transform="translate(1154,0)" x2="0" y2="5" stroke="#888" stroke-width="1" opacity="1"></line><line transform="translate(1200,0)" x2="0" y2="5" stroke="#888" stroke-width="1" opacity="1"></line></g><g class="mark-text role-axis-label" pointer-events="none"><text text-anchor="start" transform="translate(0,15)" font-family="sans-serif" font-size="10px" fill="#000" opacity="1">0</text><text text-anchor="middle" transform="translate(46.15384615384615,15)" font-family="sans-serif" font-size="10px" fill="#000" opacity="1">10</text><text text-anchor="middle" transform="translate(92.3076923076923,15)" font-family="sans-serif" font-size="10px" fill="#000" opacity="1">20</text><text text-anchor="middle" transform="translate(138.46153846153848,15)" font-family="sans-serif" font-size="10px" fill="#000" opacity="1">30</text><text text-anchor="middle" transform="translate(184.6153846153846,15)" font-family="sans-serif" font-size="10px" fill="#000" opacity="1">40</text><text text-anchor="middle" transform="translate(230.76923076923077,15)" font-family="sans-serif" font-size="10px" fill="#000" opacity="1">50</text><text text-anchor="middle" transform="translate(276.92307692307696,15)" font-family="sans-serif" font-size="10px" fill="#000" opacity="1">60</text><text text-anchor="middle" transform="translate(323.07692307692304,15)" font-family="sans-serif" font-size="10px" fill="#000" opacity="1">70</text><text text-anchor="middle" transform="translate(369.2307692307692,15)" font-family="sans-serif" font-size="10px" fill="#000" opacity="1">80</text><text text-anchor="middle" transform="translate(415.38461538461536,15)" font-family="sans-serif" font-size="10px" fill="#000" opacity="1">90</text><text text-anchor="middle" transform="translate(461.53846153846155,15)" font-family="sans-serif" font-size="10px" fill="#000" opacity="1">100</text><text text-anchor="middle" transform="translate(507.6923076923077,15)" font-family="sans-serif" font-size="10px" fill="#000" opacity="1">110</text><text text-anchor="middle" transform="translate(553.8461538461539,15)" font-family="sans-serif" font-size="10px" fill="#000" opacity="1">120</text><text text-anchor="middle" transform="translate(600,15)" font-family="sans-serif" font-size="10px" fill="#000" opacity="1">130</text><text text-anchor="middle" transform="translate(646.1538461538461,15)" font-family="sans-serif" font-size="10px" fill="#000" opacity="1">140</text><text text-anchor="middle" transform="translate(692.3076923076923,15)" font-family="sans-serif" font-size="10px" fill="#000" opacity="1">150</text><text text-anchor="middle" transform="translate(738.4615384615385,15)" font-family="sans-serif" font-size="10px" fill="#000" opacity="1">160</text><text text-anchor="middle" transform="translate(784.6153846153846,15)" font-family="sans-serif" font-size="10px" fill="#000" opacity="1">170</text><text text-anchor="middle" transform="translate(830.7692307692307,15)" font-family="sans-serif" font-size="10px" fill="#000" opacity="1">180</text><text text-anchor="middle" transform="translate(876.9230769230769,15)" font-family="sans-serif" font-size="10px" fill="#000" opacity="1">190</text><text text-anchor="middle" transform="translate(923.0769230769231,15)" font-family="sans-serif" font-size="10px" fill="#000" opacity="1">200</text><text text-anchor="middle" transform="translate(969.2307692307693,15)" font-family="sans-serif" font-size="10px" fill="#000" opacity="1">210</text><text text-anchor="middle" transform="translate(1015.3846153846154,15)" font-family="sans-serif" font-size="10px" fill="#000" opacity="1">220</text><text text-anchor="middle" transform="translate(1061.5384615384614,15)" font-family="sans-serif" font-size="10px" fill="#000" opacity="1">230</text><text text-anchor="middle" transform="translate(1107.6923076923078,15)" font-family="sans-serif" font-size="10px" fill="#000" opacity="1">240</text><text text-anchor="middle" transform="translate(1153.8461538461538,15)" font-family="sans-serif" font-size="10px" fill="#000" opacity="1">250</text><text text-anchor="end" transform="translate(1200,15)" font-family="sans-serif" font-size="10px" fill="#000" opacity="1">260</text></g><g class="mark-rule role-axis-domain" pointer-events="none"><line transform="translate(0,0)" x2="1200" y2="0" stroke="#888" stroke-width="1" opacity="1"></line></g><g class="mark-text role-axis-title" pointer-events="none"><text text-anchor="middle" transform="translate(600,30)" font-family="sans-serif" font-size="11px" font-weight="bold" fill="#000" opacity="1">Size</text></g></g><path class="foreground" aria-hidden="true" d="" pointer-events="none" display="none"></path></g></g><g class="mark-group role-axis" role="graphics-symbol" aria-roledescription="axis" aria-label="Y-axis titled 'GFLOPS' for a linear scale with values from 0 to 130"><g transform="translate(0.5,0.5)"><path class="background" aria-hidden="true" d="M0,0h0v0h0Z" pointer-events="none"></path><g><g class="mark-rule role-axis-tick" pointer-events="none"><line transform="translate(0,600)" x2="-5" y2="0" stroke="#888" stroke-width="1" opacity="1"></line><line transform="translate(0,554)" x2="-5" y2="0" stroke="#888" stroke-width="1" opacity="1"></line><line transform="translate(0,508)" x2="-5" y2="0" stroke="#888" stroke-width="1" opacity="1"></line><line transform="translate(0,462)" x2="-5" y2="0" stroke="#888" stroke-width="1" opacity="1"></line><line transform="translate(0,415)" x2="-5" y2="0" stroke="#888" stroke-width="1" opacity="1"></line><line transform="translate(0,369)" x2="-5" y2="0" stroke="#888" stroke-width="1" opacity="1"></line><line transform="translate(0,323)" x2="-5" y2="0" stroke="#888" stroke-width="1" opacity="1"></line><line transform="translate(0,277)" x2="-5" y2="0" stroke="#888" stroke-width="1" opacity="1"></line><line transform="translate(0,231)" x2="-5" y2="0" stroke="#888" stroke-width="1" opacity="1"></line><line transform="translate(0,185)" x2="-5" y2="0" stroke="#888" stroke-width="1" opacity="1"></line><line transform="translate(0,138)" x2="-5" y2="0" stroke="#888" stroke-width="1" opacity="1"></line><line transform="translate(0,92)" x2="-5" y2="0" stroke="#888" stroke-width="1" opacity="1"></line><line transform="translate(0,46)" x2="-5" y2="0" stroke="#888" stroke-width="1" opacity="1"></line><line transform="translate(0,0)" x2="-5" y2="0" stroke="#888" stroke-width="1" opacity="1"></line></g><g class="mark-text role-axis-label" pointer-events="none"><text text-anchor="end" transform="translate(-7,603)" font-family="sans-serif" font-size="10px" fill="#000" opacity="1">0</text><text text-anchor="end" transform="translate(-7,556.8461538461539)" font-family="sans-serif" font-size="10px" fill="#000" opacity="1">10</text><text text-anchor="end" transform="translate(-7,510.6923076923077)" font-family="sans-serif" font-size="10px" fill="#000" opacity="1">20</text><text text-anchor="end" transform="translate(-7,464.5384615384615)" font-family="sans-serif" font-size="10px" fill="#000" opacity="1">30</text><text text-anchor="end" transform="translate(-7,418.38461538461536)" font-family="sans-serif" font-size="10px" fill="#000" opacity="1">40</text><text text-anchor="end" transform="translate(-7,372.2307692307692)" font-family="sans-serif" font-size="10px" fill="#000" opacity="1">50</text><text text-anchor="end" transform="translate(-7,326.07692307692304)" font-family="sans-serif" font-size="10px" fill="#000" opacity="1">60</text><text text-anchor="end" transform="translate(-7,279.92307692307696)" font-family="sans-serif" font-size="10px" fill="#000" opacity="1">70</text><text text-anchor="end" transform="translate(-7,233.76923076923075)" font-family="sans-serif" font-size="10px" fill="#000" opacity="1">80</text><text text-anchor="end" transform="translate(-7,187.6153846153846)" font-family="sans-serif" font-size="10px" fill="#000" opacity="1">90</text><text text-anchor="end" transform="translate(-7,141.46153846153842)" font-family="sans-serif" font-size="10px" fill="#000" opacity="1">100</text><text text-anchor="end" transform="translate(-7,95.3076923076923)" font-family="sans-serif" font-size="10px" fill="#000" opacity="1">110</text><text text-anchor="end" transform="translate(-7,49.153846153846125)" font-family="sans-serif" font-size="10px" fill="#000" opacity="1">120</text><text text-anchor="end" transform="translate(-7,3)" font-family="sans-serif" font-size="10px" fill="#000" opacity="1">130</text></g><g class="mark-rule role-axis-domain" pointer-events="none"><line transform="translate(0,600)" x2="0" y2="-600" stroke="#888" stroke-width="1" opacity="1"></line></g><g class="mark-text role-axis-title" pointer-events="none"><text text-anchor="middle" transform="translate(-29,300) rotate(-90) translate(0,-2)" font-family="sans-serif" font-size="11px" font-weight="bold" fill="#000" opacity="1">GFLOPS</text></g></g><path class="foreground" aria-hidden="true" d="" pointer-events="none" display="none"></path></g></g><g class="mark-group role-scope pathgroup" role="graphics-object" aria-roledescription="group mark container"><g transform="translate(0,0)"><path class="background" aria-hidden="true" d="M0,0h1200v600h-1200Z"></path><g><g class="mark-line role-mark marks" role="graphics-object" aria-roledescription="line mark container"><path aria-label="Library: OpenBLAS; Size: 2; GFLOPS: 0.16525543632" role="graphics-symbol" aria-roledescription="line mark" d="M9.230769230769232,599.2372826015977L13.846153846153847,597.6391597019709L18.461538461538463,594.1883213376577L23.076923076923077,590.2226476682039L27.692307692307693,584.6752995747971L32.30769230769231,580.1509342509047L36.92307692307693,563.3159670627147L41.53846153846154,559.30074635695L46.15384615384615,547.4644560737275L50.769230769230774,543.7406329535326L55.38461538461539,521.6672349814462L60,523.4798193587944L64.61538461538461,516.2670057215512L69.23076923076924,518.1848307322117L73.84615384615385,473.7920095753273L78.46153846153847,490.21187955374467L83.07692307692308,471.07760440195216L87.6923076923077,477.88604851676644L92.3076923076923,432.64231962252956L96.92307692307693,454.4476088054287L101.53846153846155,436.70433229313625L106.15384615384616,452.0784346361448L110.76923076923077,374.2830140961305L115.38461538461539,407.4333946094296L120,409.0240941695788L124.61538461538463,423.4312626149361L129.23076923076923,376.5694758481225L133.84615384615384,404.4395146201956L138.46153846153848,393.3581218549297L143.0769230769231,409.04531202427177L147.6923076923077,281.0664071178444L152.3076923076923,344.275243720202L156.92307692307693,335.1973185561974L161.53846153846152,356.9432962173857L166.15384615384616,308.217636022514L170.76923076923077,348.11929437798096L175.3846153846154,347.8791591683577L180,373.901633327216L184.6153846153846,290.24264326277745L189.23076923076923,329.81575050091476L193.84615384615387,320.26527851097234L198.46153846153845,345.9148744777303L203.0769230769231,296.72917868503896L207.69230769230768,334.04352346728444L212.30769230769232,318.948612677645L216.9230769230769,345.33550685015507L221.53846153846155,253.8190249840589L226.15384615384616,296.3325356922001L230.76923076923077,298.9901118251734L235.3846153846154,325.13803923116393L240,270.7980089407437L244.6153846153846,308.79261925941097L249.23076923076925,294.30967062021017L253.84615384615384,319.5624997073655L258.46153846153845,240.53803267183903L263.0769230769231,282.08650538006145L267.6923076923077,269.5047534353892L272.3076923076923,295.5115232652093L276.92307692307696,246.72129099380072L281.53846153846155,280.6570292990046L286.1538461538462,285.4292172401846L290.7692307692308,312.59791385305016L295.3846153846154,213.180067582523L300,257.09647965912546L304.6153846153846,239.0111908087831L309.23076923076917,267.6315280553279L313.84615384615387,215.41682380161242L318.46153846153845,253.83667017913592L323.07692307692304,238.70439184246712L327.6923076923077,268.22716949650066L332.3076923076923,191.7006335556602L336.9230769230769,236.58271897114122L341.53846153846155,242.36263210926177L346.15384615384613,268.1524696011274L350.7692307692308,216.9688861096366L355.3846153846154,250.5099710374217L360,232.84888106613016L364.6153846153846,261.97792403674754L369.2307692307692,177.11579758823842L373.84615384615387,218.35932544194566L378.46153846153845,206.22431185835444L383.07692307692304,234.18118615512572L387.69230769230774,186.9298719400645L392.3076923076923,222.95669079839342L396.9230769230769,231.84812178040158L401.5384615384615,254.78820815713138L406.1538461538462,182.66365227686794L410.7692307692308,218.10996749729136L415.38461538461536,201.82066454255806L420,229.3670076726343L424.61538461538464,183.79332769141683L429.2307692307692,217.80852184311283L433.8461538461538,206.33963694961844L438.46153846153845,231.34755127488495L443.0769230769231,144.77180344738875L447.6923076923077,182.75103530514355L452.3076923076923,189.5920377038994L456.9230769230769,216.27153276011498L461.53846153846155,170.02192888162702L466.1538461538462,204.96486939851422L470.7692307692308,187.02503567259043L475.38461538461536,217.44943417033525L480,142.7645426923245L484.61538461538464,181.70479798131876L489.2307692307692,170.59743599758434L493.8461538461538,196.11082110260617L498.4615384615385,155.24533298027274L503.0769230769231,186.83462322766917L507.6923076923077,194.16813615135598L512.3076923076923,218.4748359319969L516.9230769230769,143.15122577778016L521.5384615384615,176.17739353499547L526.1538461538462,163.1575171139472L530.7692307692307,188.06202600216676L535.3846153846154,144.01320434107313L540,177.77752391832072L544.6153846153846,163.5805354866129L549.2307692307692,192.13084466532464L553.8461538461539,129.2119704031985L558.4615384615385,164.5968696621021L563.0769230769231,170.19144966014036L567.6923076923076,194.12032215321358L572.3076923076924,151.22507703684235L576.9230769230769,181.99795613720633L581.5384615384615,168.96731411169188L586.1538461538462,194.6805837249567L590.7692307692308,113.18178916519166L595.3846153846154,154.8858715748513L600,141.32175329081284L604.6153846153846,166.41017069015393L609.2307692307692,125.3108139484886L613.8461538461538,158.15566163236556L618.4615384615383,161.49672716227502L623.0769230769231,185.5326329266032L627.6923076923077,123.67132651950175L632.3076923076924,160.2488901556988L636.9230769230769,141.6320046509938L641.5384615384615,165.66867160556382L646.1538461538461,126.43251001699937L650.7692307692307,156.29674965111707L655.3846153846154,144.86928693293203L660,169.3367583004929L664.6153846153846,102.73450304408823L669.2307692307693,136.09149459860788L673.8461538461538,141.35213170321336L678.4615384615385,167.06604699340346L683.0769230769231,127.53945014519392L687.6923076923076,155.13106666636781L692.3076923076923,140.882955761522L696.923076923077,163.7462435985428L701.5384615384615,105.90340765197479L706.1538461538462,145.03191631257016L710.7692307692308,136.18657870257195L715.3846153846154,156.39857567873156L720,119.3218572114395L724.6153846153845,146.5589079618021L729.2307692307692,154.08955375740834L733.8461538461539,176.38650967828625L738.4615384615385,104.06318674111625L743.0769230769231,140.1056080636808L747.6923076923077,124.33915295670805L752.3076923076923,148.82255706462283L756.9230769230769,114.62793813289125L761.5384615384615,144.46736429005418L766.1538461538461,131.85055802790902L770.7692307692308,157.38617392984642L775.3846153846155,104.7028848438845L780,147.30027128356744L784.6153846153846,153.98096725214415L789.2307692307692,175.66865080347287L793.8461538461538,137.5346897969848L798.4615384615385,163.2670166194783L803.076923076923,144.82735977166587L807.6923076923077,168.41622090647186L812.3076923076924,112.70348057705708L816.9230769230769,138.092277704969L821.5384615384615,141.2877854368735L826.1538461538462,145.93990557797198L830.7692307692307,120.35989456470936L835.3846153846154,149.2005372324924L840,148.12936963565048L844.6153846153846,179.00912200357783L849.2307692307693,130.08046346958477L853.8461538461539,153.40931733715456L858.4615384615385,142.95003293887575L863.0769230769231,169.50180548195007L867.6923076923076,148.10369304898836L872.3076923076923,159.48677349370075L876.9230769230769,159.84061682635817L881.5384615384617,171.142180262512L886.1538461538462,120.55220687436136L890.7692307692308,159.84422115167771L895.3846153846154,169.87069602446368L900,184.40856624143095L904.6153846153846,158.65807374322628L909.2307692307692,178.31311412568354L913.8461538461538,169.64221824686936L918.4615384615383,186.41868251824582L923.0769230769231,145.61805410931677L927.6923076923077,171.19504693007352L932.3076923076924,166.54836122687777L936.9230769230769,183.08051144165046L941.5384615384615,160.6959630983803L946.1538461538461,170.5640865023745L950.7692307692307,175.84778654146362L955.3846153846154,189.91164196908215L960,141.00102777194508L964.6153846153846,164.82520227025722L969.2307692307693,155.34785312059122L973.8461538461538,167.59711759981033L978.4615384615385,146.70718929010212L983.0769230769231,164.08578359231478L987.6923076923076,160.1976049561297L992.3076923076923,176.59254641273208L996.923076923077,137.90919536320973L1001.5384615384615,161.7353057547464L1006.1538461538462,165.15868624341473L1010.7692307692308,179.71369922212614L1015.3846153846154,155.33886723745712L1020,174.19210913193618L1024.6153846153845,165.8643045880454L1029.2307692307693,180.15202573199417L1033.8461538461538,133.114343692255L1038.4615384615386,155.31397964342483L1043.076923076923,150.27521506046625L1047.6923076923076,167.0304764407693L1052.3076923076924,143.12375805397778L1056.923076923077,162.35236880170962L1061.5384615384614,160.9979626052674L1066.1538461538462,180.8606942702557L1070.7692307692307,143.64853333235877L1075.3846153846155,163.39793158276836L1080,156.21401153431964L1084.6153846153845,170.741413698171L1089.2307692307693,147.59765749362833L1093.8461538461538,165.42939058232784L1098.4615384615383,159.70594310955556L1103.076923076923,171.19037884375882L1107.6923076923078,129.62499411634266L1112.3076923076924,152.16698384902793L1116.923076923077,154.58760229801254L1121.5384615384617,169.0757948804707L1126.1538461538462,144.91391366435056L1130.7692307692307,162.34896912125322L1135.3846153846152,153.91918752035087L1140,167.74501090732804L1144.6153846153848,132.4538446212086L1149.2307692307693,154.5782018142514L1153.8461538461538,149.65319693389486L1158.4615384615386,161.99691300390745L1163.076923076923,141.81686999493218L1167.6923076923076,160.57805311151262L1172.3076923076924,164.02193317352592L1176.923076923077,178.5000753069951L1181.5384615384617,132.6404139520793" stroke="#f58518" stroke-width="2"></path></g></g><path class="foreground" aria-hidden="true" d="" display="none"></path></g><g transform="translate(0,0)"><path class="background" aria-hidden="true" d="M0,0h1200v600h-1200Z"></path><g><g class="mark-line role-mark marks" role="graphics-object" aria-roledescription="line mark container"><path aria-label="Library: MKL; Size: 2; GFLOPS: 0.175494671005" role="graphics-symbol" aria-roledescription="line mark" d="M9.230769230769232,599.1900245953616L13.846153846153847,598.2515685453192L18.461538461538463,595.9228575103465L23.076923076923077,592.0823361543746L27.692307692307693,587.151135477634L32.30769230769231,580.4676488646343L36.92307692307693,571.0986686847526L41.53846153846154,563.4780095380318L46.15384615384615,552.7692003468155L50.769230769230774,539.3821319231839L55.38461538461539,524.3880105989028L60,506.25745767266864L64.61538461538461,490.0626213617389L69.23076923076924,468.71233290188053L73.84615384615385,444.80602037732075L78.46153846153847,458.1297907076608L83.07692307692308,440.97889356316324L87.6923076923077,424.3336628324946L92.3076923076923,406.61812935191074L96.92307692307693,385.1566879965975L101.53846153846155,363.9074809820884L106.15384615384616,342.70600268320874L110.76923076923077,286.70999031166957L115.38461538461539,373.6520982450493L120,361.8269670130956L124.61538461538463,342.91581914056803L129.23076923076923,324.1534987247403L133.84615384615384,312.56416931029247L138.46153846153848,292.6870909608271L143.0769230769231,282.5212518616762L147.6923076923077,229.66556031151143L152.3076923076923,290.5539609644087L156.92307692307693,277.734807384834L161.53846153846152,271.2334019195624L166.15384615384616,254.21857147268628L170.76923076923077,239.27931349625524L175.3846153846154,221.80932634154468L180,211.49425287356314L184.6153846153846,156.81227999307512L189.23076923076923,232.30040102078019L193.84615384615387,227.65327447638114L198.46153846153845,210.78130609314314L203.0769230769231,195.89174316278852L207.69230769230768,181.21454802319988L212.30769230769232,169.85076947628144L216.9230769230769,163.49719713484902L221.53846153846155,94.82360604150895L226.15384615384616,218.0273204987915L230.76923076923077,202.30486425339365L235.3846153846154,194.54610290371875L240,180.8936427850655L244.6153846153846,178.75804260110166L249.23076923076925,155.7211336403634L253.84615384615384,166.47304706584868L258.46153846153845,106.57968444065912L263.0769230769231,172.19035977005132L267.6923076923077,149.91032209075433L272.3076923076923,156.38833104051216L276.92307692307696,133.82133414866632L281.53846153846155,137.23331286452478L286.1538461538462,118.89607970835118L290.7692307692308,121.44769039384275L295.3846153846154,76.97970158045497L300,139.5513577331759L304.6153846153846,135.99325723815747L309.23076923076917,136.61836327686999L313.84615384615387,109.12717014924078L318.46153846153845,118.5152795759337L323.07692307692304,112.14886808107138L327.6923076923077,99.03047156034353L332.3076923076923,59.34686723689646L336.9230769230769,195.7226531490051L341.53846153846155,152.15757304115854L346.15384615384613,146.8663289235781L350.7692307692308,134.42135344548208L355.3846153846154,135.63076923076926L360,132.6490984743412L364.6153846153846,122.9924294341022L369.2307692307692,82.80216172533954L373.84615384615387,135.4096760328411L378.46153846153845,126.50937117585177L383.07692307692304,121.04956024012282L387.69230769230774,109.97636845912713L392.3076923076923,137.5013336178384L396.9230769230769,97.1922451103747L401.5384615384615,96.77214746508562L406.1538461538462,54.28031844965992L410.7692307692308,129.74373797903206L415.38461538461536,108.6718188353702L420,117.10933703575147L424.61538461538464,91.33895472583464L429.2307692307692,110.07364921452675L433.8461538461538,83.91698769727842L438.46153846153845,83.4390203491437L443.0769230769231,40.362239008165155L447.6923076923077,133.8014583501828L452.3076923076923,138.489978547349L456.9230769230769,144.1698735891825L461.53846153846155,114.93593112090214L466.1538461538462,130.67159646512195L470.7692307692308,130.22414378255542L475.38461538461536,131.48261557755725L480,71.9072322245956L484.61538461538464,124.61209935184489L489.2307692307692,106.66395126076529L493.8461538461538,111.67727983895874L498.4615384615385,85.9594726479479L503.0769230769231,107.71676291422617L507.6923076923077,87.94891030449921L512.3076923076923,91.95999219903605L516.9230769230769,39.17288730988773L521.5384615384615,114.38184158787938L526.1538461538462,119.77699384680216L530.7692307692307,124.31653326174383L535.3846153846154,95.08442776735448L540,115.1634801429837L544.6153846153846,88.9838191728417L549.2307692307692,105.77257907625824L553.8461538461539,34.12908930150302L558.4615384615385,130.37331583725992L563.0769230769231,112.94026134265567L567.6923076923076,125.11034126361325L572.3076923076924,88.1454701650141L576.9230769230769,111.59868467664967L581.5384615384615,109.84791806197617L586.1538461538462,110.25303643724702L590.7692307692308,56.82184814820408L595.3846153846154,126.85965547072011L600,110.27504769264198L604.6153846153846,119.59419319452643L609.2307692307692,82.120408680233L613.8461538461538,110.45627396205597L618.4615384615383,81.54273514249238L623.0769230769231,90.31275732952156L627.6923076923077,28.679842376018705L632.3076923076924,117.06919461543153L636.9230769230769,94.13783147372274L641.5384615384615,100.25542815850437L646.1538461538461,68.55435745723402L650.7692307692307,90.00973326015693L655.3846153846154,71.27666548179053L660,79.40829315332685L664.6153846153846,20.77650504834969L669.2307692307693,127.71412526384411L673.8461538461538,108.85761517551025L678.4615384615385,121.58216369608297L683.0769230769231,85.64347612235119L687.6923076923076,111.15980651008826L692.3076923076923,97.29969254600941L696.923076923077,102.76791173029984L701.5384615384615,38.467854444573234L706.1538461538462,123.19491809353072L710.7692307692308,108.0087829979838L715.3846153846154,115.227749065962L720,74.63660350203882L724.6153846153845,100.25057035857259L729.2307692307692,90.93937744814397L733.8461538461539,97.89944071273997L738.4615384615385,28.975718224053004L743.0769230769231,113.22870081560485L747.6923076923077,115.55519261629621L752.3076923076923,127.56389196206257L756.9230769230769,90.70114635070976L761.5384615384615,117.50888131660979L766.1538461538461,99.96126608523284L770.7692307692308,107.66732528834152L775.3846153846155,30.57424355388325L780,127.54692172290198L784.6153846153846,110.69473446582751L789.2307692307692,121.64709089995912L793.8461538461538,89.45337792642133L798.4615384615385,114.88692100007339L803.076923076923,99.93404310691932L807.6923076923077,112.91139815729976L812.3076923076924,38.21558452487579L816.9230769230769,124.34402763749588L821.5384615384615,123.58979051952674L826.1538461538462,124.73143941512681L830.7692307692307,92.59784768800104L835.3846153846154,120.79641780350039L840,92.92608251931765L844.6153846153846,115.2846033230579L849.2307692307693,39.06515421308663L853.8461538461539,113.81085722915152L858.4615384615385,99.90173969698112L863.0769230769231,109.28896384692295L867.6923076923076,75.917820068067L872.3076923076923,107.02912484300906L876.9230769230769,89.22322312880249L881.5384615384617,95.75231485669411L886.1538461538462,114.19217785322817L890.7692307692308,174.39648184756288L895.3846153846154,170.33685384365285L900,198.49004804392584L904.6153846153846,161.12718964204115L909.2307692307692,196.00962942054826L913.8461538461538,188.41726895262113L918.4615384615383,214.70343872229463L923.0769230769231,146.4162632448814L927.6923076923077,184.2195520109501L932.3076923076924,183.0889445469651L936.9230769230769,206.714103034235L941.5384615384615,171.7604251963472L946.1538461538461,200.09337981951467L950.7692307692307,192.55490510459L955.3846153846154,213.0600875765931L960,129.45143090204604L964.6153846153846,170.7831002425983L969.2307692307693,164.3018585349311L973.8461538461538,192.8250013816051L978.4615384615385,158.7798073160623L983.0769230769231,185.39229163903224L987.6923076923076,182.87163644424734L992.3076923076923,207.06703093370442L996.923076923077,131.56608361148434L1001.5384615384615,169.88322071187235L1006.1538461538462,164.9707695037061L1010.7692307692308,189.85496059999417L1015.3846153846154,154.7285006377151L1020,184.71653287318378L1024.6153846153845,179.3727333540081L1029.2307692307693,200.05925413007233L1033.8461538461538,137.72432727010985L1038.4615384615386,171.18992345338182L1043.076923076923,168.69062253625322L1047.6923076923076,192.15120667923063L1052.3076923076924,160.00930541050224L1056.923076923077,187.95290395852413L1061.5384615384614,183.01798742576636L1066.1538461538462,206.02048888431946L1070.7692307692307,132.97232604353925L1075.3846153846155,166.0847934192367L1080,161.27441270406518L1084.6153846153845,183.92689208540824L1089.2307692307693,151.17561425893408L1093.8461538461538,178.95434842084788L1098.4615384615383,174.17700941270598L1103.076923076923,197.06952820227505L1107.6923076923078,127.94583533593816L1112.3076923076924,160.84153480646546L1116.923076923077,155.16615043541813L1121.5384615384617,177.4156779436393L1126.1538461538462,144.44390958674921L1130.7692307692307,174.60171679406426L1135.3846153846152,168.80800403764508L1140,190.54362416107378L1144.6153846153848,132.92845408209345L1149.2307692307693,167.3545733832632L1153.8461538461538,164.6849189443319L1158.4615384615386,182.35416929402385L1163.076923076923,151.8650321838109L1167.6923076923076,179.21122292082546L1172.3076923076924,171.10150998532353L1176.923076923077,191.0502596932021L1181.5384615384617,124.66034821526802" stroke="#4c78a8" stroke-width="2"></path></g></g><path class="foreground" aria-hidden="true" d="" display="none"></path></g><g transform="translate(0,0)"><path class="background" aria-hidden="true" d="M0,0h1200v600h-1200Z"></path><g><g class="mark-line role-mark marks" role="graphics-object" aria-roledescription="line mark container"><path aria-label="Library: PaddedMatrices; Size: 2; GFLOPS: 0.384970592524" role="graphics-symbol" aria-roledescription="line mark" d="M9.230769230769232,598.2232126498884L13.846153846153847,593.6611309848143L18.461538461538463,585.7342452863786L23.076923076923077,573.3336206478583L27.692307692307693,556.5839440288458L32.30769230769231,537.5596997358302L36.92307692307693,516.0765260653376L41.53846153846154,505.45861252858526L46.15384615384615,485.35417371334984L50.769230769230774,467.31115017950486L55.38461538461539,427.53474460279074L60,408.2337457225585L64.61538461538461,373.615024170569L69.23076923076924,331.3661219730392L73.84615384615385,292.496767645873L78.46153846153847,343.6970204829981L83.07692307692308,303.9871512225293L87.6923076923077,324.40823926451765L92.3076923076923,264.7068254712614L96.92307692307693,259.68956568574646L101.53846153846155,229.91335326398334L106.15384615384616,212.71655751392095L110.76923076923077,149.80001020110612L115.38461538461539,277.80932907969327L120,230.64951191749157L124.61538461538463,240.79796010672243L129.23076923076923,226.828984895694L133.84615384615384,217.05841431793743L138.46153846153848,194.05629754227493L143.0769230769231,179.76999484088373L147.6923076923077,123.69874118315727L152.3076923076923,202.8209081389333L156.92307692307693,166.78827691866806L161.53846153846152,174.67035919480838L166.15384615384616,153.5311004784689L170.76923076923077,154.74130668874022L175.3846153846154,126.40414284173048L180,126.33217993079582L184.6153846153846,87.22399898513069L189.23076923076923,162.7834195905118L193.84615384615387,180.87318087318093L198.46153846153845,151.06999680036134L203.0769230769231,107.07507136794999L207.69230769230768,141.18046901552046L212.30769230769232,143.42895785042242L216.9230769230769,120.9499925234443L221.53846153846155,59.839551950245706L226.15384615384616,201.60123413048038L230.76923076923077,151.5173662442071L235.3846153846154,180.10146987704616L240,140.2880755608028L244.6153846153846,148.98285829693765L249.23076923076925,148.12455721327595L253.84615384615384,148.41938302077233L258.46153846153845,79.57116441887095L263.0769230769231,159.9526749073053L267.6923076923077,133.7430985298437L272.3076923076923,139.74116196985827L276.92307692307696,106.45627225421421L281.53846153846155,124.09421067607833L286.1538461538462,107.084841411709L290.7692307692308,115.6954804435395L295.3846153846154,79.07075333327018L300,152.54177453518471L304.6153846153846,136.02029883398257L309.23076923076917,140.7322008016797L313.84615384615387,104.84232628332715L318.46153846153845,126.73615363005754L323.07692307692304,105.73638793689372L327.6923076923077,99.74351985799248L332.3076923076923,33.17877174155133L336.9230769230769,163.41323357493567L341.53846153846155,145.99718038970371L346.15384615384613,140.86491225418308L350.7692307692308,112.93138626739069L355.3846153846154,126.00283789395961L360,123.18711222379446L364.6153846153846,142.00168755467135L369.2307692307692,53.09695126474283L373.84615384615387,128.94092272237083L378.46153846153845,139.11520698806765L383.07692307692304,143.8961418809327L387.69230769230774,92.66377539374575L392.3076923076923,101.55225939979293L396.9230769230769,95.8538421907819L401.5384615384615,88.4718311226768L406.1538461538462,35.372877728142086L410.7692307692308,112.7363419059413L415.38461538461536,109.24513059868953L420,124.30828147438962L424.61538461538464,114.43023503551777L429.2307692307692,88.50689954850877L433.8461538461538,86.0274029114948L438.46153846153845,81.4081141975774L443.0769230769231,26.81121236988726L447.6923076923077,120.56260834544467L452.3076923076923,114.47825227192605L456.9230769230769,127.63007468771927L461.53846153846155,128.51316626983197L466.1538461538462,98.12819159732085L470.7692307692308,89.03207167877758L475.38461538461536,93.13011209895625L480,42.773424922185214L484.61538461538464,114.90061599921776L489.2307692307692,118.25100363025953L493.8461538461538,85.69203480378262L498.4615384615385,69.90742299276222L503.0769230769231,93.53413353582825L507.6923076923077,94.23045257064683L512.3076923076923,101.21350636720057L516.9230769230769,61.63949712125216L521.5384615384615,90.51146695856357L526.1538461538462,87.778914220354L530.7692307692307,92.9811060765591L535.3846153846154,97.61956871580296L540,71.10793117017857L544.6153846153846,72.06734785682151L549.2307692307692,77.0619967002673L553.8461538461539,23.931191781240457L558.4615384615385,134.70278078728785L563.0769230769231,90.04612716681832L567.6923076923076,92.54848312691739L572.3076923076924,93.40530917802718L576.9230769230769,107.4489480685694L581.5384615384615,68.7704125328912L586.1538461538462,89.82378799765878L590.7692307692308,40.75325281392013L595.3846153846154,120.44745361364022L600,85.99670510708395L604.6153846153846,94.65202535629177L609.2307692307692,92.53098178234409L613.8461538461538,107.08953582166157L618.4615384615383,62.01456328769568L623.0769230769231,74.74087963934852L627.6923076923077,28.609546813154264L632.3076923076924,94.78371780408774L636.9230769230769,84.30920977326319L641.5384615384615,99.92275571845089L646.1538461538461,53.770012093101926L650.7692307692307,68.65672490510781L655.3846153846154,76.5852588476162L660,83.0374995212011L664.6153846153846,14.861920586578204L669.2307692307693,114.22140779986456L673.8461538461538,109.72097431871468L678.4615384615385,89.70151811293474L683.0769230769231,90.4171475204971L687.6923076923076,100.2060095563655L692.3076923076923,66.34269495621368L696.923076923077,80.981069785146L701.5384615384615,28.518982604025922L706.1538461538462,93.61734515943556L710.7692307692308,104.53814952315919L715.3846153846154,76.84791694471174L720,72.04845051749848L724.6153846153845,86.44168563257672L729.2307692307692,67.80533164524509L733.8461538461539,74.09460511424963L738.4615384615385,20.96526993229737L743.0769230769231,94.83865501122706L747.6923076923077,97.5369842371955L752.3076923076923,93.09402186264586L756.9230769230769,83.6874695175482L761.5384615384615,92.87271933604151L766.1538461538461,69.15754231436517L770.7692307692308,89.25493134723898L775.3846153846155,20.877626171230148L780,110.42051710307999L784.6153846153846,106.6063663478694L789.2307692307692,105.8107450329899L793.8461538461538,103.8157545105349L798.4615384615385,97.98001376800588L803.076923076923,97.16761957486608L807.6923076923077,95.83023678046294L812.3076923076924,37.19148526162925L816.9230769230769,107.79115954914556L821.5384615384615,119.37174693468835L826.1538461538462,104.62154588961666L830.7692307692307,103.15779908219362L835.3846153846154,102.87840109321222L840,85.91351261466819L844.6153846153846,111.82539798442185L849.2307692307693,32.85221573967998L853.8461538461539,118.33453465218484L858.4615384615385,115.01391492769322L863.0769230769231,119.66806046015375L867.6923076923076,106.64451592904084L872.3076923076923,107.16557280016639L876.9230769230769,116.74722053912375L881.5384615384617,111.95616302749667L886.1538461538462,14.283338091632402L890.7692307692308,122.4830815726692L895.3846153846154,129.1209397738382L900,129.3450232078391L904.6153846153846,119.35680487694592L909.2307692307692,116.9596796315299L913.8461538461538,121.05311165556473L918.4615384615383,119.88284325945126L923.0769230769231,53.003608466820374L927.6923076923077,128.51872262415262L932.3076923076924,125.05530039110991L936.9230769230769,121.58329830460983L941.5384615384615,109.81341570795497L946.1538461538461,106.2140281326869L950.7692307692307,103.43569294388963L955.3846153846154,105.53172906776274L960,38.5741803361787L964.6153846153846,118.94777240113473L969.2307692307693,114.08167111271243L973.8461538461538,110.0976309129935L978.4615384615385,103.20578646947413L983.0769230769231,100.48754978942729L987.6923076923076,104.87267338320912L992.3076923076923,100.81160677212384L996.923076923077,37.15770401298326L1001.5384615384615,124.18169915821665L1006.1538461538462,117.90152257808334L1010.7692307692308,117.70397082075044L1015.3846153846154,116.26458861138072L1020,110.0480925264804L1024.6153846153845,110.53718319657051L1029.2307692307693,106.87557460243349L1033.8461538461538,44.06234504113063L1038.4615384615386,108.2398052062991L1043.076923076923,112.88552794546153L1047.6923076923076,112.73929633671867L1052.3076923076924,103.48842226527725L1056.923076923077,106.47905903948462L1061.5384615384614,100.96301246020197L1066.1538461538462,92.26419466021068L1070.7692307692307,37.84941767004231L1075.3846153846155,110.30812202032034L1080,101.65187713310581L1084.6153846153845,111.41458535754359L1089.2307692307693,96.86047279419012L1093.8461538461538,104.142263024812L1098.4615384615383,100.82828274101368L1103.076923076923,93.38594204444772L1107.6923076923078,38.53606727494628L1112.3076923076924,107.74385134982664L1116.923076923077,104.59169634739843L1121.5384615384617,105.38321932151335L1126.1538461538462,102.43085908477356L1130.7692307692307,104.57710358953393L1135.3846153846152,100.70534993594029L1140,97.11131115714575L1144.6153846153848,48.54967186103272L1149.2307692307693,101.90172090319585L1153.8461538461538,98.68173348637576L1158.4615384615386,99.01335531321595L1163.076923076923,92.25746697319373L1167.6923076923076,95.58081657571451L1172.3076923076924,91.70100522580941L1176.923076923077,90.37292971566357L1181.5384615384617,37.7605438787666" stroke="#e45756" stroke-width="2"></path></g></g><path class="foreground" aria-hidden="true" d="" display="none"></path></g></g><g class="mark-group role-legend" role="graphics-symbol" aria-roledescription="legend" aria-label="Symbol legend titled 'Library' for stroke color with 3 values: MKL, OpenBLAS, PaddedMatrices"><g transform="translate(1218,0)"><path class="background" aria-hidden="true" d="M0,0h89v53h-89Z" pointer-events="none"></path><g><g class="mark-group role-legend-entry"><g transform="translate(0,16)"><path class="background" aria-hidden="true" d="M0,0h0v0h0Z" pointer-events="none"></path><g><g class="mark-group role-scope" role="graphics-object" aria-roledescription="group mark container"><g transform="translate(0,0)"><path class="background" aria-hidden="true" d="M0,0h89v11h-89Z" pointer-events="none" opacity="1"></path><g><g class="mark-symbol role-legend-symbol" pointer-events="none"><path transform="translate(6,6)" d="M-5,0L5,0" stroke="#4c78a8" stroke-width="1.5" opacity="1"></path></g><g class="mark-text role-legend-label" pointer-events="none"><text text-anchor="start" transform="translate(16,9)" font-family="sans-serif" font-size="10px" fill="#000" opacity="1">MKL</text></g></g><path class="foreground" aria-hidden="true" d="" pointer-events="none" display="none"></path></g><g transform="translate(0,13)"><path class="background" aria-hidden="true" d="M0,0h89v11h-89Z" pointer-events="none" opacity="1"></path><g><g class="mark-symbol role-legend-symbol" pointer-events="none"><path transform="translate(6,6)" d="M-5,0L5,0" stroke="#f58518" stroke-width="1.5" opacity="1"></path></g><g class="mark-text role-legend-label" pointer-events="none"><text text-anchor="start" transform="translate(16,9)" font-family="sans-serif" font-size="10px" fill="#000" opacity="1">OpenBLAS</text></g></g><path class="foreground" aria-hidden="true" d="" pointer-events="none" display="none"></path></g><g transform="translate(0,26)"><path class="background" aria-hidden="true" d="M0,0h89v11h-89Z" pointer-events="none" opacity="1"></path><g><g class="mark-symbol role-legend-symbol" pointer-events="none"><path transform="translate(6,6)" d="M-5,0L5,0" stroke="#e45756" stroke-width="1.5" opacity="1"></path></g><g class="mark-text role-legend-label" pointer-events="none"><text text-anchor="start" transform="translate(16,9)" font-family="sans-serif" font-size="10px" fill="#000" opacity="1">PaddedMatrices</text></g></g><path class="foreground" aria-hidden="true" d="" pointer-events="none" display="none"></path></g></g></g><path class="foreground" aria-hidden="true" d="" pointer-events="none" display="none"></path></g></g><g class="mark-text role-legend-title" pointer-events="none"><text text-anchor="start" transform="translate(0,9)" font-family="sans-serif" font-size="11px" font-weight="bold" fill="#000" opacity="1">Library</text></g></g><path class="foreground" aria-hidden="true" d="" pointer-events="none" display="none"></path></g></g></g><path class="foreground" aria-hidden="true" d="" display="none"></path></g></g></g></svg>
