<?xml version="1.0" encoding="utf-8"?>
<!DOCTYPE svg PUBLIC "-//W3C//DTD SVG 1.1//EN" "http://www.w3.org/Graphics/SVG/1.1/DTD/svg11.dtd">
<svg class="marks" width="1059" height="647" viewBox="0 0 1059 647" version="1.1" xmlns="http://www.w3.org/2000/svg" xmlns:xlink="http://www.w3.org/1999/xlink"><rect width="1059" height="647" style="fill: white;"></rect><g transform="translate(45,10)"><g class="mark-group role-frame root"><g transform="translate(0,0)"><path class="background" d="M0.5,0.5h900v600h-900Z" style="fill: none; stroke: #ddd;"></path><g><g class="mark-group role-axis"><g transform="translate(0.5,600.5)"><path class="background" d="M0,0h0v0h0Z" style="pointer-events: none; fill: none;"></path><g><g class="mark-rule role-axis-grid" style="pointer-events: none;"><line transform="translate(0,-600)" x2="0" y2="600" style="fill: none; stroke: #ddd; stroke-width: 1; opacity: 1;"></line><line transform="translate(68,-600)" x2="0" y2="600" style="fill: none; stroke: #ddd; stroke-width: 1; opacity: 1;"></line><line transform="translate(107,-600)" x2="0" y2="600" style="fill: none; stroke: #ddd; stroke-width: 1; opacity: 1;"></line><line transform="translate(135,-600)" x2="0" y2="600" style="fill: none; stroke: #ddd; stroke-width: 1; opacity: 1;"></line><line transform="translate(157,-600)" x2="0" y2="600" style="fill: none; stroke: #ddd; stroke-width: 1; opacity: 1;"></line><line transform="translate(175,-600)" x2="0" y2="600" style="fill: none; stroke: #ddd; stroke-width: 1; opacity: 1;"></line><line transform="translate(190,-600)" x2="0" y2="600" style="fill: none; stroke: #ddd; stroke-width: 1; opacity: 1;"></line><line transform="translate(203,-600)" x2="0" y2="600" style="fill: none; stroke: #ddd; stroke-width: 1; opacity: 1;"></line><line transform="translate(215,-600)" x2="0" y2="600" style="fill: none; stroke: #ddd; stroke-width: 1; opacity: 1;"></line><line transform="translate(225,-600)" x2="0" y2="600" style="fill: none; stroke: #ddd; stroke-width: 1; opacity: 1;"></line><line transform="translate(293,-600)" x2="0" y2="600" style="fill: none; stroke: #ddd; stroke-width: 1; opacity: 1;"></line><line transform="translate(332,-600)" x2="0" y2="600" style="fill: none; stroke: #ddd; stroke-width: 1; opacity: 1;"></line><line transform="translate(360,-600)" x2="0" y2="600" style="fill: none; stroke: #ddd; stroke-width: 1; opacity: 1;"></line><line transform="translate(382,-600)" x2="0" y2="600" style="fill: none; stroke: #ddd; stroke-width: 1; opacity: 1;"></line><line transform="translate(400,-600)" x2="0" y2="600" style="fill: none; stroke: #ddd; stroke-width: 1; opacity: 1;"></line><line transform="translate(415,-600)" x2="0" y2="600" style="fill: none; stroke: #ddd; stroke-width: 1; opacity: 1;"></line><line transform="translate(428,-600)" x2="0" y2="600" style="fill: none; stroke: #ddd; stroke-width: 1; opacity: 1;"></line><line transform="translate(440,-600)" x2="0" y2="600" style="fill: none; stroke: #ddd; stroke-width: 1; opacity: 1;"></line><line transform="translate(450,-600)" x2="0" y2="600" style="fill: none; stroke: #ddd; stroke-width: 1; opacity: 1;"></line><line transform="translate(518,-600)" x2="0" y2="600" style="fill: none; stroke: #ddd; stroke-width: 1; opacity: 1;"></line><line transform="translate(557,-600)" x2="0" y2="600" style="fill: none; stroke: #ddd; stroke-width: 1; opacity: 1;"></line><line transform="translate(585,-600)" x2="0" y2="600" style="fill: none; stroke: #ddd; stroke-width: 1; opacity: 1;"></line><line transform="translate(607,-600)" x2="0" y2="600" style="fill: none; stroke: #ddd; stroke-width: 1; opacity: 1;"></line><line transform="translate(625,-600)" x2="0" y2="600" style="fill: none; stroke: #ddd; stroke-width: 1; opacity: 1;"></line><line transform="translate(640,-600)" x2="0" y2="600" style="fill: none; stroke: #ddd; stroke-width: 1; opacity: 1;"></line><line transform="translate(653,-600)" x2="0" y2="600" style="fill: none; stroke: #ddd; stroke-width: 1; opacity: 1;"></line><line transform="translate(665,-600)" x2="0" y2="600" style="fill: none; stroke: #ddd; stroke-width: 1; opacity: 1;"></line><line transform="translate(675,-600)" x2="0" y2="600" style="fill: none; stroke: #ddd; stroke-width: 1; opacity: 1;"></line><line transform="translate(743,-600)" x2="0" y2="600" style="fill: none; stroke: #ddd; stroke-width: 1; opacity: 1;"></line><line transform="translate(782,-600)" x2="0" y2="600" style="fill: none; stroke: #ddd; stroke-width: 1; opacity: 1;"></line><line transform="translate(810,-600)" x2="0" y2="600" style="fill: none; stroke: #ddd; stroke-width: 1; opacity: 1;"></line><line transform="translate(832,-600)" x2="0" y2="600" style="fill: none; stroke: #ddd; stroke-width: 1; opacity: 1;"></line><line transform="translate(850,-600)" x2="0" y2="600" style="fill: none; stroke: #ddd; stroke-width: 1; opacity: 1;"></line><line transform="translate(865,-600)" x2="0" y2="600" style="fill: none; stroke: #ddd; stroke-width: 1; opacity: 1;"></line><line transform="translate(878,-600)" x2="0" y2="600" style="fill: none; stroke: #ddd; stroke-width: 1; opacity: 1;"></line><line transform="translate(890,-600)" x2="0" y2="600" style="fill: none; stroke: #ddd; stroke-width: 1; opacity: 1;"></line><line transform="translate(900,-600)" x2="0" y2="600" style="fill: none; stroke: #ddd; stroke-width: 1; opacity: 1;"></line></g></g><path class="foreground" d="" style="pointer-events: none; display: none; fill: none;"></path></g></g><g class="mark-group role-axis"><g transform="translate(0.5,0.5)"><path class="background" d="M0,0h0v0h0Z" style="pointer-events: none; fill: none;"></path><g><g class="mark-rule role-axis-grid" style="pointer-events: none;"><line transform="translate(0,600)" x2="900" y2="0" style="fill: none; stroke: #ddd; stroke-width: 1; opacity: 1;"></line><line transform="translate(0,554)" x2="900" y2="0" style="fill: none; stroke: #ddd; stroke-width: 1; opacity: 1;"></line><line transform="translate(0,508)" x2="900" y2="0" style="fill: none; stroke: #ddd; stroke-width: 1; opacity: 1;"></line><line transform="translate(0,462)" x2="900" y2="0" style="fill: none; stroke: #ddd; stroke-width: 1; opacity: 1;"></line><line transform="translate(0,415)" x2="900" y2="0" style="fill: none; stroke: #ddd; stroke-width: 1; opacity: 1;"></line><line transform="translate(0,369)" x2="900" y2="0" style="fill: none; stroke: #ddd; stroke-width: 1; opacity: 1;"></line><line transform="translate(0,323)" x2="900" y2="0" style="fill: none; stroke: #ddd; stroke-width: 1; opacity: 1;"></line><line transform="translate(0,277)" x2="900" y2="0" style="fill: none; stroke: #ddd; stroke-width: 1; opacity: 1;"></line><line transform="translate(0,231)" x2="900" y2="0" style="fill: none; stroke: #ddd; stroke-width: 1; opacity: 1;"></line><line transform="translate(0,185)" x2="900" y2="0" style="fill: none; stroke: #ddd; stroke-width: 1; opacity: 1;"></line><line transform="translate(0,138)" x2="900" y2="0" style="fill: none; stroke: #ddd; stroke-width: 1; opacity: 1;"></line><line transform="translate(0,92)" x2="900" y2="0" style="fill: none; stroke: #ddd; stroke-width: 1; opacity: 1;"></line><line transform="translate(0,46)" x2="900" y2="0" style="fill: none; stroke: #ddd; stroke-width: 1; opacity: 1;"></line><line transform="translate(0,0)" x2="900" y2="0" style="fill: none; stroke: #ddd; stroke-width: 1; opacity: 1;"></line></g></g><path class="foreground" d="" style="pointer-events: none; display: none; fill: none;"></path></g></g><g class="mark-group role-axis"><g transform="translate(0.5,600.5)"><path class="background" d="M0,0h0v0h0Z" style="pointer-events: none; fill: none;"></path><g><g class="mark-rule role-axis-tick" style="pointer-events: none;"><line transform="translate(0,0)" x2="0" y2="5" style="fill: none; stroke: #888; stroke-width: 1; opacity: 1;"></line><line transform="translate(68,0)" x2="0" y2="5" style="fill: none; stroke: #888; stroke-width: 1; opacity: 1;"></line><line transform="translate(107,0)" x2="0" y2="5" style="fill: none; stroke: #888; stroke-width: 1; opacity: 1;"></line><line transform="translate(135,0)" x2="0" y2="5" style="fill: none; stroke: #888; stroke-width: 1; opacity: 1;"></line><line transform="translate(157,0)" x2="0" y2="5" style="fill: none; stroke: #888; stroke-width: 1; opacity: 1;"></line><line transform="translate(175,0)" x2="0" y2="5" style="fill: none; stroke: #888; stroke-width: 1; opacity: 1;"></line><line transform="translate(190,0)" x2="0" y2="5" style="fill: none; stroke: #888; stroke-width: 1; opacity: 1;"></line><line transform="translate(203,0)" x2="0" y2="5" style="fill: none; stroke: #888; stroke-width: 1; opacity: 1;"></line><line transform="translate(215,0)" x2="0" y2="5" style="fill: none; stroke: #888; stroke-width: 1; opacity: 1;"></line><line transform="translate(225,0)" x2="0" y2="5" style="fill: none; stroke: #888; stroke-width: 1; opacity: 1;"></line><line transform="translate(293,0)" x2="0" y2="5" style="fill: none; stroke: #888; stroke-width: 1; opacity: 1;"></line><line transform="translate(332,0)" x2="0" y2="5" style="fill: none; stroke: #888; stroke-width: 1; opacity: 1;"></line><line transform="translate(360,0)" x2="0" y2="5" style="fill: none; stroke: #888; stroke-width: 1; opacity: 1;"></line><line transform="translate(382,0)" x2="0" y2="5" style="fill: none; stroke: #888; stroke-width: 1; opacity: 1;"></line><line transform="translate(400,0)" x2="0" y2="5" style="fill: none; stroke: #888; stroke-width: 1; opacity: 1;"></line><line transform="translate(415,0)" x2="0" y2="5" style="fill: none; stroke: #888; stroke-width: 1; opacity: 1;"></line><line transform="translate(428,0)" x2="0" y2="5" style="fill: none; stroke: #888; stroke-width: 1; opacity: 1;"></line><line transform="translate(440,0)" x2="0" y2="5" style="fill: none; stroke: #888; stroke-width: 1; opacity: 1;"></line><line transform="translate(450,0)" x2="0" y2="5" style="fill: none; stroke: #888; stroke-width: 1; opacity: 1;"></line><line transform="translate(518,0)" x2="0" y2="5" style="fill: none; stroke: #888; stroke-width: 1; opacity: 1;"></line><line transform="translate(557,0)" x2="0" y2="5" style="fill: none; stroke: #888; stroke-width: 1; opacity: 1;"></line><line transform="translate(585,0)" x2="0" y2="5" style="fill: none; stroke: #888; stroke-width: 1; opacity: 1;"></line><line transform="translate(607,0)" x2="0" y2="5" style="fill: none; stroke: #888; stroke-width: 1; opacity: 1;"></line><line transform="translate(625,0)" x2="0" y2="5" style="fill: none; stroke: #888; stroke-width: 1; opacity: 1;"></line><line transform="translate(640,0)" x2="0" y2="5" style="fill: none; stroke: #888; stroke-width: 1; opacity: 1;"></line><line transform="translate(653,0)" x2="0" y2="5" style="fill: none; stroke: #888; stroke-width: 1; opacity: 1;"></line><line transform="translate(665,0)" x2="0" y2="5" style="fill: none; stroke: #888; stroke-width: 1; opacity: 1;"></line><line transform="translate(675,0)" x2="0" y2="5" style="fill: none; stroke: #888; stroke-width: 1; opacity: 1;"></line><line transform="translate(743,0)" x2="0" y2="5" style="fill: none; stroke: #888; stroke-width: 1; opacity: 1;"></line><line transform="translate(782,0)" x2="0" y2="5" style="fill: none; stroke: #888; stroke-width: 1; opacity: 1;"></line><line transform="translate(810,0)" x2="0" y2="5" style="fill: none; stroke: #888; stroke-width: 1; opacity: 1;"></line><line transform="translate(832,0)" x2="0" y2="5" style="fill: none; stroke: #888; stroke-width: 1; opacity: 1;"></line><line transform="translate(850,0)" x2="0" y2="5" style="fill: none; stroke: #888; stroke-width: 1; opacity: 1;"></line><line transform="translate(865,0)" x2="0" y2="5" style="fill: none; stroke: #888; stroke-width: 1; opacity: 1;"></line><line transform="translate(878,0)" x2="0" y2="5" style="fill: none; stroke: #888; stroke-width: 1; opacity: 1;"></line><line transform="translate(890,0)" x2="0" y2="5" style="fill: none; stroke: #888; stroke-width: 1; opacity: 1;"></line><line transform="translate(900,0)" x2="0" y2="5" style="fill: none; stroke: #888; stroke-width: 1; opacity: 1;"></line></g><g class="mark-text role-axis-label" style="pointer-events: none;"><text text-anchor="start" transform="translate(0,15)" style="font-family: sans-serif; font-size: 10px; fill: #000; opacity: 1;">1</text><text text-anchor="middle" transform="translate(67.73174902439575,15)" style="font-family: sans-serif; font-size: 10px; fill: #000; opacity: 1;">2</text><text text-anchor="middle" transform="translate(107.35228231192403,15)" style="font-family: sans-serif; font-size: 10px; fill: #000; opacity: 1;"></text><text text-anchor="middle" transform="translate(135.4634980487915,15)" style="font-family: sans-serif; font-size: 10px; fill: #000; opacity: 1;"></text><text text-anchor="middle" transform="translate(157.26825097560422,15)" style="font-family: sans-serif; font-size: 10px; fill: #000; opacity: 1;"></text><text text-anchor="middle" transform="translate(175.08403133631978,15)" style="font-family: sans-serif; font-size: 10px; fill: #000; opacity: 1;"></text><text text-anchor="middle" transform="translate(190.14705900320774,15)" style="font-family: sans-serif; font-size: 10px; fill: #000; opacity: 1;"></text><text text-anchor="middle" transform="translate(203.19524707318726,15)" style="font-family: sans-serif; font-size: 10px; fill: #000; opacity: 1;"></text><text text-anchor="middle" transform="translate(214.70456462384809,15)" style="font-family: sans-serif; font-size: 10px; fill: #000; opacity: 1;"></text><text text-anchor="middle" transform="translate(225,15)" style="font-family: sans-serif; font-size: 10px; fill: #000; opacity: 1;">10</text><text text-anchor="middle" transform="translate(292.73174902439575,15)" style="font-family: sans-serif; font-size: 10px; fill: #000; opacity: 1;">20</text><text text-anchor="middle" transform="translate(332.35228231192406,15)" style="font-family: sans-serif; font-size: 10px; fill: #000; opacity: 1;"></text><text text-anchor="middle" transform="translate(360.4634980487915,15)" style="font-family: sans-serif; font-size: 10px; fill: #000; opacity: 1;"></text><text text-anchor="middle" transform="translate(382.2682509756042,15)" style="font-family: sans-serif; font-size: 10px; fill: #000; opacity: 1;"></text><text text-anchor="middle" transform="translate(400.08403133631975,15)" style="font-family: sans-serif; font-size: 10px; fill: #000; opacity: 1;"></text><text text-anchor="middle" transform="translate(415.1470590032078,15)" style="font-family: sans-serif; font-size: 10px; fill: #000; opacity: 1;"></text><text text-anchor="middle" transform="translate(428.19524707318726,15)" style="font-family: sans-serif; font-size: 10px; fill: #000; opacity: 1;"></text><text text-anchor="middle" transform="translate(439.70456462384806,15)" style="font-family: sans-serif; font-size: 10px; fill: #000; opacity: 1;"></text><text text-anchor="middle" transform="translate(450,15)" style="font-family: sans-serif; font-size: 10px; fill: #000; opacity: 1;">100</text><text text-anchor="middle" transform="translate(517.7317490243956,15)" style="font-family: sans-serif; font-size: 10px; fill: #000; opacity: 1;">200</text><text text-anchor="middle" transform="translate(557.352282311924,15)" style="font-family: sans-serif; font-size: 10px; fill: #000; opacity: 1;"></text><text text-anchor="middle" transform="translate(585.4634980487915,15)" style="font-family: sans-serif; font-size: 10px; fill: #000; opacity: 1;"></text><text text-anchor="middle" transform="translate(607.2682509756041,15)" style="font-family: sans-serif; font-size: 10px; fill: #000; opacity: 1;"></text><text text-anchor="middle" transform="translate(625.0840313363198,15)" style="font-family: sans-serif; font-size: 10px; fill: #000; opacity: 1;"></text><text text-anchor="middle" transform="translate(640.1470590032077,15)" style="font-family: sans-serif; font-size: 10px; fill: #000; opacity: 1;"></text><text text-anchor="middle" transform="translate(653.1952470731873,15)" style="font-family: sans-serif; font-size: 10px; fill: #000; opacity: 1;"></text><text text-anchor="middle" transform="translate(664.7045646238481,15)" style="font-family: sans-serif; font-size: 10px; fill: #000; opacity: 1;"></text><text text-anchor="middle" transform="translate(674.9999999999999,15)" style="font-family: sans-serif; font-size: 10px; fill: #000; opacity: 1;">1,000</text><text text-anchor="middle" transform="translate(742.7317490243956,15)" style="font-family: sans-serif; font-size: 10px; fill: #000; opacity: 1;">2,000</text><text text-anchor="middle" transform="translate(782.3522823119239,15)" style="font-family: sans-serif; font-size: 10px; fill: #000; opacity: 1;"></text><text text-anchor="middle" transform="translate(810.4634980487915,15)" style="font-family: sans-serif; font-size: 10px; fill: #000; opacity: 1;"></text><text text-anchor="middle" transform="translate(832.2682509756042,15)" style="font-family: sans-serif; font-size: 10px; fill: #000; opacity: 1;"></text><text text-anchor="middle" transform="translate(850.0840313363196,15)" style="font-family: sans-serif; font-size: 10px; fill: #000; opacity: 1;"></text><text text-anchor="middle" transform="translate(865.1470590032077,15)" style="font-family: sans-serif; font-size: 10px; fill: #000; opacity: 1;"></text><text text-anchor="middle" transform="translate(878.1952470731873,15)" style="font-family: sans-serif; font-size: 10px; fill: #000; opacity: 1;"></text><text text-anchor="middle" transform="translate(889.7045646238481,15)" style="font-family: sans-serif; font-size: 10px; fill: #000; opacity: 1;"></text><text text-anchor="end" transform="translate(900,15)" style="font-family: sans-serif; font-size: 10px; fill: #000; opacity: 1;">10,000</text></g><g class="mark-rule role-axis-domain" style="pointer-events: none;"><line transform="translate(0,0)" x2="900" y2="0" style="fill: none; stroke: #888; stroke-width: 1; opacity: 1;"></line></g><g class="mark-text role-axis-title" style="pointer-events: none;"><text text-anchor="middle" transform="translate(450,30)" style="font-family: sans-serif; font-size: 11px; font-weight: bold; fill: #000; opacity: 1;">Size</text></g></g><path class="foreground" d="" style="pointer-events: none; display: none; fill: none;"></path></g></g><g class="mark-group role-axis"><g transform="translate(0.5,0.5)"><path class="background" d="M0,0h0v0h0Z" style="pointer-events: none; fill: none;"></path><g><g class="mark-rule role-axis-tick" style="pointer-events: none;"><line transform="translate(0,600)" x2="-5" y2="0" style="fill: none; stroke: #888; stroke-width: 1; opacity: 1;"></line><line transform="translate(0,554)" x2="-5" y2="0" style="fill: none; stroke: #888; stroke-width: 1; opacity: 1;"></line><line transform="translate(0,508)" x2="-5" y2="0" style="fill: none; stroke: #888; stroke-width: 1; opacity: 1;"></line><line transform="translate(0,462)" x2="-5" y2="0" style="fill: none; stroke: #888; stroke-width: 1; opacity: 1;"></line><line transform="translate(0,415)" x2="-5" y2="0" style="fill: none; stroke: #888; stroke-width: 1; opacity: 1;"></line><line transform="translate(0,369)" x2="-5" y2="0" style="fill: none; stroke: #888; stroke-width: 1; opacity: 1;"></line><line transform="translate(0,323)" x2="-5" y2="0" style="fill: none; stroke: #888; stroke-width: 1; opacity: 1;"></line><line transform="translate(0,277)" x2="-5" y2="0" style="fill: none; stroke: #888; stroke-width: 1; opacity: 1;"></line><line transform="translate(0,231)" x2="-5" y2="0" style="fill: none; stroke: #888; stroke-width: 1; opacity: 1;"></line><line transform="translate(0,185)" x2="-5" y2="0" style="fill: none; stroke: #888; stroke-width: 1; opacity: 1;"></line><line transform="translate(0,138)" x2="-5" y2="0" style="fill: none; stroke: #888; stroke-width: 1; opacity: 1;"></line><line transform="translate(0,92)" x2="-5" y2="0" style="fill: none; stroke: #888; stroke-width: 1; opacity: 1;"></line><line transform="translate(0,46)" x2="-5" y2="0" style="fill: none; stroke: #888; stroke-width: 1; opacity: 1;"></line><line transform="translate(0,0)" x2="-5" y2="0" style="fill: none; stroke: #888; stroke-width: 1; opacity: 1;"></line></g><g class="mark-text role-axis-label" style="pointer-events: none;"><text text-anchor="end" transform="translate(-7,603)" style="font-family: sans-serif; font-size: 10px; fill: #000; opacity: 1;">0</text><text text-anchor="end" transform="translate(-7,556.8461538461539)" style="font-family: sans-serif; font-size: 10px; fill: #000; opacity: 1;">10</text><text text-anchor="end" transform="translate(-7,510.6923076923077)" style="font-family: sans-serif; font-size: 10px; fill: #000; opacity: 1;">20</text><text text-anchor="end" transform="translate(-7,464.5384615384615)" style="font-family: sans-serif; font-size: 10px; fill: #000; opacity: 1;">30</text><text text-anchor="end" transform="translate(-7,418.38461538461536)" style="font-family: sans-serif; font-size: 10px; fill: #000; opacity: 1;">40</text><text text-anchor="end" transform="translate(-7,372.2307692307692)" style="font-family: sans-serif; font-size: 10px; fill: #000; opacity: 1;">50</text><text text-anchor="end" transform="translate(-7,326.07692307692304)" style="font-family: sans-serif; font-size: 10px; fill: #000; opacity: 1;">60</text><text text-anchor="end" transform="translate(-7,279.92307692307696)" style="font-family: sans-serif; font-size: 10px; fill: #000; opacity: 1;">70</text><text text-anchor="end" transform="translate(-7,233.76923076923075)" style="font-family: sans-serif; font-size: 10px; fill: #000; opacity: 1;">80</text><text text-anchor="end" transform="translate(-7,187.6153846153846)" style="font-family: sans-serif; font-size: 10px; fill: #000; opacity: 1;">90</text><text text-anchor="end" transform="translate(-7,141.46153846153842)" style="font-family: sans-serif; font-size: 10px; fill: #000; opacity: 1;">100</text><text text-anchor="end" transform="translate(-7,95.3076923076923)" style="font-family: sans-serif; font-size: 10px; fill: #000; opacity: 1;">110</text><text text-anchor="end" transform="translate(-7,49.153846153846125)" style="font-family: sans-serif; font-size: 10px; fill: #000; opacity: 1;">120</text><text text-anchor="end" transform="translate(-7,3)" style="font-family: sans-serif; font-size: 10px; fill: #000; opacity: 1;">130</text></g><g class="mark-rule role-axis-domain" style="pointer-events: none;"><line transform="translate(0,600)" x2="0" y2="-600" style="fill: none; stroke: #888; stroke-width: 1; opacity: 1;"></line></g><g class="mark-text role-axis-title" style="pointer-events: none;"><text text-anchor="middle" transform="translate(-29,300) rotate(-90) translate(0,-2)" style="font-family: sans-serif; font-size: 11px; font-weight: bold; fill: #000; opacity: 1;">GFLOPS</text></g></g><path class="foreground" d="" style="pointer-events: none; display: none; fill: none;"></path></g></g><g class="mark-group role-scope pathgroup"><g transform="translate(0,0)"><path class="background" d="M0,0h900v600h-900Z" style="fill: none;"></path><g><g class="mark-line role-mark marks"><path d="M67.73174902439575,597.5012098936602L135.4634980487915,576.031359572848L203.19524707318726,493.55751512404606L270.926996097583,296.2896672352541L310.5475293851113,158.68895908288053L338.6587451219788,160.26042681143048L360.4634980487915,263.51356680000526L378.27927840950707,230.5138310575454L393.3423060763951,180.8478941872606L406.3904941463745,156.05599879572475L417.8998116970354,219.38067235460073L428.19524707318726,202.577039509431L437.50860123378794,178.0446224020144L446.0110274339028,167.34510244999754L453.83250134222556,204.8649060050232L461.07405510079076,197.14941122495796L467.81578036071556,183.07362562681706L474.1222431707703,184.42475304095674L480.0462543832989,199.6276602094345L485.6315607214311,123.2894164414945L490.91480728757375,105.1189357784374L495.926996097583,110.45238733144149L500.69458838831906,124.19408006141204L505.24035025818364,97.97904937156557L509.5840101771457,127.86966750561315L513.7427764582985,133.95190195144536L517.7317490243956,161.8453067470802L521.5642503666213,171.46235516255834L525.2520940089594,166.74776956287621L528.8058041251866,188.69773223240495L532.2347966004523,205.7780348992398L535.5475293851114,217.31203505758376L538.7516281858985,213.36117150130917L541.853992195166,233.52640827957097L541.853992195166,232.80781386818242L553.7020146202233,320.40475892617195L564.8726272964876,312.6328187178906L575.439120428773,337.86117033922227L585.4634980487915,285.144735029616L594.9986826302636,344.8205767562745L604.0902063699928,316.08921620558186L612.7775262079168,343.6432343156787L621.0950587702226,289.41313716734913L629.0730039024169,343.4586133150775L636.7380065868681,329.7436672168092L644.1136938715442,339.18572274656685L651.2211141039985,284.9743989970927L658.0790990545303,351.55680658218336L664.7045646238481,343.42024491523114L671.1127622254227,350.45789855478955L677.3174902439576,310.71018744762006L683.3312729450492,359.3568911947867L689.1655126690148,351.70665136582386L694.830619957624,358.156303393848L700.3361253452791,305.21953239019376L705.6907758301477,390.8997128572108L710.9026184775645,362.2458363256426L715.9790731619246,368.28927388821216L720.926996097583,326.3603615747651L725.7527355238809,370.8068145870183L730.4621806790551,370.5318337095927L735.0608050108139,382.86740229144294L739.5537044187843,338.8420973415681L743.9456311989046,384.97809641837455L748.2410242567082,385.65252264753866L752.4440360710728,392.6064007250138L756.5585568190141,362.674577248169L760.588236012831,398.73677734156286L764.5365019512084,396.53119715473315L768.4065792440713,404.9378431026373L772.2015046356596,375.1093629847159L775.924141320355,406.15655788881037L779.5771919203357,404.3114658717075L783.1632102724097,412.72228651983545L786.6846121527902,386.45602152495707L790.1436850526211,416.4235502855816L793.5425971033217,414.52386477337615L796.8834052389649,425.8214368558431L800.1680626726395,398.9192290270027L803.3984257548451,431.5402323697994L806.5762602742142,421.83846474894466L809.7032472541116,435.3314702346192L812.780988292749,522.2705010657979L815.8110104892849,434.4551669215084L818.7947709938408,426.39715168985794L821.7336612153719,441.63759869638426L824.6290107178063,414.287656707329L827.4820908317648,436.58414372599117L830.2941180064156,430.8281734858179L833.0662569235838,435.9417111301214L835.7996233940707,413.7248418656413L838.495287054205,434.5858328047889L841.1542738789391,434.3850265922069L843.7775685262649,435.9031214583179L846.366116526356,415.1214906510249L848.9208263276169,436.6915568208854L851.4425712107161,434.70807453389085L853.9321910806985,438.88652622141484L856.3904941463745,424.864969239466L858.8182584953923,443.1087933450086L861.2162335726725,436.7133805403303L863.5851415692333,441.75081592607586L865.9256787278466,424.9462845038178L868.2385165714317,441.62778684801503L870.5243030596054,439.7707007078262L872.7836636783782,449.62470504145966L875.0172024675759,429.82609513978286L877.2255029902107,444.9104586510147L879.4091292476961,452.0877401953018L881.568626544492,452.725232085894L883.7045223054998,426.56894841336515L885.8173268492708,452.5879581182362L887.9075341198643,444.7036632635226L889.9756223799815,444.57720127229237L892.0220548678057,430.57813151253987L894.0472804198101,441.06745797667696L896.0517340616227,437.74146114239176L898.0358375688974,441.42125861064665L900,422.9704874135859" style="fill: none; stroke: #4c78a8; stroke-width: 2;"></path></g></g><path class="foreground" d="" style="display: none; fill: none;"></path></g><g transform="translate(0,0)"><path class="background" d="M0,0h900v600h-900Z" style="fill: none;"></path><g><g class="mark-line role-mark marks"><path d="M67.73174902439575,596.3508814737999L135.4634980487915,574.8512136664464L203.19524707318726,488.6057589293072L270.926996097583,332.001126327915L310.5475293851113,163.5915631038019L338.6587451219788,165.5833231744483L360.4634980487915,92.85841637116417L378.27927840950707,135.67276105912583L393.3423060763951,145.5525754688245L406.3904941463745,112.37771296843755L417.8998116970354,110.44493569022002L428.19524707318726,66.97513013302473L437.50860123378794,100.67385543492861L446.0110274339028,121.71046288996514L453.83250134222556,86.75992289061337L461.07405510079076,92.46375415442407L467.81578036071556,63.58726019742964L474.1222431707703,86.16217673073857L480.0462543832989,100.76125895175561L485.6315607214311,80.77744691025275L490.91480728757375,66.47976907884734L495.926996097583,51.228906946053996L500.69458838831906,108.70026525198939L505.24035025818364,85.13345180325598L509.5840101771457,88.55206839552929L513.7427764582985,82.635423855699L517.7317490243956,198.95209524553533L521.5642503666213,213.48961217225408L525.2520940089594,214.30869375245177L528.8058041251866,209.81097948885744L532.2347966004523,215.84475254591328L535.5475293851114,213.2877326415058L538.7516281858985,222.9652273217902L541.853992195166,212.44786254631046L541.853992195166,215.204777481845L553.7020146202233,225.50011979048753L564.8726272964876,224.5928682827654L575.439120428773,222.9473194056071L585.4634980487915,196.04473089267907L594.9986826302636,210.9298808546457L604.0902063699928,191.53069510302663L612.7775262079168,187.73257107104132L621.0950587702226,159.32099748556305L629.0730039024169,195.55467172447513L636.7380065868681,182.57061749908655L644.1136938715442,182.39540215137086L651.2211141039985,169.72508728220518L658.0790990545303,176.3013904297457L664.7045646238481,163.22196973121254L671.1127622254227,177.67620711059925L677.3174902439576,165.05693508832928L683.3312729450492,168.7996575798173L689.1655126690148,155.27358653431688L694.830619957624,178.26221730887048L700.3361253452791,165.31239531108693L705.6907758301477,169.44589320728548L710.9026184775645,162.7877266767009L715.9790731619246,169.82865424306593L720.926996097583,152.00488151347596L725.7527355238809,160.9417129885845L730.4621806790551,150.84024953327003L735.0608050108139,169.12106722947794L739.5537044187843,156.47587920834977L743.9456311989046,159.69043147200938L748.2410242567082,160.36808980998475L752.4440360710728,157.38951225096375L756.5585568190141,146.88898119628274L760.588236012831,165.52432420907843L764.5365019512084,156.59206877340154L768.4065792440713,158.50863683586715L772.2015046356596,154.34220810427482L775.924141320355,156.21111994928683L779.5771919203357,151.5942655258255L783.1632102724097,163.9687811219703L786.6846121527902,152.63844155253443L790.1436850526211,157.14245454131103L793.5425971033217,153.4073085023185L796.8834052389649,154.05938042571233L800.1680626726395,143.5440370752598L803.3984257548451,157.81131869039348L806.5762602742142,151.03041604459327L809.7032472541116,156.764075346067L812.780988292749,158.4586974066889L815.8110104892849,159.0537090982939L818.7947709938408,153.7472356959554L821.7336612153719,154.1513047895614L824.6290107178063,149.5808191602041L827.4820908317648,151.187958661035L830.2941180064156,151.66547773171237L833.0662569235838,158.3094152640227L835.7996233940707,148.00511002656492L838.495287054205,150.73650212543492L841.1542738789391,152.56957042203945L843.7775685262649,153.02708645007706L846.366116526356,147.4937644024202L848.9208263276169,149.61210480470157L851.4425712107161,153.35877442603726L853.9321910806985,154.2975396425457L856.3904941463745,147.64762355377692L858.8182584953923,150.94460756910314L861.2162335726725,150.38902083217366L863.5851415692333,151.19374010432884L865.9256787278466,145.4476935553274L868.2385165714317,153.2358185457765L870.5243030596054,150.00683552013047L872.7836636783782,152.59530784581858L875.0172024675759,142.63036607544484L877.2255029902107,153.20896529066655L879.4091292476961,147.97132790760264L881.568626544492,151.7746400050813L883.7045223054998,147.6583293643254L885.8173268492708,150.67724226967115L887.9075341198643,146.98836309115427L889.9756223799815,149.60302902769251L892.0220548678057,149.43127013967776L894.0472804198101,147.8143432160709L896.0517340616227,147.46102582103293L898.0358375688974,148.4766536908994L900,141.05873088644907" style="fill: none; stroke: #72b7b2; stroke-width: 2;"></path></g></g><path class="foreground" d="" style="display: none; fill: none;"></path></g><g transform="translate(0,0)"><path class="background" d="M0,0h900v600h-900Z" style="fill: none;"></path><g><g class="mark-line role-mark marks"><path d="M67.73174902439575,594.05205936529L135.4634980487915,594.2698271060303L203.19524707318726,563.1591571012507L270.926996097583,463.78866025227524L310.5475293851113,376.04627666950614L338.6587451219788,294.45157279742796L360.4634980487915,290.6967378171566L378.27927840950707,253.6232581744363L393.3423060763951,245.76714164277374L406.3904941463745,205.09975043560783L417.8998116970354,192.2965264461005L428.19524707318726,174.10526753592447L437.50860123378794,174.7068643613839L446.0110274339028,144.89864329039577L453.83250134222556,143.54844381923678L461.07405510079076,131.49936223958116L467.81578036071556,127.41262056265603L474.1222431707703,113.97624519592891L480.0462543832989,121.17637914433328L485.6315607214311,105.0205759042968L490.91480728757375,110.9203356803724L495.926996097583,112.57292514753605L500.69458838831906,125.88460663549765L505.24035025818364,129.31632805029923L509.5840101771457,142.98408203465306L513.7427764582985,142.73910801059074L517.7317490243956,182.17161082419256L521.5642503666213,176.72711708085131L525.2520940089594,179.4725095888696L528.8058041251866,168.17148005540284L532.2347966004523,166.52025259075037L535.5475293851114,167.72690246494267L538.7516281858985,170.44140808439656L541.853992195166,171.02682358235418L541.853992195166,169.663161085246L553.7020146202233,168.0912610938644L564.8726272964876,148.94254764488412L575.439120428773,153.92678591280804L585.4634980487915,151.225321410029L594.9986826302636,154.5845165027876L604.0902063699928,139.03498463025144L612.7775262079168,137.80622852855066L621.0950587702226,111.07940269211713L629.0730039024169,127.96376682299868L636.7380065868681,137.59526466248533L644.1136938715442,136.463869200707L651.2211141039985,122.35791239313781L658.0790990545303,126.83641672741896L664.7045646238481,119.88959699929018L671.1127622254227,124.62382056590317L677.3174902439576,115.15800381568472L683.3312729450492,112.19333106985584L689.1655126690148,112.47950791751065L694.830619957624,108.98419293342218L700.3361253452791,96.4446693367381L705.6907758301477,103.55631494556991L710.9026184775645,93.3583323342822L715.9790731619246,93.74195629626799L720.926996097583,87.41200390232638L725.7527355238809,93.74397191527974L730.4621806790551,86.216129053862L735.0608050108139,86.92667682679547L739.5537044187843,82.76827283420755L743.9456311989046,87.10698639219956L748.2410242567082,82.05388768212991L752.4440360710728,78.25374745034775L756.5585568190141,72.93293659615966L760.588236012831,78.39258117571713L764.5365019512084,75.25566522113864L768.4065792440713,75.00109447696819L772.2015046356596,71.56001291249746L775.924141320355,74.11813281625814L779.5771919203357,68.70857080915923L783.1632102724097,68.2046439841306L786.6846121527902,64.35489693354464L790.1436850526211,66.83136702788718L793.5425971033217,64.73466759296261L796.8834052389649,70.9405459508998L800.1680626726395,60.58944042074186L803.3984257548451,65.40525876221588L806.5762602742142,65.85150450730441L809.7032472541116,67.3541378390138L812.780988292749,89.14355294665785L815.8110104892849,67.65708905328947L818.7947709938408,59.731558814208L821.7336612153719,62.74286066717156L824.6290107178063,58.424983011978604L827.4820908317648,60.16218342153794L830.2941180064156,57.468815645307345L833.0662569235838,60.27367142875124L835.7996233940707,52.53706732839425L838.495287054205,57.062082146238005L841.1542738789391,56.66121370786043L843.7775685262649,63.392194912577374L846.366116526356,54.53428934020095L848.9208263276169,56.19557737749113L851.4425712107161,53.30729658376858L853.9321910806985,56.6141643621999L856.3904941463745,52.61568656879565L858.8182584953923,57.046849320855465L861.2162335726725,53.63449613723221L863.5851415692333,54.094496309094154L865.9256787278466,49.43077752558847L868.2385165714317,53.87433954739276L870.5243030596054,52.27344080322045L872.7836636783782,52.59189547650423L875.0172024675759,47.61239323453044L877.2255029902107,52.70028083350624L879.4091292476961,52.56202278218542L881.568626544492,53.1950516827719L883.7045223054998,47.8807828185583L885.8173268492708,56.577121620624915L887.9075341198643,55.52095444573772L889.9756223799815,55.021226399840884L892.0220548678057,56.49328584162296L894.0472804198101,53.924937139375785L896.0517340616227,52.64490403904212L898.0358375688974,54.05917787785508L900,48.365651292627" style="fill: none; stroke: #e45756; stroke-width: 2;"></path></g></g><path class="foreground" d="" style="display: none; fill: none;"></path></g><g transform="translate(0,0)"><path class="background" d="M0,0h900v600h-900Z" style="fill: none;"></path><g><g class="mark-line role-mark marks"><path d="M67.73174902439575,598.6112783699557L135.4634980487915,593.9516056369989L203.19524707318726,560.2426136585608L270.926996097583,401.1540126620217L310.5475293851113,228.12528021520532L338.6587451219788,186.18860696883905L360.4634980487915,117.62126988713082L378.27927840950707,70.73349711259291L393.3423060763951,90.1291073777804L406.3904941463745,60.14356882281404L417.8998116970354,49.12922840781624L428.19524707318726,75.45462306838546L437.50860123378794,51.663984551013776L446.0110274339028,37.58736683741854L453.83250134222556,68.90900721190721L461.07405510079076,37.64077213277157L467.81578036071556,33.44571887585306L474.1222431707703,51.32571413621234L480.0462543832989,30.850458461312247L485.6315607214311,25.772307692307738L490.91480728757375,40.06824142796772L495.926996097583,30.223473142186783L500.69458838831906,32.11834380944589L505.24035025818364,44.4483997853246L509.5840101771457,39.890186957903026L513.7427764582985,140.23890243671394L517.7317490243956,184.64861272636654L521.5642503666213,177.84355179704008L525.2520940089594,173.3331827991664L528.8058041251866,182.22853840020764L532.2347966004523,178.22610440286235L535.5475293851114,176.26341514501704L538.7516281858985,180.70718760566166L541.853992195166,182.27366237853448L541.853992195166,182.21957157949325L553.7020146202233,189.47426068373701L564.8726272964876,180.64883598926275L575.439120428773,206.91608908119764L585.4634980487915,141.91045172460866L594.9986826302636,162.44706902292597L604.0902063699928,139.50897974495751L612.7775262079168,160.0886691802561L621.0950587702226,126.61629016541045L629.0730039024169,156.97672989061275L636.7380065868681,154.7907937052161L644.1136938715442,174.49641538961623L651.2211141039985,177.05159225235784L658.0790990545303,155.70732755208246L664.7045646238481,137.62037541885044L671.1127622254227,163.0493599345865L677.3174902439576,141.66916418856658L683.3312729450492,127.57301749984207L689.1655126690148,166.82317814085556L694.830619957624,163.93863839533378L700.3361253452791,104.50566629880885L705.6907758301477,148.57186932339644L710.9026184775645,119.29484188210012L715.9790731619246,137.8724686569367L720.926996097583,127.78088985637011L725.7527355238809,132.53822997856437L730.4621806790551,118.1634008419802L735.0608050108139,119.63333729778347L739.5537044187843,122.62742055598297L743.9456311989046,138.66762857082256L748.2410242567082,119.18869141019881L752.4440360710728,115.39236128667334L756.5585568190141,120.23930186985426L760.588236012831,131.986183789135L764.5365019512084,114.11307776265842L768.4065792440713,122.49335150053527L772.2015046356596,107.60824992203652L775.924141320355,132.93083276219022L779.5771919203357,114.4796432054295L783.1632102724097,120.44101550291515L786.6846121527902,104.21536942852399L790.1436850526211,119.12502056036737L793.5425971033217,102.77173377542003L796.8834052389649,129.5432184688995L800.1680626726395,103.95110899772186L803.3984257548451,111.82092774133537L806.5762602742142,122.09976427380465L809.7032472541116,117.15589906810008L812.780988292749,107.519734260441L815.8110104892849,125.41005034532142L818.7947709938408,110.60861810942816L821.7336612153719,115.00337791788553L824.6290107178063,111.91167533233039L827.4820908317648,112.69770492312503L830.2941180064156,104.46560401008406L833.0662569235838,146.2468283670025L835.7996233940707,97.11680458736467L838.495287054205,116.82923400194653L841.1542738789391,114.10500708400497L843.7775685262649,126.24810618956354L846.366116526356,100.29539054411183L848.9208263276169,113.1918542200024L851.4425712107161,104.55458923577754L853.9321910806985,126.85674259655224L856.3904941463745,116.06399358196707L858.8182584953923,120.59266884173266L861.2162335726725,107.33928356894229L863.5851415692333,119.45809866843331L865.9256787278466,88.94325906323321L868.2385165714317,114.49987862361223L870.5243030596054,104.56822783930302L872.7836636783782,109.64605661527762L875.0172024675759,92.38546509015764L877.2255029902107,107.85040830523994L879.4091292476961,107.44781942664368L881.568626544492,108.17622918817888L883.7045223054998,93.67764760590669L885.8173268492708,115.60123662934498L887.9075341198643,105.97536960873084L889.9756223799815,107.49944751279617L892.0220548678057,116.54537409823465L894.0472804198101,105.28556837610267L896.0517340616227,107.75654114345421L898.0358375688974,112.22909693974113L900,90.51839362447049" style="fill: none; stroke: #f58518; stroke-width: 2;"></path></g></g><path class="foreground" d="" style="display: none; fill: none;"></path></g></g><g class="mark-group role-legend"><g transform="translate(920,0)"><path class="background" d="M0,0h89v66h-89Z" style="pointer-events: none; fill: none;"></path><g><g class="mark-group role-legend-entry"><g transform="translate(0,16)"><path class="background" d="M0,0h0v0h0Z" style="pointer-events: none; fill: none;"></path><g><g class="mark-group role-scope"><g transform="translate(0,0)"><path class="background" d="M0,0h89v11h-89Z" style="pointer-events: none; fill: none; opacity: 1;"></path><g><g class="mark-symbol role-legend-symbol" style="pointer-events: none;"><path transform="translate(6,6)" d="M-5,0L5,0" style="fill: none; stroke: #4c78a8; stroke-width: 1.5; opacity: 1;"></path></g><g class="mark-text role-legend-label" style="pointer-events: none;"><text text-anchor="start" transform="translate(16,9)" style="font-family: sans-serif; font-size: 10px; fill: #000; opacity: 1;">Gaius</text></g></g><path class="foreground" d="" style="pointer-events: none; display: none; fill: none;"></path></g><g transform="translate(0,13)"><path class="background" d="M0,0h89v11h-89Z" style="pointer-events: none; fill: none; opacity: 1;"></path><g><g class="mark-symbol role-legend-symbol" style="pointer-events: none;"><path transform="translate(6,6)" d="M-5,0L5,0" style="fill: none; stroke: #f58518; stroke-width: 1.5; opacity: 1;"></path></g><g class="mark-text role-legend-label" style="pointer-events: none;"><text text-anchor="start" transform="translate(16,9)" style="font-family: sans-serif; font-size: 10px; fill: #000; opacity: 1;">MKL</text></g></g><path class="foreground" d="" style="pointer-events: none; display: none; fill: none;"></path></g><g transform="translate(0,26)"><path class="background" d="M0,0h89v11h-89Z" style="pointer-events: none; fill: none; opacity: 1;"></path><g><g class="mark-symbol role-legend-symbol" style="pointer-events: none;"><path transform="translate(6,6)" d="M-5,0L5,0" style="fill: none; stroke: #e45756; stroke-width: 1.5; opacity: 1;"></path></g><g class="mark-text role-legend-label" style="pointer-events: none;"><text text-anchor="start" transform="translate(16,9)" style="font-family: sans-serif; font-size: 10px; fill: #000; opacity: 1;">OpenBLAS</text></g></g><path class="foreground" d="" style="pointer-events: none; display: none; fill: none;"></path></g><g transform="translate(0,39)"><path class="background" d="M0,0h89v11h-89Z" style="pointer-events: none; fill: none; opacity: 1;"></path><g><g class="mark-symbol role-legend-symbol" style="pointer-events: none;"><path transform="translate(6,6)" d="M-5,0L5,0" style="fill: none; stroke: #72b7b2; stroke-width: 1.5; opacity: 1;"></path></g><g class="mark-text role-legend-label" style="pointer-events: none;"><text text-anchor="start" transform="translate(16,9)" style="font-family: sans-serif; font-size: 10px; fill: #000; opacity: 1;">PaddedMatrices</text></g></g><path class="foreground" d="" style="pointer-events: none; display: none; fill: none;"></path></g></g></g><path class="foreground" d="" style="pointer-events: none; display: none; fill: none;"></path></g></g><g class="mark-text role-legend-title" style="pointer-events: none;"><text text-anchor="start" transform="translate(0,9)" style="font-family: sans-serif; font-size: 11px; font-weight: bold; fill: #000; opacity: 1;">Library</text></g></g><path class="foreground" d="" style="pointer-events: none; display: none; fill: none;"></path></g></g></g><path class="foreground" d="" style="display: none; fill: none;"></path></g></g></g></svg>
