<?xml version="1.0" encoding="utf-8"?>
<!DOCTYPE svg PUBLIC "-//W3C//DTD SVG 1.1//EN" "http://www.w3.org/Graphics/SVG/1.1/DTD/svg11.dtd">
<svg class="marks" width="1059" height="647" viewBox="0 0 1059 647" version="1.1" xmlns="http://www.w3.org/2000/svg" xmlns:xlink="http://www.w3.org/1999/xlink"><rect width="1059" height="647" style="fill: white;"></rect><g transform="translate(45,10)"><g class="mark-group role-frame root"><g transform="translate(0,0)"><path class="background" d="M0.5,0.5h900v600h-900Z" style="fill: none; stroke: #ddd;"></path><g><g class="mark-group role-axis"><g transform="translate(0.5,600.5)"><path class="background" d="M0,0h0v0h0Z" style="pointer-events: none; fill: none;"></path><g><g class="mark-rule role-axis-grid" style="pointer-events: none;"><line transform="translate(0,-600)" x2="0" y2="600" style="fill: none; stroke: #ddd; stroke-width: 1; opacity: 1;"></line><line transform="translate(68,-600)" x2="0" y2="600" style="fill: none; stroke: #ddd; stroke-width: 1; opacity: 1;"></line><line transform="translate(107,-600)" x2="0" y2="600" style="fill: none; stroke: #ddd; stroke-width: 1; opacity: 1;"></line><line transform="translate(135,-600)" x2="0" y2="600" style="fill: none; stroke: #ddd; stroke-width: 1; opacity: 1;"></line><line transform="translate(157,-600)" x2="0" y2="600" style="fill: none; stroke: #ddd; stroke-width: 1; opacity: 1;"></line><line transform="translate(175,-600)" x2="0" y2="600" style="fill: none; stroke: #ddd; stroke-width: 1; opacity: 1;"></line><line transform="translate(190,-600)" x2="0" y2="600" style="fill: none; stroke: #ddd; stroke-width: 1; opacity: 1;"></line><line transform="translate(203,-600)" x2="0" y2="600" style="fill: none; stroke: #ddd; stroke-width: 1; opacity: 1;"></line><line transform="translate(215,-600)" x2="0" y2="600" style="fill: none; stroke: #ddd; stroke-width: 1; opacity: 1;"></line><line transform="translate(225,-600)" x2="0" y2="600" style="fill: none; stroke: #ddd; stroke-width: 1; opacity: 1;"></line><line transform="translate(293,-600)" x2="0" y2="600" style="fill: none; stroke: #ddd; stroke-width: 1; opacity: 1;"></line><line transform="translate(332,-600)" x2="0" y2="600" style="fill: none; stroke: #ddd; stroke-width: 1; opacity: 1;"></line><line transform="translate(360,-600)" x2="0" y2="600" style="fill: none; stroke: #ddd; stroke-width: 1; opacity: 1;"></line><line transform="translate(382,-600)" x2="0" y2="600" style="fill: none; stroke: #ddd; stroke-width: 1; opacity: 1;"></line><line transform="translate(400,-600)" x2="0" y2="600" style="fill: none; stroke: #ddd; stroke-width: 1; opacity: 1;"></line><line transform="translate(415,-600)" x2="0" y2="600" style="fill: none; stroke: #ddd; stroke-width: 1; opacity: 1;"></line><line transform="translate(428,-600)" x2="0" y2="600" style="fill: none; stroke: #ddd; stroke-width: 1; opacity: 1;"></line><line transform="translate(440,-600)" x2="0" y2="600" style="fill: none; stroke: #ddd; stroke-width: 1; opacity: 1;"></line><line transform="translate(450,-600)" x2="0" y2="600" style="fill: none; stroke: #ddd; stroke-width: 1; opacity: 1;"></line><line transform="translate(518,-600)" x2="0" y2="600" style="fill: none; stroke: #ddd; stroke-width: 1; opacity: 1;"></line><line transform="translate(557,-600)" x2="0" y2="600" style="fill: none; stroke: #ddd; stroke-width: 1; opacity: 1;"></line><line transform="translate(585,-600)" x2="0" y2="600" style="fill: none; stroke: #ddd; stroke-width: 1; opacity: 1;"></line><line transform="translate(607,-600)" x2="0" y2="600" style="fill: none; stroke: #ddd; stroke-width: 1; opacity: 1;"></line><line transform="translate(625,-600)" x2="0" y2="600" style="fill: none; stroke: #ddd; stroke-width: 1; opacity: 1;"></line><line transform="translate(640,-600)" x2="0" y2="600" style="fill: none; stroke: #ddd; stroke-width: 1; opacity: 1;"></line><line transform="translate(653,-600)" x2="0" y2="600" style="fill: none; stroke: #ddd; stroke-width: 1; opacity: 1;"></line><line transform="translate(665,-600)" x2="0" y2="600" style="fill: none; stroke: #ddd; stroke-width: 1; opacity: 1;"></line><line transform="translate(675,-600)" x2="0" y2="600" style="fill: none; stroke: #ddd; stroke-width: 1; opacity: 1;"></line><line transform="translate(743,-600)" x2="0" y2="600" style="fill: none; stroke: #ddd; stroke-width: 1; opacity: 1;"></line><line transform="translate(782,-600)" x2="0" y2="600" style="fill: none; stroke: #ddd; stroke-width: 1; opacity: 1;"></line><line transform="translate(810,-600)" x2="0" y2="600" style="fill: none; stroke: #ddd; stroke-width: 1; opacity: 1;"></line><line transform="translate(832,-600)" x2="0" y2="600" style="fill: none; stroke: #ddd; stroke-width: 1; opacity: 1;"></line><line transform="translate(850,-600)" x2="0" y2="600" style="fill: none; stroke: #ddd; stroke-width: 1; opacity: 1;"></line><line transform="translate(865,-600)" x2="0" y2="600" style="fill: none; stroke: #ddd; stroke-width: 1; opacity: 1;"></line><line transform="translate(878,-600)" x2="0" y2="600" style="fill: none; stroke: #ddd; stroke-width: 1; opacity: 1;"></line><line transform="translate(890,-600)" x2="0" y2="600" style="fill: none; stroke: #ddd; stroke-width: 1; opacity: 1;"></line><line transform="translate(900,-600)" x2="0" y2="600" style="fill: none; stroke: #ddd; stroke-width: 1; opacity: 1;"></line></g></g><path class="foreground" d="" style="pointer-events: none; display: none; fill: none;"></path></g></g><g class="mark-group role-axis"><g transform="translate(0.5,0.5)"><path class="background" d="M0,0h0v0h0Z" style="pointer-events: none; fill: none;"></path><g><g class="mark-rule role-axis-grid" style="pointer-events: none;"><line transform="translate(0,600)" x2="900" y2="0" style="fill: none; stroke: #ddd; stroke-width: 1; opacity: 1;"></line><line transform="translate(0,554)" x2="900" y2="0" style="fill: none; stroke: #ddd; stroke-width: 1; opacity: 1;"></line><line transform="translate(0,508)" x2="900" y2="0" style="fill: none; stroke: #ddd; stroke-width: 1; opacity: 1;"></line><line transform="translate(0,462)" x2="900" y2="0" style="fill: none; stroke: #ddd; stroke-width: 1; opacity: 1;"></line><line transform="translate(0,415)" x2="900" y2="0" style="fill: none; stroke: #ddd; stroke-width: 1; opacity: 1;"></line><line transform="translate(0,369)" x2="900" y2="0" style="fill: none; stroke: #ddd; stroke-width: 1; opacity: 1;"></line><line transform="translate(0,323)" x2="900" y2="0" style="fill: none; stroke: #ddd; stroke-width: 1; opacity: 1;"></line><line transform="translate(0,277)" x2="900" y2="0" style="fill: none; stroke: #ddd; stroke-width: 1; opacity: 1;"></line><line transform="translate(0,231)" x2="900" y2="0" style="fill: none; stroke: #ddd; stroke-width: 1; opacity: 1;"></line><line transform="translate(0,185)" x2="900" y2="0" style="fill: none; stroke: #ddd; stroke-width: 1; opacity: 1;"></line><line transform="translate(0,138)" x2="900" y2="0" style="fill: none; stroke: #ddd; stroke-width: 1; opacity: 1;"></line><line transform="translate(0,92)" x2="900" y2="0" style="fill: none; stroke: #ddd; stroke-width: 1; opacity: 1;"></line><line transform="translate(0,46)" x2="900" y2="0" style="fill: none; stroke: #ddd; stroke-width: 1; opacity: 1;"></line><line transform="translate(0,0)" x2="900" y2="0" style="fill: none; stroke: #ddd; stroke-width: 1; opacity: 1;"></line></g></g><path class="foreground" d="" style="pointer-events: none; display: none; fill: none;"></path></g></g><g class="mark-group role-axis"><g transform="translate(0.5,600.5)"><path class="background" d="M0,0h0v0h0Z" style="pointer-events: none; fill: none;"></path><g><g class="mark-rule role-axis-tick" style="pointer-events: none;"><line transform="translate(0,0)" x2="0" y2="5" style="fill: none; stroke: #888; stroke-width: 1; opacity: 1;"></line><line transform="translate(68,0)" x2="0" y2="5" style="fill: none; stroke: #888; stroke-width: 1; opacity: 1;"></line><line transform="translate(107,0)" x2="0" y2="5" style="fill: none; stroke: #888; stroke-width: 1; opacity: 1;"></line><line transform="translate(135,0)" x2="0" y2="5" style="fill: none; stroke: #888; stroke-width: 1; opacity: 1;"></line><line transform="translate(157,0)" x2="0" y2="5" style="fill: none; stroke: #888; stroke-width: 1; opacity: 1;"></line><line transform="translate(175,0)" x2="0" y2="5" style="fill: none; stroke: #888; stroke-width: 1; opacity: 1;"></line><line transform="translate(190,0)" x2="0" y2="5" style="fill: none; stroke: #888; stroke-width: 1; opacity: 1;"></line><line transform="translate(203,0)" x2="0" y2="5" style="fill: none; stroke: #888; stroke-width: 1; opacity: 1;"></line><line transform="translate(215,0)" x2="0" y2="5" style="fill: none; stroke: #888; stroke-width: 1; opacity: 1;"></line><line transform="translate(225,0)" x2="0" y2="5" style="fill: none; stroke: #888; stroke-width: 1; opacity: 1;"></line><line transform="translate(293,0)" x2="0" y2="5" style="fill: none; stroke: #888; stroke-width: 1; opacity: 1;"></line><line transform="translate(332,0)" x2="0" y2="5" style="fill: none; stroke: #888; stroke-width: 1; opacity: 1;"></line><line transform="translate(360,0)" x2="0" y2="5" style="fill: none; stroke: #888; stroke-width: 1; opacity: 1;"></line><line transform="translate(382,0)" x2="0" y2="5" style="fill: none; stroke: #888; stroke-width: 1; opacity: 1;"></line><line transform="translate(400,0)" x2="0" y2="5" style="fill: none; stroke: #888; stroke-width: 1; opacity: 1;"></line><line transform="translate(415,0)" x2="0" y2="5" style="fill: none; stroke: #888; stroke-width: 1; opacity: 1;"></line><line transform="translate(428,0)" x2="0" y2="5" style="fill: none; stroke: #888; stroke-width: 1; opacity: 1;"></line><line transform="translate(440,0)" x2="0" y2="5" style="fill: none; stroke: #888; stroke-width: 1; opacity: 1;"></line><line transform="translate(450,0)" x2="0" y2="5" style="fill: none; stroke: #888; stroke-width: 1; opacity: 1;"></line><line transform="translate(518,0)" x2="0" y2="5" style="fill: none; stroke: #888; stroke-width: 1; opacity: 1;"></line><line transform="translate(557,0)" x2="0" y2="5" style="fill: none; stroke: #888; stroke-width: 1; opacity: 1;"></line><line transform="translate(585,0)" x2="0" y2="5" style="fill: none; stroke: #888; stroke-width: 1; opacity: 1;"></line><line transform="translate(607,0)" x2="0" y2="5" style="fill: none; stroke: #888; stroke-width: 1; opacity: 1;"></line><line transform="translate(625,0)" x2="0" y2="5" style="fill: none; stroke: #888; stroke-width: 1; opacity: 1;"></line><line transform="translate(640,0)" x2="0" y2="5" style="fill: none; stroke: #888; stroke-width: 1; opacity: 1;"></line><line transform="translate(653,0)" x2="0" y2="5" style="fill: none; stroke: #888; stroke-width: 1; opacity: 1;"></line><line transform="translate(665,0)" x2="0" y2="5" style="fill: none; stroke: #888; stroke-width: 1; opacity: 1;"></line><line transform="translate(675,0)" x2="0" y2="5" style="fill: none; stroke: #888; stroke-width: 1; opacity: 1;"></line><line transform="translate(743,0)" x2="0" y2="5" style="fill: none; stroke: #888; stroke-width: 1; opacity: 1;"></line><line transform="translate(782,0)" x2="0" y2="5" style="fill: none; stroke: #888; stroke-width: 1; opacity: 1;"></line><line transform="translate(810,0)" x2="0" y2="5" style="fill: none; stroke: #888; stroke-width: 1; opacity: 1;"></line><line transform="translate(832,0)" x2="0" y2="5" style="fill: none; stroke: #888; stroke-width: 1; opacity: 1;"></line><line transform="translate(850,0)" x2="0" y2="5" style="fill: none; stroke: #888; stroke-width: 1; opacity: 1;"></line><line transform="translate(865,0)" x2="0" y2="5" style="fill: none; stroke: #888; stroke-width: 1; opacity: 1;"></line><line transform="translate(878,0)" x2="0" y2="5" style="fill: none; stroke: #888; stroke-width: 1; opacity: 1;"></line><line transform="translate(890,0)" x2="0" y2="5" style="fill: none; stroke: #888; stroke-width: 1; opacity: 1;"></line><line transform="translate(900,0)" x2="0" y2="5" style="fill: none; stroke: #888; stroke-width: 1; opacity: 1;"></line></g><g class="mark-text role-axis-label" style="pointer-events: none;"><text text-anchor="start" transform="translate(0,15)" style="font-family: sans-serif; font-size: 10px; fill: #000; opacity: 1;">1</text><text text-anchor="middle" transform="translate(67.73174902439575,15)" style="font-family: sans-serif; font-size: 10px; fill: #000; opacity: 1;">2</text><text text-anchor="middle" transform="translate(107.35228231192403,15)" style="font-family: sans-serif; font-size: 10px; fill: #000; opacity: 1;"></text><text text-anchor="middle" transform="translate(135.4634980487915,15)" style="font-family: sans-serif; font-size: 10px; fill: #000; opacity: 1;"></text><text text-anchor="middle" transform="translate(157.26825097560422,15)" style="font-family: sans-serif; font-size: 10px; fill: #000; opacity: 1;"></text><text text-anchor="middle" transform="translate(175.08403133631978,15)" style="font-family: sans-serif; font-size: 10px; fill: #000; opacity: 1;"></text><text text-anchor="middle" transform="translate(190.14705900320774,15)" style="font-family: sans-serif; font-size: 10px; fill: #000; opacity: 1;"></text><text text-anchor="middle" transform="translate(203.19524707318726,15)" style="font-family: sans-serif; font-size: 10px; fill: #000; opacity: 1;"></text><text text-anchor="middle" transform="translate(214.70456462384809,15)" style="font-family: sans-serif; font-size: 10px; fill: #000; opacity: 1;"></text><text text-anchor="middle" transform="translate(225,15)" style="font-family: sans-serif; font-size: 10px; fill: #000; opacity: 1;">10</text><text text-anchor="middle" transform="translate(292.73174902439575,15)" style="font-family: sans-serif; font-size: 10px; fill: #000; opacity: 1;">20</text><text text-anchor="middle" transform="translate(332.35228231192406,15)" style="font-family: sans-serif; font-size: 10px; fill: #000; opacity: 1;"></text><text text-anchor="middle" transform="translate(360.4634980487915,15)" style="font-family: sans-serif; font-size: 10px; fill: #000; opacity: 1;"></text><text text-anchor="middle" transform="translate(382.2682509756042,15)" style="font-family: sans-serif; font-size: 10px; fill: #000; opacity: 1;"></text><text text-anchor="middle" transform="translate(400.08403133631975,15)" style="font-family: sans-serif; font-size: 10px; fill: #000; opacity: 1;"></text><text text-anchor="middle" transform="translate(415.1470590032078,15)" style="font-family: sans-serif; font-size: 10px; fill: #000; opacity: 1;"></text><text text-anchor="middle" transform="translate(428.19524707318726,15)" style="font-family: sans-serif; font-size: 10px; fill: #000; opacity: 1;"></text><text text-anchor="middle" transform="translate(439.70456462384806,15)" style="font-family: sans-serif; font-size: 10px; fill: #000; opacity: 1;"></text><text text-anchor="middle" transform="translate(450,15)" style="font-family: sans-serif; font-size: 10px; fill: #000; opacity: 1;">100</text><text text-anchor="middle" transform="translate(517.7317490243956,15)" style="font-family: sans-serif; font-size: 10px; fill: #000; opacity: 1;">200</text><text text-anchor="middle" transform="translate(557.352282311924,15)" style="font-family: sans-serif; font-size: 10px; fill: #000; opacity: 1;"></text><text text-anchor="middle" transform="translate(585.4634980487915,15)" style="font-family: sans-serif; font-size: 10px; fill: #000; opacity: 1;"></text><text text-anchor="middle" transform="translate(607.2682509756041,15)" style="font-family: sans-serif; font-size: 10px; fill: #000; opacity: 1;"></text><text text-anchor="middle" transform="translate(625.0840313363198,15)" style="font-family: sans-serif; font-size: 10px; fill: #000; opacity: 1;"></text><text text-anchor="middle" transform="translate(640.1470590032077,15)" style="font-family: sans-serif; font-size: 10px; fill: #000; opacity: 1;"></text><text text-anchor="middle" transform="translate(653.1952470731873,15)" style="font-family: sans-serif; font-size: 10px; fill: #000; opacity: 1;"></text><text text-anchor="middle" transform="translate(664.7045646238481,15)" style="font-family: sans-serif; font-size: 10px; fill: #000; opacity: 1;"></text><text text-anchor="middle" transform="translate(674.9999999999999,15)" style="font-family: sans-serif; font-size: 10px; fill: #000; opacity: 1;">1,000</text><text text-anchor="middle" transform="translate(742.7317490243956,15)" style="font-family: sans-serif; font-size: 10px; fill: #000; opacity: 1;">2,000</text><text text-anchor="middle" transform="translate(782.3522823119239,15)" style="font-family: sans-serif; font-size: 10px; fill: #000; opacity: 1;"></text><text text-anchor="middle" transform="translate(810.4634980487915,15)" style="font-family: sans-serif; font-size: 10px; fill: #000; opacity: 1;"></text><text text-anchor="middle" transform="translate(832.2682509756042,15)" style="font-family: sans-serif; font-size: 10px; fill: #000; opacity: 1;"></text><text text-anchor="middle" transform="translate(850.0840313363196,15)" style="font-family: sans-serif; font-size: 10px; fill: #000; opacity: 1;"></text><text text-anchor="middle" transform="translate(865.1470590032077,15)" style="font-family: sans-serif; font-size: 10px; fill: #000; opacity: 1;"></text><text text-anchor="middle" transform="translate(878.1952470731873,15)" style="font-family: sans-serif; font-size: 10px; fill: #000; opacity: 1;"></text><text text-anchor="middle" transform="translate(889.7045646238481,15)" style="font-family: sans-serif; font-size: 10px; fill: #000; opacity: 1;"></text><text text-anchor="end" transform="translate(900,15)" style="font-family: sans-serif; font-size: 10px; fill: #000; opacity: 1;">10,000</text></g><g class="mark-rule role-axis-domain" style="pointer-events: none;"><line transform="translate(0,0)" x2="900" y2="0" style="fill: none; stroke: #888; stroke-width: 1; opacity: 1;"></line></g><g class="mark-text role-axis-title" style="pointer-events: none;"><text text-anchor="middle" transform="translate(450,30)" style="font-family: sans-serif; font-size: 11px; font-weight: bold; fill: #000; opacity: 1;">Size</text></g></g><path class="foreground" d="" style="pointer-events: none; display: none; fill: none;"></path></g></g><g class="mark-group role-axis"><g transform="translate(0.5,0.5)"><path class="background" d="M0,0h0v0h0Z" style="pointer-events: none; fill: none;"></path><g><g class="mark-rule role-axis-tick" style="pointer-events: none;"><line transform="translate(0,600)" x2="-5" y2="0" style="fill: none; stroke: #888; stroke-width: 1; opacity: 1;"></line><line transform="translate(0,554)" x2="-5" y2="0" style="fill: none; stroke: #888; stroke-width: 1; opacity: 1;"></line><line transform="translate(0,508)" x2="-5" y2="0" style="fill: none; stroke: #888; stroke-width: 1; opacity: 1;"></line><line transform="translate(0,462)" x2="-5" y2="0" style="fill: none; stroke: #888; stroke-width: 1; opacity: 1;"></line><line transform="translate(0,415)" x2="-5" y2="0" style="fill: none; stroke: #888; stroke-width: 1; opacity: 1;"></line><line transform="translate(0,369)" x2="-5" y2="0" style="fill: none; stroke: #888; stroke-width: 1; opacity: 1;"></line><line transform="translate(0,323)" x2="-5" y2="0" style="fill: none; stroke: #888; stroke-width: 1; opacity: 1;"></line><line transform="translate(0,277)" x2="-5" y2="0" style="fill: none; stroke: #888; stroke-width: 1; opacity: 1;"></line><line transform="translate(0,231)" x2="-5" y2="0" style="fill: none; stroke: #888; stroke-width: 1; opacity: 1;"></line><line transform="translate(0,185)" x2="-5" y2="0" style="fill: none; stroke: #888; stroke-width: 1; opacity: 1;"></line><line transform="translate(0,138)" x2="-5" y2="0" style="fill: none; stroke: #888; stroke-width: 1; opacity: 1;"></line><line transform="translate(0,92)" x2="-5" y2="0" style="fill: none; stroke: #888; stroke-width: 1; opacity: 1;"></line><line transform="translate(0,46)" x2="-5" y2="0" style="fill: none; stroke: #888; stroke-width: 1; opacity: 1;"></line><line transform="translate(0,0)" x2="-5" y2="0" style="fill: none; stroke: #888; stroke-width: 1; opacity: 1;"></line></g><g class="mark-text role-axis-label" style="pointer-events: none;"><text text-anchor="end" transform="translate(-7,603)" style="font-family: sans-serif; font-size: 10px; fill: #000; opacity: 1;">0</text><text text-anchor="end" transform="translate(-7,556.8461538461539)" style="font-family: sans-serif; font-size: 10px; fill: #000; opacity: 1;">20</text><text text-anchor="end" transform="translate(-7,510.6923076923077)" style="font-family: sans-serif; font-size: 10px; fill: #000; opacity: 1;">40</text><text text-anchor="end" transform="translate(-7,464.5384615384615)" style="font-family: sans-serif; font-size: 10px; fill: #000; opacity: 1;">60</text><text text-anchor="end" transform="translate(-7,418.38461538461536)" style="font-family: sans-serif; font-size: 10px; fill: #000; opacity: 1;">80</text><text text-anchor="end" transform="translate(-7,372.2307692307692)" style="font-family: sans-serif; font-size: 10px; fill: #000; opacity: 1;">100</text><text text-anchor="end" transform="translate(-7,326.07692307692304)" style="font-family: sans-serif; font-size: 10px; fill: #000; opacity: 1;">120</text><text text-anchor="end" transform="translate(-7,279.92307692307696)" style="font-family: sans-serif; font-size: 10px; fill: #000; opacity: 1;">140</text><text text-anchor="end" transform="translate(-7,233.76923076923075)" style="font-family: sans-serif; font-size: 10px; fill: #000; opacity: 1;">160</text><text text-anchor="end" transform="translate(-7,187.6153846153846)" style="font-family: sans-serif; font-size: 10px; fill: #000; opacity: 1;">180</text><text text-anchor="end" transform="translate(-7,141.46153846153842)" style="font-family: sans-serif; font-size: 10px; fill: #000; opacity: 1;">200</text><text text-anchor="end" transform="translate(-7,95.3076923076923)" style="font-family: sans-serif; font-size: 10px; fill: #000; opacity: 1;">220</text><text text-anchor="end" transform="translate(-7,49.153846153846125)" style="font-family: sans-serif; font-size: 10px; fill: #000; opacity: 1;">240</text><text text-anchor="end" transform="translate(-7,3)" style="font-family: sans-serif; font-size: 10px; fill: #000; opacity: 1;">260</text></g><g class="mark-rule role-axis-domain" style="pointer-events: none;"><line transform="translate(0,600)" x2="0" y2="-600" style="fill: none; stroke: #888; stroke-width: 1; opacity: 1;"></line></g><g class="mark-text role-axis-title" style="pointer-events: none;"><text text-anchor="middle" transform="translate(-29,300) rotate(-90) translate(0,-2)" style="font-family: sans-serif; font-size: 11px; font-weight: bold; fill: #000; opacity: 1;">GFLOPS</text></g></g><path class="foreground" d="" style="pointer-events: none; display: none; fill: none;"></path></g></g><g class="mark-group role-scope pathgroup"><g transform="translate(0,0)"><path class="background" d="M0,0h900v600h-900Z" style="fill: none;"></path><g><g class="mark-line role-mark marks"><path d="M67.73174902439575,598.2188742165519L135.4634980487915,587.8332956898773L203.19524707318726,548.8927578358793L270.926996097583,419.1878426880009L310.5475293851113,316.9738710566586L338.6587451219788,238.1413269972984L360.4634980487915,374.25707651156637L378.27927840950707,306.90518783542035L393.3423060763951,293.0177813601624L406.3904941463745,242.99339492021704L417.8998116970354,322.36283572023643L428.19524707318726,277.1642579217974L437.50860123378794,286.3839480890034L446.0110274339028,237.22486468755125L453.83250134222556,297.38400559570994L461.07405510079076,261.8718737590302L467.81578036071556,277.5798586924072L474.1222431707703,237.9591143847736L480.0462543832989,287.21079497058156L485.6315607214311,142.14403271147455L490.91480728757375,193.38857519982398L495.926996097583,126.69832796015751L500.69458838831906,196.41391637408233L505.24035025818364,112.46743762137766L509.5840101771457,221.82936650869513L513.7427764582985,147.38305505285305L517.7317490243956,243.22427145281304L521.5642503666213,178.06656101426307L525.2520940089594,222.45167800153354L528.8058041251866,172.51652589754573L532.2347966004523,215.82042530847986L535.5475293851114,151.06194115482037L538.7516281858985,224.48165244900716L541.853992195166,165.47454789853867L541.853992195166,185.76087918201765L553.7020146202233,288.27183522288954L564.8726272964876,280.24252721936523L575.439120428773,308.8724870520454L585.4634980487915,246.5900681317288L594.9986826302636,314.4663096677518L604.0902063699928,311.5789303201867L612.7775262079168,326.46554624798944L621.0950587702226,271.94323911037174L629.0730039024169,346.41854591721295L636.7380065868681,346.130456668316L644.1136938715442,353.02168962416044L651.2211141039985,284.49739731849905L658.0790990545303,352.9003266430184L664.7045646238481,350.92094758760015L671.1127622254227,357.595072036141L677.3174902439576,274.26098423835873L683.3312729450492,357.7442966054688L689.1655126690148,359.92261971332084L694.830619957624,368.96314517467357L700.3361253452791,307.2897773096935L705.6907758301477,370.5949441799145L710.9026184775645,374.69151127245516L715.9790731619246,376.33486569974195L720.926996097583,326.89954139981097L725.7527355238809,385.80101531833424L730.4621806790551,377.7232863228092L735.0608050108139,388.5301886394738L739.5537044187843,344.48550724427173L743.9456311989046,379.3053821699481L748.2410242567082,381.18163535387924L752.4440360710728,392.72077652944233L756.5585568190141,340.49213458281986L760.588236012831,392.4283498650489L764.5365019512084,386.9635478794144L768.4065792440713,390.7005071709278L772.2015046356596,350.5566669646078L775.924141320355,387.63913457265306L779.5771919203357,389.58000130875854L783.1632102724097,393.54231937448026L786.6846121527902,353.14968805571357L790.1436850526211,402.7104577008959L793.5425971033217,394.42626499615136L796.8834052389649,405.03008090446457L800.1680626726395,363.3898676227546L803.3984257548451,407.4516676802295L806.5762602742142,395.01548414852357L809.7032472541116,411.5704678389896L812.780988292749,513.3911311050533L815.8110104892849,416.09482483580797L818.7947709938408,403.8624288060544L821.7336612153719,419.40030335222326L824.6290107178063,384.84960918593896L827.4820908317648,423.6822224757562L830.2941180064156,418.8162838492587L833.0662569235838,429.3477778412047L835.7996233940707,393.51839523262765L838.495287054205,427.4974527844263L841.1542738789391,444.7185211100136L843.7775685262649,423.8936804932146L846.366116526356,404.162336616367L848.9208263276169,431.8945974096977L851.4425712107161,427.571899439571L853.9321910806985,435.7756660854074L856.3904941463745,411.34729337065477L858.8182584953923,446.2246919073873L861.2162335726725,433.6804941324788L863.5851415692333,442.65802959281274L865.9256787278466,425.7584095167073L868.2385165714317,441.977806347856L870.5243030596054,446.3235296561206L872.7836636783782,447.4232471464644L875.0172024675759,428.2604260138779L877.2255029902107,453.026447252934L879.4091292476961,457.15674104212843L881.568626544492,455.5317448513655L883.7045223054998,433.994090302935L885.8173268492708,454.3420904771998L887.9075341198643,449.58530919291866L889.9756223799815,456.8045358087913L892.0220548678057,437.3704313286738L894.0472804198101,456.4242949319654L896.0517340616227,449.9647647388926L898.0358375688974,454.64475626945404L900,427.9089342691863" style="fill: none; stroke: #4c78a8; stroke-width: 2;"></path></g></g><path class="foreground" d="" style="display: none; fill: none;"></path></g><g transform="translate(0,0)"><path class="background" d="M0,0h900v600h-900Z" style="fill: none;"></path><g><g class="mark-line role-mark marks"><path d="M67.73174902439575,598.1524563266094L135.4634980487915,589.3244817729943L203.19524707318726,549.9532511687207L270.926996097583,419.7710246287838L310.5475293851113,344.3930245424782L338.6587451219788,254.09997840811857L360.4634980487915,242.3863526756165L378.27927840950707,145.44072011344258L393.3423060763951,185.29783340220786L406.3904941463745,123.49647901547078L417.8998116970354,148.20795255098952L428.19524707318726,74.77175139587015L437.50860123378794,191.02068986211765L446.0110274339028,161.06665343685665L453.83250134222556,191.68855682265038L461.07405510079076,150.8877215041503L467.81578036071556,179.9112659792143L474.1222431707703,111.37548200701313L480.0462543832989,174.37412754053148L485.6315607214311,84.997585374267L490.91480728757375,166.79554682922316L495.926996097583,93.93362820924649L500.69458838831906,145.47529732044146L505.24035025818364,128.0229014682796L509.5840101771457,124.88545115959802L513.7427764582985,104.91527537978898L517.7317490243956,123.22869527559371L521.5642503666213,111.27354882741241L525.2520940089594,143.38235593961411L528.8058041251866,121.18567999164999L532.2347966004523,146.1139964172796L535.5475293851114,120.21629138253063L538.7516281858985,177.1129829496752L541.853992195166,160.55987710398094L541.853992195166,163.84449004492262L553.7020146202233,186.46535898816015L564.8726272964876,188.1770508979558L575.439120428773,179.47884778140403L585.4634980487915,154.8942850744462L594.9986826302636,162.45142189312813L604.0902063699928,162.33801561541298L612.7775262079168,149.80613969281418L621.0950587702226,132.7861744022641L629.0730039024169,173.1369073812559L636.7380065868681,165.92797723212485L644.1136938715442,165.040927383097L651.2211141039985,146.05868140911343L658.0790990545303,152.55911894912686L664.7045646238481,149.4210524082033L671.1127622254227,147.90941266273055L677.3174902439576,129.66980144891414L683.3312729450492,132.68969915687384L689.1655126690148,133.3104106529872L694.830619957624,154.02047518487015L700.3361253452791,149.24737834066173L705.6907758301477,150.13220457427911L710.9026184775645,144.08942238210273L715.9790731619246,146.3578129383738L720.926996097583,130.90242500922866L725.7527355238809,136.54695927571393L730.4621806790551,141.81241177950488L735.0608050108139,150.7357236627183L739.5537044187843,141.64479917771163L743.9456311989046,142.35210590853166L748.2410242567082,141.382887488826L752.4440360710728,135.6951340847172L756.5585568190141,124.56592584328195L760.588236012831,140.04488965935158L764.5365019512084,142.57203156276984L768.4065792440713,138.4811361424501L772.2015046356596,128.02557067940225L775.924141320355,130.19652709969805L779.5771919203357,125.67831389504383L783.1632102724097,131.23191620362897L786.6846121527902,131.94554322314622L790.1436850526211,134.91059202951328L793.5425971033217,131.09073067385765L796.8834052389649,126.7353634071513L800.1680626726395,124.37757408544132L803.3984257548451,135.55148893846211L806.5762602742142,132.85318387420398L809.7032472541116,130.78773066562283L812.780988292749,133.02288163647498L815.8110104892849,132.07050457100397L818.7947709938408,132.31051598734726L821.7336612153719,130.05834000591827L824.6290107178063,121.93965833698282L827.4820908317648,130.50631200687693L830.2941180064156,131.02345056121837L833.0662569235838,135.99980293038905L835.7996233940707,121.09940004367982L838.495287054205,129.84167567563833L841.1542738789391,126.52449416975287L843.7775685262649,129.7351743873681L846.366116526356,122.70740522740941L848.9208263276169,129.13200755485846L851.4425712107161,126.1793295623339L853.9321910806985,132.8954610128389L856.3904941463745,120.87762407775247L858.8182584953923,130.5204072250441L861.2162335726725,125.17773155641257L863.5851415692333,127.78113038156154L865.9256787278466,123.69061783314528L868.2385165714317,126.25221620749821L870.5243030596054,130.38519105032663L872.7836636783782,126.23553614377137L875.0172024675759,122.10730144572604L877.2255029902107,126.36100978783583L879.4091292476961,126.03687373226036L881.568626544492,127.52120594599774L883.7045223054998,121.42473732965571L885.8173268492708,127.01291624917582L887.9075341198643,126.20627197153942L889.9756223799815,126.14301713415162L892.0220548678057,125.90051234976075L894.0472804198101,127.90927036543047L896.0517340616227,126.32957229480341L898.0358375688974,125.50364273226073L900,121.51156549748912" style="fill: none; stroke: #72b7b2; stroke-width: 2;"></path></g></g><path class="foreground" d="" style="display: none; fill: none;"></path></g><g transform="translate(0,0)"><path class="background" d="M0,0h900v600h-900Z" style="fill: none;"></path><g><g class="mark-line role-mark marks"><path d="M67.73174902439575,596.9202509938922L135.4634980487915,597.0262130928463L203.19524707318726,580.0146022312437L270.926996097583,497.28375664674894L310.5475293851113,431.28318134047527L338.6587451219788,353.90002136572286L360.4634980487915,339.51973951973946L378.27927840950707,267.4324893245925L393.3423060763951,290.20178954692904L406.3904941463745,234.80368710673565L417.8998116970354,239.74601803060563L428.19524707318726,209.34420183882892L437.50860123378794,223.47301860151026L446.0110274339028,178.9010082420416L453.83250134222556,198.1982818667285L461.07405510079076,156.93316864208555L467.81578036071556,171.07751880259136L474.1222431707703,145.74980866702288L480.0462543832989,159.51751249850417L485.6315607214311,124.12069698257544L490.91480728757375,145.69205327284755L495.926996097583,117.41932443418118L500.69458838831906,128.26075349495835L505.24035025818364,108.14076124629908L509.5840101771457,124.68909037730329L513.7427764582985,98.27714046052243L517.7317490243956,116.81484344800926L521.5642503666213,99.22303407364525L525.2520940089594,107.62768533733747L528.8058041251866,106.36839366063722L532.2347966004523,132.71862395774923L535.5475293851114,100.08950220500881L538.7516281858985,129.61409709019296L541.853992195166,115.49678003138139L541.853992195166,120.93726844195491L553.7020146202233,148.96734137367662L564.8726272964876,150.83136984392814L575.439120428773,150.6399189903015L585.4634980487915,111.37733694286351L594.9986826302636,144.67969437248482L604.0902063699928,130.26033603525246L612.7775262079168,129.08759885106136L621.0950587702226,116.15361533241683L629.0730039024169,137.43458106270523L636.7380065868681,119.56636585757883L644.1136938715442,127.2415142977066L651.2211141039985,100.18526500126505L658.0790990545303,114.15795642766167L664.7045646238481,108.02308174836486L671.1127622254227,122.91798545326075L677.3174902439576,124.08088226657571L683.3312729450492,117.52282903984623L689.1655126690148,120.03749463333205L694.830619957624,129.55476728456418L700.3361253452791,108.17606441114214L705.6907758301477,121.17036035287352L710.9026184775645,112.0654414824608L715.9790731619246,107.610187164364L720.926996097583,96.31677955966917L725.7527355238809,102.77327795240112L730.4621806790551,103.43640834130274L735.0608050108139,112.21361387012992L739.5537044187843,95.33897456188407L743.9456311989046,103.02127979923704L748.2410242567082,96.41721229201032L752.4440360710728,95.55204547160916L756.5585568190141,87.23318289589777L760.588236012831,92.82079447096412L764.5365019512084,94.12334529789985L768.4065792440713,97.03482757662756L772.2015046356596,81.47066788163195L775.924141320355,89.7536977357659L779.5771919203357,88.5547809928302L783.1632102724097,87.07745554046313L786.6846121527902,82.51437809488826L790.1436850526211,86.67219086391826L793.5425971033217,85.99100305108239L796.8834052389649,89.18509619458564L800.1680626726395,74.77072285896944L803.3984257548451,86.53080820720275L806.5762602742142,86.83473605793819L809.7032472541116,84.6857277164793L812.780988292749,98.44352465205517L815.8110104892849,82.20537976579452L818.7947709938408,79.94328479452896L821.7336612153719,85.4297536528202L824.6290107178063,71.38303813935683L827.4820908317648,84.19472756866806L830.2941180064156,78.20794747078732L833.0662569235838,81.89817347767698L835.7996233940707,73.45190962453867L838.495287054205,78.08556516190576L841.1542738789391,79.93101658318922L843.7775685262649,80.78964301289734L846.366116526356,71.34569278759552L848.9208263276169,77.50499765596786L851.4425712107161,75.53855563194864L853.9321910806985,75.92276699742928L856.3904941463745,75.49674528042183L858.8182584953923,81.53427341661666L861.2162335726725,75.26221447658754L863.5851415692333,77.7953095694929L865.9256787278466,70.83194675860824L868.2385165714317,75.36603496885314L870.5243030596054,74.58359214807085L872.7836636783782,82.20499328554052L875.0172024675759,68.51199488716824L877.2255029902107,74.56800366009067L879.4091292476961,72.92986155818555L881.568626544492,77.29887798205479L883.7045223054998,67.81477603874735L885.8173268492708,74.39460522795459L887.9075341198643,73.52243186064855L889.9756223799815,74.91305903675551L892.0220548678057,90.59354668344028L894.0472804198101,74.69805390113937L896.0517340616227,72.6745648064808L898.0358375688974,73.26430414422809L900,65.31795549585149" style="fill: none; stroke: #e45756; stroke-width: 2;"></path></g></g><path class="foreground" d="" style="display: none; fill: none;"></path></g><g transform="translate(0,0)"><path class="background" d="M0,0h900v600h-900Z" style="fill: none;"></path><g><g class="mark-line role-mark marks"><path d="M67.73174902439575,599.6095294388354L135.4634980487915,596.9926977748206L203.19524707318726,580.5720978271352L270.926996097583,485.06022432212046L310.5475293851113,378.4225126359661L338.6587451219788,218.5630022151761L360.4634980487915,211.4462166511834L378.27927840950707,94.99273527336133L393.3423060763951,186.06027035627153L406.3904941463745,110.64810077572969L417.8998116970354,143.10033433728023L428.19524707318726,76.96393911533343L437.50860123378794,118.07192562279593L446.0110274339028,38.22570275811892L453.83250134222556,141.57350993377474L461.07405510079076,73.46463037571436L467.81578036071556,117.78314194421569L474.1222431707703,44.71555981165294L480.0462543832989,93.39804847593823L485.6315607214311,23.755451773515013L490.91480728757375,99.24788014753409L495.926996097583,50.862273147754955L500.69458838831906,88.99137475796512L505.24035025818364,25.314199777930835L509.5840101771457,75.5088306199255L513.7427764582985,64.45497582518472L517.7317490243956,112.25757677370581L521.5642503666213,98.26115319102664L525.2520940089594,118.25537983507945L528.8058041251866,82.73672680748432L532.2347966004523,120.0362841076377L535.5475293851114,85.23903827380312L538.7516281858985,122.64163678328785L541.853992195166,122.52064416335462L541.853992195166,117.4021687905678L553.7020146202233,161.85115052884782L564.8726272964876,159.76360035723994L575.439120428773,188.8625658270746L585.4634980487915,131.59204301741582L594.9986826302636,176.98257101205715L604.0902063699928,145.71612709782084L612.7775262079168,143.74605452710702L621.0950587702226,98.16324041269722L629.0730039024169,130.91218171678506L636.7380065868681,126.86256544459178L644.1136938715442,153.385569318266L651.2211141039985,141.77651876746907L658.0790990545303,163.74353051569415L664.7045646238481,128.4861421279456L671.1127622254227,137.1111180363056L677.3174902439576,124.88938935155622L683.3312729450492,132.35925693790668L689.1655126690148,146.50929744041267L694.830619957624,155.7857528856201L700.3361253452791,95.63970031746594L705.6907758301477,133.40899583664364L710.9026184775645,112.62239031070895L715.9790731619246,121.83021540487964L720.926996097583,117.63788591692416L725.7527355238809,125.25170816933418L730.4621806790551,104.35234167731089L735.0608050108139,115.06554676349336L739.5537044187843,105.06547839986231L743.9456311989046,138.5340821844314L748.2410242567082,107.67903044291411L752.4440360710728,122.65542818027735L756.5585568190141,97.55570849674208L760.588236012831,121.02223724309984L764.5365019512084,98.40123512909402L768.4065792440713,113.96582204230477L772.2015046356596,93.28070293740194L775.924141320355,122.90501628992676L779.5771919203357,99.80275381810276L783.1632102724097,106.21869504962153L786.6846121527902,84.96195642457165L790.1436850526211,97.59065762478821L793.5425971033217,89.1933925036066L796.8834052389649,115.47105203835251L800.1680626726395,70.92661730919798L803.3984257548451,95.67257721886038L806.5762602742142,104.82225207283106L809.7032472541116,96.58074030051777L812.780988292749,77.63971987041518L815.8110104892849,105.08450337703536L818.7947709938408,90.08365587883134L821.7336612153719,100.3356553019488L824.6290107178063,76.9868469144242L827.4820908317648,92.4132541760613L830.2941180064156,91.27140737771803L833.0662569235838,109.15391834791023L835.7996233940707,66.93264242277941L838.495287054205,91.66334399718532L841.1542738789391,98.00789588816863L843.7775685262649,103.85679559057462L846.366116526356,74.05649864901942L848.9208263276169,92.37436996048369L851.4425712107161,83.68655882327127L853.9321910806985,108.44474653365836L856.3904941463745,70.1646636959016L858.8182584953923,102.4768593787715L861.2162335726725,82.40285427127152L863.5851415692333,92.56792088818474L865.9256787278466,66.42672066310604L868.2385165714317,87.94217491434826L870.5243030596054,86.51279664133304L872.7836636783782,86.51019554659246L875.0172024675759,69.79258440154167L877.2255029902107,87.41049844865985L879.4091292476961,96.16083601080305L881.568626544492,89.48529639492311L883.7045223054998,68.18665670853201L885.8173268492708,87.7782947821548L887.9075341198643,85.49622347140546L889.9756223799815,85.9893761354617L892.0220548678057,86.30698766918603L894.0472804198101,85.65353188128665L896.0517340616227,91.62747176546644L898.0358375688974,83.99663295469897L900,67.8616700888863" style="fill: none; stroke: #f58518; stroke-width: 2;"></path></g></g><path class="foreground" d="" style="display: none; fill: none;"></path></g></g><g class="mark-group role-legend"><g transform="translate(920,0)"><path class="background" d="M0,0h89v66h-89Z" style="pointer-events: none; fill: none;"></path><g><g class="mark-group role-legend-entry"><g transform="translate(0,16)"><path class="background" d="M0,0h0v0h0Z" style="pointer-events: none; fill: none;"></path><g><g class="mark-group role-scope"><g transform="translate(0,0)"><path class="background" d="M0,0h89v11h-89Z" style="pointer-events: none; fill: none; opacity: 1;"></path><g><g class="mark-symbol role-legend-symbol" style="pointer-events: none;"><path transform="translate(6,6)" d="M-5,0L5,0" style="fill: none; stroke: #4c78a8; stroke-width: 1.5; opacity: 1;"></path></g><g class="mark-text role-legend-label" style="pointer-events: none;"><text text-anchor="start" transform="translate(16,9)" style="font-family: sans-serif; font-size: 10px; fill: #000; opacity: 1;">Gaius</text></g></g><path class="foreground" d="" style="pointer-events: none; display: none; fill: none;"></path></g><g transform="translate(0,13)"><path class="background" d="M0,0h89v11h-89Z" style="pointer-events: none; fill: none; opacity: 1;"></path><g><g class="mark-symbol role-legend-symbol" style="pointer-events: none;"><path transform="translate(6,6)" d="M-5,0L5,0" style="fill: none; stroke: #f58518; stroke-width: 1.5; opacity: 1;"></path></g><g class="mark-text role-legend-label" style="pointer-events: none;"><text text-anchor="start" transform="translate(16,9)" style="font-family: sans-serif; font-size: 10px; fill: #000; opacity: 1;">MKL</text></g></g><path class="foreground" d="" style="pointer-events: none; display: none; fill: none;"></path></g><g transform="translate(0,26)"><path class="background" d="M0,0h89v11h-89Z" style="pointer-events: none; fill: none; opacity: 1;"></path><g><g class="mark-symbol role-legend-symbol" style="pointer-events: none;"><path transform="translate(6,6)" d="M-5,0L5,0" style="fill: none; stroke: #e45756; stroke-width: 1.5; opacity: 1;"></path></g><g class="mark-text role-legend-label" style="pointer-events: none;"><text text-anchor="start" transform="translate(16,9)" style="font-family: sans-serif; font-size: 10px; fill: #000; opacity: 1;">OpenBLAS</text></g></g><path class="foreground" d="" style="pointer-events: none; display: none; fill: none;"></path></g><g transform="translate(0,39)"><path class="background" d="M0,0h89v11h-89Z" style="pointer-events: none; fill: none; opacity: 1;"></path><g><g class="mark-symbol role-legend-symbol" style="pointer-events: none;"><path transform="translate(6,6)" d="M-5,0L5,0" style="fill: none; stroke: #72b7b2; stroke-width: 1.5; opacity: 1;"></path></g><g class="mark-text role-legend-label" style="pointer-events: none;"><text text-anchor="start" transform="translate(16,9)" style="font-family: sans-serif; font-size: 10px; fill: #000; opacity: 1;">PaddedMatrices</text></g></g><path class="foreground" d="" style="pointer-events: none; display: none; fill: none;"></path></g></g></g><path class="foreground" d="" style="pointer-events: none; display: none; fill: none;"></path></g></g><g class="mark-text role-legend-title" style="pointer-events: none;"><text text-anchor="start" transform="translate(0,9)" style="font-family: sans-serif; font-size: 11px; font-weight: bold; fill: #000; opacity: 1;">Library</text></g></g><path class="foreground" d="" style="pointer-events: none; display: none; fill: none;"></path></g></g></g><path class="foreground" d="" style="display: none; fill: none;"></path></g></g></g></svg>
