<?xml version="1.0" encoding="utf-8"?>
<!DOCTYPE svg PUBLIC "-//W3C//DTD SVG 1.1//EN" "http://www.w3.org/Graphics/SVG/1.1/DTD/svg11.dtd">
<svg class="marks" width="1037" height="647" viewBox="0 0 1037 647" version="1.1" xmlns="http://www.w3.org/2000/svg" xmlns:xlink="http://www.w3.org/1999/xlink"><rect width="1037" height="647" fill="white"></rect><g fill="none" stroke-miterlimit="10" transform="translate(39,10)"><g class="mark-group role-frame root" role="graphics-object" aria-roledescription="group mark container"><g transform="translate(0,0)"><path class="background" aria-hidden="true" d="M0.5,0.5h900v600h-900Z" stroke="#ddd"></path><g><g class="mark-group role-axis" aria-hidden="true"><g transform="translate(0.5,600.5)"><path class="background" aria-hidden="true" d="M0,0h0v0h0Z" pointer-events="none"></path><g><g class="mark-rule role-axis-grid" pointer-events="none"><line transform="translate(0,-600)" x2="0" y2="600" stroke="#ddd" stroke-width="1" opacity="1"></line><line transform="translate(36,-600)" x2="0" y2="600" stroke="#ddd" stroke-width="1" opacity="1"></line><line transform="translate(72,-600)" x2="0" y2="600" stroke="#ddd" stroke-width="1" opacity="1"></line><line transform="translate(108,-600)" x2="0" y2="600" stroke="#ddd" stroke-width="1" opacity="1"></line><line transform="translate(144,-600)" x2="0" y2="600" stroke="#ddd" stroke-width="1" opacity="1"></line><line transform="translate(180,-600)" x2="0" y2="600" stroke="#ddd" stroke-width="1" opacity="1"></line><line transform="translate(216,-600)" x2="0" y2="600" stroke="#ddd" stroke-width="1" opacity="1"></line><line transform="translate(252,-600)" x2="0" y2="600" stroke="#ddd" stroke-width="1" opacity="1"></line><line transform="translate(288,-600)" x2="0" y2="600" stroke="#ddd" stroke-width="1" opacity="1"></line><line transform="translate(324,-600)" x2="0" y2="600" stroke="#ddd" stroke-width="1" opacity="1"></line><line transform="translate(360,-600)" x2="0" y2="600" stroke="#ddd" stroke-width="1" opacity="1"></line><line transform="translate(396,-600)" x2="0" y2="600" stroke="#ddd" stroke-width="1" opacity="1"></line><line transform="translate(432,-600)" x2="0" y2="600" stroke="#ddd" stroke-width="1" opacity="1"></line><line transform="translate(468,-600)" x2="0" y2="600" stroke="#ddd" stroke-width="1" opacity="1"></line><line transform="translate(504,-600)" x2="0" y2="600" stroke="#ddd" stroke-width="1" opacity="1"></line><line transform="translate(540,-600)" x2="0" y2="600" stroke="#ddd" stroke-width="1" opacity="1"></line><line transform="translate(576,-600)" x2="0" y2="600" stroke="#ddd" stroke-width="1" opacity="1"></line><line transform="translate(612,-600)" x2="0" y2="600" stroke="#ddd" stroke-width="1" opacity="1"></line><line transform="translate(648,-600)" x2="0" y2="600" stroke="#ddd" stroke-width="1" opacity="1"></line><line transform="translate(684,-600)" x2="0" y2="600" stroke="#ddd" stroke-width="1" opacity="1"></line><line transform="translate(720,-600)" x2="0" y2="600" stroke="#ddd" stroke-width="1" opacity="1"></line><line transform="translate(756,-600)" x2="0" y2="600" stroke="#ddd" stroke-width="1" opacity="1"></line><line transform="translate(792,-600)" x2="0" y2="600" stroke="#ddd" stroke-width="1" opacity="1"></line><line transform="translate(828,-600)" x2="0" y2="600" stroke="#ddd" stroke-width="1" opacity="1"></line><line transform="translate(864,-600)" x2="0" y2="600" stroke="#ddd" stroke-width="1" opacity="1"></line><line transform="translate(900,-600)" x2="0" y2="600" stroke="#ddd" stroke-width="1" opacity="1"></line></g></g><path class="foreground" aria-hidden="true" d="" pointer-events="none" display="none"></path></g></g><g class="mark-group role-axis" aria-hidden="true"><g transform="translate(0.5,0.5)"><path class="background" aria-hidden="true" d="M0,0h0v0h0Z" pointer-events="none"></path><g><g class="mark-rule role-axis-grid" pointer-events="none"><line transform="translate(0,600)" x2="900" y2="0" stroke="#ddd" stroke-width="1" opacity="1"></line><line transform="translate(0,563)" x2="900" y2="0" stroke="#ddd" stroke-width="1" opacity="1"></line><line transform="translate(0,525)" x2="900" y2="0" stroke="#ddd" stroke-width="1" opacity="1"></line><line transform="translate(0,488)" x2="900" y2="0" stroke="#ddd" stroke-width="1" opacity="1"></line><line transform="translate(0,450)" x2="900" y2="0" stroke="#ddd" stroke-width="1" opacity="1"></line><line transform="translate(0,413)" x2="900" y2="0" stroke="#ddd" stroke-width="1" opacity="1"></line><line transform="translate(0,375)" x2="900" y2="0" stroke="#ddd" stroke-width="1" opacity="1"></line><line transform="translate(0,338)" x2="900" y2="0" stroke="#ddd" stroke-width="1" opacity="1"></line><line transform="translate(0,300)" x2="900" y2="0" stroke="#ddd" stroke-width="1" opacity="1"></line><line transform="translate(0,263)" x2="900" y2="0" stroke="#ddd" stroke-width="1" opacity="1"></line><line transform="translate(0,225)" x2="900" y2="0" stroke="#ddd" stroke-width="1" opacity="1"></line><line transform="translate(0,188)" x2="900" y2="0" stroke="#ddd" stroke-width="1" opacity="1"></line><line transform="translate(0,150)" x2="900" y2="0" stroke="#ddd" stroke-width="1" opacity="1"></line><line transform="translate(0,113)" x2="900" y2="0" stroke="#ddd" stroke-width="1" opacity="1"></line><line transform="translate(0,75)" x2="900" y2="0" stroke="#ddd" stroke-width="1" opacity="1"></line><line transform="translate(0,38)" x2="900" y2="0" stroke="#ddd" stroke-width="1" opacity="1"></line><line transform="translate(0,0)" x2="900" y2="0" stroke="#ddd" stroke-width="1" opacity="1"></line></g></g><path class="foreground" aria-hidden="true" d="" pointer-events="none" display="none"></path></g></g><g class="mark-group role-axis" role="graphics-symbol" aria-roledescription="axis" aria-label="X-axis titled 'Size' for a linear scale with values from 0 to 50"><g transform="translate(0.5,600.5)"><path class="background" aria-hidden="true" d="M0,0h0v0h0Z" pointer-events="none"></path><g><g class="mark-rule role-axis-tick" pointer-events="none"><line transform="translate(0,0)" x2="0" y2="5" stroke="#888" stroke-width="1" opacity="1"></line><line transform="translate(36,0)" x2="0" y2="5" stroke="#888" stroke-width="1" opacity="1"></line><line transform="translate(72,0)" x2="0" y2="5" stroke="#888" stroke-width="1" opacity="1"></line><line transform="translate(108,0)" x2="0" y2="5" stroke="#888" stroke-width="1" opacity="1"></line><line transform="translate(144,0)" x2="0" y2="5" stroke="#888" stroke-width="1" opacity="1"></line><line transform="translate(180,0)" x2="0" y2="5" stroke="#888" stroke-width="1" opacity="1"></line><line transform="translate(216,0)" x2="0" y2="5" stroke="#888" stroke-width="1" opacity="1"></line><line transform="translate(252,0)" x2="0" y2="5" stroke="#888" stroke-width="1" opacity="1"></line><line transform="translate(288,0)" x2="0" y2="5" stroke="#888" stroke-width="1" opacity="1"></line><line transform="translate(324,0)" x2="0" y2="5" stroke="#888" stroke-width="1" opacity="1"></line><line transform="translate(360,0)" x2="0" y2="5" stroke="#888" stroke-width="1" opacity="1"></line><line transform="translate(396,0)" x2="0" y2="5" stroke="#888" stroke-width="1" opacity="1"></line><line transform="translate(432,0)" x2="0" y2="5" stroke="#888" stroke-width="1" opacity="1"></line><line transform="translate(468,0)" x2="0" y2="5" stroke="#888" stroke-width="1" opacity="1"></line><line transform="translate(504,0)" x2="0" y2="5" stroke="#888" stroke-width="1" opacity="1"></line><line transform="translate(540,0)" x2="0" y2="5" stroke="#888" stroke-width="1" opacity="1"></line><line transform="translate(576,0)" x2="0" y2="5" stroke="#888" stroke-width="1" opacity="1"></line><line transform="translate(612,0)" x2="0" y2="5" stroke="#888" stroke-width="1" opacity="1"></line><line transform="translate(648,0)" x2="0" y2="5" stroke="#888" stroke-width="1" opacity="1"></line><line transform="translate(684,0)" x2="0" y2="5" stroke="#888" stroke-width="1" opacity="1"></line><line transform="translate(720,0)" x2="0" y2="5" stroke="#888" stroke-width="1" opacity="1"></line><line transform="translate(756,0)" x2="0" y2="5" stroke="#888" stroke-width="1" opacity="1"></line><line transform="translate(792,0)" x2="0" y2="5" stroke="#888" stroke-width="1" opacity="1"></line><line transform="translate(828,0)" x2="0" y2="5" stroke="#888" stroke-width="1" opacity="1"></line><line transform="translate(864,0)" x2="0" y2="5" stroke="#888" stroke-width="1" opacity="1"></line><line transform="translate(900,0)" x2="0" y2="5" stroke="#888" stroke-width="1" opacity="1"></line></g><g class="mark-text role-axis-label" pointer-events="none"><text text-anchor="start" transform="translate(0,15)" font-family="sans-serif" font-size="10px" fill="#000" opacity="1">0</text><text text-anchor="middle" transform="translate(36,15)" font-family="sans-serif" font-size="10px" fill="#000" opacity="1">2</text><text text-anchor="middle" transform="translate(72,15)" font-family="sans-serif" font-size="10px" fill="#000" opacity="1">4</text><text text-anchor="middle" transform="translate(108,15)" font-family="sans-serif" font-size="10px" fill="#000" opacity="1">6</text><text text-anchor="middle" transform="translate(144,15)" font-family="sans-serif" font-size="10px" fill="#000" opacity="1">8</text><text text-anchor="middle" transform="translate(180,15)" font-family="sans-serif" font-size="10px" fill="#000" opacity="1">10</text><text text-anchor="middle" transform="translate(216,15)" font-family="sans-serif" font-size="10px" fill="#000" opacity="1">12</text><text text-anchor="middle" transform="translate(252.00000000000003,15)" font-family="sans-serif" font-size="10px" fill="#000" opacity="1">14</text><text text-anchor="middle" transform="translate(288,15)" font-family="sans-serif" font-size="10px" fill="#000" opacity="1">16</text><text text-anchor="middle" transform="translate(324,15)" font-family="sans-serif" font-size="10px" fill="#000" opacity="1">18</text><text text-anchor="middle" transform="translate(360,15)" font-family="sans-serif" font-size="10px" fill="#000" opacity="1">20</text><text text-anchor="middle" transform="translate(396,15)" font-family="sans-serif" font-size="10px" fill="#000" opacity="1">22</text><text text-anchor="middle" transform="translate(432,15)" font-family="sans-serif" font-size="10px" fill="#000" opacity="1">24</text><text text-anchor="middle" transform="translate(468,15)" font-family="sans-serif" font-size="10px" fill="#000" opacity="1">26</text><text text-anchor="middle" transform="translate(504.00000000000006,15)" font-family="sans-serif" font-size="10px" fill="#000" opacity="1">28</text><text text-anchor="middle" transform="translate(540,15)" font-family="sans-serif" font-size="10px" fill="#000" opacity="1">30</text><text text-anchor="middle" transform="translate(576,15)" font-family="sans-serif" font-size="10px" fill="#000" opacity="1">32</text><text text-anchor="middle" transform="translate(612,15)" font-family="sans-serif" font-size="10px" fill="#000" opacity="1">34</text><text text-anchor="middle" transform="translate(648,15)" font-family="sans-serif" font-size="10px" fill="#000" opacity="1">36</text><text text-anchor="middle" transform="translate(684,15)" font-family="sans-serif" font-size="10px" fill="#000" opacity="1">38</text><text text-anchor="middle" transform="translate(720,15)" font-family="sans-serif" font-size="10px" fill="#000" opacity="1">40</text><text text-anchor="middle" transform="translate(756,15)" font-family="sans-serif" font-size="10px" fill="#000" opacity="1">42</text><text text-anchor="middle" transform="translate(792,15)" font-family="sans-serif" font-size="10px" fill="#000" opacity="1">44</text><text text-anchor="middle" transform="translate(828,15)" font-family="sans-serif" font-size="10px" fill="#000" opacity="1">46</text><text text-anchor="middle" transform="translate(864,15)" font-family="sans-serif" font-size="10px" fill="#000" opacity="1">48</text><text text-anchor="end" transform="translate(900,15)" font-family="sans-serif" font-size="10px" fill="#000" opacity="1">50</text></g><g class="mark-rule role-axis-domain" pointer-events="none"><line transform="translate(0,0)" x2="900" y2="0" stroke="#888" stroke-width="1" opacity="1"></line></g><g class="mark-text role-axis-title" pointer-events="none"><text text-anchor="middle" transform="translate(450,30)" font-family="sans-serif" font-size="11px" font-weight="bold" fill="#000" opacity="1">Size</text></g></g><path class="foreground" aria-hidden="true" d="" pointer-events="none" display="none"></path></g></g><g class="mark-group role-axis" role="graphics-symbol" aria-roledescription="axis" aria-label="Y-axis titled 'GFLOPS' for a linear scale with values from 0 to 80"><g transform="translate(0.5,0.5)"><path class="background" aria-hidden="true" d="M0,0h0v0h0Z" pointer-events="none"></path><g><g class="mark-rule role-axis-tick" pointer-events="none"><line transform="translate(0,600)" x2="-5" y2="0" stroke="#888" stroke-width="1" opacity="1"></line><line transform="translate(0,563)" x2="-5" y2="0" stroke="#888" stroke-width="1" opacity="1"></line><line transform="translate(0,525)" x2="-5" y2="0" stroke="#888" stroke-width="1" opacity="1"></line><line transform="translate(0,488)" x2="-5" y2="0" stroke="#888" stroke-width="1" opacity="1"></line><line transform="translate(0,450)" x2="-5" y2="0" stroke="#888" stroke-width="1" opacity="1"></line><line transform="translate(0,413)" x2="-5" y2="0" stroke="#888" stroke-width="1" opacity="1"></line><line transform="translate(0,375)" x2="-5" y2="0" stroke="#888" stroke-width="1" opacity="1"></line><line transform="translate(0,338)" x2="-5" y2="0" stroke="#888" stroke-width="1" opacity="1"></line><line transform="translate(0,300)" x2="-5" y2="0" stroke="#888" stroke-width="1" opacity="1"></line><line transform="translate(0,263)" x2="-5" y2="0" stroke="#888" stroke-width="1" opacity="1"></line><line transform="translate(0,225)" x2="-5" y2="0" stroke="#888" stroke-width="1" opacity="1"></line><line transform="translate(0,188)" x2="-5" y2="0" stroke="#888" stroke-width="1" opacity="1"></line><line transform="translate(0,150)" x2="-5" y2="0" stroke="#888" stroke-width="1" opacity="1"></line><line transform="translate(0,113)" x2="-5" y2="0" stroke="#888" stroke-width="1" opacity="1"></line><line transform="translate(0,75)" x2="-5" y2="0" stroke="#888" stroke-width="1" opacity="1"></line><line transform="translate(0,38)" x2="-5" y2="0" stroke="#888" stroke-width="1" opacity="1"></line><line transform="translate(0,0)" x2="-5" y2="0" stroke="#888" stroke-width="1" opacity="1"></line></g><g class="mark-text role-axis-label" pointer-events="none"><text text-anchor="end" transform="translate(-7,603)" font-family="sans-serif" font-size="10px" fill="#000" opacity="1">0</text><text text-anchor="end" transform="translate(-7,565.5)" font-family="sans-serif" font-size="10px" fill="#000" opacity="1">5</text><text text-anchor="end" transform="translate(-7,528)" font-family="sans-serif" font-size="10px" fill="#000" opacity="1">10</text><text text-anchor="end" transform="translate(-7,490.5)" font-family="sans-serif" font-size="10px" fill="#000" opacity="1">15</text><text text-anchor="end" transform="translate(-7,453)" font-family="sans-serif" font-size="10px" fill="#000" opacity="1">20</text><text text-anchor="end" transform="translate(-7,415.5)" font-family="sans-serif" font-size="10px" fill="#000" opacity="1">25</text><text text-anchor="end" transform="translate(-7,378)" font-family="sans-serif" font-size="10px" fill="#000" opacity="1">30</text><text text-anchor="end" transform="translate(-7,340.5)" font-family="sans-serif" font-size="10px" fill="#000" opacity="1">35</text><text text-anchor="end" transform="translate(-7,303)" font-family="sans-serif" font-size="10px" fill="#000" opacity="1">40</text><text text-anchor="end" transform="translate(-7,265.5)" font-family="sans-serif" font-size="10px" fill="#000" opacity="1">45</text><text text-anchor="end" transform="translate(-7,228)" font-family="sans-serif" font-size="10px" fill="#000" opacity="1">50</text><text text-anchor="end" transform="translate(-7,190.5)" font-family="sans-serif" font-size="10px" fill="#000" opacity="1">55</text><text text-anchor="end" transform="translate(-7,153)" font-family="sans-serif" font-size="10px" fill="#000" opacity="1">60</text><text text-anchor="end" transform="translate(-7,115.5)" font-family="sans-serif" font-size="10px" fill="#000" opacity="1">65</text><text text-anchor="end" transform="translate(-7,78)" font-family="sans-serif" font-size="10px" fill="#000" opacity="1">70</text><text text-anchor="end" transform="translate(-7,40.5)" font-family="sans-serif" font-size="10px" fill="#000" opacity="1">75</text><text text-anchor="end" transform="translate(-7,3)" font-family="sans-serif" font-size="10px" fill="#000" opacity="1">80</text></g><g class="mark-rule role-axis-domain" pointer-events="none"><line transform="translate(0,600)" x2="0" y2="-600" stroke="#888" stroke-width="1" opacity="1"></line></g><g class="mark-text role-axis-title" pointer-events="none"><text text-anchor="middle" transform="translate(-23,300) rotate(-90) translate(0,-2)" font-family="sans-serif" font-size="11px" font-weight="bold" fill="#000" opacity="1">GFLOPS</text></g></g><path class="foreground" aria-hidden="true" d="" pointer-events="none" display="none"></path></g></g><g class="mark-group role-scope pathgroup" role="graphics-object" aria-roledescription="group mark container"><g transform="translate(0,0)"><path class="background" aria-hidden="true" d="M0,0h900v600h-900Z"></path><g><g class="mark-line role-mark marks" role="graphics-object" aria-roledescription="line mark container"><path aria-label="Size: 2; GFLOPS: 10.6312292359; MatMulType: SMatrix" role="graphics-symbol" aria-roledescription="line mark" d="M36,520.2657807308971L54,457.54484699261343L72,453.21100917431187L90,443.5411794186435L108,385.56137674912134L126.00000000000001,504.0221014355517L144,348.1510777140597L162,387.51926374081154L180,365.38934197296385L198,400.1679496151155L216,307.1341077085533L234,345.8048143472773L252.00000000000003,334.9649929523765L270,341.82727816269824L288,219.94260570116694L306,318.1013913023196L324,315.1705364291433L342,337.2939674473598L360,295.36015774231305L378,318.4038317601563L396,290.53071357209893L414,305.6643803874316L432,229.97858672376873L450,294.9289424794992L468,275.08421551587924L486.00000000000006,306.33345766505033L504.00000000000006,264.2383401312288L522,283.39679792297704L540,266.0620052770448L558,296.8351424694708L576,235.07313089316207L594,374.79947082579025L612,294.7973287777605L630,376.4943815886009L648,319.2904893484268L666,321.3692853068209L684,319.4151736676641L702,331.5983560197579L720,325.65549760663L738,344.1413873568095L756,335.03048468953295L774,292.20118075942827L792,350.62420713658395L810,307.7899767896408L828,361.7039334094989L846,324.16843783209345L864,291.6388871677304" stroke="#e45756" stroke-width="2"></path></g></g><path class="foreground" aria-hidden="true" d="" display="none"></path></g><g transform="translate(0,0)"><path class="background" aria-hidden="true" d="M0,0h900v600h-900Z"></path><g><g class="mark-line role-mark marks" role="graphics-object" aria-roledescription="line mark container"><path aria-label="Size: 2; GFLOPS: 7.11427301023; MatMulType: MMatrix" role="graphics-symbol" aria-roledescription="line mark" d="M36,546.6429524232992L54,535.7040800127005L72,523.4849210148396L90,519.0431336884501L108,503.9785330948122L126.00000000000001,480.7577956737522L144,404.54351678266005L162,414.06732117812066L180,423.54887328603456L198,441.20864586569616L216,374.7171734329879L234,401.8183796856106L252.00000000000003,514.1105213594726L270,515.8682058456252L288,505.26363294471605L306,504.304273827534L324,501.56196131009386L342,503.185282770302L360,495.73377356851165L378,495.34016424320043L396,492.2121743825077L414,494.9067142692618L432,487.82862706913346L450,489.7635223412595L468,486.72554542416566L486.00000000000006,491.4629115268361L504.00000000000006,483.5780789628757L522,486.2099533437014L540,484.0911530068328L558,487.16954929933087L576,481.1523316062176L594,484.4893929653779L612,483.00446502397875L630,487.078602364509L648,480.0582707303836L666,482.2205859556658L684,480.5537818540663L702,483.6616219396594L720,478.95599546084986L738,482.7696930752948L756,482.75978478742485L774,484.52701394268007L792,478.1460995613199L810,480.82003662045514L828,480.2264150943396L846,482.96798677387835L864,479.55565236331955" stroke="#4c78a8" stroke-width="2"></path></g></g><path class="foreground" aria-hidden="true" d="" display="none"></path></g><g transform="translate(0,0)"><path class="background" aria-hidden="true" d="M0,0h900v600h-900Z"></path><g><g class="mark-line role-mark marks" role="graphics-object" aria-roledescription="line mark container"><path aria-label="Size: 2; GFLOPS: 12.3552123552; MatMulType: StrideArray" role="graphics-symbol" aria-roledescription="line mark" d="M36,507.33590733590734L54,411.01259916005597L72,327.81400623759566L90,298.21342346692416L108,211.38672109496935L126.00000000000001,128.49692688744142L144,61.10947057582783L162,296.99664804469273L180,263.34927795787894L198,298.21999319959195L216,196.0251532277322L234,168.6285490661772L252.00000000000003,128.68351222777358L270,95.03517029828643L288,61.24166958961774L306,218.41128972698846L324,205.05643340857787L342,187.4329714395409L360,155.62870309414075L378,134.8586668743187L396,109.87671601615077L414,88.50178168666338L432,68.94808240887484L450,183.03842144025404L468,172.06488987564944L486.00000000000006,155.85033209075252L504.00000000000006,133.43019078789803L522,120.8392885865943L540,106.69914738124224L558,90.4618015963512L576,65.50674206176592L594,158.36883499918065L612,146.00338826428458L630,133.494124474104L648,117.71759354972085L666,107.4262560777957L684,91.32933687658355L702,78.92656359803225L720,62.60635915808328L738,141.0026639040995L756,131.615622365833L774,127.61882756799565L792,108.91062048938794L810,98.8848832946351L828,85.92152106725082L846,77.49841565703623L864,68.3502924445156" stroke="#72b7b2" stroke-width="2"></path></g></g><path class="foreground" aria-hidden="true" d="" display="none"></path></g><g transform="translate(0,0)"><path class="background" aria-hidden="true" d="M0,0h900v600h-900Z"></path><g><g class="mark-line role-mark marks" role="graphics-object" aria-roledescription="line mark container"><path aria-label="Size: 2; GFLOPS: 14.5719489982; MatMulType: PtrArray" role="graphics-symbol" aria-roledescription="line mark" d="M36,490.7103825136612L54,390.69767441860466L72,279.99999999999994L90,298.31053901850356L108,196.26294124984406L126.00000000000001,128.49692688744142L144,61.10947057582783L162,290.27169262365226L180,263.2576702419555L198,229.62322962181707L216,206.43826480760575L234,162.26498591009818L252.00000000000003,128.5898353614888L270,94.98709418074492L288,61.2429033520032L306,218.70853080568716L324,201.60458140169072L342,193.9340383776711L360,158.63386673035575L378,136.43292128703862L396,110.0811236227146L414,92.53151316137914L432,66.14598335478767L450,182.46063845153847L468,171.04048026481894L486.00000000000006,156.59227223040736L504.00000000000006,135.32952350450861L522,120.97762232812714L540,101.90913381097427L558,86.63525156898193L576,65.29077176514465L594,158.0429613839468L612,147.39751266697368L630,131.7960104834012L648,119.27462563538944L666,107.80915981084414L684,92.30199851961503L702,79.04859484777505L720,62.93706293706287L738,141.3646670281461L756,133.9291705498602L774,128.20021978021975L792,108.70081599521515L810,97.78015921616654L828,88.14428170769708L846,76.77672838584435L864,63.4495027088219" stroke="#f58518" stroke-width="2"></path></g></g><path class="foreground" aria-hidden="true" d="" display="none"></path></g><g transform="translate(0,0)"><path class="background" aria-hidden="true" d="M0,0h900v600h-900Z"></path><g><g class="mark-line role-mark marks" role="graphics-object" aria-roledescription="line mark container"><path aria-label="Size: 2; GFLOPS: 0.560326622554; MatMulType: jmul!" role="graphics-symbol" aria-roledescription="line mark" d="M36,595.7975503308461L54,586.3389043324971L72,568.004287532659L90,538.6419753086419L108,502.7353528024669L126.00000000000001,450.8151316942124L144,385.8029689608637L162,424.6951379763469L180,379.4682533704903L198,360.44380682665076L216,296.1818648982638L234,259.9652974504249L252.00000000000003,235.53390174583834L270,191.98811382568744L288,145.1251372211963L306,266.67947562926327L324,242.84362008314676L342,222.35176248300098L360,199.64798444826815L378,161.24540528766303L396,143.363131191109L414,125.62113471363267L432,111.73040514956458L450,195.47980540356002L468,185.04860110842955L486.00000000000006,168.44300856686507L504.00000000000006,152.32132916541767L522,133.55815940125706L540,112.48099341104908L558,97.03612704861777L576,82.20173821437977L594,169.23845293271526L612,154.03933434190617L630,146.64810376427454L648,128.2507583417594L666,118.08004566789285L684,101.31475310511959L702,90.0653332569201L720,71.59841479524425L738,151.53347471923658L756,139.52948759265226L774,133.51101742796297L792,120.46036445519368L810,109.45549884360798L828,96.86564306773361L846,85.38785625774474L864,72.05155746509129" stroke="#54a24b" stroke-width="2"></path></g></g><path class="foreground" aria-hidden="true" d="" display="none"></path></g></g><g class="mark-group role-legend" role="graphics-symbol" aria-roledescription="legend" aria-label="Symbol legend titled 'MatMulType' for stroke color with 5 values: MMatrix, PtrArray, SMatrix, StrideArray, jmul!"><g transform="translate(918,0)"><path class="background" aria-hidden="true" d="M0,0h75v79h-75Z" pointer-events="none"></path><g><g class="mark-group role-legend-entry"><g transform="translate(0,16)"><path class="background" aria-hidden="true" d="M0,0h0v0h0Z" pointer-events="none"></path><g><g class="mark-group role-scope" role="graphics-object" aria-roledescription="group mark container"><g transform="translate(0,0)"><path class="background" aria-hidden="true" d="M0,0h72v11h-72Z" pointer-events="none" opacity="1"></path><g><g class="mark-symbol role-legend-symbol" pointer-events="none"><path transform="translate(6,6)" d="M-5,0L5,0" stroke="#4c78a8" stroke-width="1.5" opacity="1"></path></g><g class="mark-text role-legend-label" pointer-events="none"><text text-anchor="start" transform="translate(16,9)" font-family="sans-serif" font-size="10px" fill="#000" opacity="1">MMatrix</text></g></g><path class="foreground" aria-hidden="true" d="" pointer-events="none" display="none"></path></g><g transform="translate(0,13)"><path class="background" aria-hidden="true" d="M0,0h72v11h-72Z" pointer-events="none" opacity="1"></path><g><g class="mark-symbol role-legend-symbol" pointer-events="none"><path transform="translate(6,6)" d="M-5,0L5,0" stroke="#f58518" stroke-width="1.5" opacity="1"></path></g><g class="mark-text role-legend-label" pointer-events="none"><text text-anchor="start" transform="translate(16,9)" font-family="sans-serif" font-size="10px" fill="#000" opacity="1">PtrArray</text></g></g><path class="foreground" aria-hidden="true" d="" pointer-events="none" display="none"></path></g><g transform="translate(0,26)"><path class="background" aria-hidden="true" d="M0,0h72v11h-72Z" pointer-events="none" opacity="1"></path><g><g class="mark-symbol role-legend-symbol" pointer-events="none"><path transform="translate(6,6)" d="M-5,0L5,0" stroke="#e45756" stroke-width="1.5" opacity="1"></path></g><g class="mark-text role-legend-label" pointer-events="none"><text text-anchor="start" transform="translate(16,9)" font-family="sans-serif" font-size="10px" fill="#000" opacity="1">SMatrix</text></g></g><path class="foreground" aria-hidden="true" d="" pointer-events="none" display="none"></path></g><g transform="translate(0,39)"><path class="background" aria-hidden="true" d="M0,0h72v11h-72Z" pointer-events="none" opacity="1"></path><g><g class="mark-symbol role-legend-symbol" pointer-events="none"><path transform="translate(6,6)" d="M-5,0L5,0" stroke="#72b7b2" stroke-width="1.5" opacity="1"></path></g><g class="mark-text role-legend-label" pointer-events="none"><text text-anchor="start" transform="translate(16,9)" font-family="sans-serif" font-size="10px" fill="#000" opacity="1">StrideArray</text></g></g><path class="foreground" aria-hidden="true" d="" pointer-events="none" display="none"></path></g><g transform="translate(0,52)"><path class="background" aria-hidden="true" d="M0,0h72v11h-72Z" pointer-events="none" opacity="1"></path><g><g class="mark-symbol role-legend-symbol" pointer-events="none"><path transform="translate(6,6)" d="M-5,0L5,0" stroke="#54a24b" stroke-width="1.5" opacity="1"></path></g><g class="mark-text role-legend-label" pointer-events="none"><text text-anchor="start" transform="translate(16,9)" font-family="sans-serif" font-size="10px" fill="#000" opacity="1">jmul!</text></g></g><path class="foreground" aria-hidden="true" d="" pointer-events="none" display="none"></path></g></g></g><path class="foreground" aria-hidden="true" d="" pointer-events="none" display="none"></path></g></g><g class="mark-text role-legend-title" pointer-events="none"><text text-anchor="start" transform="translate(0,9)" font-family="sans-serif" font-size="11px" font-weight="bold" fill="#000" opacity="1">MatMulType</text></g></g><path class="foreground" aria-hidden="true" d="" pointer-events="none" display="none"></path></g></g></g><path class="foreground" aria-hidden="true" d="" display="none"></path></g></g></g></svg>
