<?xml version="1.0" encoding="utf-8"?>
<!DOCTYPE svg PUBLIC "-//W3C//DTD SVG 1.1//EN" "http://www.w3.org/Graphics/SVG/1.1/DTD/svg11.dtd">
<svg class="marks" width="1051" height="647" viewBox="0 0 1051 647" version="1.1" xmlns="http://www.w3.org/2000/svg" xmlns:xlink="http://www.w3.org/1999/xlink"><rect width="1051" height="647" fill="white"></rect><g fill="none" stroke-miterlimit="10" transform="translate(45,10)"><g class="mark-group role-frame root" role="graphics-object" aria-roledescription="group mark container"><g transform="translate(0,0)"><path class="background" aria-hidden="true" d="M0.5,0.5h900v600h-900Z" stroke="#ddd"></path><g><g class="mark-group role-axis" aria-hidden="true"><g transform="translate(0.5,600.5)"><path class="background" aria-hidden="true" d="M0,0h0v0h0Z" pointer-events="none"></path><g><g class="mark-rule role-axis-grid" pointer-events="none"><line transform="translate(0,-600)" x2="0" y2="600" stroke="#ddd" stroke-width="1" opacity="1"></line><line transform="translate(36,-600)" x2="0" y2="600" stroke="#ddd" stroke-width="1" opacity="1"></line><line transform="translate(72,-600)" x2="0" y2="600" stroke="#ddd" stroke-width="1" opacity="1"></line><line transform="translate(108,-600)" x2="0" y2="600" stroke="#ddd" stroke-width="1" opacity="1"></line><line transform="translate(144,-600)" x2="0" y2="600" stroke="#ddd" stroke-width="1" opacity="1"></line><line transform="translate(180,-600)" x2="0" y2="600" stroke="#ddd" stroke-width="1" opacity="1"></line><line transform="translate(216,-600)" x2="0" y2="600" stroke="#ddd" stroke-width="1" opacity="1"></line><line transform="translate(252,-600)" x2="0" y2="600" stroke="#ddd" stroke-width="1" opacity="1"></line><line transform="translate(288,-600)" x2="0" y2="600" stroke="#ddd" stroke-width="1" opacity="1"></line><line transform="translate(324,-600)" x2="0" y2="600" stroke="#ddd" stroke-width="1" opacity="1"></line><line transform="translate(360,-600)" x2="0" y2="600" stroke="#ddd" stroke-width="1" opacity="1"></line><line transform="translate(396,-600)" x2="0" y2="600" stroke="#ddd" stroke-width="1" opacity="1"></line><line transform="translate(432,-600)" x2="0" y2="600" stroke="#ddd" stroke-width="1" opacity="1"></line><line transform="translate(468,-600)" x2="0" y2="600" stroke="#ddd" stroke-width="1" opacity="1"></line><line transform="translate(504,-600)" x2="0" y2="600" stroke="#ddd" stroke-width="1" opacity="1"></line><line transform="translate(540,-600)" x2="0" y2="600" stroke="#ddd" stroke-width="1" opacity="1"></line><line transform="translate(576,-600)" x2="0" y2="600" stroke="#ddd" stroke-width="1" opacity="1"></line><line transform="translate(612,-600)" x2="0" y2="600" stroke="#ddd" stroke-width="1" opacity="1"></line><line transform="translate(648,-600)" x2="0" y2="600" stroke="#ddd" stroke-width="1" opacity="1"></line><line transform="translate(684,-600)" x2="0" y2="600" stroke="#ddd" stroke-width="1" opacity="1"></line><line transform="translate(720,-600)" x2="0" y2="600" stroke="#ddd" stroke-width="1" opacity="1"></line><line transform="translate(756,-600)" x2="0" y2="600" stroke="#ddd" stroke-width="1" opacity="1"></line><line transform="translate(792,-600)" x2="0" y2="600" stroke="#ddd" stroke-width="1" opacity="1"></line><line transform="translate(828,-600)" x2="0" y2="600" stroke="#ddd" stroke-width="1" opacity="1"></line><line transform="translate(864,-600)" x2="0" y2="600" stroke="#ddd" stroke-width="1" opacity="1"></line><line transform="translate(900,-600)" x2="0" y2="600" stroke="#ddd" stroke-width="1" opacity="1"></line></g></g><path class="foreground" aria-hidden="true" d="" pointer-events="none" display="none"></path></g></g><g class="mark-group role-axis" aria-hidden="true"><g transform="translate(0.5,0.5)"><path class="background" aria-hidden="true" d="M0,0h0v0h0Z" pointer-events="none"></path><g><g class="mark-rule role-axis-grid" pointer-events="none"><line transform="translate(0,600)" x2="900" y2="0" stroke="#ddd" stroke-width="1" opacity="1"></line><line transform="translate(0,554)" x2="900" y2="0" stroke="#ddd" stroke-width="1" opacity="1"></line><line transform="translate(0,508)" x2="900" y2="0" stroke="#ddd" stroke-width="1" opacity="1"></line><line transform="translate(0,462)" x2="900" y2="0" stroke="#ddd" stroke-width="1" opacity="1"></line><line transform="translate(0,415)" x2="900" y2="0" stroke="#ddd" stroke-width="1" opacity="1"></line><line transform="translate(0,369)" x2="900" y2="0" stroke="#ddd" stroke-width="1" opacity="1"></line><line transform="translate(0,323)" x2="900" y2="0" stroke="#ddd" stroke-width="1" opacity="1"></line><line transform="translate(0,277)" x2="900" y2="0" stroke="#ddd" stroke-width="1" opacity="1"></line><line transform="translate(0,231)" x2="900" y2="0" stroke="#ddd" stroke-width="1" opacity="1"></line><line transform="translate(0,185)" x2="900" y2="0" stroke="#ddd" stroke-width="1" opacity="1"></line><line transform="translate(0,138)" x2="900" y2="0" stroke="#ddd" stroke-width="1" opacity="1"></line><line transform="translate(0,92)" x2="900" y2="0" stroke="#ddd" stroke-width="1" opacity="1"></line><line transform="translate(0,46)" x2="900" y2="0" stroke="#ddd" stroke-width="1" opacity="1"></line><line transform="translate(0,0)" x2="900" y2="0" stroke="#ddd" stroke-width="1" opacity="1"></line></g></g><path class="foreground" aria-hidden="true" d="" pointer-events="none" display="none"></path></g></g><g class="mark-group role-axis" role="graphics-symbol" aria-roledescription="axis" aria-label="X-axis titled 'Size' for a linear scale with values from 0 to 50"><g transform="translate(0.5,600.5)"><path class="background" aria-hidden="true" d="M0,0h0v0h0Z" pointer-events="none"></path><g><g class="mark-rule role-axis-tick" pointer-events="none"><line transform="translate(0,0)" x2="0" y2="5" stroke="#888" stroke-width="1" opacity="1"></line><line transform="translate(36,0)" x2="0" y2="5" stroke="#888" stroke-width="1" opacity="1"></line><line transform="translate(72,0)" x2="0" y2="5" stroke="#888" stroke-width="1" opacity="1"></line><line transform="translate(108,0)" x2="0" y2="5" stroke="#888" stroke-width="1" opacity="1"></line><line transform="translate(144,0)" x2="0" y2="5" stroke="#888" stroke-width="1" opacity="1"></line><line transform="translate(180,0)" x2="0" y2="5" stroke="#888" stroke-width="1" opacity="1"></line><line transform="translate(216,0)" x2="0" y2="5" stroke="#888" stroke-width="1" opacity="1"></line><line transform="translate(252,0)" x2="0" y2="5" stroke="#888" stroke-width="1" opacity="1"></line><line transform="translate(288,0)" x2="0" y2="5" stroke="#888" stroke-width="1" opacity="1"></line><line transform="translate(324,0)" x2="0" y2="5" stroke="#888" stroke-width="1" opacity="1"></line><line transform="translate(360,0)" x2="0" y2="5" stroke="#888" stroke-width="1" opacity="1"></line><line transform="translate(396,0)" x2="0" y2="5" stroke="#888" stroke-width="1" opacity="1"></line><line transform="translate(432,0)" x2="0" y2="5" stroke="#888" stroke-width="1" opacity="1"></line><line transform="translate(468,0)" x2="0" y2="5" stroke="#888" stroke-width="1" opacity="1"></line><line transform="translate(504,0)" x2="0" y2="5" stroke="#888" stroke-width="1" opacity="1"></line><line transform="translate(540,0)" x2="0" y2="5" stroke="#888" stroke-width="1" opacity="1"></line><line transform="translate(576,0)" x2="0" y2="5" stroke="#888" stroke-width="1" opacity="1"></line><line transform="translate(612,0)" x2="0" y2="5" stroke="#888" stroke-width="1" opacity="1"></line><line transform="translate(648,0)" x2="0" y2="5" stroke="#888" stroke-width="1" opacity="1"></line><line transform="translate(684,0)" x2="0" y2="5" stroke="#888" stroke-width="1" opacity="1"></line><line transform="translate(720,0)" x2="0" y2="5" stroke="#888" stroke-width="1" opacity="1"></line><line transform="translate(756,0)" x2="0" y2="5" stroke="#888" stroke-width="1" opacity="1"></line><line transform="translate(792,0)" x2="0" y2="5" stroke="#888" stroke-width="1" opacity="1"></line><line transform="translate(828,0)" x2="0" y2="5" stroke="#888" stroke-width="1" opacity="1"></line><line transform="translate(864,0)" x2="0" y2="5" stroke="#888" stroke-width="1" opacity="1"></line><line transform="translate(900,0)" x2="0" y2="5" stroke="#888" stroke-width="1" opacity="1"></line></g><g class="mark-text role-axis-label" pointer-events="none"><text text-anchor="start" transform="translate(0,15)" font-family="sans-serif" font-size="10px" fill="#000" opacity="1">0</text><text text-anchor="middle" transform="translate(36,15)" font-family="sans-serif" font-size="10px" fill="#000" opacity="1">2</text><text text-anchor="middle" transform="translate(72,15)" font-family="sans-serif" font-size="10px" fill="#000" opacity="1">4</text><text text-anchor="middle" transform="translate(108,15)" font-family="sans-serif" font-size="10px" fill="#000" opacity="1">6</text><text text-anchor="middle" transform="translate(144,15)" font-family="sans-serif" font-size="10px" fill="#000" opacity="1">8</text><text text-anchor="middle" transform="translate(180,15)" font-family="sans-serif" font-size="10px" fill="#000" opacity="1">10</text><text text-anchor="middle" transform="translate(216,15)" font-family="sans-serif" font-size="10px" fill="#000" opacity="1">12</text><text text-anchor="middle" transform="translate(252.00000000000003,15)" font-family="sans-serif" font-size="10px" fill="#000" opacity="1">14</text><text text-anchor="middle" transform="translate(288,15)" font-family="sans-serif" font-size="10px" fill="#000" opacity="1">16</text><text text-anchor="middle" transform="translate(324,15)" font-family="sans-serif" font-size="10px" fill="#000" opacity="1">18</text><text text-anchor="middle" transform="translate(360,15)" font-family="sans-serif" font-size="10px" fill="#000" opacity="1">20</text><text text-anchor="middle" transform="translate(396,15)" font-family="sans-serif" font-size="10px" fill="#000" opacity="1">22</text><text text-anchor="middle" transform="translate(432,15)" font-family="sans-serif" font-size="10px" fill="#000" opacity="1">24</text><text text-anchor="middle" transform="translate(468,15)" font-family="sans-serif" font-size="10px" fill="#000" opacity="1">26</text><text text-anchor="middle" transform="translate(504.00000000000006,15)" font-family="sans-serif" font-size="10px" fill="#000" opacity="1">28</text><text text-anchor="middle" transform="translate(540,15)" font-family="sans-serif" font-size="10px" fill="#000" opacity="1">30</text><text text-anchor="middle" transform="translate(576,15)" font-family="sans-serif" font-size="10px" fill="#000" opacity="1">32</text><text text-anchor="middle" transform="translate(612,15)" font-family="sans-serif" font-size="10px" fill="#000" opacity="1">34</text><text text-anchor="middle" transform="translate(648,15)" font-family="sans-serif" font-size="10px" fill="#000" opacity="1">36</text><text text-anchor="middle" transform="translate(684,15)" font-family="sans-serif" font-size="10px" fill="#000" opacity="1">38</text><text text-anchor="middle" transform="translate(720,15)" font-family="sans-serif" font-size="10px" fill="#000" opacity="1">40</text><text text-anchor="middle" transform="translate(756,15)" font-family="sans-serif" font-size="10px" fill="#000" opacity="1">42</text><text text-anchor="middle" transform="translate(792,15)" font-family="sans-serif" font-size="10px" fill="#000" opacity="1">44</text><text text-anchor="middle" transform="translate(828,15)" font-family="sans-serif" font-size="10px" fill="#000" opacity="1">46</text><text text-anchor="middle" transform="translate(864,15)" font-family="sans-serif" font-size="10px" fill="#000" opacity="1">48</text><text text-anchor="end" transform="translate(900,15)" font-family="sans-serif" font-size="10px" fill="#000" opacity="1">50</text></g><g class="mark-rule role-axis-domain" pointer-events="none"><line transform="translate(0,0)" x2="900" y2="0" stroke="#888" stroke-width="1" opacity="1"></line></g><g class="mark-text role-axis-title" pointer-events="none"><text text-anchor="middle" transform="translate(450,30)" font-family="sans-serif" font-size="11px" font-weight="bold" fill="#000" opacity="1">Size</text></g></g><path class="foreground" aria-hidden="true" d="" pointer-events="none" display="none"></path></g></g><g class="mark-group role-axis" role="graphics-symbol" aria-roledescription="axis" aria-label="Y-axis titled 'GFLOPS' for a linear scale with values from 0 to 130"><g transform="translate(0.5,0.5)"><path class="background" aria-hidden="true" d="M0,0h0v0h0Z" pointer-events="none"></path><g><g class="mark-rule role-axis-tick" pointer-events="none"><line transform="translate(0,600)" x2="-5" y2="0" stroke="#888" stroke-width="1" opacity="1"></line><line transform="translate(0,554)" x2="-5" y2="0" stroke="#888" stroke-width="1" opacity="1"></line><line transform="translate(0,508)" x2="-5" y2="0" stroke="#888" stroke-width="1" opacity="1"></line><line transform="translate(0,462)" x2="-5" y2="0" stroke="#888" stroke-width="1" opacity="1"></line><line transform="translate(0,415)" x2="-5" y2="0" stroke="#888" stroke-width="1" opacity="1"></line><line transform="translate(0,369)" x2="-5" y2="0" stroke="#888" stroke-width="1" opacity="1"></line><line transform="translate(0,323)" x2="-5" y2="0" stroke="#888" stroke-width="1" opacity="1"></line><line transform="translate(0,277)" x2="-5" y2="0" stroke="#888" stroke-width="1" opacity="1"></line><line transform="translate(0,231)" x2="-5" y2="0" stroke="#888" stroke-width="1" opacity="1"></line><line transform="translate(0,185)" x2="-5" y2="0" stroke="#888" stroke-width="1" opacity="1"></line><line transform="translate(0,138)" x2="-5" y2="0" stroke="#888" stroke-width="1" opacity="1"></line><line transform="translate(0,92)" x2="-5" y2="0" stroke="#888" stroke-width="1" opacity="1"></line><line transform="translate(0,46)" x2="-5" y2="0" stroke="#888" stroke-width="1" opacity="1"></line><line transform="translate(0,0)" x2="-5" y2="0" stroke="#888" stroke-width="1" opacity="1"></line></g><g class="mark-text role-axis-label" pointer-events="none"><text text-anchor="end" transform="translate(-7,603)" font-family="sans-serif" font-size="10px" fill="#000" opacity="1">0</text><text text-anchor="end" transform="translate(-7,556.8461538461539)" font-family="sans-serif" font-size="10px" fill="#000" opacity="1">10</text><text text-anchor="end" transform="translate(-7,510.6923076923077)" font-family="sans-serif" font-size="10px" fill="#000" opacity="1">20</text><text text-anchor="end" transform="translate(-7,464.5384615384615)" font-family="sans-serif" font-size="10px" fill="#000" opacity="1">30</text><text text-anchor="end" transform="translate(-7,418.38461538461536)" font-family="sans-serif" font-size="10px" fill="#000" opacity="1">40</text><text text-anchor="end" transform="translate(-7,372.2307692307692)" font-family="sans-serif" font-size="10px" fill="#000" opacity="1">50</text><text text-anchor="end" transform="translate(-7,326.07692307692304)" font-family="sans-serif" font-size="10px" fill="#000" opacity="1">60</text><text text-anchor="end" transform="translate(-7,279.92307692307696)" font-family="sans-serif" font-size="10px" fill="#000" opacity="1">70</text><text text-anchor="end" transform="translate(-7,233.76923076923075)" font-family="sans-serif" font-size="10px" fill="#000" opacity="1">80</text><text text-anchor="end" transform="translate(-7,187.6153846153846)" font-family="sans-serif" font-size="10px" fill="#000" opacity="1">90</text><text text-anchor="end" transform="translate(-7,141.46153846153842)" font-family="sans-serif" font-size="10px" fill="#000" opacity="1">100</text><text text-anchor="end" transform="translate(-7,95.3076923076923)" font-family="sans-serif" font-size="10px" fill="#000" opacity="1">110</text><text text-anchor="end" transform="translate(-7,49.153846153846125)" font-family="sans-serif" font-size="10px" fill="#000" opacity="1">120</text><text text-anchor="end" transform="translate(-7,3)" font-family="sans-serif" font-size="10px" fill="#000" opacity="1">130</text></g><g class="mark-rule role-axis-domain" pointer-events="none"><line transform="translate(0,600)" x2="0" y2="-600" stroke="#888" stroke-width="1" opacity="1"></line></g><g class="mark-text role-axis-title" pointer-events="none"><text text-anchor="middle" transform="translate(-29,300) rotate(-90) translate(0,-2)" font-family="sans-serif" font-size="11px" font-weight="bold" fill="#000" opacity="1">GFLOPS</text></g></g><path class="foreground" aria-hidden="true" d="" pointer-events="none" display="none"></path></g></g><g class="mark-group role-scope pathgroup" role="graphics-object" aria-roledescription="group mark container"><g transform="translate(0,0)"><path class="background" aria-hidden="true" d="M0,0h900v600h-900Z"></path><g><g class="mark-line role-mark marks" role="graphics-object" aria-roledescription="line mark container"><path aria-label="Size: 2; GFLOPS: 10.4302477184; MatMulType: SMatrix" role="graphics-symbol" aria-roledescription="line mark" d="M36,551.8603951459231L54,565.4959065324919L72,536.6081136908205L90,539.5711185909221L108,482.53491962582865L126.00000000000001,531.7479113524139L144,331.333929228666L162,512.8267774753303L180,497.54722011995915L198,513.0230447445937L216,497.8235268030925L234,507.20162369112967L252.00000000000003,502.0566252259976L270,522.5037838975097L288,453.60148385886663L306,519.4646285757257L324,499.2750597588281L342,519.6398040269138L360,482.728038992927L378,519.3103150667198L396,503.5871123519203L414,520.6732806676301L432,482.21695232956085L450,528.0393308233452L468,507.8181818181818L486.00000000000006,525.3720402656572L504.00000000000006,498.9133298938742L522,528.6775761858923L540,511.21098353018556L558,528.2853404600094L576,495.66269535914245L594,542.1388648230072L612,512.0317604113932L630,538.3360932609161L648,512.0464644469779L666,531.9474839152697L684,514.731219231093L702,531.9361575178997L720,508.3879864204275L738,532.4186592852109L756,516.0047616348279L774,526.5170694136903L792,516.7481369874171L810,527.3991156435486L828,523.8377423204074L846,530.4271394667039L864,510.7961175490011" stroke="#eeca3b" stroke-width="2"></path></g></g><path class="foreground" aria-hidden="true" d="" display="none"></path></g><g transform="translate(0,0)"><path class="background" aria-hidden="true" d="M0,0h900v600h-900Z"></path><g><g class="mark-line role-mark marks" role="graphics-object" aria-roledescription="line mark container"><path aria-label="Size: 2; GFLOPS: 5.22704998367; MatMulType: MMatrix" role="graphics-symbol" aria-roledescription="line mark" d="M36,575.875153921544L54,566.5437330742357L72,565.1831999345877L90,551.8787441077658L108,546.3723392273904L126.00000000000001,549.6350939141531L144,516.7707518198283L162,528.1060268058625L180,527.7673627529731L198,532.575806241431L216,499.0149426040352L234,508.8547895746361L252.00000000000003,519.7273753084565L270,518.8056134390708L288,477.1943297477842L306,490.10270017866986L324,473.87346788698363L342,478.00185005261477L360,447.43338454203524L378,459.1990877815859L396,440.4544456420494L414,457.18653758992184L432,376.7468640516088L450,410.8657461463477L468,412.9229737095895L486.00000000000006,427.4556213017751L504.00000000000006,373.2306831454782L522,406.9714217875068L540,392.9805056642834L558,412.5723513128093L576,307.7547380156076L594,340.9199048374306L612,339.1947711550903L630,366.23199600163565L648,310.1226565048333L666,349.9111286659425L684,351.4396443251405L702,375.5186079351342L720,293.7273934526254L738,332.0536938843832L756,319.8578545845397L774,347.15013884022034L792,298.640522276344L810,335.63169760231125L828,322.1749678892536L846,347.3579190440824L864,253.76684214187983" stroke="#e45756" stroke-width="2"></path></g></g><path class="foreground" aria-hidden="true" d="" display="none"></path></g><g transform="translate(0,0)"><path class="background" aria-hidden="true" d="M0,0h900v600h-900Z"></path><g><g class="mark-line role-mark marks" role="graphics-object" aria-roledescription="line mark container"><path aria-label="Size: 2; GFLOPS: 7.3126142596; MatMulType: FixedSizeArray" role="graphics-symbol" aria-roledescription="line mark" d="M36,566.24947264801L54,504.58240075391683L72,441.9135052798419L90,430.46633061325974L108,320.8727147292169L126.00000000000001,305.9053749597682L144,158.95117306794094L162,382.00125852702195L180,346.4860720674674L198,306.09557869171164L216,269.81583523643906L234,276.25997719498287L252.00000000000003,212.79602568506726L270,171.87881605993573L288,109.91686911747904L306,236.26384815313298L324,219.22116075987952L342,199.35629471199934L360,185.0579159337637L378,164.38107158944587L396,133.0677873195688L414,122.68785354110739L432,39.067965940180116L450,184.9446489905854L468,189.63279893287697L486.00000000000006,177.3676257952573L504.00000000000006,137.42965391000806L522,144.4059212088921L540,132.00262735367093L558,128.49463479891097L576,50.50702153989634L594,149.1806552100266L612,167.1135955898908L630,174.33606353933976L648,163.47986090536259L666,119.45924579018103L684,108.38516040884276L702,117.35566328779186L720,33.20614912287163L738,163.3835384298633L756,197.75953960167587L774,149.4992515924318L792,142.70785335629768L810,131.96425208443907L828,138.14837367834176L846,124.88182303539794L864,67.80876302302642" stroke="#f58518" stroke-width="2"></path></g></g><path class="foreground" aria-hidden="true" d="" display="none"></path></g><g transform="translate(0,0)"><path class="background" aria-hidden="true" d="M0,0h900v600h-900Z"></path><g><g class="mark-line role-mark marks" role="graphics-object" aria-roledescription="line mark container"><path aria-label="Size: 2; GFLOPS: 7.3126142596; MatMulType: PaddedArray" role="graphics-symbol" aria-roledescription="line mark" d="M36,566.24947264801L54,518.0161943319838L72,441.9135052798419L90,381.17842711053396L108,303.86957465525705L126.00000000000001,232.38171869971035L144,156.17336977743068L162,369.5230933398294L180,358.723569853418L198,305.69774814390604L216,269.7881613410162L234,231.61306996492522L252.00000000000003,194.04964832540998L270,165.8762290341237L288,105.6284444813123L306,222.67190320754563L324,219.10966803103966L342,202.34560695314374L360,171.15578373977877L378,148.99358028878103L396,119.66475870897281L414,94.2453293197657L432,35.23531061000513L450,168.13624539345327L468,182.05494802735797L486.00000000000006,150.07831008726964L504.00000000000006,134.26699085909507L522,115.11536022633038L540,110.8599999843555L558,94.27903238913925L576,54.88062452531914L594,125.837366826021L612,149.23446469872374L630,141.72904250099222L648,137.55957346637035L666,111.27192030296457L684,94.65153224506699L702,89.35932108551698L720,32.06188159081829L738,159.2699368522022L756,147.18318826111977L774,132.95738244191853L792,117.8650768570445L810,103.30449001839604L828,106.05489068380764L846,90.4476000392631L864,78.09344030202925" stroke="#72b7b2" stroke-width="2"></path></g></g><path class="foreground" aria-hidden="true" d="" display="none"></path></g><g transform="translate(0,0)"><path class="background" aria-hidden="true" d="M0,0h900v600h-900Z"></path><g><g class="mark-line role-mark marks" role="graphics-object" aria-roledescription="line mark container"><path aria-label="Size: 2; GFLOPS: 10.4098893949; MatMulType: PtrArray" role="graphics-symbol" aria-roledescription="line mark" d="M36,551.9543566388069L54,511.17934097264106L72,431.4014752370917L90,370.6983001100648L108,286.7484440147441L126.00000000000001,233.40430084519093L144,153.7402937327323L162,344.7842723314421L180,307.4455691297192L198,289.0812445980985L216,253.08401096846987L234,219.9356913183279L252.00000000000003,179.52320825991688L270,142.4894094770712L288,68.3922942284604L306,216.88228519466145L324,209.71837531369087L342,186.06058050425455L360,170.1087574924478L378,146.3935086179058L396,114.8483774616514L414,91.15658648049309L432,31.076680990134896L450,170.9042944938439L468,167.71381839286653L486.00000000000006,148.65985823246325L504.00000000000006,132.95499053068457L522,107.97703034714748L540,108.47582860008515L558,93.96222664614658L576,49.53910534018557L594,127.26458235827354L612,147.1435931161863L630,138.05536751344988L648,143.92187876545643L666,110.31275723047497L684,91.45505097312328L702,84.50385991338727L720,30.034509629299677L738,154.51729840077996L756,153.8883034773446L774,131.73561588032325L792,117.98329788889464L810,97.66864965431704L828,101.4503640849219L846,91.98719647699232L864,71.36386993463269" stroke="#54a24b" stroke-width="2"></path></g></g><path class="foreground" aria-hidden="true" d="" display="none"></path></g><g transform="translate(0,0)"><path class="background" aria-hidden="true" d="M0,0h900v600h-900Z"></path><g><g class="mark-line role-mark marks" role="graphics-object" aria-roledescription="line mark container"><path aria-label="Size: 2; GFLOPS: 0.982041820418; MatMulType: DynamicMul" role="graphics-symbol" aria-roledescription="line mark" d="M36,595.4674992903775L54,585.5371375920276L72,573.7389023544517L90,562.4476760879091L108,525.553110806719L126.00000000000001,491.1692722243038L144,447.22114790474734L162,476.92948205633365L180,441.88600136185L198,395.1542823708262L216,355.57150786665403L234,342.7943829920765L252.00000000000003,286.1715869431733L270,248.75799254587312L288,211.53915495311097L306,302.0912157761497L324,271.9495352264302L342,261.5812320611049L360,220.46079693138512L378,198.474900164952L396,181.40524254105895L414,150.5800237245593L432,110.00928319603736L450,244.83053207227644L468,212.34138610057144L486.00000000000006,219.16565445926625L504.00000000000006,201.5026122692744L522,196.80535029932616L540,175.88970805329595L558,162.02453330066305L576,104.44761948656497L594,183.603746013291L612,155.45975741345015L630,167.30035791820677L648,130.87354015549028L666,140.38518249665395L684,127.81693928333246L702,117.90808240887472L720,75.66412463900693L738,152.57483215848785L756,135.08549913716462L774,122.47331041006618L792,135.33043011828028L810,113.50269164034343L828,101.75447576878285L846,99.78278936992857L864,51.951881264169856" stroke="#4c78a8" stroke-width="2"></path></g></g><path class="foreground" aria-hidden="true" d="" display="none"></path></g></g><g class="mark-group role-legend" role="graphics-symbol" aria-roledescription="legend" aria-label="Symbol legend titled 'MatMulType' for stroke color with 6 values: DynamicMul, FixedSizeArray, MMatrix, PaddedArray, PtrArray, SMatrix"><g transform="translate(918,0)"><path class="background" aria-hidden="true" d="M0,0h83v92h-83Z" pointer-events="none"></path><g><g class="mark-group role-legend-entry"><g transform="translate(0,16)"><path class="background" aria-hidden="true" d="M0,0h0v0h0Z" pointer-events="none"></path><g><g class="mark-group role-scope" role="graphics-object" aria-roledescription="group mark container"><g transform="translate(0,0)"><path class="background" aria-hidden="true" d="M0,0h83v11h-83Z" pointer-events="none" opacity="1"></path><g><g class="mark-symbol role-legend-symbol" pointer-events="none"><path transform="translate(6,6)" d="M-5,0L5,0" stroke="#4c78a8" stroke-width="1.5" opacity="1"></path></g><g class="mark-text role-legend-label" pointer-events="none"><text text-anchor="start" transform="translate(16,9)" font-family="sans-serif" font-size="10px" fill="#000" opacity="1">DynamicMul</text></g></g><path class="foreground" aria-hidden="true" d="" pointer-events="none" display="none"></path></g><g transform="translate(0,13)"><path class="background" aria-hidden="true" d="M0,0h83v11h-83Z" pointer-events="none" opacity="1"></path><g><g class="mark-symbol role-legend-symbol" pointer-events="none"><path transform="translate(6,6)" d="M-5,0L5,0" stroke="#f58518" stroke-width="1.5" opacity="1"></path></g><g class="mark-text role-legend-label" pointer-events="none"><text text-anchor="start" transform="translate(16,9)" font-family="sans-serif" font-size="10px" fill="#000" opacity="1">FixedSizeArray</text></g></g><path class="foreground" aria-hidden="true" d="" pointer-events="none" display="none"></path></g><g transform="translate(0,26)"><path class="background" aria-hidden="true" d="M0,0h83v11h-83Z" pointer-events="none" opacity="1"></path><g><g class="mark-symbol role-legend-symbol" pointer-events="none"><path transform="translate(6,6)" d="M-5,0L5,0" stroke="#e45756" stroke-width="1.5" opacity="1"></path></g><g class="mark-text role-legend-label" pointer-events="none"><text text-anchor="start" transform="translate(16,9)" font-family="sans-serif" font-size="10px" fill="#000" opacity="1">MMatrix</text></g></g><path class="foreground" aria-hidden="true" d="" pointer-events="none" display="none"></path></g><g transform="translate(0,39)"><path class="background" aria-hidden="true" d="M0,0h83v11h-83Z" pointer-events="none" opacity="1"></path><g><g class="mark-symbol role-legend-symbol" pointer-events="none"><path transform="translate(6,6)" d="M-5,0L5,0" stroke="#72b7b2" stroke-width="1.5" opacity="1"></path></g><g class="mark-text role-legend-label" pointer-events="none"><text text-anchor="start" transform="translate(16,9)" font-family="sans-serif" font-size="10px" fill="#000" opacity="1">PaddedArray</text></g></g><path class="foreground" aria-hidden="true" d="" pointer-events="none" display="none"></path></g><g transform="translate(0,52)"><path class="background" aria-hidden="true" d="M0,0h83v11h-83Z" pointer-events="none" opacity="1"></path><g><g class="mark-symbol role-legend-symbol" pointer-events="none"><path transform="translate(6,6)" d="M-5,0L5,0" stroke="#54a24b" stroke-width="1.5" opacity="1"></path></g><g class="mark-text role-legend-label" pointer-events="none"><text text-anchor="start" transform="translate(16,9)" font-family="sans-serif" font-size="10px" fill="#000" opacity="1">PtrArray</text></g></g><path class="foreground" aria-hidden="true" d="" pointer-events="none" display="none"></path></g><g transform="translate(0,65)"><path class="background" aria-hidden="true" d="M0,0h83v11h-83Z" pointer-events="none" opacity="1"></path><g><g class="mark-symbol role-legend-symbol" pointer-events="none"><path transform="translate(6,6)" d="M-5,0L5,0" stroke="#eeca3b" stroke-width="1.5" opacity="1"></path></g><g class="mark-text role-legend-label" pointer-events="none"><text text-anchor="start" transform="translate(16,9)" font-family="sans-serif" font-size="10px" fill="#000" opacity="1">SMatrix</text></g></g><path class="foreground" aria-hidden="true" d="" pointer-events="none" display="none"></path></g></g></g><path class="foreground" aria-hidden="true" d="" pointer-events="none" display="none"></path></g></g><g class="mark-text role-legend-title" pointer-events="none"><text text-anchor="start" transform="translate(0,9)" font-family="sans-serif" font-size="11px" font-weight="bold" fill="#000" opacity="1">MatMulType</text></g></g><path class="foreground" aria-hidden="true" d="" pointer-events="none" display="none"></path></g></g></g><path class="foreground" aria-hidden="true" d="" display="none"></path></g></g></g></svg>
