<?xml version="1.0" encoding="utf-8"?>
<!DOCTYPE svg PUBLIC "-//W3C//DTD SVG 1.1//EN" "http://www.w3.org/Graphics/SVG/1.1/DTD/svg11.dtd">
<svg class="marks" width="1037" height="647" viewBox="0 0 1037 647" version="1.1" xmlns="http://www.w3.org/2000/svg" xmlns:xlink="http://www.w3.org/1999/xlink"><rect width="1037" height="647" fill="white"></rect><g fill="none" stroke-miterlimit="10" transform="translate(39,10)"><g class="mark-group role-frame root" role="graphics-object" aria-roledescription="group mark container"><g transform="translate(0,0)"><path class="background" aria-hidden="true" d="M0.5,0.5h900v600h-900Z" stroke="#ddd"></path><g><g class="mark-group role-axis" aria-hidden="true"><g transform="translate(0.5,600.5)"><path class="background" aria-hidden="true" d="M0,0h0v0h0Z" pointer-events="none"></path><g><g class="mark-rule role-axis-grid" pointer-events="none"><line transform="translate(0,-600)" x2="0" y2="600" stroke="#ddd" stroke-width="1" opacity="1"></line><line transform="translate(36,-600)" x2="0" y2="600" stroke="#ddd" stroke-width="1" opacity="1"></line><line transform="translate(72,-600)" x2="0" y2="600" stroke="#ddd" stroke-width="1" opacity="1"></line><line transform="translate(108,-600)" x2="0" y2="600" stroke="#ddd" stroke-width="1" opacity="1"></line><line transform="translate(144,-600)" x2="0" y2="600" stroke="#ddd" stroke-width="1" opacity="1"></line><line transform="translate(180,-600)" x2="0" y2="600" stroke="#ddd" stroke-width="1" opacity="1"></line><line transform="translate(216,-600)" x2="0" y2="600" stroke="#ddd" stroke-width="1" opacity="1"></line><line transform="translate(252,-600)" x2="0" y2="600" stroke="#ddd" stroke-width="1" opacity="1"></line><line transform="translate(288,-600)" x2="0" y2="600" stroke="#ddd" stroke-width="1" opacity="1"></line><line transform="translate(324,-600)" x2="0" y2="600" stroke="#ddd" stroke-width="1" opacity="1"></line><line transform="translate(360,-600)" x2="0" y2="600" stroke="#ddd" stroke-width="1" opacity="1"></line><line transform="translate(396,-600)" x2="0" y2="600" stroke="#ddd" stroke-width="1" opacity="1"></line><line transform="translate(432,-600)" x2="0" y2="600" stroke="#ddd" stroke-width="1" opacity="1"></line><line transform="translate(468,-600)" x2="0" y2="600" stroke="#ddd" stroke-width="1" opacity="1"></line><line transform="translate(504,-600)" x2="0" y2="600" stroke="#ddd" stroke-width="1" opacity="1"></line><line transform="translate(540,-600)" x2="0" y2="600" stroke="#ddd" stroke-width="1" opacity="1"></line><line transform="translate(576,-600)" x2="0" y2="600" stroke="#ddd" stroke-width="1" opacity="1"></line><line transform="translate(612,-600)" x2="0" y2="600" stroke="#ddd" stroke-width="1" opacity="1"></line><line transform="translate(648,-600)" x2="0" y2="600" stroke="#ddd" stroke-width="1" opacity="1"></line><line transform="translate(684,-600)" x2="0" y2="600" stroke="#ddd" stroke-width="1" opacity="1"></line><line transform="translate(720,-600)" x2="0" y2="600" stroke="#ddd" stroke-width="1" opacity="1"></line><line transform="translate(756,-600)" x2="0" y2="600" stroke="#ddd" stroke-width="1" opacity="1"></line><line transform="translate(792,-600)" x2="0" y2="600" stroke="#ddd" stroke-width="1" opacity="1"></line><line transform="translate(828,-600)" x2="0" y2="600" stroke="#ddd" stroke-width="1" opacity="1"></line><line transform="translate(864,-600)" x2="0" y2="600" stroke="#ddd" stroke-width="1" opacity="1"></line><line transform="translate(900,-600)" x2="0" y2="600" stroke="#ddd" stroke-width="1" opacity="1"></line></g></g><path class="foreground" aria-hidden="true" d="" pointer-events="none" display="none"></path></g></g><g class="mark-group role-axis" aria-hidden="true"><g transform="translate(0.5,0.5)"><path class="background" aria-hidden="true" d="M0,0h0v0h0Z" pointer-events="none"></path><g><g class="mark-rule role-axis-grid" pointer-events="none"><line transform="translate(0,600)" x2="900" y2="0" stroke="#ddd" stroke-width="1" opacity="1"></line><line transform="translate(0,563)" x2="900" y2="0" stroke="#ddd" stroke-width="1" opacity="1"></line><line transform="translate(0,525)" x2="900" y2="0" stroke="#ddd" stroke-width="1" opacity="1"></line><line transform="translate(0,488)" x2="900" y2="0" stroke="#ddd" stroke-width="1" opacity="1"></line><line transform="translate(0,450)" x2="900" y2="0" stroke="#ddd" stroke-width="1" opacity="1"></line><line transform="translate(0,413)" x2="900" y2="0" stroke="#ddd" stroke-width="1" opacity="1"></line><line transform="translate(0,375)" x2="900" y2="0" stroke="#ddd" stroke-width="1" opacity="1"></line><line transform="translate(0,338)" x2="900" y2="0" stroke="#ddd" stroke-width="1" opacity="1"></line><line transform="translate(0,300)" x2="900" y2="0" stroke="#ddd" stroke-width="1" opacity="1"></line><line transform="translate(0,263)" x2="900" y2="0" stroke="#ddd" stroke-width="1" opacity="1"></line><line transform="translate(0,225)" x2="900" y2="0" stroke="#ddd" stroke-width="1" opacity="1"></line><line transform="translate(0,188)" x2="900" y2="0" stroke="#ddd" stroke-width="1" opacity="1"></line><line transform="translate(0,150)" x2="900" y2="0" stroke="#ddd" stroke-width="1" opacity="1"></line><line transform="translate(0,113)" x2="900" y2="0" stroke="#ddd" stroke-width="1" opacity="1"></line><line transform="translate(0,75)" x2="900" y2="0" stroke="#ddd" stroke-width="1" opacity="1"></line><line transform="translate(0,38)" x2="900" y2="0" stroke="#ddd" stroke-width="1" opacity="1"></line><line transform="translate(0,0)" x2="900" y2="0" stroke="#ddd" stroke-width="1" opacity="1"></line></g></g><path class="foreground" aria-hidden="true" d="" pointer-events="none" display="none"></path></g></g><g class="mark-group role-axis" role="graphics-symbol" aria-roledescription="axis" aria-label="X-axis titled 'Size' for a linear scale with values from 0 to 50"><g transform="translate(0.5,600.5)"><path class="background" aria-hidden="true" d="M0,0h0v0h0Z" pointer-events="none"></path><g><g class="mark-rule role-axis-tick" pointer-events="none"><line transform="translate(0,0)" x2="0" y2="5" stroke="#888" stroke-width="1" opacity="1"></line><line transform="translate(36,0)" x2="0" y2="5" stroke="#888" stroke-width="1" opacity="1"></line><line transform="translate(72,0)" x2="0" y2="5" stroke="#888" stroke-width="1" opacity="1"></line><line transform="translate(108,0)" x2="0" y2="5" stroke="#888" stroke-width="1" opacity="1"></line><line transform="translate(144,0)" x2="0" y2="5" stroke="#888" stroke-width="1" opacity="1"></line><line transform="translate(180,0)" x2="0" y2="5" stroke="#888" stroke-width="1" opacity="1"></line><line transform="translate(216,0)" x2="0" y2="5" stroke="#888" stroke-width="1" opacity="1"></line><line transform="translate(252,0)" x2="0" y2="5" stroke="#888" stroke-width="1" opacity="1"></line><line transform="translate(288,0)" x2="0" y2="5" stroke="#888" stroke-width="1" opacity="1"></line><line transform="translate(324,0)" x2="0" y2="5" stroke="#888" stroke-width="1" opacity="1"></line><line transform="translate(360,0)" x2="0" y2="5" stroke="#888" stroke-width="1" opacity="1"></line><line transform="translate(396,0)" x2="0" y2="5" stroke="#888" stroke-width="1" opacity="1"></line><line transform="translate(432,0)" x2="0" y2="5" stroke="#888" stroke-width="1" opacity="1"></line><line transform="translate(468,0)" x2="0" y2="5" stroke="#888" stroke-width="1" opacity="1"></line><line transform="translate(504,0)" x2="0" y2="5" stroke="#888" stroke-width="1" opacity="1"></line><line transform="translate(540,0)" x2="0" y2="5" stroke="#888" stroke-width="1" opacity="1"></line><line transform="translate(576,0)" x2="0" y2="5" stroke="#888" stroke-width="1" opacity="1"></line><line transform="translate(612,0)" x2="0" y2="5" stroke="#888" stroke-width="1" opacity="1"></line><line transform="translate(648,0)" x2="0" y2="5" stroke="#888" stroke-width="1" opacity="1"></line><line transform="translate(684,0)" x2="0" y2="5" stroke="#888" stroke-width="1" opacity="1"></line><line transform="translate(720,0)" x2="0" y2="5" stroke="#888" stroke-width="1" opacity="1"></line><line transform="translate(756,0)" x2="0" y2="5" stroke="#888" stroke-width="1" opacity="1"></line><line transform="translate(792,0)" x2="0" y2="5" stroke="#888" stroke-width="1" opacity="1"></line><line transform="translate(828,0)" x2="0" y2="5" stroke="#888" stroke-width="1" opacity="1"></line><line transform="translate(864,0)" x2="0" y2="5" stroke="#888" stroke-width="1" opacity="1"></line><line transform="translate(900,0)" x2="0" y2="5" stroke="#888" stroke-width="1" opacity="1"></line></g><g class="mark-text role-axis-label" pointer-events="none"><text text-anchor="start" transform="translate(0,15)" font-family="sans-serif" font-size="10px" fill="#000" opacity="1">0</text><text text-anchor="middle" transform="translate(36,15)" font-family="sans-serif" font-size="10px" fill="#000" opacity="1">2</text><text text-anchor="middle" transform="translate(72,15)" font-family="sans-serif" font-size="10px" fill="#000" opacity="1">4</text><text text-anchor="middle" transform="translate(108,15)" font-family="sans-serif" font-size="10px" fill="#000" opacity="1">6</text><text text-anchor="middle" transform="translate(144,15)" font-family="sans-serif" font-size="10px" fill="#000" opacity="1">8</text><text text-anchor="middle" transform="translate(180,15)" font-family="sans-serif" font-size="10px" fill="#000" opacity="1">10</text><text text-anchor="middle" transform="translate(216,15)" font-family="sans-serif" font-size="10px" fill="#000" opacity="1">12</text><text text-anchor="middle" transform="translate(252.00000000000003,15)" font-family="sans-serif" font-size="10px" fill="#000" opacity="1">14</text><text text-anchor="middle" transform="translate(288,15)" font-family="sans-serif" font-size="10px" fill="#000" opacity="1">16</text><text text-anchor="middle" transform="translate(324,15)" font-family="sans-serif" font-size="10px" fill="#000" opacity="1">18</text><text text-anchor="middle" transform="translate(360,15)" font-family="sans-serif" font-size="10px" fill="#000" opacity="1">20</text><text text-anchor="middle" transform="translate(396,15)" font-family="sans-serif" font-size="10px" fill="#000" opacity="1">22</text><text text-anchor="middle" transform="translate(432,15)" font-family="sans-serif" font-size="10px" fill="#000" opacity="1">24</text><text text-anchor="middle" transform="translate(468,15)" font-family="sans-serif" font-size="10px" fill="#000" opacity="1">26</text><text text-anchor="middle" transform="translate(504.00000000000006,15)" font-family="sans-serif" font-size="10px" fill="#000" opacity="1">28</text><text text-anchor="middle" transform="translate(540,15)" font-family="sans-serif" font-size="10px" fill="#000" opacity="1">30</text><text text-anchor="middle" transform="translate(576,15)" font-family="sans-serif" font-size="10px" fill="#000" opacity="1">32</text><text text-anchor="middle" transform="translate(612,15)" font-family="sans-serif" font-size="10px" fill="#000" opacity="1">34</text><text text-anchor="middle" transform="translate(648,15)" font-family="sans-serif" font-size="10px" fill="#000" opacity="1">36</text><text text-anchor="middle" transform="translate(684,15)" font-family="sans-serif" font-size="10px" fill="#000" opacity="1">38</text><text text-anchor="middle" transform="translate(720,15)" font-family="sans-serif" font-size="10px" fill="#000" opacity="1">40</text><text text-anchor="middle" transform="translate(756,15)" font-family="sans-serif" font-size="10px" fill="#000" opacity="1">42</text><text text-anchor="middle" transform="translate(792,15)" font-family="sans-serif" font-size="10px" fill="#000" opacity="1">44</text><text text-anchor="middle" transform="translate(828,15)" font-family="sans-serif" font-size="10px" fill="#000" opacity="1">46</text><text text-anchor="middle" transform="translate(864,15)" font-family="sans-serif" font-size="10px" fill="#000" opacity="1">48</text><text text-anchor="end" transform="translate(900,15)" font-family="sans-serif" font-size="10px" fill="#000" opacity="1">50</text></g><g class="mark-rule role-axis-domain" pointer-events="none"><line transform="translate(0,0)" x2="900" y2="0" stroke="#888" stroke-width="1" opacity="1"></line></g><g class="mark-text role-axis-title" pointer-events="none"><text text-anchor="middle" transform="translate(450,30)" font-family="sans-serif" font-size="11px" font-weight="bold" fill="#000" opacity="1">Size</text></g></g><path class="foreground" aria-hidden="true" d="" pointer-events="none" display="none"></path></g></g><g class="mark-group role-axis" role="graphics-symbol" aria-roledescription="axis" aria-label="Y-axis titled 'GFLOPS' for a linear scale with values from 0 to 80"><g transform="translate(0.5,0.5)"><path class="background" aria-hidden="true" d="M0,0h0v0h0Z" pointer-events="none"></path><g><g class="mark-rule role-axis-tick" pointer-events="none"><line transform="translate(0,600)" x2="-5" y2="0" stroke="#888" stroke-width="1" opacity="1"></line><line transform="translate(0,563)" x2="-5" y2="0" stroke="#888" stroke-width="1" opacity="1"></line><line transform="translate(0,525)" x2="-5" y2="0" stroke="#888" stroke-width="1" opacity="1"></line><line transform="translate(0,488)" x2="-5" y2="0" stroke="#888" stroke-width="1" opacity="1"></line><line transform="translate(0,450)" x2="-5" y2="0" stroke="#888" stroke-width="1" opacity="1"></line><line transform="translate(0,413)" x2="-5" y2="0" stroke="#888" stroke-width="1" opacity="1"></line><line transform="translate(0,375)" x2="-5" y2="0" stroke="#888" stroke-width="1" opacity="1"></line><line transform="translate(0,338)" x2="-5" y2="0" stroke="#888" stroke-width="1" opacity="1"></line><line transform="translate(0,300)" x2="-5" y2="0" stroke="#888" stroke-width="1" opacity="1"></line><line transform="translate(0,263)" x2="-5" y2="0" stroke="#888" stroke-width="1" opacity="1"></line><line transform="translate(0,225)" x2="-5" y2="0" stroke="#888" stroke-width="1" opacity="1"></line><line transform="translate(0,188)" x2="-5" y2="0" stroke="#888" stroke-width="1" opacity="1"></line><line transform="translate(0,150)" x2="-5" y2="0" stroke="#888" stroke-width="1" opacity="1"></line><line transform="translate(0,113)" x2="-5" y2="0" stroke="#888" stroke-width="1" opacity="1"></line><line transform="translate(0,75)" x2="-5" y2="0" stroke="#888" stroke-width="1" opacity="1"></line><line transform="translate(0,38)" x2="-5" y2="0" stroke="#888" stroke-width="1" opacity="1"></line><line transform="translate(0,0)" x2="-5" y2="0" stroke="#888" stroke-width="1" opacity="1"></line></g><g class="mark-text role-axis-label" pointer-events="none"><text text-anchor="end" transform="translate(-7,603)" font-family="sans-serif" font-size="10px" fill="#000" opacity="1">0</text><text text-anchor="end" transform="translate(-7,565.5)" font-family="sans-serif" font-size="10px" fill="#000" opacity="1">5</text><text text-anchor="end" transform="translate(-7,528)" font-family="sans-serif" font-size="10px" fill="#000" opacity="1">10</text><text text-anchor="end" transform="translate(-7,490.5)" font-family="sans-serif" font-size="10px" fill="#000" opacity="1">15</text><text text-anchor="end" transform="translate(-7,453)" font-family="sans-serif" font-size="10px" fill="#000" opacity="1">20</text><text text-anchor="end" transform="translate(-7,415.5)" font-family="sans-serif" font-size="10px" fill="#000" opacity="1">25</text><text text-anchor="end" transform="translate(-7,378)" font-family="sans-serif" font-size="10px" fill="#000" opacity="1">30</text><text text-anchor="end" transform="translate(-7,340.5)" font-family="sans-serif" font-size="10px" fill="#000" opacity="1">35</text><text text-anchor="end" transform="translate(-7,303)" font-family="sans-serif" font-size="10px" fill="#000" opacity="1">40</text><text text-anchor="end" transform="translate(-7,265.5)" font-family="sans-serif" font-size="10px" fill="#000" opacity="1">45</text><text text-anchor="end" transform="translate(-7,228)" font-family="sans-serif" font-size="10px" fill="#000" opacity="1">50</text><text text-anchor="end" transform="translate(-7,190.5)" font-family="sans-serif" font-size="10px" fill="#000" opacity="1">55</text><text text-anchor="end" transform="translate(-7,153)" font-family="sans-serif" font-size="10px" fill="#000" opacity="1">60</text><text text-anchor="end" transform="translate(-7,115.5)" font-family="sans-serif" font-size="10px" fill="#000" opacity="1">65</text><text text-anchor="end" transform="translate(-7,78)" font-family="sans-serif" font-size="10px" fill="#000" opacity="1">70</text><text text-anchor="end" transform="translate(-7,40.5)" font-family="sans-serif" font-size="10px" fill="#000" opacity="1">75</text><text text-anchor="end" transform="translate(-7,3)" font-family="sans-serif" font-size="10px" fill="#000" opacity="1">80</text></g><g class="mark-rule role-axis-domain" pointer-events="none"><line transform="translate(0,600)" x2="0" y2="-600" stroke="#888" stroke-width="1" opacity="1"></line></g><g class="mark-text role-axis-title" pointer-events="none"><text text-anchor="middle" transform="translate(-23,300) rotate(-90) translate(0,-2)" font-family="sans-serif" font-size="11px" font-weight="bold" fill="#000" opacity="1">GFLOPS</text></g></g><path class="foreground" aria-hidden="true" d="" pointer-events="none" display="none"></path></g></g><g class="mark-group role-scope pathgroup" role="graphics-object" aria-roledescription="group mark container"><g transform="translate(0,0)"><path class="background" aria-hidden="true" d="M0,0h900v600h-900Z"></path><g><g class="mark-line role-mark marks" role="graphics-object" aria-roledescription="line mark container"><path aria-label="Size: 2; GFLOPS: 12.3647604328; MatMulType: SMatrix" role="graphics-symbol" aria-roledescription="line mark" d="M36,507.2642967542504L54,457.6449912126538L72,453.21100917431187L90,445.61732465177613L108,384.5038320559814L126.00000000000001,504.0184659090909L144,315.2163380911564L162,406.7199690095674L180,344.92181412021404L198,394.4162023889527L216,292.6620828772094L234,358.62700372494027L252.00000000000003,317.9866603853115L270,342.2643964249349L288,227.5699768229631L306,319.6035325294174L324,296.92350332594236L342,338.5124372475748L360,274.94714587737843L378,323.48310076253284L396,293.60903014760817L414,300.14857201870177L432,218.5947453000057L450,293.65414778668526L468,287.8010566587721L486.00000000000006,305.46189146049477L504.00000000000006,251.82787789628534L522,278.66930171278L540,268.9824274621986L558,285.5056654233232L576,245.2655889145496L594,376.8196246204803L612,297.50641354540784L630,377.7132378355543L648,320.3622802344166L666,321.58482960791497L684,321.4514552154621L702,330.7353608715388L720,311.03920535781464L738,344.51173874669024L756,333.28624815716387L774,288.9600312968638L792,337.4799683014881L810,309.7929936305732L828,361.69615459946465L846,322.711436880527L864,291.8298346646851" stroke="#e45756" stroke-width="2"></path></g></g><path class="foreground" aria-hidden="true" d="" display="none"></path></g><g transform="translate(0,0)"><path class="background" aria-hidden="true" d="M0,0h900v600h-900Z"></path><g><g class="mark-line role-mark marks" role="graphics-object" aria-roledescription="line mark container"><path aria-label="Size: 2; GFLOPS: 7.11427301023; MatMulType: MMatrix" role="graphics-symbol" aria-roledescription="line mark" d="M36,546.6429524232992L54,535.6530028598665L72,509.76289047798264L90,500.353144989339L108,486.8881793621277L126.00000000000001,480.799653647235L144,402.6940426193809L162,427.60293455901257L180,422.8273948382978L198,441.75295569125893L216,358.53350696183514L234,405.3922777417261L252.00000000000003,514.0295629820051L270,516.5964616680708L288,505.8043268411788L306,505.11838781666137L324,501.0978057728248L342,504.3286219081272L360,494.5333098962911L378,496.3398253861652L396,492.4299568965517L414,495.3586376927928L432,488.3300123862351L450,489.6135328902611L468,487.56290574799795L486.00000000000006,492.6902108068815L504.00000000000006,484.1334011025531L522,486.11696953188834L540,484.3559267587536L558,487.6906160660991L576,481.39813857290585L594,484.8946067964127L612,482.9928552527124L630,487.59503626671324L648,479.9691278621045L666,481.73292447543736L684,480.36280124422217L702,484.4322498944702L720,478.89491610949915L738,482.95992301596283L756,481.4339058999253L774,485.1276247351185L792,478.3780696744717L810,480.93423344947735L828,480.36381514257624L846,483.5107337871194L864,478.84312007011397" stroke="#4c78a8" stroke-width="2"></path></g></g><path class="foreground" aria-hidden="true" d="" display="none"></path></g><g transform="translate(0,0)"><path class="background" aria-hidden="true" d="M0,0h900v600h-900Z"></path><g><g class="mark-line role-mark marks" role="graphics-object" aria-roledescription="line mark container"><path aria-label="Size: 2; GFLOPS: 12.3361603701; MatMulType: StrideArray" role="graphics-symbol" aria-roledescription="line mark" d="M36,507.4787972243639L54,411.62790697674416L72,317.23122238586154L90,300.5270723526593L108,210.35752979414949L126.00000000000001,147.02961135101788L144,61.10947057582783L162,290.27169262365226L180,263.2576702419555L198,229.62322962181707L216,196.05087632722584L234,162.30091098101434L252.00000000000003,128.60670698972828L270,94.99243642364483L288,77.3448494099251L306,227.01684848786059L324,204.6331246259792L342,176.39469927378806L360,156.3168153091961L378,138.54872881355936L396,112.04608158486202L414,86.88783328225553L432,68.09838855096575L450,181.73021568928468L468,172.3720566027182L486.00000000000006,153.03816088889732L504.00000000000006,134.28045813304843L522,120.26606391055277L540,100.77041602465329L558,93.16247518921625L576,70.23433697239408L594,165.87339937182895L612,145.47837483617292L630,133.29100145137872L648,117.88371452190687L666,105.7279469164715L684,99.86024184237705L702,78.77394411575179L720,63.71711077593418L738,141.70352674613338L756,131.48397976391232L774,120.61433675748097L792,110.18655762841814L810,104.05664180608744L828,90.42695932058784L846,75.9942799461641L864,64.55356062134359" stroke="#72b7b2" stroke-width="2"></path></g></g><path class="foreground" aria-hidden="true" d="" display="none"></path></g><g transform="translate(0,0)"><path class="background" aria-hidden="true" d="M0,0h900v600h-900Z"></path><g><g class="mark-line role-mark marks" role="graphics-object" aria-roledescription="line mark container"><path aria-label="Size: 2; GFLOPS: 14.5454545455; MatMulType: PtrArray" role="graphics-symbol" aria-roledescription="line mark" d="M36,490.9090909090909L54,390.69767441860466L72,301.12079701120797L90,296.9452076935509L108,196.26294124984406L126.00000000000001,128.54017611447438L144,61.14735658042743L162,304.27414737875193L180,263.2653061224489L198,229.61625388454652L216,196.03158430972994L234,162.25899782492712L252.00000000000003,128.64044662348348L270,95.00312057037677L288,61.248043967787446L306,218.88352975888012L324,207.28768301643342L342,179.9045536510041L360,156.68861978613398L378,138.91053787047204L396,114.76381234036828L414,92.51135445770053L432,69.9829176631363L450,183.07892383580614L468,169.97054656625147L486.00000000000006,152.2714471403812L504.00000000000006,131.89960931906967L522,121.0373934814065L540,99.19415344429923L558,90.56044310604427L576,68.87062444742784L594,164.78685612788618L612,145.75853301487015L630,135.21355785213552L648,117.1519249344556L666,105.88866488912015L684,90.85735494247177L702,84.3619610570236L720,63.80697050938333L738,144.73088026618393L756,131.527868852459L774,119.69190495368507L792,108.72180451127808L810,102.17008619643066L828,88.08445985429896L846,76.01386967737116L864,65.26553308082845" stroke="#f58518" stroke-width="2"></path></g></g><path class="foreground" aria-hidden="true" d="" display="none"></path></g><g transform="translate(0,0)"><path class="background" aria-hidden="true" d="M0,0h900v600h-900Z"></path><g><g class="mark-line role-mark marks" role="graphics-object" aria-roledescription="line mark container"><path aria-label="Size: 2; GFLOPS: 1.44; MatMulType: jmul!" role="graphics-symbol" aria-roledescription="line mark" d="M36,589.2L54,567.8882974497498L72,539.5571257333922L90,481.9921801097307L108,411.7419655333023L126.00000000000001,328.3501032674893L144,267.32135867437916L162,390.86587139947625L180,350.07211089807754L198,294.2921828078078L216,260.75129533678756L234,222.57614258616366L252.00000000000003,192.58218919259343L270,157.84975718236507L288,116.06223479490806L306,257.7473133214118L324,238.20231603455667L342,208.25777619288633L360,179.47434292866072L378,172.88049194918688L396,132.63140939597312L414,120.54010199350942L432,89.443425377636L450,197.9617028535686L468,177.33555740895187L486.00000000000006,162.4989896657237L504.00000000000006,143.9990152230109L522,127.03646290950164L540,108.58460231753924L558,86.16898480861495L576,76.31050228310502L594,164.22392886014546L612,163.51521433330865L630,139.34173769787256L648,122.8472080179996L666,118.17172934238067L684,100.67944673622904L702,84.51132611088572L720,68.82089304487347L738,145.7089497583126L756,140.14344827586206L774,126.82749955916057L792,114.42638179284717L810,108.00371940489516L828,96.07455131155085L846,84.49354518371395L864,66.79095182610783" stroke="#54a24b" stroke-width="2"></path></g></g><path class="foreground" aria-hidden="true" d="" display="none"></path></g></g><g class="mark-group role-legend" role="graphics-symbol" aria-roledescription="legend" aria-label="Symbol legend titled 'MatMulType' for stroke color with 5 values: MMatrix, PtrArray, SMatrix, StrideArray, jmul!"><g transform="translate(918,0)"><path class="background" aria-hidden="true" d="M0,0h75v79h-75Z" pointer-events="none"></path><g><g class="mark-group role-legend-entry"><g transform="translate(0,16)"><path class="background" aria-hidden="true" d="M0,0h0v0h0Z" pointer-events="none"></path><g><g class="mark-group role-scope" role="graphics-object" aria-roledescription="group mark container"><g transform="translate(0,0)"><path class="background" aria-hidden="true" d="M0,0h72v11h-72Z" pointer-events="none" opacity="1"></path><g><g class="mark-symbol role-legend-symbol" pointer-events="none"><path transform="translate(6,6)" d="M-5,0L5,0" stroke="#4c78a8" stroke-width="1.5" opacity="1"></path></g><g class="mark-text role-legend-label" pointer-events="none"><text text-anchor="start" transform="translate(16,9)" font-family="sans-serif" font-size="10px" fill="#000" opacity="1">MMatrix</text></g></g><path class="foreground" aria-hidden="true" d="" pointer-events="none" display="none"></path></g><g transform="translate(0,13)"><path class="background" aria-hidden="true" d="M0,0h72v11h-72Z" pointer-events="none" opacity="1"></path><g><g class="mark-symbol role-legend-symbol" pointer-events="none"><path transform="translate(6,6)" d="M-5,0L5,0" stroke="#f58518" stroke-width="1.5" opacity="1"></path></g><g class="mark-text role-legend-label" pointer-events="none"><text text-anchor="start" transform="translate(16,9)" font-family="sans-serif" font-size="10px" fill="#000" opacity="1">PtrArray</text></g></g><path class="foreground" aria-hidden="true" d="" pointer-events="none" display="none"></path></g><g transform="translate(0,26)"><path class="background" aria-hidden="true" d="M0,0h72v11h-72Z" pointer-events="none" opacity="1"></path><g><g class="mark-symbol role-legend-symbol" pointer-events="none"><path transform="translate(6,6)" d="M-5,0L5,0" stroke="#e45756" stroke-width="1.5" opacity="1"></path></g><g class="mark-text role-legend-label" pointer-events="none"><text text-anchor="start" transform="translate(16,9)" font-family="sans-serif" font-size="10px" fill="#000" opacity="1">SMatrix</text></g></g><path class="foreground" aria-hidden="true" d="" pointer-events="none" display="none"></path></g><g transform="translate(0,39)"><path class="background" aria-hidden="true" d="M0,0h72v11h-72Z" pointer-events="none" opacity="1"></path><g><g class="mark-symbol role-legend-symbol" pointer-events="none"><path transform="translate(6,6)" d="M-5,0L5,0" stroke="#72b7b2" stroke-width="1.5" opacity="1"></path></g><g class="mark-text role-legend-label" pointer-events="none"><text text-anchor="start" transform="translate(16,9)" font-family="sans-serif" font-size="10px" fill="#000" opacity="1">StrideArray</text></g></g><path class="foreground" aria-hidden="true" d="" pointer-events="none" display="none"></path></g><g transform="translate(0,52)"><path class="background" aria-hidden="true" d="M0,0h72v11h-72Z" pointer-events="none" opacity="1"></path><g><g class="mark-symbol role-legend-symbol" pointer-events="none"><path transform="translate(6,6)" d="M-5,0L5,0" stroke="#54a24b" stroke-width="1.5" opacity="1"></path></g><g class="mark-text role-legend-label" pointer-events="none"><text text-anchor="start" transform="translate(16,9)" font-family="sans-serif" font-size="10px" fill="#000" opacity="1">jmul!</text></g></g><path class="foreground" aria-hidden="true" d="" pointer-events="none" display="none"></path></g></g></g><path class="foreground" aria-hidden="true" d="" pointer-events="none" display="none"></path></g></g><g class="mark-text role-legend-title" pointer-events="none"><text text-anchor="start" transform="translate(0,9)" font-family="sans-serif" font-size="11px" font-weight="bold" fill="#000" opacity="1">MatMulType</text></g></g><path class="foreground" aria-hidden="true" d="" pointer-events="none" display="none"></path></g></g></g><path class="foreground" aria-hidden="true" d="" display="none"></path></g></g></g></svg>
